<?xml version="1.0" encoding="UTF-8" standalone="no"?>
<!DOCTYPE svg PUBLIC "-//W3C//DTD SVG 1.1//EN"
 "http://www.w3.org/Graphics/SVG/1.1/DTD/svg11.dtd">
<!-- Generated by graphviz version 2.26.3 (20100126.1600)
 -->
<!-- Title: g Pages: 1 -->
<svg width="298pt" height="244pt"
 viewBox="0.00 0.00 298.00 244.00" xmlns="http://www.w3.org/2000/svg" xmlns:xlink="http://www.w3.org/1999/xlink">
<g id="graph1" class="graph" transform="scale(1 1) rotate(0) translate(4 240)">
<title>g</title>
<polygon fill="white" stroke="white" points="-4,5 -4,-240 295,-240 295,5 -4,5"/>
<!-- N0 -->
<g id="node1" class="node"><title>N0</title>
<polygon fill="#ffffff" stroke="#ffffff" stroke-width="1.5" points="12,-90 68,-90 80,-102 80,-124 68,-136 12,-136 0,-124 0,-102 12,-90"/>
<path fill="#ffffff" stroke="#ffffff" stroke-width="1.5" d="M68,-90C74,-90 80,-96 80,-102"/>
<path fill="#ffffff" stroke="#ffffff" stroke-width="1.5" d="M80,-124C80,-130 74,-136 68,-136"/>
<path fill="#ffffff" stroke="#ffffff" stroke-width="1.5" d="M12,-136C6,-136 0,-130 0,-124"/>
<path fill="#ffffff" stroke="#ffffff" stroke-width="1.5" d="M0,-102C0,-96 6,-90 12,-90"/>
<polyline fill="none" stroke="#2e3436" stroke-width="1.5" points="12,-90 68,-90 "/>
<path fill="none" stroke="#2e3436" stroke-width="1.5" d="M68,-90C74,-90 80,-96 80,-102"/>
<polyline fill="none" stroke="#2e3436" stroke-width="1.5" points="80,-102 80,-124 "/>
<path fill="none" stroke="#2e3436" stroke-width="1.5" d="M80,-124C80,-130 74,-136 68,-136"/>
<polyline fill="none" stroke="#2e3436" stroke-width="1.5" points="68,-136 12,-136 "/>
<path fill="none" stroke="#2e3436" stroke-width="1.5" d="M12,-136C6,-136 0,-130 0,-124"/>
<polyline fill="none" stroke="#2e3436" stroke-width="1.5" points="0,-124 0,-102 "/>
<path fill="none" stroke="#2e3436" stroke-width="1.5" d="M0,-102C0,-96 6,-90 12,-90"/>
<text text-anchor="middle" x="40" y="-124.8" font-family="FreeSans" font-size="8.00" fill="#1c2021">Person</text>
<polyline fill="none" stroke="#2e3436" stroke-width="1.5" points="0,-118 80,-118 "/>
<text text-anchor="start" x="8" y="-106.8" font-family="FreeSans" font-size="8.00" fill="#1c2021">name = &#39;D&#39;</text>
<text text-anchor="start" x="8" y="-96.8" font-family="FreeSans" font-size="8.00" fill="#1c2021">eyes = &#39;brown&#39;</text>
</g>
<!-- N1 -->
<g id="node2" class="node"><title>N1</title>
<polygon fill="#ffffff" stroke="#ffffff" stroke-width="1.5" points="121,-189 173,-189 185,-201 185,-223 173,-235 121,-235 109,-223 109,-201 121,-189"/>
<path fill="#ffffff" stroke="#ffffff" stroke-width="1.5" d="M173,-189C179,-189 185,-195 185,-201"/>
<path fill="#ffffff" stroke="#ffffff" stroke-width="1.5" d="M185,-223C185,-229 179,-235 173,-235"/>
<path fill="#ffffff" stroke="#ffffff" stroke-width="1.5" d="M121,-235C115,-235 109,-229 109,-223"/>
<path fill="#ffffff" stroke="#ffffff" stroke-width="1.5" d="M109,-201C109,-195 115,-189 121,-189"/>
<polyline fill="none" stroke="#2e3436" stroke-width="1.5" points="121,-189 173,-189 "/>
<path fill="none" stroke="#2e3436" stroke-width="1.5" d="M173,-189C179,-189 185,-195 185,-201"/>
<polyline fill="none" stroke="#2e3436" stroke-width="1.5" points="185,-201 185,-223 "/>
<path fill="none" stroke="#2e3436" stroke-width="1.5" d="M185,-223C185,-229 179,-235 173,-235"/>
<polyline fill="none" stroke="#2e3436" stroke-width="1.5" points="173,-235 121,-235 "/>
<path fill="none" stroke="#2e3436" stroke-width="1.5" d="M121,-235C115,-235 109,-229 109,-223"/>
<polyline fill="none" stroke="#2e3436" stroke-width="1.5" points="109,-223 109,-201 "/>
<path fill="none" stroke="#2e3436" stroke-width="1.5" d="M109,-201C109,-195 115,-189 121,-189"/>
<text text-anchor="middle" x="147" y="-223.8" font-family="FreeSans" font-size="8.00" fill="#1c2021">Person</text>
<polyline fill="none" stroke="#2e3436" stroke-width="1.5" points="109,-217 185,-217 "/>
<text text-anchor="start" x="117" y="-205.8" font-family="FreeSans" font-size="8.00" fill="#1c2021">name = &#39;A&#39;</text>
<text text-anchor="start" x="117" y="-195.8" font-family="FreeSans" font-size="8.00" fill="#1c2021">property = 13</text>
</g>
<!-- N1&#45;&gt;N0 -->
<g id="edge6" class="edge"><title>N1&#45;&gt;N0</title>
<path fill="none" stroke="#2e3436" stroke-width="2" d="M121.913,-188.789C106.62,-174.639 86.9618,-156.451 70.7373,-141.439"/>
<polygon fill="#2e3436" stroke="#2e3436" points="64.9296,-136.066 72.7268,-138.682 68.0217,-138.245 70.7743,-140.792 70.4347,-141.159 70.0951,-141.526 67.3426,-138.979 68.1426,-143.637 64.9296,-136.066 64.9296,-136.066"/>
<text text-anchor="middle" x="115.5" y="-162.8" font-family="FreeSans" font-size="8.00" fill="#2e3436">KNOWS</text>
</g>
<!-- N2 -->
<g id="node4" class="node"><title>N2</title>
<polygon fill="#ffffff" stroke="#ffffff" stroke-width="1.5" points="121,-85 173,-85 185,-97 185,-129 173,-141 121,-141 109,-129 109,-97 121,-85"/>
<path fill="#ffffff" stroke="#ffffff" stroke-width="1.5" d="M173,-85C179,-85 185,-91 185,-97"/>
<path fill="#ffffff" stroke="#ffffff" stroke-width="1.5" d="M185,-129C185,-135 179,-141 173,-141"/>
<path fill="#ffffff" stroke="#ffffff" stroke-width="1.5" d="M121,-141C115,-141 109,-135 109,-129"/>
<path fill="#ffffff" stroke="#ffffff" stroke-width="1.5" d="M109,-97C109,-91 115,-85 121,-85"/>
<polyline fill="none" stroke="#2e3436" stroke-width="1.5" points="121,-85 173,-85 "/>
<path fill="none" stroke="#2e3436" stroke-width="1.5" d="M173,-85C179,-85 185,-91 185,-97"/>
<polyline fill="none" stroke="#2e3436" stroke-width="1.5" points="185,-97 185,-129 "/>
<path fill="none" stroke="#2e3436" stroke-width="1.5" d="M185,-129C185,-135 179,-141 173,-141"/>
<polyline fill="none" stroke="#2e3436" stroke-width="1.5" points="173,-141 121,-141 "/>
<path fill="none" stroke="#2e3436" stroke-width="1.5" d="M121,-141C115,-141 109,-135 109,-129"/>
<polyline fill="none" stroke="#2e3436" stroke-width="1.5" points="109,-129 109,-97 "/>
<path fill="none" stroke="#2e3436" stroke-width="1.5" d="M109,-97C109,-91 115,-85 121,-85"/>
<text text-anchor="middle" x="147" y="-129.8" font-family="FreeSans" font-size="8.00" fill="#1c2021">Person</text>
<polyline fill="none" stroke="#2e3436" stroke-width="1.5" points="109,-123 185,-123 "/>
<text text-anchor="start" x="117" y="-111.8" font-family="FreeSans" font-size="8.00" fill="#1c2021">name = &#39;B&#39;</text>
<text text-anchor="start" x="117" y="-101.8" font-family="FreeSans" font-size="8.00" fill="#1c2021">property = 33</text>
<text text-anchor="start" x="117" y="-91.8" font-family="FreeSans" font-size="8.00" fill="#1c2021">eyes = &#39;blue&#39;</text>
</g>
<!-- N1&#45;&gt;N2 -->
<g id="edge2" class="edge"><title>N1&#45;&gt;N2</title>
<path fill="none" stroke="#2e3436" stroke-width="2" d="M147,-188.789C147,-176.845 147,-162.025 147,-148.666"/>
<polygon fill="#2e3436" stroke="#2e3436" points="147,-141.002 150.375,-148.502 147.5,-144.752 147.5,-148.502 147,-148.502 146.5,-148.502 146.5,-144.752 143.625,-148.502 147,-141.002 147,-141.002"/>
<text text-anchor="middle" x="162.5" y="-162.8" font-family="FreeSans" font-size="8.00" fill="#2e3436">KNOWS</text>
</g>
<!-- N3 -->
<g id="node6" class="node"><title>N3</title>
<polygon fill="#ffffff" stroke="#ffffff" stroke-width="1.5" points="226,-85 278,-85 290,-97 290,-129 278,-141 226,-141 214,-129 214,-97 226,-85"/>
<path fill="#ffffff" stroke="#ffffff" stroke-width="1.5" d="M278,-85C284,-85 290,-91 290,-97"/>
<path fill="#ffffff" stroke="#ffffff" stroke-width="1.5" d="M290,-129C290,-135 284,-141 278,-141"/>
<path fill="#ffffff" stroke="#ffffff" stroke-width="1.5" d="M226,-141C220,-141 214,-135 214,-129"/>
<path fill="#ffffff" stroke="#ffffff" stroke-width="1.5" d="M214,-97C214,-91 220,-85 226,-85"/>
<polyline fill="none" stroke="#2e3436" stroke-width="1.5" points="226,-85 278,-85 "/>
<path fill="none" stroke="#2e3436" stroke-width="1.5" d="M278,-85C284,-85 290,-91 290,-97"/>
<polyline fill="none" stroke="#2e3436" stroke-width="1.5" points="290,-97 290,-129 "/>
<path fill="none" stroke="#2e3436" stroke-width="1.5" d="M290,-129C290,-135 284,-141 278,-141"/>
<polyline fill="none" stroke="#2e3436" stroke-width="1.5" points="278,-141 226,-141 "/>
<path fill="none" stroke="#2e3436" stroke-width="1.5" d="M226,-141C220,-141 214,-135 214,-129"/>
<polyline fill="none" stroke="#2e3436" stroke-width="1.5" points="214,-129 214,-97 "/>
<path fill="none" stroke="#2e3436" stroke-width="1.5" d="M214,-97C214,-91 220,-85 226,-85"/>
<text text-anchor="middle" x="252" y="-129.8" font-family="FreeSans" font-size="8.00" fill="#1c2021">Person</text>
<polyline fill="none" stroke="#2e3436" stroke-width="1.5" points="214,-123 290,-123 "/>
<text text-anchor="start" x="222" y="-111.8" font-family="FreeSans" font-size="8.00" fill="#1c2021">name = &#39;C&#39;</text>
<text text-anchor="start" x="222" y="-101.8" font-family="FreeSans" font-size="8.00" fill="#1c2021">property = 44</text>
<text text-anchor="start" x="222" y="-91.8" font-family="FreeSans" font-size="8.00" fill="#1c2021">eyes = &#39;blue&#39;</text>
</g>
<!-- N1&#45;&gt;N3 -->
<g id="edge4" class="edge"><title>N1&#45;&gt;N3</title>
<path fill="none" stroke="#2e3436" stroke-width="2" d="M171.618,-188.789C184.996,-176.175 201.776,-160.354 216.54,-146.433"/>
<polygon fill="#2e3436" stroke="#2e3436" points="222.3,-141.002 219.159,-148.603 219.915,-143.939 217.187,-146.511 216.844,-146.148 216.501,-145.784 219.229,-143.211 214.528,-143.692 222.3,-141.002 222.3,-141.002"/>
<text text-anchor="middle" x="215.5" y="-162.8" font-family="FreeSans" font-size="8.00" fill="#2e3436">KNOWS</text>
</g>
<!-- N4 -->
<g id="node9" class="node"><title>N4</title>
<polygon fill="#ffffff" stroke="#ffffff" stroke-width="1.5" points="184,-1 224,-1 236,-13 236,-25 224,-37 184,-37 172,-25 172,-13 184,-1"/>
<path fill="#ffffff" stroke="#ffffff" stroke-width="1.5" d="M224,-1C230,-1 236,-7 236,-13"/>
<path fill="#ffffff" stroke="#ffffff" stroke-width="1.5" d="M236,-25C236,-31 230,-37 224,-37"/>
<path fill="#ffffff" stroke="#ffffff" stroke-width="1.5" d="M184,-37C178,-37 172,-31 172,-25"/>
<path fill="#ffffff" stroke="#ffffff" stroke-width="1.5" d="M172,-13C172,-7 178,-1 184,-1"/>
<polyline fill="none" stroke="#2e3436" stroke-width="1.5" points="184,-1 224,-1 "/>
<path fill="none" stroke="#2e3436" stroke-width="1.5" d="M224,-1C230,-1 236,-7 236,-13"/>
<polyline fill="none" stroke="#2e3436" stroke-width="1.5" points="236,-13 236,-25 "/>
<path fill="none" stroke="#2e3436" stroke-width="1.5" d="M236,-25C236,-31 230,-37 224,-37"/>
<polyline fill="none" stroke="#2e3436" stroke-width="1.5" points="224,-37 184,-37 "/>
<path fill="none" stroke="#2e3436" stroke-width="1.5" d="M184,-37C178,-37 172,-31 172,-25"/>
<polyline fill="none" stroke="#2e3436" stroke-width="1.5" points="172,-25 172,-13 "/>
<path fill="none" stroke="#2e3436" stroke-width="1.5" d="M172,-13C172,-7 178,-1 184,-1"/>
<text text-anchor="middle" x="204" y="-25.8" font-family="FreeSans" font-size="8.00" fill="#1c2021">Person</text>
<polyline fill="none" stroke="#2e3436" stroke-width="1.5" points="172,-19 236,-19 "/>
<text text-anchor="start" x="180" y="-7.8" font-family="FreeSans" font-size="8.00" fill="#1c2021">name = &#39;D&#39;</text>
</g>
<!-- N2&#45;&gt;N4 -->
<g id="edge8" class="edge"><title>N2&#45;&gt;N4</title>
<path fill="none" stroke="#2e3436" stroke-width="2" d="M164.102,-84.7969C172.015,-71.747 181.332,-56.3824 188.971,-43.7839"/>
<polygon fill="#2e3436" stroke="#2e3436" points="193.024,-37.1015 192.021,-45.2646 191.507,-40.5673 189.562,-43.7739 189.135,-43.5146 188.707,-43.2554 190.652,-40.0488 186.249,-41.7646 193.024,-37.1015 193.024,-37.1015"/>
<text text-anchor="middle" x="196.5" y="-58.8" font-family="FreeSans" font-size="8.00" fill="#2e3436">KNOWS</text>
</g>
<!-- N3&#45;&gt;N4 -->
<g id="edge10" class="edge"><title>N3&#45;&gt;N4</title>
<path fill="none" stroke="#2e3436" stroke-width="2" d="M237.598,-84.7969C230.935,-71.747 223.089,-56.3824 216.656,-43.7839"/>
<polygon fill="#2e3436" stroke="#2e3436" points="213.243,-37.1015 219.66,-42.2462 215.394,-40.2139 217.1,-43.5537 216.654,-43.7811 216.209,-44.0085 214.503,-40.6687 213.648,-45.316 213.243,-37.1015 213.243,-37.1015"/>
<text text-anchor="middle" x="243.5" y="-58.8" font-family="FreeSans" font-size="8.00" fill="#2e3436">KNOWS</text>
</g>
</g>
</svg>
