<?xml version="1.0" encoding="UTF-8" standalone="no"?>
<!DOCTYPE svg PUBLIC "-//W3C//DTD SVG 1.1//EN"
 "http://www.w3.org/Graphics/SVG/1.1/DTD/svg11.dtd">
<!-- Generated by graphviz version 2.26.3 (20100126.1600)
 -->
<!-- Title: g Pages: 1 -->
<svg width="229pt" height="130pt"
 viewBox="0.00 0.00 229.00 130.00" xmlns="http://www.w3.org/2000/svg" xmlns:xlink="http://www.w3.org/1999/xlink">
<g id="graph1" class="graph" transform="scale(1 1) rotate(0) translate(4 126)">
<title>g</title>
<polygon fill="white" stroke="white" points="-4,5 -4,-126 226,-126 226,5 -4,5"/>
<!-- N0 -->
<g id="node1" class="node"><title>N0</title>
<polygon fill="#ffffff" stroke="#ffffff" stroke-width="1.5" points="74,-85 146,-85 158,-97 158,-109 146,-121 74,-121 62,-109 62,-97 74,-85"/>
<path fill="#ffffff" stroke="#ffffff" stroke-width="1.5" d="M146,-85C152,-85 158,-91 158,-97"/>
<path fill="#ffffff" stroke="#ffffff" stroke-width="1.5" d="M158,-109C158,-115 152,-121 146,-121"/>
<path fill="#ffffff" stroke="#ffffff" stroke-width="1.5" d="M74,-121C68,-121 62,-115 62,-109"/>
<path fill="#ffffff" stroke="#ffffff" stroke-width="1.5" d="M62,-97C62,-91 68,-85 74,-85"/>
<polyline fill="none" stroke="#2e3436" stroke-width="1.5" points="74,-85 146,-85 "/>
<path fill="none" stroke="#2e3436" stroke-width="1.5" d="M146,-85C152,-85 158,-91 158,-97"/>
<polyline fill="none" stroke="#2e3436" stroke-width="1.5" points="158,-97 158,-109 "/>
<path fill="none" stroke="#2e3436" stroke-width="1.5" d="M158,-109C158,-115 152,-121 146,-121"/>
<polyline fill="none" stroke="#2e3436" stroke-width="1.5" points="146,-121 74,-121 "/>
<path fill="none" stroke="#2e3436" stroke-width="1.5" d="M74,-121C68,-121 62,-115 62,-109"/>
<polyline fill="none" stroke="#2e3436" stroke-width="1.5" points="62,-109 62,-97 "/>
<path fill="none" stroke="#2e3436" stroke-width="1.5" d="M62,-97C62,-91 68,-85 74,-85"/>
<text text-anchor="start" x="70" y="-100.8" font-family="FreeSans" font-size="8.00" fill="#1c2021">Node[0]name = &#39;A&#39;</text>
</g>
<!-- N1 -->
<g id="node3" class="node"><title>N1</title>
<polygon fill="#ffffff" stroke="#ffffff" stroke-width="1.5" points="11.5,-1 84.5,-1 96.5,-13 96.5,-25 84.5,-37 11.5,-37 -0.5,-25 -0.5,-13 11.5,-1"/>
<path fill="#ffffff" stroke="#ffffff" stroke-width="1.5" d="M84.5,-1C90.5,-1 96.5,-7 96.5,-13"/>
<path fill="#ffffff" stroke="#ffffff" stroke-width="1.5" d="M96.5,-25C96.5,-31 90.5,-37 84.5,-37"/>
<path fill="#ffffff" stroke="#ffffff" stroke-width="1.5" d="M11.5,-37C5.5,-37 -0.5,-31 -0.5,-25"/>
<path fill="#ffffff" stroke="#ffffff" stroke-width="1.5" d="M-0.5,-13C-0.5,-7 5.5,-1 11.5,-1"/>
<polyline fill="none" stroke="#2e3436" stroke-width="1.5" points="11.5,-1 84.5,-1 "/>
<path fill="none" stroke="#2e3436" stroke-width="1.5" d="M84.5,-1C90.5,-1 96.5,-7 96.5,-13"/>
<polyline fill="none" stroke="#2e3436" stroke-width="1.5" points="96.5,-13 96.5,-25 "/>
<path fill="none" stroke="#2e3436" stroke-width="1.5" d="M96.5,-25C96.5,-31 90.5,-37 84.5,-37"/>
<polyline fill="none" stroke="#2e3436" stroke-width="1.5" points="84.5,-37 11.5,-37 "/>
<path fill="none" stroke="#2e3436" stroke-width="1.5" d="M11.5,-37C5.5,-37 -0.5,-31 -0.5,-25"/>
<polyline fill="none" stroke="#2e3436" stroke-width="1.5" points="-0.5,-25 -0.5,-13 "/>
<path fill="none" stroke="#2e3436" stroke-width="1.5" d="M-0.5,-13C-0.5,-7 5.5,-1 11.5,-1"/>
<text text-anchor="start" x="7.5" y="-16.8" font-family="FreeSans" font-size="8.00" fill="#1c2021">Node[1]name = &#39;B&#39;</text>
</g>
<!-- N0&#45;&gt;N1 -->
<g id="edge2" class="edge"><title>N0&#45;&gt;N1</title>
<path fill="none" stroke="#2e3436" stroke-width="2" d="M96.5469,-84.7733C87.6099,-72.665 75.7717,-56.6261 66.0229,-43.4181"/>
<polygon fill="#2e3436" stroke="#2e3436" points="61.4268,-37.1912 68.5962,-41.2212 64.0561,-39.9114 66.283,-42.9286 65.8808,-43.2255 65.4785,-43.5224 63.2515,-40.5053 63.1653,-45.2298 61.4268,-37.1912 61.4268,-37.1912"/>
<text text-anchor="middle" x="96.5" y="-58.8" font-family="FreeSans" font-size="8.00" fill="#2e3436">KNOWS</text>
</g>
<!-- N2 -->
<g id="node5" class="node"><title>N2</title>
<polygon fill="#ffffff" stroke="#ffffff" stroke-width="1.5" points="136.5,-1 209.5,-1 221.5,-13 221.5,-25 209.5,-37 136.5,-37 124.5,-25 124.5,-13 136.5,-1"/>
<path fill="#ffffff" stroke="#ffffff" stroke-width="1.5" d="M209.5,-1C215.5,-1 221.5,-7 221.5,-13"/>
<path fill="#ffffff" stroke="#ffffff" stroke-width="1.5" d="M221.5,-25C221.5,-31 215.5,-37 209.5,-37"/>
<path fill="#ffffff" stroke="#ffffff" stroke-width="1.5" d="M136.5,-37C130.5,-37 124.5,-31 124.5,-25"/>
<path fill="#ffffff" stroke="#ffffff" stroke-width="1.5" d="M124.5,-13C124.5,-7 130.5,-1 136.5,-1"/>
<polyline fill="none" stroke="#2e3436" stroke-width="1.5" points="136.5,-1 209.5,-1 "/>
<path fill="none" stroke="#2e3436" stroke-width="1.5" d="M209.5,-1C215.5,-1 221.5,-7 221.5,-13"/>
<polyline fill="none" stroke="#2e3436" stroke-width="1.5" points="221.5,-13 221.5,-25 "/>
<path fill="none" stroke="#2e3436" stroke-width="1.5" d="M221.5,-25C221.5,-31 215.5,-37 209.5,-37"/>
<polyline fill="none" stroke="#2e3436" stroke-width="1.5" points="209.5,-37 136.5,-37 "/>
<path fill="none" stroke="#2e3436" stroke-width="1.5" d="M136.5,-37C130.5,-37 124.5,-31 124.5,-25"/>
<polyline fill="none" stroke="#2e3436" stroke-width="1.5" points="124.5,-25 124.5,-13 "/>
<path fill="none" stroke="#2e3436" stroke-width="1.5" d="M124.5,-13C124.5,-7 130.5,-1 136.5,-1"/>
<text text-anchor="start" x="132.5" y="-16.8" font-family="FreeSans" font-size="8.00" fill="#1c2021">Node[2]name = &#39;C&#39;</text>
</g>
<!-- N0&#45;&gt;N2 -->
<g id="edge4" class="edge"><title>N0&#45;&gt;N2</title>
<path fill="none" stroke="#2e3436" stroke-width="2" d="M123.67,-84.7733C132.751,-72.665 144.78,-56.6261 154.686,-43.4181"/>
<polygon fill="#2e3436" stroke="#2e3436" points="159.357,-37.1912 157.557,-45.2162 157.507,-40.4912 155.257,-43.4912 154.857,-43.1912 154.457,-42.8912 156.707,-39.8912 152.157,-41.1662 159.357,-37.1912 159.357,-37.1912"/>
<text text-anchor="middle" x="158.5" y="-58.8" font-family="FreeSans" font-size="8.00" fill="#2e3436">KNOWS</text>
</g>
</g>
</svg>
