<?xml version="1.0" encoding="UTF-8" standalone="no"?>
<!DOCTYPE svg PUBLIC "-//W3C//DTD SVG 1.1//EN"
 "http://www.w3.org/Graphics/SVG/1.1/DTD/svg11.dtd">
<!-- Generated by graphviz version 2.26.3 (20100126.1600)
 -->
<!-- Title: g Pages: 1 -->
<svg width="504pt" height="174pt"
 viewBox="0.00 0.00 504.00 174.22" xmlns="http://www.w3.org/2000/svg" xmlns:xlink="http://www.w3.org/1999/xlink">
<g id="graph1" class="graph" transform="scale(0.777778 0.777778) rotate(0) translate(4 220)">
<title>g</title>
<polygon fill="white" stroke="white" points="-4,5 -4,-220 645,-220 645,5 -4,5"/>
<!-- N0 -->
<g id="node1" class="node"><title>N0</title>
<polygon fill="#ffffff" stroke="#ffffff" stroke-width="1.5" points="12,-95 98,-95 110,-107 110,-119 98,-131 12,-131 0,-119 0,-107 12,-95"/>
<path fill="#ffffff" stroke="#ffffff" stroke-width="1.5" d="M98,-95C104,-95 110,-101 110,-107"/>
<path fill="#ffffff" stroke="#ffffff" stroke-width="1.5" d="M110,-119C110,-125 104,-131 98,-131"/>
<path fill="#ffffff" stroke="#ffffff" stroke-width="1.5" d="M12,-131C6,-131 0,-125 0,-119"/>
<path fill="#ffffff" stroke="#ffffff" stroke-width="1.5" d="M0,-107C0,-101 6,-95 12,-95"/>
<polyline fill="none" stroke="#2e3436" stroke-width="1.5" points="12,-95 98,-95 "/>
<path fill="none" stroke="#2e3436" stroke-width="1.5" d="M98,-95C104,-95 110,-101 110,-107"/>
<polyline fill="none" stroke="#2e3436" stroke-width="1.5" points="110,-107 110,-119 "/>
<path fill="none" stroke="#2e3436" stroke-width="1.5" d="M110,-119C110,-125 104,-131 98,-131"/>
<polyline fill="none" stroke="#2e3436" stroke-width="1.5" points="98,-131 12,-131 "/>
<path fill="none" stroke="#2e3436" stroke-width="1.5" d="M12,-131C6,-131 0,-125 0,-119"/>
<polyline fill="none" stroke="#2e3436" stroke-width="1.5" points="0,-119 0,-107 "/>
<path fill="none" stroke="#2e3436" stroke-width="1.5" d="M0,-107C0,-101 6,-95 12,-95"/>
<text text-anchor="middle" x="55" y="-119.8" font-family="FreeSans" font-size="8.00" fill="#1c2021">Person</text>
<polyline fill="none" stroke="#2e3436" stroke-width="1.5" points="0,-113 110,-113 "/>
<text text-anchor="start" x="8" y="-101.8" font-family="FreeSans" font-size="8.00" fill="#1c2021">name = &#39;Oliver Stone&#39;</text>
</g>
<!-- N4 -->
<g id="node3" class="node"><title>N4</title>
<polygon fill="#ffffff" stroke="#ffffff" stroke-width="1.5" points="157,-1 233,-1 245,-13 245,-35 233,-47 157,-47 145,-35 145,-13 157,-1"/>
<path fill="#ffffff" stroke="#ffffff" stroke-width="1.5" d="M233,-1C239,-1 245,-7 245,-13"/>
<path fill="#ffffff" stroke="#ffffff" stroke-width="1.5" d="M245,-35C245,-41 239,-47 233,-47"/>
<path fill="#ffffff" stroke="#ffffff" stroke-width="1.5" d="M157,-47C151,-47 145,-41 145,-35"/>
<path fill="#ffffff" stroke="#ffffff" stroke-width="1.5" d="M145,-13C145,-7 151,-1 157,-1"/>
<polyline fill="none" stroke="#2e3436" stroke-width="1.5" points="157,-1 233,-1 "/>
<path fill="none" stroke="#2e3436" stroke-width="1.5" d="M233,-1C239,-1 245,-7 245,-13"/>
<polyline fill="none" stroke="#2e3436" stroke-width="1.5" points="245,-13 245,-35 "/>
<path fill="none" stroke="#2e3436" stroke-width="1.5" d="M245,-35C245,-41 239,-47 233,-47"/>
<polyline fill="none" stroke="#2e3436" stroke-width="1.5" points="233,-47 157,-47 "/>
<path fill="none" stroke="#2e3436" stroke-width="1.5" d="M157,-47C151,-47 145,-41 145,-35"/>
<polyline fill="none" stroke="#2e3436" stroke-width="1.5" points="145,-35 145,-13 "/>
<path fill="none" stroke="#2e3436" stroke-width="1.5" d="M145,-13C145,-7 151,-1 157,-1"/>
<text text-anchor="middle" x="195" y="-35.8" font-family="FreeSans" font-size="8.00" fill="#1c2021">Movie</text>
<polyline fill="none" stroke="#2e3436" stroke-width="1.5" points="145,-29 245,-29 "/>
<text text-anchor="start" x="153" y="-17.8" font-family="FreeSans" font-size="8.00" fill="#1c2021">name = &#39;WallStreet&#39;</text>
<text text-anchor="start" x="153" y="-7.8" font-family="FreeSans" font-size="8.00" fill="#1c2021">title = &#39;Wall Street&#39;</text>
</g>
<!-- N0&#45;&gt;N4 -->
<g id="edge2" class="edge"><title>N0&#45;&gt;N4</title>
<path fill="none" stroke="#2e3436" stroke-width="2" d="M71.016,-94.9671C80.0501,-85.5194 91.9238,-74.235 104,-66 114.455,-58.8705 126.314,-52.4022 137.935,-46.7948"/>
<polygon fill="#2e3436" stroke="#2e3436" points="144.738,-43.5942 139.389,-49.841 141.558,-45.6431 138.165,-47.2396 137.952,-46.7871 137.739,-46.3347 141.132,-44.7382 136.515,-43.7333 144.738,-43.5942 144.738,-43.5942"/>
<text text-anchor="middle" x="125" y="-68.8" font-family="FreeSans" font-size="8.00" fill="#2e3436">DIRECTED</text>
</g>
<!-- N1 -->
<g id="node4" class="node"><title>N1</title>
<polygon fill="#ffffff" stroke="#ffffff" stroke-width="1.5" points="203,-179 297,-179 309,-191 309,-203 297,-215 203,-215 191,-203 191,-191 203,-179"/>
<path fill="#ffffff" stroke="#ffffff" stroke-width="1.5" d="M297,-179C303,-179 309,-185 309,-191"/>
<path fill="#ffffff" stroke="#ffffff" stroke-width="1.5" d="M309,-203C309,-209 303,-215 297,-215"/>
<path fill="#ffffff" stroke="#ffffff" stroke-width="1.5" d="M203,-215C197,-215 191,-209 191,-203"/>
<path fill="#ffffff" stroke="#ffffff" stroke-width="1.5" d="M191,-191C191,-185 197,-179 203,-179"/>
<polyline fill="none" stroke="#2e3436" stroke-width="1.5" points="203,-179 297,-179 "/>
<path fill="none" stroke="#2e3436" stroke-width="1.5" d="M297,-179C303,-179 309,-185 309,-191"/>
<polyline fill="none" stroke="#2e3436" stroke-width="1.5" points="309,-191 309,-203 "/>
<path fill="none" stroke="#2e3436" stroke-width="1.5" d="M309,-203C309,-209 303,-215 297,-215"/>
<polyline fill="none" stroke="#2e3436" stroke-width="1.5" points="297,-215 203,-215 "/>
<path fill="none" stroke="#2e3436" stroke-width="1.5" d="M203,-215C197,-215 191,-209 191,-203"/>
<polyline fill="none" stroke="#2e3436" stroke-width="1.5" points="191,-203 191,-191 "/>
<path fill="none" stroke="#2e3436" stroke-width="1.5" d="M191,-191C191,-185 197,-179 203,-179"/>
<text text-anchor="middle" x="250" y="-203.8" font-family="FreeSans" font-size="8.00" fill="#1c2021">Person</text>
<polyline fill="none" stroke="#2e3436" stroke-width="1.5" points="191,-197 309,-197 "/>
<text text-anchor="start" x="199" y="-185.8" font-family="FreeSans" font-size="8.00" fill="#1c2021">name = &#39;Charlie Sheen&#39;</text>
</g>
<!-- N1&#45;&gt;N4 -->
<g id="edge4" class="edge"><title>N1&#45;&gt;N4</title>
<path fill="none" stroke="#4e9a06" stroke-width="2" d="M222.163,-178.916C207.217,-167.472 190.217,-151.222 182,-132 171.462,-107.35 176.608,-76.8294 183.284,-54.5284"/>
<polygon fill="#4e9a06" stroke="#4e9a06" points="185.587,-47.3009 186.526,-55.4716 184.925,-51.0258 183.787,-54.5989 183.31,-54.4471 182.834,-54.2953 183.972,-50.7223 180.095,-53.4227 185.587,-47.3009 185.587,-47.3009"/>
<text text-anchor="middle" x="202.5" y="-110.8" font-family="FreeSans" font-size="8.00" fill="#4e9a06">ACTED_IN</text>
</g>
<!-- N2 -->
<g id="node7" class="node"><title>N2</title>
<polygon fill="#ffffff" stroke="#ffffff" stroke-width="1.5" points="405,-95 495,-95 507,-107 507,-119 495,-131 405,-131 393,-119 393,-107 405,-95"/>
<path fill="#ffffff" stroke="#ffffff" stroke-width="1.5" d="M495,-95C501,-95 507,-101 507,-107"/>
<path fill="#ffffff" stroke="#ffffff" stroke-width="1.5" d="M507,-119C507,-125 501,-131 495,-131"/>
<path fill="#ffffff" stroke="#ffffff" stroke-width="1.5" d="M405,-131C399,-131 393,-125 393,-119"/>
<path fill="#ffffff" stroke="#ffffff" stroke-width="1.5" d="M393,-107C393,-101 399,-95 405,-95"/>
<polyline fill="none" stroke="#2e3436" stroke-width="1.5" points="405,-95 495,-95 "/>
<path fill="none" stroke="#2e3436" stroke-width="1.5" d="M495,-95C501,-95 507,-101 507,-107"/>
<polyline fill="none" stroke="#2e3436" stroke-width="1.5" points="507,-107 507,-119 "/>
<path fill="none" stroke="#2e3436" stroke-width="1.5" d="M507,-119C507,-125 501,-131 495,-131"/>
<polyline fill="none" stroke="#2e3436" stroke-width="1.5" points="495,-131 405,-131 "/>
<path fill="none" stroke="#2e3436" stroke-width="1.5" d="M405,-131C399,-131 393,-125 393,-119"/>
<polyline fill="none" stroke="#2e3436" stroke-width="1.5" points="393,-119 393,-107 "/>
<path fill="none" stroke="#2e3436" stroke-width="1.5" d="M393,-107C393,-101 399,-95 405,-95"/>
<text text-anchor="middle" x="450" y="-119.8" font-family="FreeSans" font-size="8.00" fill="#1c2021">Person</text>
<polyline fill="none" stroke="#2e3436" stroke-width="1.5" points="393,-113 507,-113 "/>
<text text-anchor="start" x="401" y="-101.8" font-family="FreeSans" font-size="8.00" fill="#1c2021">name = &#39;Martin Sheen&#39;</text>
</g>
<!-- N1&#45;&gt;N2 -->
<g id="edge6" class="edge"><title>N1&#45;&gt;N2</title>
<path fill="none" stroke="#a40000" stroke-width="2" d="M292.905,-178.98C324.17,-165.848 366.634,-148.014 399.531,-134.197"/>
<polygon fill="#a40000" stroke="#a40000" points="406.821,-131.135 401.213,-137.151 403.558,-133.048 400.1,-134.5 399.906,-134.039 399.713,-133.578 403.17,-132.126 398.6,-130.928 406.821,-131.135 406.821,-131.135"/>
<text text-anchor="middle" x="370.5" y="-152.8" font-family="FreeSans" font-size="8.00" fill="#a40000">FATHER</text>
</g>
<!-- N2&#45;&gt;N4 -->
<g id="edge8" class="edge"><title>N2&#45;&gt;N4</title>
<path fill="none" stroke="#4e9a06" stroke-width="2" d="M412.383,-94.9617C392.102,-85.6245 366.484,-74.4447 343,-66 313.584,-55.422 280.129,-45.7373 252.478,-38.3402"/>
<polygon fill="#4e9a06" stroke="#4e9a06" points="245.212,-36.4129 253.326,-35.0734 248.964,-36.891 252.589,-37.8524 252.461,-38.3357 252.333,-38.8189 248.708,-37.8576 251.596,-41.5979 245.212,-36.4129 245.212,-36.4129"/>
<text text-anchor="middle" x="386.5" y="-68.8" font-family="FreeSans" font-size="8.00" fill="#4e9a06">ACTED_IN</text>
</g>
<!-- N3 -->
<g id="node10" class="node"><title>N3</title>
<polygon fill="#ffffff" stroke="#ffffff" stroke-width="1.5" points="386,-1 516,-1 528,-13 528,-35 516,-47 386,-47 374,-35 374,-13 386,-1"/>
<path fill="#ffffff" stroke="#ffffff" stroke-width="1.5" d="M516,-1C522,-1 528,-7 528,-13"/>
<path fill="#ffffff" stroke="#ffffff" stroke-width="1.5" d="M528,-35C528,-41 522,-47 516,-47"/>
<path fill="#ffffff" stroke="#ffffff" stroke-width="1.5" d="M386,-47C380,-47 374,-41 374,-35"/>
<path fill="#ffffff" stroke="#ffffff" stroke-width="1.5" d="M374,-13C374,-7 380,-1 386,-1"/>
<polyline fill="none" stroke="#2e3436" stroke-width="1.5" points="386,-1 516,-1 "/>
<path fill="none" stroke="#2e3436" stroke-width="1.5" d="M516,-1C522,-1 528,-7 528,-13"/>
<polyline fill="none" stroke="#2e3436" stroke-width="1.5" points="528,-13 528,-35 "/>
<path fill="none" stroke="#2e3436" stroke-width="1.5" d="M528,-35C528,-41 522,-47 516,-47"/>
<polyline fill="none" stroke="#2e3436" stroke-width="1.5" points="516,-47 386,-47 "/>
<path fill="none" stroke="#2e3436" stroke-width="1.5" d="M386,-47C380,-47 374,-41 374,-35"/>
<polyline fill="none" stroke="#2e3436" stroke-width="1.5" points="374,-35 374,-13 "/>
<path fill="none" stroke="#2e3436" stroke-width="1.5" d="M374,-13C374,-7 380,-1 386,-1"/>
<text text-anchor="middle" x="451" y="-35.8" font-family="FreeSans" font-size="8.00" fill="#1c2021">Movie</text>
<polyline fill="none" stroke="#2e3436" stroke-width="1.5" points="374,-29 528,-29 "/>
<text text-anchor="start" x="382" y="-17.8" font-family="FreeSans" font-size="8.00" fill="#1c2021">name = &#39;TheAmericanPresident&#39;</text>
<text text-anchor="start" x="382" y="-7.8" font-family="FreeSans" font-size="8.00" fill="#1c2021">title = &#39;The American President&#39;</text>
</g>
<!-- N2&#45;&gt;N3 -->
<g id="edge10" class="edge"><title>N2&#45;&gt;N3</title>
<path fill="none" stroke="#4e9a06" stroke-width="2" d="M450.202,-94.9895C450.332,-83.4404 450.504,-68.1487 450.655,-54.7161"/>
<polygon fill="#4e9a06" stroke="#4e9a06" points="450.741,-47.0644 454.031,-54.6019 451.199,-50.8198 451.156,-54.5696 450.656,-54.5639 450.157,-54.5583 450.199,-50.8086 447.282,-54.526 450.741,-47.0644 450.741,-47.0644"/>
<text text-anchor="middle" x="470.5" y="-68.8" font-family="FreeSans" font-size="8.00" fill="#4e9a06">ACTED_IN</text>
</g>
<!-- N5 -->
<g id="node11" class="node"><title>N5</title>
<polygon fill="#ffffff" stroke="#ffffff" stroke-width="1.5" points="548,-95 628,-95 640,-107 640,-119 628,-131 548,-131 536,-119 536,-107 548,-95"/>
<path fill="#ffffff" stroke="#ffffff" stroke-width="1.5" d="M628,-95C634,-95 640,-101 640,-107"/>
<path fill="#ffffff" stroke="#ffffff" stroke-width="1.5" d="M640,-119C640,-125 634,-131 628,-131"/>
<path fill="#ffffff" stroke="#ffffff" stroke-width="1.5" d="M548,-131C542,-131 536,-125 536,-119"/>
<path fill="#ffffff" stroke="#ffffff" stroke-width="1.5" d="M536,-107C536,-101 542,-95 548,-95"/>
<polyline fill="none" stroke="#2e3436" stroke-width="1.5" points="548,-95 628,-95 "/>
<path fill="none" stroke="#2e3436" stroke-width="1.5" d="M628,-95C634,-95 640,-101 640,-107"/>
<polyline fill="none" stroke="#2e3436" stroke-width="1.5" points="640,-107 640,-119 "/>
<path fill="none" stroke="#2e3436" stroke-width="1.5" d="M640,-119C640,-125 634,-131 628,-131"/>
<polyline fill="none" stroke="#2e3436" stroke-width="1.5" points="628,-131 548,-131 "/>
<path fill="none" stroke="#2e3436" stroke-width="1.5" d="M548,-131C542,-131 536,-125 536,-119"/>
<polyline fill="none" stroke="#2e3436" stroke-width="1.5" points="536,-119 536,-107 "/>
<path fill="none" stroke="#2e3436" stroke-width="1.5" d="M536,-107C536,-101 542,-95 548,-95"/>
<text text-anchor="middle" x="588" y="-119.8" font-family="FreeSans" font-size="8.00" fill="#1c2021">Person</text>
<polyline fill="none" stroke="#2e3436" stroke-width="1.5" points="536,-113 640,-113 "/>
<text text-anchor="start" x="544" y="-101.8" font-family="FreeSans" font-size="8.00" fill="#1c2021">name = &#39;Rob Reiner&#39;</text>
</g>
<!-- N5&#45;&gt;N3 -->
<g id="edge12" class="edge"><title>N5&#45;&gt;N3</title>
<path fill="none" stroke="#2e3436" stroke-width="2" d="M560.276,-94.9895C540.92,-82.4151 514.734,-65.4038 492.848,-51.1862"/>
<polygon fill="#2e3436" stroke="#2e3436" points="486.504,-47.0644 494.632,-48.32 489.921,-48.688 493.065,-50.731 492.793,-51.1503 492.521,-51.5696 489.376,-49.5266 490.954,-53.9805 486.504,-47.0644 486.504,-47.0644"/>
<text text-anchor="middle" x="548" y="-68.8" font-family="FreeSans" font-size="8.00" fill="#2e3436">DIRECTED</text>
</g>
<!-- N6 -->
<g id="node13" class="node"><title>N6</title>
<polygon fill="#ffffff" stroke="#ffffff" stroke-width="1.5" points="249.5,-95 352.5,-95 364.5,-107 364.5,-119 352.5,-131 249.5,-131 237.5,-119 237.5,-107 249.5,-95"/>
<path fill="#ffffff" stroke="#ffffff" stroke-width="1.5" d="M352.5,-95C358.5,-95 364.5,-101 364.5,-107"/>
<path fill="#ffffff" stroke="#ffffff" stroke-width="1.5" d="M364.5,-119C364.5,-125 358.5,-131 352.5,-131"/>
<path fill="#ffffff" stroke="#ffffff" stroke-width="1.5" d="M249.5,-131C243.5,-131 237.5,-125 237.5,-119"/>
<path fill="#ffffff" stroke="#ffffff" stroke-width="1.5" d="M237.5,-107C237.5,-101 243.5,-95 249.5,-95"/>
<polyline fill="none" stroke="#2e3436" stroke-width="1.5" points="249.5,-95 352.5,-95 "/>
<path fill="none" stroke="#2e3436" stroke-width="1.5" d="M352.5,-95C358.5,-95 364.5,-101 364.5,-107"/>
<polyline fill="none" stroke="#2e3436" stroke-width="1.5" points="364.5,-107 364.5,-119 "/>
<path fill="none" stroke="#2e3436" stroke-width="1.5" d="M364.5,-119C364.5,-125 358.5,-131 352.5,-131"/>
<polyline fill="none" stroke="#2e3436" stroke-width="1.5" points="352.5,-131 249.5,-131 "/>
<path fill="none" stroke="#2e3436" stroke-width="1.5" d="M249.5,-131C243.5,-131 237.5,-125 237.5,-119"/>
<polyline fill="none" stroke="#2e3436" stroke-width="1.5" points="237.5,-119 237.5,-107 "/>
<path fill="none" stroke="#2e3436" stroke-width="1.5" d="M237.5,-107C237.5,-101 243.5,-95 249.5,-95"/>
<text text-anchor="middle" x="301" y="-119.8" font-family="FreeSans" font-size="8.00" fill="#1c2021">Person</text>
<polyline fill="none" stroke="#2e3436" stroke-width="1.5" points="237.5,-113 364.5,-113 "/>
<text text-anchor="start" x="245.5" y="-101.8" font-family="FreeSans" font-size="8.00" fill="#1c2021">name = &#39;Michael Douglas&#39;</text>
</g>
<!-- N6&#45;&gt;N4 -->
<g id="edge14" class="edge"><title>N6&#45;&gt;N4</title>
<path fill="none" stroke="#4e9a06" stroke-width="2" d="M251.702,-94.8919C241.799,-89.7858 231.993,-83.5212 224,-76 217.487,-69.8715 212.064,-61.9463 207.738,-54.1387"/>
<polygon fill="#4e9a06" stroke="#4e9a06" points="204.074,-47.0564 210.518,-52.1669 206.242,-50.1573 207.965,-53.488 207.521,-53.7178 207.077,-53.9475 205.353,-50.6169 204.523,-55.2686 204.074,-47.0564 204.074,-47.0564"/>
<text text-anchor="middle" x="244.5" y="-68.8" font-family="FreeSans" font-size="8.00" fill="#4e9a06">ACTED_IN</text>
</g>
<!-- N6&#45;&gt;N3 -->
<g id="edge16" class="edge"><title>N6&#45;&gt;N3</title>
<path fill="none" stroke="#4e9a06" stroke-width="2" d="M295.061,-94.8262C293.144,-85.3373 292.866,-74.0584 299,-66 307.943,-54.2514 336.332,-44.9472 366.194,-38.1131"/>
<polygon fill="#4e9a06" stroke="#4e9a06" points="373.807,-36.4288 367.213,-41.3443 370.253,-37.7271 366.592,-38.5372 366.484,-38.049 366.376,-37.5608 370.037,-36.7507 365.755,-34.7537 373.807,-36.4288 373.807,-36.4288"/>
<text text-anchor="middle" x="319.5" y="-68.8" font-family="FreeSans" font-size="8.00" fill="#4e9a06">ACTED_IN</text>
</g>
</g>
</svg>
