<?xml version="1.0" encoding="UTF-8" standalone="no"?>
<!DOCTYPE svg PUBLIC "-//W3C//DTD SVG 1.1//EN"
 "http://www.w3.org/Graphics/SVG/1.1/DTD/svg11.dtd">
<!-- Generated by graphviz version 2.26.3 (20100126.1600)
 -->
<!-- Title: g Pages: 1 -->
<svg width="223pt" height="298pt"
 viewBox="0.00 0.00 223.00 298.00" xmlns="http://www.w3.org/2000/svg" xmlns:xlink="http://www.w3.org/1999/xlink">
<g id="graph1" class="graph" transform="scale(1 1) rotate(0) translate(4 294)">
<title>g</title>
<polygon fill="white" stroke="white" points="-4,5 -4,-294 220,-294 220,5 -4,5"/>
<!-- N0 -->
<g id="node1" class="node"><title>N0</title>
<polygon fill="#ffffff" stroke="#ffffff" stroke-width="1.5" points="111.5,-253 168.5,-253 180.5,-265 180.5,-277 168.5,-289 111.5,-289 99.5,-277 99.5,-265 111.5,-253"/>
<path fill="#ffffff" stroke="#ffffff" stroke-width="1.5" d="M168.5,-253C174.5,-253 180.5,-259 180.5,-265"/>
<path fill="#ffffff" stroke="#ffffff" stroke-width="1.5" d="M180.5,-277C180.5,-283 174.5,-289 168.5,-289"/>
<path fill="#ffffff" stroke="#ffffff" stroke-width="1.5" d="M111.5,-289C105.5,-289 99.5,-283 99.5,-277"/>
<path fill="#ffffff" stroke="#ffffff" stroke-width="1.5" d="M99.5,-265C99.5,-259 105.5,-253 111.5,-253"/>
<polyline fill="none" stroke="#2e3436" stroke-width="1.5" points="111.5,-253 168.5,-253 "/>
<path fill="none" stroke="#2e3436" stroke-width="1.5" d="M168.5,-253C174.5,-253 180.5,-259 180.5,-265"/>
<polyline fill="none" stroke="#2e3436" stroke-width="1.5" points="180.5,-265 180.5,-277 "/>
<path fill="none" stroke="#2e3436" stroke-width="1.5" d="M180.5,-277C180.5,-283 174.5,-289 168.5,-289"/>
<polyline fill="none" stroke="#2e3436" stroke-width="1.5" points="168.5,-289 111.5,-289 "/>
<path fill="none" stroke="#2e3436" stroke-width="1.5" d="M111.5,-289C105.5,-289 99.5,-283 99.5,-277"/>
<polyline fill="none" stroke="#2e3436" stroke-width="1.5" points="99.5,-277 99.5,-265 "/>
<path fill="none" stroke="#2e3436" stroke-width="1.5" d="M99.5,-265C99.5,-259 105.5,-253 111.5,-253"/>
<text text-anchor="start" x="107.5" y="-268.8" font-family="FreeSans" font-size="8.00" fill="#1c2021">name = &#39;David&#39;</text>
</g>
<!-- N2 -->
<g id="node3" class="node"><title>N2</title>
<polygon fill="#ffffff" stroke="#ffffff" stroke-width="1.5" points="32,-169 96,-169 108,-181 108,-193 96,-205 32,-205 20,-193 20,-181 32,-169"/>
<path fill="#ffffff" stroke="#ffffff" stroke-width="1.5" d="M96,-169C102,-169 108,-175 108,-181"/>
<path fill="#ffffff" stroke="#ffffff" stroke-width="1.5" d="M108,-193C108,-199 102,-205 96,-205"/>
<path fill="#ffffff" stroke="#ffffff" stroke-width="1.5" d="M32,-205C26,-205 20,-199 20,-193"/>
<path fill="#ffffff" stroke="#ffffff" stroke-width="1.5" d="M20,-181C20,-175 26,-169 32,-169"/>
<polyline fill="none" stroke="#2e3436" stroke-width="1.5" points="32,-169 96,-169 "/>
<path fill="none" stroke="#2e3436" stroke-width="1.5" d="M96,-169C102,-169 108,-175 108,-181"/>
<polyline fill="none" stroke="#2e3436" stroke-width="1.5" points="108,-181 108,-193 "/>
<path fill="none" stroke="#2e3436" stroke-width="1.5" d="M108,-193C108,-199 102,-205 96,-205"/>
<polyline fill="none" stroke="#2e3436" stroke-width="1.5" points="96,-205 32,-205 "/>
<path fill="none" stroke="#2e3436" stroke-width="1.5" d="M32,-205C26,-205 20,-199 20,-193"/>
<polyline fill="none" stroke="#2e3436" stroke-width="1.5" points="20,-193 20,-181 "/>
<path fill="none" stroke="#2e3436" stroke-width="1.5" d="M20,-181C20,-175 26,-169 32,-169"/>
<text text-anchor="start" x="28" y="-184.8" font-family="FreeSans" font-size="8.00" fill="#1c2021">name = &#39;Anders&#39;</text>
</g>
<!-- N0&#45;&gt;N2 -->
<g id="edge2" class="edge"><title>N0&#45;&gt;N2</title>
<path fill="none" stroke="#2e3436" stroke-width="2" d="M123.509,-252.773C112.454,-240.555 97.7786,-224.334 85.7673,-211.059"/>
<polygon fill="#2e3436" stroke="#2e3436" points="80.4587,-205.191 87.9933,-208.488 83.3454,-207.636 85.8613,-210.417 85.4906,-210.753 85.1198,-211.088 82.6039,-208.307 82.9879,-213.017 80.4587,-205.191 80.4587,-205.191"/>
<text text-anchor="middle" x="120.5" y="-226.8" font-family="FreeSans" font-size="8.00" fill="#2e3436">KNOWS</text>
</g>
<!-- N3 -->
<g id="node6" class="node"><title>N3</title>
<polygon fill="#ffffff" stroke="#ffffff" stroke-width="1.5" points="129,-85 203,-85 215,-97 215,-109 203,-121 129,-121 117,-109 117,-97 129,-85"/>
<path fill="#ffffff" stroke="#ffffff" stroke-width="1.5" d="M203,-85C209,-85 215,-91 215,-97"/>
<path fill="#ffffff" stroke="#ffffff" stroke-width="1.5" d="M215,-109C215,-115 209,-121 203,-121"/>
<path fill="#ffffff" stroke="#ffffff" stroke-width="1.5" d="M129,-121C123,-121 117,-115 117,-109"/>
<path fill="#ffffff" stroke="#ffffff" stroke-width="1.5" d="M117,-97C117,-91 123,-85 129,-85"/>
<polyline fill="none" stroke="#2e3436" stroke-width="1.5" points="129,-85 203,-85 "/>
<path fill="none" stroke="#2e3436" stroke-width="1.5" d="M203,-85C209,-85 215,-91 215,-97"/>
<polyline fill="none" stroke="#2e3436" stroke-width="1.5" points="215,-97 215,-109 "/>
<path fill="none" stroke="#2e3436" stroke-width="1.5" d="M215,-109C215,-115 209,-121 203,-121"/>
<polyline fill="none" stroke="#2e3436" stroke-width="1.5" points="203,-121 129,-121 "/>
<path fill="none" stroke="#2e3436" stroke-width="1.5" d="M129,-121C123,-121 117,-115 117,-109"/>
<polyline fill="none" stroke="#2e3436" stroke-width="1.5" points="117,-109 117,-97 "/>
<path fill="none" stroke="#2e3436" stroke-width="1.5" d="M117,-97C117,-91 123,-85 129,-85"/>
<text text-anchor="start" x="125" y="-100.8" font-family="FreeSans" font-size="8.00" fill="#1c2021">name = &#39;Bossman&#39;</text>
</g>
<!-- N2&#45;&gt;N3 -->
<g id="edge4" class="edge"><title>N2&#45;&gt;N3</title>
<path fill="none" stroke="#2e3436" stroke-width="2" d="M81.5344,-168.896C90.6136,-159.859 102.064,-148.971 113,-140 118.986,-135.089 125.596,-130.138 132.058,-125.524"/>
<polygon fill="#2e3436" stroke="#2e3436" points="138.442,-121.037 134.247,-128.111 135.662,-123.603 132.594,-125.759 132.306,-125.35 132.019,-124.941 135.087,-122.784 130.366,-122.588 138.442,-121.037 138.442,-121.037"/>
<text text-anchor="middle" x="128.5" y="-142.8" font-family="FreeSans" font-size="8.00" fill="#2e3436">KNOWS</text>
</g>
<!-- N4 -->
<g id="node8" class="node"><title>N4</title>
<polygon fill="#ffffff" stroke="#ffffff" stroke-width="1.5" points="11.5,-85 76.5,-85 88.5,-97 88.5,-109 76.5,-121 11.5,-121 -0.5,-109 -0.5,-97 11.5,-85"/>
<path fill="#ffffff" stroke="#ffffff" stroke-width="1.5" d="M76.5,-85C82.5,-85 88.5,-91 88.5,-97"/>
<path fill="#ffffff" stroke="#ffffff" stroke-width="1.5" d="M88.5,-109C88.5,-115 82.5,-121 76.5,-121"/>
<path fill="#ffffff" stroke="#ffffff" stroke-width="1.5" d="M11.5,-121C5.5,-121 -0.5,-115 -0.5,-109"/>
<path fill="#ffffff" stroke="#ffffff" stroke-width="1.5" d="M-0.5,-97C-0.5,-91 5.5,-85 11.5,-85"/>
<polyline fill="none" stroke="#2e3436" stroke-width="1.5" points="11.5,-85 76.5,-85 "/>
<path fill="none" stroke="#2e3436" stroke-width="1.5" d="M76.5,-85C82.5,-85 88.5,-91 88.5,-97"/>
<polyline fill="none" stroke="#2e3436" stroke-width="1.5" points="88.5,-97 88.5,-109 "/>
<path fill="none" stroke="#2e3436" stroke-width="1.5" d="M88.5,-109C88.5,-115 82.5,-121 76.5,-121"/>
<polyline fill="none" stroke="#2e3436" stroke-width="1.5" points="76.5,-121 11.5,-121 "/>
<path fill="none" stroke="#2e3436" stroke-width="1.5" d="M11.5,-121C5.5,-121 -0.5,-115 -0.5,-109"/>
<polyline fill="none" stroke="#2e3436" stroke-width="1.5" points="-0.5,-109 -0.5,-97 "/>
<path fill="none" stroke="#2e3436" stroke-width="1.5" d="M-0.5,-97C-0.5,-91 5.5,-85 11.5,-85"/>
<text text-anchor="start" x="7.5" y="-100.8" font-family="FreeSans" font-size="8.00" fill="#1c2021">name = &#39;Ceasar&#39;</text>
</g>
<!-- N2&#45;&gt;N4 -->
<g id="edge6" class="edge"><title>N2&#45;&gt;N4</title>
<path fill="none" stroke="#4e9a06" stroke-width="2" d="M51.3227,-168.99C47.9345,-163.197 44.7345,-156.57 43,-150 41.2331,-143.307 40.7467,-135.89 40.8863,-128.964"/>
<polygon fill="#4e9a06" stroke="#4e9a06" points="41.2985,-121.131 44.2746,-128.798 41.6007,-124.902 41.4036,-128.647 40.9043,-128.62 40.4049,-128.594 40.602,-124.849 37.5339,-128.443 41.2985,-121.131 41.2985,-121.131"/>
<text text-anchor="middle" x="60.5" y="-142.8" font-family="FreeSans" font-size="8.00" fill="#4e9a06">BLOCKS</text>
</g>
<!-- N1 -->
<g id="node4" class="node"><title>N1</title>
<polygon fill="#ffffff" stroke="#ffffff" stroke-width="1.5" points="85,-1 137,-1 149,-13 149,-25 137,-37 85,-37 73,-25 73,-13 85,-1"/>
<path fill="#ffffff" stroke="#ffffff" stroke-width="1.5" d="M137,-1C143,-1 149,-7 149,-13"/>
<path fill="#ffffff" stroke="#ffffff" stroke-width="1.5" d="M149,-25C149,-31 143,-37 137,-37"/>
<path fill="#ffffff" stroke="#ffffff" stroke-width="1.5" d="M85,-37C79,-37 73,-31 73,-25"/>
<path fill="#ffffff" stroke="#ffffff" stroke-width="1.5" d="M73,-13C73,-7 79,-1 85,-1"/>
<polyline fill="none" stroke="#2e3436" stroke-width="1.5" points="85,-1 137,-1 "/>
<path fill="none" stroke="#2e3436" stroke-width="1.5" d="M137,-1C143,-1 149,-7 149,-13"/>
<polyline fill="none" stroke="#2e3436" stroke-width="1.5" points="149,-13 149,-25 "/>
<path fill="none" stroke="#2e3436" stroke-width="1.5" d="M149,-25C149,-31 143,-37 137,-37"/>
<polyline fill="none" stroke="#2e3436" stroke-width="1.5" points="137,-37 85,-37 "/>
<path fill="none" stroke="#2e3436" stroke-width="1.5" d="M85,-37C79,-37 73,-31 73,-25"/>
<polyline fill="none" stroke="#2e3436" stroke-width="1.5" points="73,-25 73,-13 "/>
<path fill="none" stroke="#2e3436" stroke-width="1.5" d="M73,-13C73,-7 79,-1 85,-1"/>
<text text-anchor="start" x="81" y="-16.8" font-family="FreeSans" font-size="8.00" fill="#1c2021">name = &#39;Emil&#39;</text>
</g>
<!-- N3&#45;&gt;N0 -->
<g id="edge10" class="edge"><title>N3&#45;&gt;N0</title>
<path fill="none" stroke="#4e9a06" stroke-width="2" d="M163.211,-121.022C158.597,-150.834 149.358,-210.536 144.033,-244.942"/>
<polygon fill="#4e9a06" stroke="#4e9a06" points="142.832,-252.701 140.644,-244.773 142.911,-248.919 143.485,-245.213 143.979,-245.289 144.473,-245.366 143.9,-249.072 147.314,-245.806 142.832,-252.701 142.832,-252.701"/>
<text text-anchor="middle" x="172.5" y="-184.8" font-family="FreeSans" font-size="8.00" fill="#4e9a06">BLOCKS</text>
</g>
<!-- N3&#45;&gt;N1 -->
<g id="edge8" class="edge"><title>N3&#45;&gt;N1</title>
<path fill="none" stroke="#2e3436" stroke-width="2" d="M154.066,-84.7733C146.21,-72.7751 135.827,-56.9174 127.224,-43.779"/>
<polygon fill="#2e3436" stroke="#2e3436" points="122.911,-37.1912 129.843,-41.617 125.383,-40.0546 127.438,-43.1919 127.019,-43.4658 126.601,-43.7397 124.547,-40.6024 124.196,-45.3146 122.911,-37.1912 122.911,-37.1912"/>
<text text-anchor="middle" x="155.5" y="-58.8" font-family="FreeSans" font-size="8.00" fill="#2e3436">KNOWS</text>
</g>
<!-- N4&#45;&gt;N1 -->
<g id="edge12" class="edge"><title>N4&#45;&gt;N1</title>
<path fill="none" stroke="#2e3436" stroke-width="2" d="M58.538,-84.7733C68.2836,-72.5549 81.2215,-56.3342 91.8104,-43.0586"/>
<polygon fill="#2e3436" stroke="#2e3436" points="96.4904,-37.1912 94.4521,-45.159 94.5429,-40.4346 92.2045,-43.3663 91.8136,-43.0545 91.4227,-42.7427 93.7611,-39.8111 89.1751,-40.95 96.4904,-37.1912 96.4904,-37.1912"/>
<text text-anchor="middle" x="95.5" y="-58.8" font-family="FreeSans" font-size="8.00" fill="#2e3436">KNOWS</text>
</g>
</g>
</svg>
