<?xml version="1.0" encoding="UTF-8" standalone="no"?>
<!DOCTYPE svg PUBLIC "-//W3C//DTD SVG 1.1//EN"
 "http://www.w3.org/Graphics/SVG/1.1/DTD/svg11.dtd">
<!-- Generated by graphviz version 2.26.3 (20100126.1600)
 -->
<!-- Title: g Pages: 1 -->
<svg width="201pt" height="234pt"
 viewBox="0.00 0.00 201.00 234.00" xmlns="http://www.w3.org/2000/svg" xmlns:xlink="http://www.w3.org/1999/xlink">
<g id="graph1" class="graph" transform="scale(1 1) rotate(0) translate(4 230)">
<title>g</title>
<polygon fill="white" stroke="white" points="-4,5 -4,-230 198,-230 198,5 -4,5"/>
<!-- N0 -->
<g id="node1" class="node"><title>N0</title>
<polygon fill="#ffffff" stroke="#ffffff" stroke-width="1.5" points="12,-95 64,-95 76,-107 76,-119 64,-131 12,-131 0,-119 0,-107 12,-95"/>
<path fill="#ffffff" stroke="#ffffff" stroke-width="1.5" d="M64,-95C70,-95 76,-101 76,-107"/>
<path fill="#ffffff" stroke="#ffffff" stroke-width="1.5" d="M76,-119C76,-125 70,-131 64,-131"/>
<path fill="#ffffff" stroke="#ffffff" stroke-width="1.5" d="M12,-131C6,-131 0,-125 0,-119"/>
<path fill="#ffffff" stroke="#ffffff" stroke-width="1.5" d="M0,-107C0,-101 6,-95 12,-95"/>
<polyline fill="none" stroke="#2e3436" stroke-width="1.5" points="12,-95 64,-95 "/>
<path fill="none" stroke="#2e3436" stroke-width="1.5" d="M64,-95C70,-95 76,-101 76,-107"/>
<polyline fill="none" stroke="#2e3436" stroke-width="1.5" points="76,-107 76,-119 "/>
<path fill="none" stroke="#2e3436" stroke-width="1.5" d="M76,-119C76,-125 70,-131 64,-131"/>
<polyline fill="none" stroke="#2e3436" stroke-width="1.5" points="64,-131 12,-131 "/>
<path fill="none" stroke="#2e3436" stroke-width="1.5" d="M12,-131C6,-131 0,-125 0,-119"/>
<polyline fill="none" stroke="#2e3436" stroke-width="1.5" points="0,-119 0,-107 "/>
<path fill="none" stroke="#2e3436" stroke-width="1.5" d="M0,-107C0,-101 6,-95 12,-95"/>
<text text-anchor="start" x="8" y="-110.8" font-family="FreeSans" font-size="8.00" fill="#1c2021">name = &#39;Emil&#39;</text>
</g>
<!-- N2 -->
<g id="node3" class="node"><title>N2</title>
<polygon fill="#ffffff" stroke="#ffffff" stroke-width="1.5" points="54,-1 110,-1 122,-13 122,-25 110,-37 54,-37 42,-25 42,-13 54,-1"/>
<path fill="#ffffff" stroke="#ffffff" stroke-width="1.5" d="M110,-1C116,-1 122,-7 122,-13"/>
<path fill="#ffffff" stroke="#ffffff" stroke-width="1.5" d="M122,-25C122,-31 116,-37 110,-37"/>
<path fill="#ffffff" stroke="#ffffff" stroke-width="1.5" d="M54,-37C48,-37 42,-31 42,-25"/>
<path fill="#ffffff" stroke="#ffffff" stroke-width="1.5" d="M42,-13C42,-7 48,-1 54,-1"/>
<polyline fill="none" stroke="#2e3436" stroke-width="1.5" points="54,-1 110,-1 "/>
<path fill="none" stroke="#2e3436" stroke-width="1.5" d="M110,-1C116,-1 122,-7 122,-13"/>
<polyline fill="none" stroke="#2e3436" stroke-width="1.5" points="122,-13 122,-25 "/>
<path fill="none" stroke="#2e3436" stroke-width="1.5" d="M122,-25C122,-31 116,-37 110,-37"/>
<polyline fill="none" stroke="#2e3436" stroke-width="1.5" points="110,-37 54,-37 "/>
<path fill="none" stroke="#2e3436" stroke-width="1.5" d="M54,-37C48,-37 42,-31 42,-25"/>
<polyline fill="none" stroke="#2e3436" stroke-width="1.5" points="42,-25 42,-13 "/>
<path fill="none" stroke="#2e3436" stroke-width="1.5" d="M42,-13C42,-7 48,-1 54,-1"/>
<text text-anchor="start" x="50" y="-21.8" font-family="FreeSans" font-size="8.00" fill="#1c2021">name = &#39;Peter&#39;</text>
<text text-anchor="start" x="50" y="-11.8" font-family="FreeSans" font-size="8.00" fill="#1c2021">age = 34</text>
</g>
<!-- N0&#45;&gt;N2 -->
<g id="edge2" class="edge"><title>N0&#45;&gt;N2</title>
<path fill="none" stroke="#2e3436" stroke-width="2" d="M43.6199,-94.8965C47.4137,-83.4946 52.8413,-68.6019 59,-56 60.9999,-51.9079 63.3316,-47.6936 65.7283,-43.6411"/>
<polygon fill="#2e3436" stroke="#2e3436" points="69.7761,-37.0238 68.7415,-45.1829 68.2458,-40.4837 66.2889,-43.6827 65.8624,-43.4218 65.4359,-43.1608 67.3927,-39.9619 62.9833,-41.6606 69.7761,-37.0238 69.7761,-37.0238"/>
<text text-anchor="middle" x="74.5" y="-58.8" font-family="FreeSans" font-size="8.00" fill="#2e3436">KNOWS</text>
</g>
<!-- N1 -->
<g id="node4" class="node"><title>N1</title>
<polygon fill="#ffffff" stroke="#ffffff" stroke-width="1.5" points="118,-189 180,-189 192,-201 192,-213 180,-225 118,-225 106,-213 106,-201 118,-189"/>
<path fill="#ffffff" stroke="#ffffff" stroke-width="1.5" d="M180,-189C186,-189 192,-195 192,-201"/>
<path fill="#ffffff" stroke="#ffffff" stroke-width="1.5" d="M192,-213C192,-219 186,-225 180,-225"/>
<path fill="#ffffff" stroke="#ffffff" stroke-width="1.5" d="M118,-225C112,-225 106,-219 106,-213"/>
<path fill="#ffffff" stroke="#ffffff" stroke-width="1.5" d="M106,-201C106,-195 112,-189 118,-189"/>
<polyline fill="none" stroke="#2e3436" stroke-width="1.5" points="118,-189 180,-189 "/>
<path fill="none" stroke="#2e3436" stroke-width="1.5" d="M180,-189C186,-189 192,-195 192,-201"/>
<polyline fill="none" stroke="#2e3436" stroke-width="1.5" points="192,-201 192,-213 "/>
<path fill="none" stroke="#2e3436" stroke-width="1.5" d="M192,-213C192,-219 186,-225 180,-225"/>
<polyline fill="none" stroke="#2e3436" stroke-width="1.5" points="180,-225 118,-225 "/>
<path fill="none" stroke="#2e3436" stroke-width="1.5" d="M118,-225C112,-225 106,-219 106,-213"/>
<polyline fill="none" stroke="#2e3436" stroke-width="1.5" points="106,-213 106,-201 "/>
<path fill="none" stroke="#2e3436" stroke-width="1.5" d="M106,-201C106,-195 112,-189 118,-189"/>
<text text-anchor="start" x="114" y="-204.8" font-family="FreeSans" font-size="8.00" fill="#1c2021">name = &#39;Stefan&#39;</text>
</g>
<!-- N3 -->
<g id="node6" class="node"><title>N3</title>
<polygon fill="#ffffff" stroke="#ffffff" stroke-width="1.5" points="117,-85 181,-85 193,-97 193,-129 181,-141 117,-141 105,-129 105,-97 117,-85"/>
<path fill="#ffffff" stroke="#ffffff" stroke-width="1.5" d="M181,-85C187,-85 193,-91 193,-97"/>
<path fill="#ffffff" stroke="#ffffff" stroke-width="1.5" d="M193,-129C193,-135 187,-141 181,-141"/>
<path fill="#ffffff" stroke="#ffffff" stroke-width="1.5" d="M117,-141C111,-141 105,-135 105,-129"/>
<path fill="#ffffff" stroke="#ffffff" stroke-width="1.5" d="M105,-97C105,-91 111,-85 117,-85"/>
<polyline fill="none" stroke="#2e3436" stroke-width="1.5" points="117,-85 181,-85 "/>
<path fill="none" stroke="#2e3436" stroke-width="1.5" d="M181,-85C187,-85 193,-91 193,-97"/>
<polyline fill="none" stroke="#2e3436" stroke-width="1.5" points="193,-97 193,-129 "/>
<path fill="none" stroke="#2e3436" stroke-width="1.5" d="M193,-129C193,-135 187,-141 181,-141"/>
<polyline fill="none" stroke="#2e3436" stroke-width="1.5" points="181,-141 117,-141 "/>
<path fill="none" stroke="#2e3436" stroke-width="1.5" d="M117,-141C111,-141 105,-135 105,-129"/>
<polyline fill="none" stroke="#2e3436" stroke-width="1.5" points="105,-129 105,-97 "/>
<path fill="none" stroke="#2e3436" stroke-width="1.5" d="M105,-97C105,-91 111,-85 117,-85"/>
<text text-anchor="middle" x="149" y="-129.8" font-family="FreeSans" font-size="8.00" fill="#1c2021">Swedish</text>
<polyline fill="none" stroke="#2e3436" stroke-width="1.5" points="105,-123 193,-123 "/>
<text text-anchor="start" x="113" y="-111.8" font-family="FreeSans" font-size="8.00" fill="#1c2021">name = &#39;Andres&#39;</text>
<text text-anchor="start" x="113" y="-101.8" font-family="FreeSans" font-size="8.00" fill="#1c2021">age = 36</text>
<text text-anchor="start" x="113" y="-91.8" font-family="FreeSans" font-size="8.00" fill="#1c2021">awesome = true</text>
</g>
<!-- N1&#45;&gt;N3 -->
<g id="edge4" class="edge"><title>N1&#45;&gt;N3</title>
<path fill="none" stroke="#2e3436" stroke-width="2" d="M149,-188.876C149,-177.548 149,-162.567 149,-148.91"/>
<polygon fill="#2e3436" stroke="#2e3436" points="149,-141.06 152.375,-148.56 149.5,-144.81 149.5,-148.56 149,-148.56 148.5,-148.56 148.5,-144.81 145.625,-148.56 149,-141.06 149,-141.06"/>
<text text-anchor="middle" x="164.5" y="-162.8" font-family="FreeSans" font-size="8.00" fill="#2e3436">KNOWS</text>
</g>
<!-- N3&#45;&gt;N2 -->
<g id="edge6" class="edge"><title>N3&#45;&gt;N2</title>
<path fill="none" stroke="#2e3436" stroke-width="2" d="M128.898,-84.7969C119.51,-71.6262 108.442,-56.0977 99.4162,-43.4346"/>
<polygon fill="#2e3436" stroke="#2e3436" points="94.9022,-37.1015 102.004,-41.25 97.4859,-39.865 99.6625,-42.9187 99.2553,-43.2089 98.8482,-43.4992 96.6716,-40.4454 96.507,-45.1679 94.9022,-37.1015 94.9022,-37.1015"/>
<text text-anchor="middle" x="130.5" y="-58.8" font-family="FreeSans" font-size="8.00" fill="#2e3436">KNOWS</text>
</g>
</g>
</svg>
