<?xml version="1.0" encoding="UTF-8" standalone="no"?>
<!DOCTYPE svg PUBLIC "-//W3C//DTD SVG 1.1//EN"
 "http://www.w3.org/Graphics/SVG/1.1/DTD/svg11.dtd">
<!-- Generated by graphviz version 2.26.3 (20100126.1600)
 -->
<!-- Title: g Pages: 1 -->
<svg width="130pt" height="218pt"
 viewBox="0.00 0.00 130.00 218.00" xmlns="http://www.w3.org/2000/svg" xmlns:xlink="http://www.w3.org/1999/xlink">
<g id="graph1" class="graph" transform="scale(1 1) rotate(0) translate(4 214)">
<title>g</title>
<polygon fill="white" stroke="white" points="-4,5 -4,-214 127,-214 127,5 -4,5"/>
<!-- N0 -->
<g id="node1" class="node"><title>N0</title>
<polygon fill="#ffffff" stroke="#ffffff" stroke-width="1.5" points="19.5,-173 102.5,-173 114.5,-185 114.5,-197 102.5,-209 19.5,-209 7.5,-197 7.5,-185 19.5,-173"/>
<path fill="#ffffff" stroke="#ffffff" stroke-width="1.5" d="M102.5,-173C108.5,-173 114.5,-179 114.5,-185"/>
<path fill="#ffffff" stroke="#ffffff" stroke-width="1.5" d="M114.5,-197C114.5,-203 108.5,-209 102.5,-209"/>
<path fill="#ffffff" stroke="#ffffff" stroke-width="1.5" d="M19.5,-209C13.5,-209 7.5,-203 7.5,-197"/>
<path fill="#ffffff" stroke="#ffffff" stroke-width="1.5" d="M7.5,-185C7.5,-179 13.5,-173 19.5,-173"/>
<polyline fill="none" stroke="#2e3436" stroke-width="1.5" points="19.5,-173 102.5,-173 "/>
<path fill="none" stroke="#2e3436" stroke-width="1.5" d="M102.5,-173C108.5,-173 114.5,-179 114.5,-185"/>
<polyline fill="none" stroke="#2e3436" stroke-width="1.5" points="114.5,-185 114.5,-197 "/>
<path fill="none" stroke="#2e3436" stroke-width="1.5" d="M114.5,-197C114.5,-203 108.5,-209 102.5,-209"/>
<polyline fill="none" stroke="#2e3436" stroke-width="1.5" points="102.5,-209 19.5,-209 "/>
<path fill="none" stroke="#2e3436" stroke-width="1.5" d="M19.5,-209C13.5,-209 7.5,-203 7.5,-197"/>
<polyline fill="none" stroke="#2e3436" stroke-width="1.5" points="7.5,-197 7.5,-185 "/>
<path fill="none" stroke="#2e3436" stroke-width="1.5" d="M7.5,-185C7.5,-179 13.5,-173 19.5,-173"/>
<text text-anchor="start" x="15.5" y="-188.8" font-family="FreeSans" font-size="8.00" fill="#1c2021">Node[0]name = &#39;Bob&#39;</text>
</g>
<!-- N1 -->
<g id="node3" class="node"><title>N1</title>
<polygon fill="#ffffff" stroke="#ffffff" stroke-width="1.5" points="12,-87 110,-87 122,-99 122,-113 110,-125 12,-125 0,-113 0,-99 12,-87"/>
<path fill="#ffffff" stroke="#ffffff" stroke-width="1.5" d="M110,-87C116,-87 122,-93 122,-99"/>
<path fill="#ffffff" stroke="#ffffff" stroke-width="1.5" d="M122,-113C122,-119 116,-125 110,-125"/>
<path fill="#ffffff" stroke="#ffffff" stroke-width="1.5" d="M12,-125C6,-125 0,-119 0,-113"/>
<path fill="#ffffff" stroke="#ffffff" stroke-width="1.5" d="M0,-99C0,-93 6,-87 12,-87"/>
<polyline fill="none" stroke="#2e3436" stroke-width="1.5" points="12,-87 110,-87 "/>
<path fill="none" stroke="#2e3436" stroke-width="1.5" d="M110,-87C116,-87 122,-93 122,-99"/>
<polyline fill="none" stroke="#2e3436" stroke-width="1.5" points="122,-99 122,-113 "/>
<path fill="none" stroke="#2e3436" stroke-width="1.5" d="M122,-113C122,-119 116,-125 110,-125"/>
<polyline fill="none" stroke="#2e3436" stroke-width="1.5" points="110,-125 12,-125 "/>
<path fill="none" stroke="#2e3436" stroke-width="1.5" d="M12,-125C6,-125 0,-119 0,-113"/>
<polyline fill="none" stroke="#2e3436" stroke-width="1.5" points="0,-113 0,-99 "/>
<path fill="none" stroke="#2e3436" stroke-width="1.5" d="M0,-99C0,-93 6,-87 12,-87"/>
<text text-anchor="start" x="8" y="-113.8" font-family="FreeSans" font-size="8.00" fill="#1c2021">Node[1]name = &#39;bob_s1&#39;</text>
<text text-anchor="start" x="8" y="-103.8" font-family="FreeSans" font-size="8.00" fill="#1c2021">text = &#39;bobs status1&#39;</text>
<text text-anchor="start" x="8" y="-93.8" font-family="FreeSans" font-size="8.00" fill="#1c2021">date = 1</text>
</g>
<!-- N0&#45;&gt;N1 -->
<g id="edge2" class="edge"><title>N0&#45;&gt;N1</title>
<path fill="none" stroke="#2e3436" stroke-width="2" d="M61,-172.974C61,-161.351 61,-146.024 61,-132.966"/>
<polygon fill="#2e3436" stroke="#2e3436" points="61,-125.182 64.3751,-132.682 61.5,-128.932 61.5001,-132.682 61.0001,-132.682 60.5001,-132.682 60.5,-128.932 57.6251,-132.682 61,-125.182 61,-125.182"/>
<text text-anchor="middle" x="77.5" y="-146.8" font-family="FreeSans" font-size="8.00" fill="#2e3436">STATUS</text>
</g>
<!-- N2 -->
<g id="node5" class="node"><title>N2</title>
<polygon fill="#ffffff" stroke="#ffffff" stroke-width="1.5" points="12,-1 110,-1 122,-13 122,-27 110,-39 12,-39 0,-27 0,-13 12,-1"/>
<path fill="#ffffff" stroke="#ffffff" stroke-width="1.5" d="M110,-1C116,-1 122,-7 122,-13"/>
<path fill="#ffffff" stroke="#ffffff" stroke-width="1.5" d="M122,-27C122,-33 116,-39 110,-39"/>
<path fill="#ffffff" stroke="#ffffff" stroke-width="1.5" d="M12,-39C6,-39 0,-33 0,-27"/>
<path fill="#ffffff" stroke="#ffffff" stroke-width="1.5" d="M0,-13C0,-7 6,-1 12,-1"/>
<polyline fill="none" stroke="#2e3436" stroke-width="1.5" points="12,-1 110,-1 "/>
<path fill="none" stroke="#2e3436" stroke-width="1.5" d="M110,-1C116,-1 122,-7 122,-13"/>
<polyline fill="none" stroke="#2e3436" stroke-width="1.5" points="122,-13 122,-27 "/>
<path fill="none" stroke="#2e3436" stroke-width="1.5" d="M122,-27C122,-33 116,-39 110,-39"/>
<polyline fill="none" stroke="#2e3436" stroke-width="1.5" points="110,-39 12,-39 "/>
<path fill="none" stroke="#2e3436" stroke-width="1.5" d="M12,-39C6,-39 0,-33 0,-27"/>
<polyline fill="none" stroke="#2e3436" stroke-width="1.5" points="0,-27 0,-13 "/>
<path fill="none" stroke="#2e3436" stroke-width="1.5" d="M0,-13C0,-7 6,-1 12,-1"/>
<text text-anchor="start" x="8" y="-27.8" font-family="FreeSans" font-size="8.00" fill="#1c2021">Node[2]name = &#39;bob_s2&#39;</text>
<text text-anchor="start" x="8" y="-17.8" font-family="FreeSans" font-size="8.00" fill="#1c2021">text = &#39;bobs status2&#39;</text>
<text text-anchor="start" x="8" y="-7.8" font-family="FreeSans" font-size="8.00" fill="#1c2021">date = 4</text>
</g>
<!-- N1&#45;&gt;N2 -->
<g id="edge4" class="edge"><title>N1&#45;&gt;N2</title>
<path fill="none" stroke="#4e9a06" stroke-width="2" d="M61,-86.9138C61,-75.1117 61,-59.7853 61,-46.779"/>
<polygon fill="#4e9a06" stroke="#4e9a06" points="61,-39.0328 64.3751,-46.5328 61.5,-42.7828 61.5001,-46.5328 61.0001,-46.5328 60.5001,-46.5328 60.5,-42.7828 57.6251,-46.5329 61,-39.0328 61,-39.0328"/>
<text text-anchor="middle" x="72" y="-60.8" font-family="FreeSans" font-size="8.00" fill="#4e9a06">NEXT</text>
</g>
</g>
</svg>
