<?xml version="1.0" encoding="UTF-8" standalone="no"?>
<!DOCTYPE svg PUBLIC "-//W3C//DTD SVG 1.1//EN"
 "http://www.w3.org/Graphics/SVG/1.1/DTD/svg11.dtd">
<!-- Generated by graphviz version 2.26.3 (20100126.1600)
 -->
<!-- Title: g Pages: 1 -->
<svg width="78pt" height="218pt"
 viewBox="0.00 0.00 78.00 218.00" xmlns="http://www.w3.org/2000/svg" xmlns:xlink="http://www.w3.org/1999/xlink">
<g id="graph1" class="graph" transform="scale(1 1) rotate(0) translate(4 214)">
<title>g</title>
<polygon fill="white" stroke="white" points="-4,5 -4,-214 75,-214 75,5 -4,5"/>
<!-- N0 -->
<g id="node1" class="node"><title>N0</title>
<polygon fill="#ffffff" stroke="#ffffff" stroke-width="1.5" points="11.5,-171 58.5,-171 70.5,-183 70.5,-197 58.5,-209 11.5,-209 -0.5,-197 -0.5,-183 11.5,-171"/>
<path fill="#ffffff" stroke="#ffffff" stroke-width="1.5" d="M58.5,-171C64.5,-171 70.5,-177 70.5,-183"/>
<path fill="#ffffff" stroke="#ffffff" stroke-width="1.5" d="M70.5,-197C70.5,-203 64.5,-209 58.5,-209"/>
<path fill="#ffffff" stroke="#ffffff" stroke-width="1.5" d="M11.5,-209C5.5,-209 -0.5,-203 -0.5,-197"/>
<path fill="#ffffff" stroke="#ffffff" stroke-width="1.5" d="M-0.5,-183C-0.5,-177 5.5,-171 11.5,-171"/>
<polyline fill="none" stroke="#2e3436" stroke-width="1.5" points="11.5,-171 58.5,-171 "/>
<path fill="none" stroke="#2e3436" stroke-width="1.5" d="M58.5,-171C64.5,-171 70.5,-177 70.5,-183"/>
<polyline fill="none" stroke="#2e3436" stroke-width="1.5" points="70.5,-183 70.5,-197 "/>
<path fill="none" stroke="#2e3436" stroke-width="1.5" d="M70.5,-197C70.5,-203 64.5,-209 58.5,-209"/>
<polyline fill="none" stroke="#2e3436" stroke-width="1.5" points="58.5,-209 11.5,-209 "/>
<path fill="none" stroke="#2e3436" stroke-width="1.5" d="M11.5,-209C5.5,-209 -0.5,-203 -0.5,-197"/>
<polyline fill="none" stroke="#2e3436" stroke-width="1.5" points="-0.5,-197 -0.5,-183 "/>
<path fill="none" stroke="#2e3436" stroke-width="1.5" d="M-0.5,-183C-0.5,-177 5.5,-171 11.5,-171"/>
<text text-anchor="start" x="7.5" y="-197.8" font-family="FreeSans" font-size="8.00" fill="#1c2021">name = &#39;A&#39;</text>
<text text-anchor="start" x="7.5" y="-187.8" font-family="FreeSans" font-size="8.00" fill="#1c2021">age = 34</text>
<text text-anchor="start" x="7.5" y="-177.8" font-family="FreeSans" font-size="8.00" fill="#1c2021">length = 170</text>
</g>
<!-- N1 -->
<g id="node3" class="node"><title>N1</title>
<polygon fill="#ffffff" stroke="#ffffff" stroke-width="1.5" points="15,-87 55,-87 67,-99 67,-111 55,-123 15,-123 3,-111 3,-99 15,-87"/>
<path fill="#ffffff" stroke="#ffffff" stroke-width="1.5" d="M55,-87C61,-87 67,-93 67,-99"/>
<path fill="#ffffff" stroke="#ffffff" stroke-width="1.5" d="M67,-111C67,-117 61,-123 55,-123"/>
<path fill="#ffffff" stroke="#ffffff" stroke-width="1.5" d="M15,-123C9,-123 3,-117 3,-111"/>
<path fill="#ffffff" stroke="#ffffff" stroke-width="1.5" d="M3,-99C3,-93 9,-87 15,-87"/>
<polyline fill="none" stroke="#2e3436" stroke-width="1.5" points="15,-87 55,-87 "/>
<path fill="none" stroke="#2e3436" stroke-width="1.5" d="M55,-87C61,-87 67,-93 67,-99"/>
<polyline fill="none" stroke="#2e3436" stroke-width="1.5" points="67,-99 67,-111 "/>
<path fill="none" stroke="#2e3436" stroke-width="1.5" d="M67,-111C67,-117 61,-123 55,-123"/>
<polyline fill="none" stroke="#2e3436" stroke-width="1.5" points="55,-123 15,-123 "/>
<path fill="none" stroke="#2e3436" stroke-width="1.5" d="M15,-123C9,-123 3,-117 3,-111"/>
<polyline fill="none" stroke="#2e3436" stroke-width="1.5" points="3,-111 3,-99 "/>
<path fill="none" stroke="#2e3436" stroke-width="1.5" d="M3,-99C3,-93 9,-87 15,-87"/>
<text text-anchor="start" x="11" y="-107.8" font-family="FreeSans" font-size="8.00" fill="#1c2021">name = &#39;B&#39;</text>
<text text-anchor="start" x="11" y="-97.8" font-family="FreeSans" font-size="8.00" fill="#1c2021">age = 34</text>
</g>
<!-- N0&#45;&gt;N1 -->
<g id="edge2" class="edge"><title>N0&#45;&gt;N1</title>
<path fill="none" stroke="#2e3436" stroke-width="2" d="M35,-170.712C35,-158.868 35,-143.554 35,-130.689"/>
<polygon fill="#2e3436" stroke="#2e3436" points="35,-123.049 38.3751,-130.549 35.5,-126.799 35.5001,-130.549 35.0001,-130.549 34.5001,-130.549 34.5,-126.799 31.6251,-130.549 35,-123.049 35,-123.049"/>
<text text-anchor="middle" x="50.5" y="-144.8" font-family="FreeSans" font-size="8.00" fill="#2e3436">KNOWS</text>
</g>
<!-- N2 -->
<g id="node5" class="node"><title>N2</title>
<polygon fill="#ffffff" stroke="#ffffff" stroke-width="1.5" points="11.5,-1 58.5,-1 70.5,-13 70.5,-27 58.5,-39 11.5,-39 -0.5,-27 -0.5,-13 11.5,-1"/>
<path fill="#ffffff" stroke="#ffffff" stroke-width="1.5" d="M58.5,-1C64.5,-1 70.5,-7 70.5,-13"/>
<path fill="#ffffff" stroke="#ffffff" stroke-width="1.5" d="M70.5,-27C70.5,-33 64.5,-39 58.5,-39"/>
<path fill="#ffffff" stroke="#ffffff" stroke-width="1.5" d="M11.5,-39C5.5,-39 -0.5,-33 -0.5,-27"/>
<path fill="#ffffff" stroke="#ffffff" stroke-width="1.5" d="M-0.5,-13C-0.5,-7 5.5,-1 11.5,-1"/>
<polyline fill="none" stroke="#2e3436" stroke-width="1.5" points="11.5,-1 58.5,-1 "/>
<path fill="none" stroke="#2e3436" stroke-width="1.5" d="M58.5,-1C64.5,-1 70.5,-7 70.5,-13"/>
<polyline fill="none" stroke="#2e3436" stroke-width="1.5" points="70.5,-13 70.5,-27 "/>
<path fill="none" stroke="#2e3436" stroke-width="1.5" d="M70.5,-27C70.5,-33 64.5,-39 58.5,-39"/>
<polyline fill="none" stroke="#2e3436" stroke-width="1.5" points="58.5,-39 11.5,-39 "/>
<path fill="none" stroke="#2e3436" stroke-width="1.5" d="M11.5,-39C5.5,-39 -0.5,-33 -0.5,-27"/>
<polyline fill="none" stroke="#2e3436" stroke-width="1.5" points="-0.5,-27 -0.5,-13 "/>
<path fill="none" stroke="#2e3436" stroke-width="1.5" d="M-0.5,-13C-0.5,-7 5.5,-1 11.5,-1"/>
<text text-anchor="start" x="7.5" y="-27.8" font-family="FreeSans" font-size="8.00" fill="#1c2021">name = &#39;C&#39;</text>
<text text-anchor="start" x="7.5" y="-17.8" font-family="FreeSans" font-size="8.00" fill="#1c2021">age = 32</text>
<text text-anchor="start" x="7.5" y="-7.8" font-family="FreeSans" font-size="8.00" fill="#1c2021">length = 185</text>
</g>
<!-- N1&#45;&gt;N2 -->
<g id="edge4" class="edge"><title>N1&#45;&gt;N2</title>
<path fill="none" stroke="#2e3436" stroke-width="2" d="M35,-86.9737C35,-75.351 35,-60.024 35,-46.9657"/>
<polygon fill="#2e3436" stroke="#2e3436" points="35,-39.1816 38.3751,-46.6816 35.5,-42.9316 35.5001,-46.6816 35.0001,-46.6816 34.5001,-46.6817 34.5,-42.9317 31.6251,-46.6817 35,-39.1816 35,-39.1816"/>
<text text-anchor="middle" x="50.5" y="-60.8" font-family="FreeSans" font-size="8.00" fill="#2e3436">KNOWS</text>
</g>
</g>
</svg>
