<?xml version="1.0" encoding="UTF-8" standalone="no"?>
<!DOCTYPE svg PUBLIC "-//W3C//DTD SVG 1.1//EN"
 "http://www.w3.org/Graphics/SVG/1.1/DTD/svg11.dtd">
<!-- Generated by graphviz version 2.26.3 (20100126.1600)
 -->
<!-- Title: g Pages: 1 -->
<svg width="213pt" height="150pt"
 viewBox="0.00 0.00 213.00 150.00" xmlns="http://www.w3.org/2000/svg" xmlns:xlink="http://www.w3.org/1999/xlink">
<g id="graph1" class="graph" transform="scale(1 1) rotate(0) translate(4 146)">
<title>g</title>
<polygon fill="white" stroke="white" points="-4,5 -4,-146 210,-146 210,5 -4,5"/>
<!-- N0 -->
<g id="node1" class="node"><title>N0</title>
<polygon fill="#ffffff" stroke="#ffffff" stroke-width="1.5" points="11.5,-1 72.5,-1 84.5,-13 84.5,-35 72.5,-47 11.5,-47 -0.5,-35 -0.5,-13 11.5,-1"/>
<path fill="#ffffff" stroke="#ffffff" stroke-width="1.5" d="M72.5,-1C78.5,-1 84.5,-7 84.5,-13"/>
<path fill="#ffffff" stroke="#ffffff" stroke-width="1.5" d="M84.5,-35C84.5,-41 78.5,-47 72.5,-47"/>
<path fill="#ffffff" stroke="#ffffff" stroke-width="1.5" d="M11.5,-47C5.5,-47 -0.5,-41 -0.5,-35"/>
<path fill="#ffffff" stroke="#ffffff" stroke-width="1.5" d="M-0.5,-13C-0.5,-7 5.5,-1 11.5,-1"/>
<polyline fill="none" stroke="#2e3436" stroke-width="1.5" points="11.5,-1 72.5,-1 "/>
<path fill="none" stroke="#2e3436" stroke-width="1.5" d="M72.5,-1C78.5,-1 84.5,-7 84.5,-13"/>
<polyline fill="none" stroke="#2e3436" stroke-width="1.5" points="84.5,-13 84.5,-35 "/>
<path fill="none" stroke="#2e3436" stroke-width="1.5" d="M84.5,-35C84.5,-41 78.5,-47 72.5,-47"/>
<polyline fill="none" stroke="#2e3436" stroke-width="1.5" points="72.5,-47 11.5,-47 "/>
<path fill="none" stroke="#2e3436" stroke-width="1.5" d="M11.5,-47C5.5,-47 -0.5,-41 -0.5,-35"/>
<polyline fill="none" stroke="#2e3436" stroke-width="1.5" points="-0.5,-35 -0.5,-13 "/>
<path fill="none" stroke="#2e3436" stroke-width="1.5" d="M-0.5,-13C-0.5,-7 5.5,-1 11.5,-1"/>
<text text-anchor="middle" x="42" y="-35.8" font-family="FreeSans" font-size="8.00" fill="#1c2021">Swedish</text>
<polyline fill="none" stroke="#2e3436" stroke-width="1.5" points="-0.5,-29 84.5,-29 "/>
<text text-anchor="start" x="7.5" y="-17.8" font-family="FreeSans" font-size="8.00" fill="#1c2021">name = &#39;Tobias&#39;</text>
<text text-anchor="start" x="7.5" y="-7.8" font-family="FreeSans" font-size="8.00" fill="#1c2021">age = 25</text>
</g>
<!-- N1 -->
<g id="node2" class="node"><title>N1</title>
<polygon fill="#ffffff" stroke="#ffffff" stroke-width="1.5" points="124.5,-1 193.5,-1 205.5,-13 205.5,-35 193.5,-47 124.5,-47 112.5,-35 112.5,-13 124.5,-1"/>
<path fill="#ffffff" stroke="#ffffff" stroke-width="1.5" d="M193.5,-1C199.5,-1 205.5,-7 205.5,-13"/>
<path fill="#ffffff" stroke="#ffffff" stroke-width="1.5" d="M205.5,-35C205.5,-41 199.5,-47 193.5,-47"/>
<path fill="#ffffff" stroke="#ffffff" stroke-width="1.5" d="M124.5,-47C118.5,-47 112.5,-41 112.5,-35"/>
<path fill="#ffffff" stroke="#ffffff" stroke-width="1.5" d="M112.5,-13C112.5,-7 118.5,-1 124.5,-1"/>
<polyline fill="none" stroke="#2e3436" stroke-width="1.5" points="124.5,-1 193.5,-1 "/>
<path fill="none" stroke="#2e3436" stroke-width="1.5" d="M193.5,-1C199.5,-1 205.5,-7 205.5,-13"/>
<polyline fill="none" stroke="#2e3436" stroke-width="1.5" points="205.5,-13 205.5,-35 "/>
<path fill="none" stroke="#2e3436" stroke-width="1.5" d="M205.5,-35C205.5,-41 199.5,-47 193.5,-47"/>
<polyline fill="none" stroke="#2e3436" stroke-width="1.5" points="193.5,-47 124.5,-47 "/>
<path fill="none" stroke="#2e3436" stroke-width="1.5" d="M124.5,-47C118.5,-47 112.5,-41 112.5,-35"/>
<polyline fill="none" stroke="#2e3436" stroke-width="1.5" points="112.5,-35 112.5,-13 "/>
<path fill="none" stroke="#2e3436" stroke-width="1.5" d="M112.5,-13C112.5,-7 118.5,-1 124.5,-1"/>
<text text-anchor="middle" x="159" y="-35.8" font-family="FreeSans" font-size="8.00" fill="#1c2021">Swedish, German</text>
<polyline fill="none" stroke="#2e3436" stroke-width="1.5" points="112.5,-29 205.5,-29 "/>
<text text-anchor="start" x="120.5" y="-17.8" font-family="FreeSans" font-size="8.00" fill="#1c2021">name = &#39;Peter&#39;</text>
<text text-anchor="start" x="120.5" y="-7.8" font-family="FreeSans" font-size="8.00" fill="#1c2021">age = 34</text>
</g>
<!-- N2 -->
<g id="node3" class="node"><title>N2</title>
<polygon fill="#ffffff" stroke="#ffffff" stroke-width="1.5" points="68,-95 132,-95 144,-107 144,-129 132,-141 68,-141 56,-129 56,-107 68,-95"/>
<path fill="#ffffff" stroke="#ffffff" stroke-width="1.5" d="M132,-95C138,-95 144,-101 144,-107"/>
<path fill="#ffffff" stroke="#ffffff" stroke-width="1.5" d="M144,-129C144,-135 138,-141 132,-141"/>
<path fill="#ffffff" stroke="#ffffff" stroke-width="1.5" d="M68,-141C62,-141 56,-135 56,-129"/>
<path fill="#ffffff" stroke="#ffffff" stroke-width="1.5" d="M56,-107C56,-101 62,-95 68,-95"/>
<polyline fill="none" stroke="#2e3436" stroke-width="1.5" points="68,-95 132,-95 "/>
<path fill="none" stroke="#2e3436" stroke-width="1.5" d="M132,-95C138,-95 144,-101 144,-107"/>
<polyline fill="none" stroke="#2e3436" stroke-width="1.5" points="144,-107 144,-129 "/>
<path fill="none" stroke="#2e3436" stroke-width="1.5" d="M144,-129C144,-135 138,-141 132,-141"/>
<polyline fill="none" stroke="#2e3436" stroke-width="1.5" points="132,-141 68,-141 "/>
<path fill="none" stroke="#2e3436" stroke-width="1.5" d="M68,-141C62,-141 56,-135 56,-129"/>
<polyline fill="none" stroke="#2e3436" stroke-width="1.5" points="56,-129 56,-107 "/>
<path fill="none" stroke="#2e3436" stroke-width="1.5" d="M56,-107C56,-101 62,-95 68,-95"/>
<text text-anchor="middle" x="100" y="-129.8" font-family="FreeSans" font-size="8.00" fill="#1c2021">Swedish</text>
<polyline fill="none" stroke="#2e3436" stroke-width="1.5" points="56,-123 144,-123 "/>
<text text-anchor="start" x="64" y="-111.8" font-family="FreeSans" font-size="8.00" fill="#1c2021">name = &#39;Andres&#39;</text>
<text text-anchor="start" x="64" y="-101.8" font-family="FreeSans" font-size="8.00" fill="#1c2021">age = 36</text>
</g>
<!-- N2&#45;&gt;N0 -->
<g id="edge2" class="edge"><title>N2&#45;&gt;N0</title>
<path fill="none" stroke="#2e3436" stroke-width="2" d="M85.6629,-94.764C78.0643,-82.449 68.643,-67.18 60.4991,-53.9812"/>
<polygon fill="#2e3436" stroke="#2e3436" points="56.3732,-47.2944 63.1838,-51.905 58.7679,-50.2233 60.737,-53.4147 60.3115,-53.6772 59.886,-53.9398 57.9168,-50.7484 57.4393,-55.4495 56.3732,-47.2944 56.3732,-47.2944"/>
<text text-anchor="middle" x="88.5" y="-68.8" font-family="FreeSans" font-size="8.00" fill="#2e3436">KNOWS</text>
</g>
<!-- N2&#45;&gt;N1 -->
<g id="edge4" class="edge"><title>N2&#45;&gt;N1</title>
<path fill="none" stroke="#2e3436" stroke-width="2" d="M114.584,-94.764C122.314,-82.449 131.898,-67.18 140.182,-53.9812"/>
<polygon fill="#2e3436" stroke="#2e3436" points="144.379,-47.2944 143.25,-55.4411 142.809,-50.7364 140.815,-53.9126 140.392,-53.6468 139.968,-53.381 141.962,-50.2048 137.533,-51.8526 144.379,-47.2944 144.379,-47.2944"/>
<text text-anchor="middle" x="146.5" y="-68.8" font-family="FreeSans" font-size="8.00" fill="#2e3436">KNOWS</text>
</g>
</g>
</svg>
