<?xml version="1.0" encoding="UTF-8" standalone="no"?>
<!DOCTYPE svg PUBLIC "-//W3C//DTD SVG 1.1//EN"
 "http://www.w3.org/Graphics/SVG/1.1/DTD/svg11.dtd">
<!-- Generated by graphviz version 2.26.3 (20100126.1600)
 -->
<!-- Title: g Pages: 1 -->
<svg width="451pt" height="214pt"
 viewBox="0.00 0.00 451.09 214.00" xmlns="http://www.w3.org/2000/svg" xmlns:xlink="http://www.w3.org/1999/xlink">
<g id="graph1" class="graph" transform="scale(1 1) rotate(0) translate(4 210)">
<title>g</title>
<polygon fill="white" stroke="white" points="-4,5 -4,-210 448.094,-210 448.094,5 -4,5"/>
<!-- N0 -->
<g id="node1" class="node"><title>N0</title>
<polygon fill="#ffffff" stroke="#ffffff" stroke-width="1.5" points="248.094,-85 328.094,-85 340.094,-97 340.094,-109 328.094,-121 248.094,-121 236.094,-109 236.094,-97 248.094,-85"/>
<path fill="#ffffff" stroke="#ffffff" stroke-width="1.5" d="M328.094,-85C334.094,-85 340.094,-91 340.094,-97"/>
<path fill="#ffffff" stroke="#ffffff" stroke-width="1.5" d="M340.094,-109C340.094,-115 334.094,-121 328.094,-121"/>
<path fill="#ffffff" stroke="#ffffff" stroke-width="1.5" d="M248.094,-121C242.094,-121 236.094,-115 236.094,-109"/>
<path fill="#ffffff" stroke="#ffffff" stroke-width="1.5" d="M236.094,-97C236.094,-91 242.094,-85 248.094,-85"/>
<polyline fill="none" stroke="#2e3436" stroke-width="1.5" points="248.094,-85 328.094,-85 "/>
<path fill="none" stroke="#2e3436" stroke-width="1.5" d="M328.094,-85C334.094,-85 340.094,-91 340.094,-97"/>
<polyline fill="none" stroke="#2e3436" stroke-width="1.5" points="340.094,-97 340.094,-109 "/>
<path fill="none" stroke="#2e3436" stroke-width="1.5" d="M340.094,-109C340.094,-115 334.094,-121 328.094,-121"/>
<polyline fill="none" stroke="#2e3436" stroke-width="1.5" points="328.094,-121 248.094,-121 "/>
<path fill="none" stroke="#2e3436" stroke-width="1.5" d="M248.094,-121C242.094,-121 236.094,-115 236.094,-109"/>
<polyline fill="none" stroke="#2e3436" stroke-width="1.5" points="236.094,-109 236.094,-97 "/>
<path fill="none" stroke="#2e3436" stroke-width="1.5" d="M236.094,-97C236.094,-91 242.094,-85 248.094,-85"/>
<text text-anchor="start" x="244.094" y="-100.8" font-family="FreeSans" font-size="8.00" fill="#1c2021">Node[0]name = &#39;Bill&#39;</text>
</g>
<!-- N1 -->
<g id="node3" class="node"><title>N1</title>
<polygon fill="#ffffff" stroke="#ffffff" stroke-width="1.5" points="167.094,-1 265.094,-1 277.094,-13 277.094,-25 265.094,-37 167.094,-37 155.094,-25 155.094,-13 167.094,-1"/>
<path fill="#ffffff" stroke="#ffffff" stroke-width="1.5" d="M265.094,-1C271.094,-1 277.094,-7 277.094,-13"/>
<path fill="#ffffff" stroke="#ffffff" stroke-width="1.5" d="M277.094,-25C277.094,-31 271.094,-37 265.094,-37"/>
<path fill="#ffffff" stroke="#ffffff" stroke-width="1.5" d="M167.094,-37C161.094,-37 155.094,-31 155.094,-25"/>
<path fill="#ffffff" stroke="#ffffff" stroke-width="1.5" d="M155.094,-13C155.094,-7 161.094,-1 167.094,-1"/>
<polyline fill="none" stroke="#2e3436" stroke-width="1.5" points="167.094,-1 265.094,-1 "/>
<path fill="none" stroke="#2e3436" stroke-width="1.5" d="M265.094,-1C271.094,-1 277.094,-7 277.094,-13"/>
<polyline fill="none" stroke="#2e3436" stroke-width="1.5" points="277.094,-13 277.094,-25 "/>
<path fill="none" stroke="#2e3436" stroke-width="1.5" d="M277.094,-25C277.094,-31 271.094,-37 265.094,-37"/>
<polyline fill="none" stroke="#2e3436" stroke-width="1.5" points="265.094,-37 167.094,-37 "/>
<path fill="none" stroke="#2e3436" stroke-width="1.5" d="M167.094,-37C161.094,-37 155.094,-31 155.094,-25"/>
<polyline fill="none" stroke="#2e3436" stroke-width="1.5" points="155.094,-25 155.094,-13 "/>
<path fill="none" stroke="#2e3436" stroke-width="1.5" d="M155.094,-13C155.094,-7 161.094,-1 167.094,-1"/>
<text text-anchor="start" x="163.094" y="-16.8" font-family="FreeSans" font-size="8.00" fill="#1c2021">Node[1]name = &#39;Group1&#39;</text>
</g>
<!-- N0&#45;&gt;N1 -->
<g id="edge2" class="edge"><title>N0&#45;&gt;N1</title>
<path fill="none" stroke="#2e3436" stroke-width="2" d="M272.471,-84.7733C261.998,-72.5549 248.094,-56.3342 236.715,-43.0586"/>
<polygon fill="#2e3436" stroke="#2e3436" points="231.686,-37.1912 239.129,-40.6892 234.506,-39.713 236.947,-42.5602 236.567,-42.8856 236.187,-43.211 233.747,-40.3638 234.004,-45.0821 231.686,-37.1912 231.686,-37.1912"/>
<text text-anchor="middle" x="293.594" y="-58.8" font-family="FreeSans" font-size="8.00" fill="#2e3436">member_of_group</text>
</g>
<!-- N2 -->
<g id="node4" class="node"><title>N2</title>
<polygon fill="#ffffff" stroke="#ffffff" stroke-width="1.5" points="112.594,-85 195.594,-85 207.594,-97 207.594,-109 195.594,-121 112.594,-121 100.594,-109 100.594,-97 112.594,-85"/>
<path fill="#ffffff" stroke="#ffffff" stroke-width="1.5" d="M195.594,-85C201.594,-85 207.594,-91 207.594,-97"/>
<path fill="#ffffff" stroke="#ffffff" stroke-width="1.5" d="M207.594,-109C207.594,-115 201.594,-121 195.594,-121"/>
<path fill="#ffffff" stroke="#ffffff" stroke-width="1.5" d="M112.594,-121C106.594,-121 100.594,-115 100.594,-109"/>
<path fill="#ffffff" stroke="#ffffff" stroke-width="1.5" d="M100.594,-97C100.594,-91 106.594,-85 112.594,-85"/>
<polyline fill="none" stroke="#2e3436" stroke-width="1.5" points="112.594,-85 195.594,-85 "/>
<path fill="none" stroke="#2e3436" stroke-width="1.5" d="M195.594,-85C201.594,-85 207.594,-91 207.594,-97"/>
<polyline fill="none" stroke="#2e3436" stroke-width="1.5" points="207.594,-97 207.594,-109 "/>
<path fill="none" stroke="#2e3436" stroke-width="1.5" d="M207.594,-109C207.594,-115 201.594,-121 195.594,-121"/>
<polyline fill="none" stroke="#2e3436" stroke-width="1.5" points="195.594,-121 112.594,-121 "/>
<path fill="none" stroke="#2e3436" stroke-width="1.5" d="M112.594,-121C106.594,-121 100.594,-115 100.594,-109"/>
<polyline fill="none" stroke="#2e3436" stroke-width="1.5" points="100.594,-109 100.594,-97 "/>
<path fill="none" stroke="#2e3436" stroke-width="1.5" d="M100.594,-97C100.594,-91 106.594,-85 112.594,-85"/>
<text text-anchor="start" x="108.594" y="-100.8" font-family="FreeSans" font-size="8.00" fill="#1c2021">Node[2]name = &#39;Bob&#39;</text>
</g>
<!-- N2&#45;&gt;N1 -->
<g id="edge4" class="edge"><title>N2&#45;&gt;N1</title>
<path fill="none" stroke="#2e3436" stroke-width="2" d="M154.377,-84.8391C155.277,-75.5772 157.579,-64.5043 163.094,-56 166.516,-50.7214 170.982,-45.9803 175.869,-41.7944"/>
<polygon fill="#2e3436" stroke="#2e3436" points="181.763,-37.1367 177.971,-44.4349 179.131,-39.8541 176.189,-42.1792 175.879,-41.787 175.569,-41.3947 178.511,-39.0695 173.786,-39.139 181.763,-37.1367 181.763,-37.1367"/>
<text text-anchor="middle" x="202.594" y="-58.8" font-family="FreeSans" font-size="8.00" fill="#2e3436">member_of_group</text>
</g>
<!-- N3 -->
<g id="node6" class="node"><title>N3</title>
<polygon fill="#ffffff" stroke="#ffffff" stroke-width="1.5" points="86.0936,-169 162.094,-169 174.094,-181 174.094,-193 162.094,-205 86.0936,-205 74.0936,-193 74.0936,-181 86.0936,-169"/>
<path fill="#ffffff" stroke="#ffffff" stroke-width="1.5" d="M162.094,-169C168.094,-169 174.094,-175 174.094,-181"/>
<path fill="#ffffff" stroke="#ffffff" stroke-width="1.5" d="M174.094,-193C174.094,-199 168.094,-205 162.094,-205"/>
<path fill="#ffffff" stroke="#ffffff" stroke-width="1.5" d="M86.0936,-205C80.0936,-205 74.0936,-199 74.0936,-193"/>
<path fill="#ffffff" stroke="#ffffff" stroke-width="1.5" d="M74.0936,-181C74.0936,-175 80.0936,-169 86.0936,-169"/>
<polyline fill="none" stroke="#2e3436" stroke-width="1.5" points="86.0936,-169 162.094,-169 "/>
<path fill="none" stroke="#2e3436" stroke-width="1.5" d="M162.094,-169C168.094,-169 174.094,-175 174.094,-181"/>
<polyline fill="none" stroke="#2e3436" stroke-width="1.5" points="174.094,-181 174.094,-193 "/>
<path fill="none" stroke="#2e3436" stroke-width="1.5" d="M174.094,-193C174.094,-199 168.094,-205 162.094,-205"/>
<polyline fill="none" stroke="#2e3436" stroke-width="1.5" points="162.094,-205 86.0936,-205 "/>
<path fill="none" stroke="#2e3436" stroke-width="1.5" d="M86.0936,-205C80.0936,-205 74.0936,-199 74.0936,-193"/>
<polyline fill="none" stroke="#2e3436" stroke-width="1.5" points="74.0936,-193 74.0936,-181 "/>
<path fill="none" stroke="#2e3436" stroke-width="1.5" d="M74.0936,-181C74.0936,-175 80.0936,-169 86.0936,-169"/>
<text text-anchor="start" x="82.0936" y="-184.8" font-family="FreeSans" font-size="8.00" fill="#1c2021">Node[3]name = &#39;Jill&#39;</text>
</g>
<!-- N3&#45;&gt;N0 -->
<g id="edge8" class="edge"><title>N3&#45;&gt;N0</title>
<path fill="none" stroke="#4e9a06" stroke-width="2" d="M159.276,-168.98C184.59,-156.014 218.857,-138.463 245.685,-124.722"/>
<polygon fill="#4e9a06" stroke="#4e9a06" points="252.687,-121.135 247.55,-127.558 249.577,-123.29 246.24,-124.999 246.012,-124.554 245.784,-124.109 249.121,-122.4 244.473,-121.55 252.687,-121.135 252.687,-121.135"/>
<text text-anchor="middle" x="224.094" y="-142.8" font-family="FreeSans" font-size="8.00" fill="#4e9a06">knows</text>
</g>
<!-- N3&#45;&gt;N1 -->
<g id="edge6" class="edge"><title>N3&#45;&gt;N1</title>
<path fill="none" stroke="#2e3436" stroke-width="2" d="M75.8432,-168.944C33.218,-150.189 -18.4978,-118.76 7.09357,-84 24.0382,-60.9849 93.2311,-42.5745 147.42,-31.3037"/>
<polygon fill="#2e3436" stroke="#2e3436" points="154.96,-29.761 148.288,-34.571 151.386,-31.0026 147.712,-31.7544 147.612,-31.2645 147.512,-30.7747 151.185,-30.0229 146.935,-27.958 154.96,-29.761 154.96,-29.761"/>
<text text-anchor="middle" x="46.5936" y="-100.8" font-family="FreeSans" font-size="8.00" fill="#2e3436">member_of_group</text>
</g>
<!-- N4 -->
<g id="node9" class="node"><title>N4</title>
<polygon fill="#ffffff" stroke="#ffffff" stroke-width="1.5" points="313.094,-169 393.094,-169 405.094,-181 405.094,-193 393.094,-205 313.094,-205 301.094,-193 301.094,-181 313.094,-169"/>
<path fill="#ffffff" stroke="#ffffff" stroke-width="1.5" d="M393.094,-169C399.094,-169 405.094,-175 405.094,-181"/>
<path fill="#ffffff" stroke="#ffffff" stroke-width="1.5" d="M405.094,-193C405.094,-199 399.094,-205 393.094,-205"/>
<path fill="#ffffff" stroke="#ffffff" stroke-width="1.5" d="M313.094,-205C307.094,-205 301.094,-199 301.094,-193"/>
<path fill="#ffffff" stroke="#ffffff" stroke-width="1.5" d="M301.094,-181C301.094,-175 307.094,-169 313.094,-169"/>
<polyline fill="none" stroke="#2e3436" stroke-width="1.5" points="313.094,-169 393.094,-169 "/>
<path fill="none" stroke="#2e3436" stroke-width="1.5" d="M393.094,-169C399.094,-169 405.094,-175 405.094,-181"/>
<polyline fill="none" stroke="#2e3436" stroke-width="1.5" points="405.094,-181 405.094,-193 "/>
<path fill="none" stroke="#2e3436" stroke-width="1.5" d="M405.094,-193C405.094,-199 399.094,-205 393.094,-205"/>
<polyline fill="none" stroke="#2e3436" stroke-width="1.5" points="393.094,-205 313.094,-205 "/>
<path fill="none" stroke="#2e3436" stroke-width="1.5" d="M313.094,-205C307.094,-205 301.094,-199 301.094,-193"/>
<polyline fill="none" stroke="#2e3436" stroke-width="1.5" points="301.094,-193 301.094,-181 "/>
<path fill="none" stroke="#2e3436" stroke-width="1.5" d="M301.094,-181C301.094,-175 307.094,-169 313.094,-169"/>
<text text-anchor="start" x="309.094" y="-184.8" font-family="FreeSans" font-size="8.00" fill="#1c2021">Node[4]name = &#39;Joe&#39;</text>
</g>
<!-- N4&#45;&gt;N0 -->
<g id="edge12" class="edge"><title>N4&#45;&gt;N0</title>
<path fill="none" stroke="#4e9a06" stroke-width="2" d="M338.99,-168.773C329.62,-156.665 317.209,-140.626 306.989,-127.418"/>
<polygon fill="#4e9a06" stroke="#4e9a06" points="302.17,-121.191 309.429,-125.057 304.86,-123.851 307.155,-126.817 306.76,-127.123 306.365,-127.429 304.07,-124.463 304.091,-129.188 302.17,-121.191 302.17,-121.191"/>
<text text-anchor="middle" x="336.094" y="-142.8" font-family="FreeSans" font-size="8.00" fill="#4e9a06">knows</text>
</g>
<!-- N4&#45;&gt;N1 -->
<g id="edge10" class="edge"><title>N4&#45;&gt;N1</title>
<path fill="none" stroke="#2e3436" stroke-width="2" d="M358.207,-168.529C365.053,-139.241 372.851,-82.7333 340.094,-56 324.274,-43.0898 304.058,-34.6829 284.56,-29.209"/>
<polygon fill="#2e3436" stroke="#2e3436" points="277.133,-27.2513 285.246,-25.8995 280.887,-27.7237 284.513,-28.6796 284.386,-29.163 284.258,-29.6465 280.632,-28.6907 283.525,-32.4266 277.133,-27.2513 277.133,-27.2513"/>
<text text-anchor="middle" x="403.594" y="-100.8" font-family="FreeSans" font-size="8.00" fill="#2e3436">member_of_group</text>
</g>
</g>
</svg>
