<?xml version="1.0" encoding="UTF-8" standalone="no"?>
<!DOCTYPE svg PUBLIC "-//W3C//DTD SVG 1.1//EN"
 "http://www.w3.org/Graphics/SVG/1.1/DTD/svg11.dtd">
<!-- Generated by graphviz version 2.26.3 (20100126.1600)
 -->
<!-- Title: g Pages: 1 -->
<svg width="435pt" height="410pt"
 viewBox="0.00 0.00 435.00 410.00" xmlns="http://www.w3.org/2000/svg" xmlns:xlink="http://www.w3.org/1999/xlink">
<g id="graph1" class="graph" transform="scale(1 1) rotate(0) translate(4 406)">
<title>g</title>
<polygon fill="white" stroke="white" points="-4,5 -4,-406 432,-406 432,5 -4,5"/>
<!-- N0 -->
<g id="node1" class="node"><title>N0</title>
<polygon fill="#ffffff" stroke="#ffffff" stroke-width="1.5" points="175,-365 225,-365 237,-377 237,-389 225,-401 175,-401 163,-389 163,-377 175,-365"/>
<path fill="#ffffff" stroke="#ffffff" stroke-width="1.5" d="M225,-365C231,-365 237,-371 237,-377"/>
<path fill="#ffffff" stroke="#ffffff" stroke-width="1.5" d="M237,-389C237,-395 231,-401 225,-401"/>
<path fill="#ffffff" stroke="#ffffff" stroke-width="1.5" d="M175,-401C169,-401 163,-395 163,-389"/>
<path fill="#ffffff" stroke="#ffffff" stroke-width="1.5" d="M163,-377C163,-371 169,-365 175,-365"/>
<polyline fill="none" stroke="#2e3436" stroke-width="1.5" points="175,-365 225,-365 "/>
<path fill="none" stroke="#2e3436" stroke-width="1.5" d="M225,-365C231,-365 237,-371 237,-377"/>
<polyline fill="none" stroke="#2e3436" stroke-width="1.5" points="237,-377 237,-389 "/>
<path fill="none" stroke="#2e3436" stroke-width="1.5" d="M237,-389C237,-395 231,-401 225,-401"/>
<polyline fill="none" stroke="#2e3436" stroke-width="1.5" points="225,-401 175,-401 "/>
<path fill="none" stroke="#2e3436" stroke-width="1.5" d="M175,-401C169,-401 163,-395 163,-389"/>
<polyline fill="none" stroke="#2e3436" stroke-width="1.5" points="163,-389 163,-377 "/>
<path fill="none" stroke="#2e3436" stroke-width="1.5" d="M163,-377C163,-371 169,-365 175,-365"/>
<text text-anchor="start" x="171" y="-380.8" font-family="FreeSans" font-size="8.00" fill="#1c2021">name = &#39;Bob&#39;</text>
</g>
<!-- N1 -->
<g id="node3" class="node"><title>N1</title>
<polygon fill="#ffffff" stroke="#ffffff" stroke-width="1.5" points="21,-269 103,-269 115,-281 115,-295 103,-307 21,-307 9,-295 9,-281 21,-269"/>
<path fill="#ffffff" stroke="#ffffff" stroke-width="1.5" d="M103,-269C109,-269 115,-275 115,-281"/>
<path fill="#ffffff" stroke="#ffffff" stroke-width="1.5" d="M115,-295C115,-301 109,-307 103,-307"/>
<path fill="#ffffff" stroke="#ffffff" stroke-width="1.5" d="M21,-307C15,-307 9,-301 9,-295"/>
<path fill="#ffffff" stroke="#ffffff" stroke-width="1.5" d="M9,-281C9,-275 15,-269 21,-269"/>
<polyline fill="none" stroke="#2e3436" stroke-width="1.5" points="21,-269 103,-269 "/>
<path fill="none" stroke="#2e3436" stroke-width="1.5" d="M103,-269C109,-269 115,-275 115,-281"/>
<polyline fill="none" stroke="#2e3436" stroke-width="1.5" points="115,-281 115,-295 "/>
<path fill="none" stroke="#2e3436" stroke-width="1.5" d="M115,-295C115,-301 109,-307 103,-307"/>
<polyline fill="none" stroke="#2e3436" stroke-width="1.5" points="103,-307 21,-307 "/>
<path fill="none" stroke="#2e3436" stroke-width="1.5" d="M21,-307C15,-307 9,-301 9,-295"/>
<polyline fill="none" stroke="#2e3436" stroke-width="1.5" points="9,-295 9,-281 "/>
<path fill="none" stroke="#2e3436" stroke-width="1.5" d="M9,-281C9,-275 15,-269 21,-269"/>
<text text-anchor="start" x="17" y="-295.8" font-family="FreeSans" font-size="8.00" fill="#1c2021">name = &#39;bob_s1&#39;</text>
<text text-anchor="start" x="17" y="-285.8" font-family="FreeSans" font-size="8.00" fill="#1c2021">text = &#39;bobs status1&#39;</text>
<text text-anchor="start" x="17" y="-275.8" font-family="FreeSans" font-size="8.00" fill="#1c2021">date = 1</text>
</g>
<!-- N0&#45;&gt;N1 -->
<g id="edge2" class="edge"><title>N0&#45;&gt;N1</title>
<path fill="none" stroke="#2e3436" stroke-width="2" d="M173.718,-364.908C151.608,-349.687 119.849,-327.824 95.8407,-311.296"/>
<polygon fill="#2e3436" stroke="#2e3436" points="89.6024,-307.002 97.6939,-308.475 92.9748,-308.716 96.0637,-310.843 95.7802,-311.254 95.4966,-311.666 92.4078,-309.54 93.8664,-314.034 89.6024,-307.002 89.6024,-307.002"/>
<text text-anchor="middle" x="160.5" y="-333.8" font-family="FreeSans" font-size="8.00" fill="#2e3436">STATUS</text>
</g>
<!-- N3 -->
<g id="node5" class="node"><title>N3</title>
<polygon fill="#ffffff" stroke="#ffffff" stroke-width="1.5" points="173.5,-270 226.5,-270 238.5,-282 238.5,-294 226.5,-306 173.5,-306 161.5,-294 161.5,-282 173.5,-270"/>
<path fill="#ffffff" stroke="#ffffff" stroke-width="1.5" d="M226.5,-270C232.5,-270 238.5,-276 238.5,-282"/>
<path fill="#ffffff" stroke="#ffffff" stroke-width="1.5" d="M238.5,-294C238.5,-300 232.5,-306 226.5,-306"/>
<path fill="#ffffff" stroke="#ffffff" stroke-width="1.5" d="M173.5,-306C167.5,-306 161.5,-300 161.5,-294"/>
<path fill="#ffffff" stroke="#ffffff" stroke-width="1.5" d="M161.5,-282C161.5,-276 167.5,-270 173.5,-270"/>
<polyline fill="none" stroke="#2e3436" stroke-width="1.5" points="173.5,-270 226.5,-270 "/>
<path fill="none" stroke="#2e3436" stroke-width="1.5" d="M226.5,-270C232.5,-270 238.5,-276 238.5,-282"/>
<polyline fill="none" stroke="#2e3436" stroke-width="1.5" points="238.5,-282 238.5,-294 "/>
<path fill="none" stroke="#2e3436" stroke-width="1.5" d="M238.5,-294C238.5,-300 232.5,-306 226.5,-306"/>
<polyline fill="none" stroke="#2e3436" stroke-width="1.5" points="226.5,-306 173.5,-306 "/>
<path fill="none" stroke="#2e3436" stroke-width="1.5" d="M173.5,-306C167.5,-306 161.5,-300 161.5,-294"/>
<polyline fill="none" stroke="#2e3436" stroke-width="1.5" points="161.5,-294 161.5,-282 "/>
<path fill="none" stroke="#2e3436" stroke-width="1.5" d="M161.5,-282C161.5,-276 167.5,-270 173.5,-270"/>
<text text-anchor="start" x="169.5" y="-285.8" font-family="FreeSans" font-size="8.00" fill="#1c2021">name = &#39;Alice&#39;</text>
</g>
<!-- N0&#45;&gt;N3 -->
<g id="edge4" class="edge"><title>N0&#45;&gt;N3</title>
<path fill="none" stroke="#4e9a06" stroke-width="2" d="M200,-364.683C200,-350.226 200,-329.881 200,-313.78"/>
<polygon fill="#4e9a06" stroke="#4e9a06" points="200,-306.261 203.375,-313.761 200.5,-310.011 200.5,-313.761 200,-313.761 199.5,-313.761 199.5,-310.011 196.625,-313.761 200,-306.261 200,-306.261"/>
<text text-anchor="middle" x="247" y="-338.8" font-family="FreeSans" font-size="8.00" fill="#4e9a06">FRIEND</text>
<text text-anchor="start" x="200" y="-328.8" font-family="FreeSans" font-size="8.00" fill="#4e9a06">status = &#39;CONFIRMED&#39;</text>
</g>
<!-- N2 -->
<g id="node7" class="node"><title>N2</title>
<polygon fill="#ffffff" stroke="#ffffff" stroke-width="1.5" points="12,-173 94,-173 106,-185 106,-199 94,-211 12,-211 0,-199 0,-185 12,-173"/>
<path fill="#ffffff" stroke="#ffffff" stroke-width="1.5" d="M94,-173C100,-173 106,-179 106,-185"/>
<path fill="#ffffff" stroke="#ffffff" stroke-width="1.5" d="M106,-199C106,-205 100,-211 94,-211"/>
<path fill="#ffffff" stroke="#ffffff" stroke-width="1.5" d="M12,-211C6,-211 0,-205 0,-199"/>
<path fill="#ffffff" stroke="#ffffff" stroke-width="1.5" d="M0,-185C0,-179 6,-173 12,-173"/>
<polyline fill="none" stroke="#2e3436" stroke-width="1.5" points="12,-173 94,-173 "/>
<path fill="none" stroke="#2e3436" stroke-width="1.5" d="M94,-173C100,-173 106,-179 106,-185"/>
<polyline fill="none" stroke="#2e3436" stroke-width="1.5" points="106,-185 106,-199 "/>
<path fill="none" stroke="#2e3436" stroke-width="1.5" d="M106,-199C106,-205 100,-211 94,-211"/>
<polyline fill="none" stroke="#2e3436" stroke-width="1.5" points="94,-211 12,-211 "/>
<path fill="none" stroke="#2e3436" stroke-width="1.5" d="M12,-211C6,-211 0,-205 0,-199"/>
<polyline fill="none" stroke="#2e3436" stroke-width="1.5" points="0,-199 0,-185 "/>
<path fill="none" stroke="#2e3436" stroke-width="1.5" d="M0,-185C0,-179 6,-173 12,-173"/>
<text text-anchor="start" x="8" y="-199.8" font-family="FreeSans" font-size="8.00" fill="#1c2021">name = &#39;bob_s2&#39;</text>
<text text-anchor="start" x="8" y="-189.8" font-family="FreeSans" font-size="8.00" fill="#1c2021">text = &#39;bobs status2&#39;</text>
<text text-anchor="start" x="8" y="-179.8" font-family="FreeSans" font-size="8.00" fill="#1c2021">date = 4</text>
</g>
<!-- N1&#45;&gt;N2 -->
<g id="edge6" class="edge"><title>N1&#45;&gt;N2</title>
<path fill="none" stroke="#a40000" stroke-width="2" d="M60.1787,-268.573C58.8403,-254.296 57.0048,-234.718 55.5248,-218.932"/>
<polygon fill="#a40000" stroke="#a40000" points="54.7879,-211.071 58.8483,-218.223 55.6357,-214.757 55.9858,-218.491 55.488,-218.538 54.9902,-218.584 54.6401,-214.851 52.1277,-218.853 54.7879,-211.071 54.7879,-211.071"/>
<text text-anchor="middle" x="70" y="-237.8" font-family="FreeSans" font-size="8.00" fill="#a40000">NEXT</text>
</g>
<!-- N4 -->
<g id="node9" class="node"><title>N4</title>
<polygon fill="#ffffff" stroke="#ffffff" stroke-width="1.5" points="147,-173 233,-173 245,-185 245,-199 233,-211 147,-211 135,-199 135,-185 147,-173"/>
<path fill="#ffffff" stroke="#ffffff" stroke-width="1.5" d="M233,-173C239,-173 245,-179 245,-185"/>
<path fill="#ffffff" stroke="#ffffff" stroke-width="1.5" d="M245,-199C245,-205 239,-211 233,-211"/>
<path fill="#ffffff" stroke="#ffffff" stroke-width="1.5" d="M147,-211C141,-211 135,-205 135,-199"/>
<path fill="#ffffff" stroke="#ffffff" stroke-width="1.5" d="M135,-185C135,-179 141,-173 147,-173"/>
<polyline fill="none" stroke="#2e3436" stroke-width="1.5" points="147,-173 233,-173 "/>
<path fill="none" stroke="#2e3436" stroke-width="1.5" d="M233,-173C239,-173 245,-179 245,-185"/>
<polyline fill="none" stroke="#2e3436" stroke-width="1.5" points="245,-185 245,-199 "/>
<path fill="none" stroke="#2e3436" stroke-width="1.5" d="M245,-199C245,-205 239,-211 233,-211"/>
<polyline fill="none" stroke="#2e3436" stroke-width="1.5" points="233,-211 147,-211 "/>
<path fill="none" stroke="#2e3436" stroke-width="1.5" d="M147,-211C141,-211 135,-205 135,-199"/>
<polyline fill="none" stroke="#2e3436" stroke-width="1.5" points="135,-199 135,-185 "/>
<path fill="none" stroke="#2e3436" stroke-width="1.5" d="M135,-185C135,-179 141,-173 147,-173"/>
<text text-anchor="start" x="143" y="-199.8" font-family="FreeSans" font-size="8.00" fill="#1c2021">name = &#39;alice_s1&#39;</text>
<text text-anchor="start" x="143" y="-189.8" font-family="FreeSans" font-size="8.00" fill="#1c2021">text = &#39;Alices status1&#39;</text>
<text text-anchor="start" x="143" y="-179.8" font-family="FreeSans" font-size="8.00" fill="#1c2021">date = 2</text>
</g>
<!-- N3&#45;&gt;N4 -->
<g id="edge8" class="edge"><title>N3&#45;&gt;N4</title>
<path fill="none" stroke="#2e3436" stroke-width="2" d="M187.541,-269.85C184.071,-263.807 180.77,-256.861 179,-250 176.369,-239.798 177.624,-228.438 180.069,-218.493"/>
<polygon fill="#2e3436" stroke="#2e3436" points="182.126,-211.208 183.336,-219.343 181.589,-214.953 180.57,-218.562 180.088,-218.426 179.607,-218.29 180.626,-214.681 176.84,-217.509 182.126,-211.208 182.126,-211.208"/>
<text text-anchor="middle" x="195.5" y="-237.8" font-family="FreeSans" font-size="8.00" fill="#2e3436">STATUS</text>
</g>
<!-- N6 -->
<g id="node11" class="node"><title>N6</title>
<polygon fill="#ffffff" stroke="#ffffff" stroke-width="1.5" points="308.5,-174 355.5,-174 367.5,-186 367.5,-198 355.5,-210 308.5,-210 296.5,-198 296.5,-186 308.5,-174"/>
<path fill="#ffffff" stroke="#ffffff" stroke-width="1.5" d="M355.5,-174C361.5,-174 367.5,-180 367.5,-186"/>
<path fill="#ffffff" stroke="#ffffff" stroke-width="1.5" d="M367.5,-198C367.5,-204 361.5,-210 355.5,-210"/>
<path fill="#ffffff" stroke="#ffffff" stroke-width="1.5" d="M308.5,-210C302.5,-210 296.5,-204 296.5,-198"/>
<path fill="#ffffff" stroke="#ffffff" stroke-width="1.5" d="M296.5,-186C296.5,-180 302.5,-174 308.5,-174"/>
<polyline fill="none" stroke="#2e3436" stroke-width="1.5" points="308.5,-174 355.5,-174 "/>
<path fill="none" stroke="#2e3436" stroke-width="1.5" d="M355.5,-174C361.5,-174 367.5,-180 367.5,-186"/>
<polyline fill="none" stroke="#2e3436" stroke-width="1.5" points="367.5,-186 367.5,-198 "/>
<path fill="none" stroke="#2e3436" stroke-width="1.5" d="M367.5,-198C367.5,-204 361.5,-210 355.5,-210"/>
<polyline fill="none" stroke="#2e3436" stroke-width="1.5" points="355.5,-210 308.5,-210 "/>
<path fill="none" stroke="#2e3436" stroke-width="1.5" d="M308.5,-210C302.5,-210 296.5,-204 296.5,-198"/>
<polyline fill="none" stroke="#2e3436" stroke-width="1.5" points="296.5,-198 296.5,-186 "/>
<path fill="none" stroke="#2e3436" stroke-width="1.5" d="M296.5,-186C296.5,-180 302.5,-174 308.5,-174"/>
<text text-anchor="start" x="304.5" y="-189.8" font-family="FreeSans" font-size="8.00" fill="#1c2021">name = &#39;Joe&#39;</text>
</g>
<!-- N3&#45;&gt;N6 -->
<g id="edge10" class="edge"><title>N3&#45;&gt;N6</title>
<path fill="none" stroke="#4e9a06" stroke-width="2" d="M211.007,-269.845C219.343,-257.32 231.766,-241.006 246,-230 258.873,-220.047 274.761,-212.083 289.364,-206.069"/>
<polygon fill="#4e9a06" stroke="#4e9a06" points="296.411,-203.273 290.684,-209.176 293.11,-205.12 289.624,-206.504 289.44,-206.039 289.255,-205.574 292.741,-204.191 288.195,-202.902 296.411,-203.273 296.411,-203.273"/>
<text text-anchor="middle" x="287" y="-242.8" font-family="FreeSans" font-size="8.00" fill="#4e9a06">FRIEND</text>
<text text-anchor="start" x="246" y="-232.8" font-family="FreeSans" font-size="8.00" fill="#4e9a06">status = &#39;PENDING&#39;</text>
</g>
<!-- N5 -->
<g id="node13" class="node"><title>N5</title>
<polygon fill="#ffffff" stroke="#ffffff" stroke-width="1.5" points="147,-87 233,-87 245,-99 245,-113 233,-125 147,-125 135,-113 135,-99 147,-87"/>
<path fill="#ffffff" stroke="#ffffff" stroke-width="1.5" d="M233,-87C239,-87 245,-93 245,-99"/>
<path fill="#ffffff" stroke="#ffffff" stroke-width="1.5" d="M245,-113C245,-119 239,-125 233,-125"/>
<path fill="#ffffff" stroke="#ffffff" stroke-width="1.5" d="M147,-125C141,-125 135,-119 135,-113"/>
<path fill="#ffffff" stroke="#ffffff" stroke-width="1.5" d="M135,-99C135,-93 141,-87 147,-87"/>
<polyline fill="none" stroke="#2e3436" stroke-width="1.5" points="147,-87 233,-87 "/>
<path fill="none" stroke="#2e3436" stroke-width="1.5" d="M233,-87C239,-87 245,-93 245,-99"/>
<polyline fill="none" stroke="#2e3436" stroke-width="1.5" points="245,-99 245,-113 "/>
<path fill="none" stroke="#2e3436" stroke-width="1.5" d="M245,-113C245,-119 239,-125 233,-125"/>
<polyline fill="none" stroke="#2e3436" stroke-width="1.5" points="233,-125 147,-125 "/>
<path fill="none" stroke="#2e3436" stroke-width="1.5" d="M147,-125C141,-125 135,-119 135,-113"/>
<polyline fill="none" stroke="#2e3436" stroke-width="1.5" points="135,-113 135,-99 "/>
<path fill="none" stroke="#2e3436" stroke-width="1.5" d="M135,-99C135,-93 141,-87 147,-87"/>
<text text-anchor="start" x="143" y="-113.8" font-family="FreeSans" font-size="8.00" fill="#1c2021">name = &#39;alice_s2&#39;</text>
<text text-anchor="start" x="143" y="-103.8" font-family="FreeSans" font-size="8.00" fill="#1c2021">text = &#39;Alices status2&#39;</text>
<text text-anchor="start" x="143" y="-93.8" font-family="FreeSans" font-size="8.00" fill="#1c2021">date = 5</text>
</g>
<!-- N4&#45;&gt;N5 -->
<g id="edge12" class="edge"><title>N4&#45;&gt;N5</title>
<path fill="none" stroke="#a40000" stroke-width="2" d="M190,-172.914C190,-161.112 190,-145.785 190,-132.779"/>
<polygon fill="#a40000" stroke="#a40000" points="190,-125.033 193.375,-132.533 190.5,-128.783 190.5,-132.533 190,-132.533 189.5,-132.533 189.5,-128.783 186.625,-132.533 190,-125.033 190,-125.033"/>
<text text-anchor="middle" x="201" y="-146.8" font-family="FreeSans" font-size="8.00" fill="#a40000">NEXT</text>
</g>
<!-- N6&#45;&gt;N0 -->
<g id="edge16" class="edge"><title>N6&#45;&gt;N0</title>
<path fill="none" stroke="#4e9a06" stroke-width="2" d="M334.028,-210.202C336.508,-242.178 336.652,-308.585 301,-346 286.15,-361.584 264.195,-370.636 244.545,-375.878"/>
<polygon fill="#4e9a06" stroke="#4e9a06" points="237.146,-377.706 243.617,-372.631 240.666,-376.321 244.307,-375.422 244.427,-375.907 244.547,-376.393 240.906,-377.292 245.236,-379.184 237.146,-377.706 237.146,-377.706"/>
<text text-anchor="middle" x="380" y="-290.8" font-family="FreeSans" font-size="8.00" fill="#4e9a06">FRIEND</text>
<text text-anchor="start" x="333" y="-280.8" font-family="FreeSans" font-size="8.00" fill="#4e9a06">status = &#39;CONFIRMED&#39;</text>
</g>
<!-- N7 -->
<g id="node15" class="node"><title>N7</title>
<polygon fill="#ffffff" stroke="#ffffff" stroke-width="1.5" points="295,-87 369,-87 381,-99 381,-113 369,-125 295,-125 283,-113 283,-99 295,-87"/>
<path fill="#ffffff" stroke="#ffffff" stroke-width="1.5" d="M369,-87C375,-87 381,-93 381,-99"/>
<path fill="#ffffff" stroke="#ffffff" stroke-width="1.5" d="M381,-113C381,-119 375,-125 369,-125"/>
<path fill="#ffffff" stroke="#ffffff" stroke-width="1.5" d="M295,-125C289,-125 283,-119 283,-113"/>
<path fill="#ffffff" stroke="#ffffff" stroke-width="1.5" d="M283,-99C283,-93 289,-87 295,-87"/>
<polyline fill="none" stroke="#2e3436" stroke-width="1.5" points="295,-87 369,-87 "/>
<path fill="none" stroke="#2e3436" stroke-width="1.5" d="M369,-87C375,-87 381,-93 381,-99"/>
<polyline fill="none" stroke="#2e3436" stroke-width="1.5" points="381,-99 381,-113 "/>
<path fill="none" stroke="#2e3436" stroke-width="1.5" d="M381,-113C381,-119 375,-125 369,-125"/>
<polyline fill="none" stroke="#2e3436" stroke-width="1.5" points="369,-125 295,-125 "/>
<path fill="none" stroke="#2e3436" stroke-width="1.5" d="M295,-125C289,-125 283,-119 283,-113"/>
<polyline fill="none" stroke="#2e3436" stroke-width="1.5" points="283,-113 283,-99 "/>
<path fill="none" stroke="#2e3436" stroke-width="1.5" d="M283,-99C283,-93 289,-87 295,-87"/>
<text text-anchor="start" x="291" y="-113.8" font-family="FreeSans" font-size="8.00" fill="#1c2021">name = &#39;joe_s1&#39;</text>
<text text-anchor="start" x="291" y="-103.8" font-family="FreeSans" font-size="8.00" fill="#1c2021">text = &#39;Joe status1&#39;</text>
<text text-anchor="start" x="291" y="-93.8" font-family="FreeSans" font-size="8.00" fill="#1c2021">date = 3</text>
</g>
<!-- N6&#45;&gt;N7 -->
<g id="edge14" class="edge"><title>N6&#45;&gt;N7</title>
<path fill="none" stroke="#2e3436" stroke-width="2" d="M332,-173.762C332,-161.809 332,-145.984 332,-132.633"/>
<polygon fill="#2e3436" stroke="#2e3436" points="332,-125.106 335.375,-132.606 332.5,-128.856 332.5,-132.606 332,-132.606 331.5,-132.606 331.5,-128.856 328.625,-132.606 332,-125.106 332,-125.106"/>
<text text-anchor="middle" x="348.5" y="-146.8" font-family="FreeSans" font-size="8.00" fill="#2e3436">STATUS</text>
</g>
<!-- N8 -->
<g id="node18" class="node"><title>N8</title>
<polygon fill="#ffffff" stroke="#ffffff" stroke-width="1.5" points="295,-1 369,-1 381,-13 381,-27 369,-39 295,-39 283,-27 283,-13 295,-1"/>
<path fill="#ffffff" stroke="#ffffff" stroke-width="1.5" d="M369,-1C375,-1 381,-7 381,-13"/>
<path fill="#ffffff" stroke="#ffffff" stroke-width="1.5" d="M381,-27C381,-33 375,-39 369,-39"/>
<path fill="#ffffff" stroke="#ffffff" stroke-width="1.5" d="M295,-39C289,-39 283,-33 283,-27"/>
<path fill="#ffffff" stroke="#ffffff" stroke-width="1.5" d="M283,-13C283,-7 289,-1 295,-1"/>
<polyline fill="none" stroke="#2e3436" stroke-width="1.5" points="295,-1 369,-1 "/>
<path fill="none" stroke="#2e3436" stroke-width="1.5" d="M369,-1C375,-1 381,-7 381,-13"/>
<polyline fill="none" stroke="#2e3436" stroke-width="1.5" points="381,-13 381,-27 "/>
<path fill="none" stroke="#2e3436" stroke-width="1.5" d="M381,-27C381,-33 375,-39 369,-39"/>
<polyline fill="none" stroke="#2e3436" stroke-width="1.5" points="369,-39 295,-39 "/>
<path fill="none" stroke="#2e3436" stroke-width="1.5" d="M295,-39C289,-39 283,-33 283,-27"/>
<polyline fill="none" stroke="#2e3436" stroke-width="1.5" points="283,-27 283,-13 "/>
<path fill="none" stroke="#2e3436" stroke-width="1.5" d="M283,-13C283,-7 289,-1 295,-1"/>
<text text-anchor="start" x="291" y="-27.8" font-family="FreeSans" font-size="8.00" fill="#1c2021">name = &#39;joe_s2&#39;</text>
<text text-anchor="start" x="291" y="-17.8" font-family="FreeSans" font-size="8.00" fill="#1c2021">text = &#39;Joe status2&#39;</text>
<text text-anchor="start" x="291" y="-7.8" font-family="FreeSans" font-size="8.00" fill="#1c2021">date = 6</text>
</g>
<!-- N7&#45;&gt;N8 -->
<g id="edge18" class="edge"><title>N7&#45;&gt;N8</title>
<path fill="none" stroke="#a40000" stroke-width="2" d="M332,-86.9138C332,-75.1117 332,-59.7853 332,-46.779"/>
<polygon fill="#a40000" stroke="#a40000" points="332,-39.0328 335.375,-46.5328 332.5,-42.7828 332.5,-46.5328 332,-46.5328 331.5,-46.5328 331.5,-42.7828 328.625,-46.5329 332,-39.0328 332,-39.0328"/>
<text text-anchor="middle" x="343" y="-60.8" font-family="FreeSans" font-size="8.00" fill="#a40000">NEXT</text>
</g>
</g>
</svg>
