<?xml version="1.0" encoding="UTF-8" standalone="no"?>
<!DOCTYPE svg PUBLIC "-//W3C//DTD SVG 1.1//EN"
 "http://www.w3.org/Graphics/SVG/1.1/DTD/svg11.dtd">
<!-- Generated by graphviz version 2.26.3 (20100126.1600)
 -->
<!-- Title: g Pages: 1 -->
<svg width="201pt" height="150pt"
 viewBox="0.00 0.00 201.00 150.00" xmlns="http://www.w3.org/2000/svg" xmlns:xlink="http://www.w3.org/1999/xlink">
<g id="graph1" class="graph" transform="scale(1 1) rotate(0) translate(4 146)">
<title>g</title>
<polygon fill="white" stroke="white" points="-4,5 -4,-146 198,-146 198,5 -4,5"/>
<!-- N0 -->
<g id="node1" class="node"><title>N0</title>
<polygon fill="#ffffff" stroke="#ffffff" stroke-width="1.5" points="11.5,-1 72.5,-1 84.5,-13 84.5,-25 72.5,-37 11.5,-37 -0.5,-25 -0.5,-13 11.5,-1"/>
<path fill="#ffffff" stroke="#ffffff" stroke-width="1.5" d="M72.5,-1C78.5,-1 84.5,-7 84.5,-13"/>
<path fill="#ffffff" stroke="#ffffff" stroke-width="1.5" d="M84.5,-25C84.5,-31 78.5,-37 72.5,-37"/>
<path fill="#ffffff" stroke="#ffffff" stroke-width="1.5" d="M11.5,-37C5.5,-37 -0.5,-31 -0.5,-25"/>
<path fill="#ffffff" stroke="#ffffff" stroke-width="1.5" d="M-0.5,-13C-0.5,-7 5.5,-1 11.5,-1"/>
<polyline fill="none" stroke="#2e3436" stroke-width="1.5" points="11.5,-1 72.5,-1 "/>
<path fill="none" stroke="#2e3436" stroke-width="1.5" d="M72.5,-1C78.5,-1 84.5,-7 84.5,-13"/>
<polyline fill="none" stroke="#2e3436" stroke-width="1.5" points="84.5,-13 84.5,-25 "/>
<path fill="none" stroke="#2e3436" stroke-width="1.5" d="M84.5,-25C84.5,-31 78.5,-37 72.5,-37"/>
<polyline fill="none" stroke="#2e3436" stroke-width="1.5" points="72.5,-37 11.5,-37 "/>
<path fill="none" stroke="#2e3436" stroke-width="1.5" d="M11.5,-37C5.5,-37 -0.5,-31 -0.5,-25"/>
<polyline fill="none" stroke="#2e3436" stroke-width="1.5" points="-0.5,-25 -0.5,-13 "/>
<path fill="none" stroke="#2e3436" stroke-width="1.5" d="M-0.5,-13C-0.5,-7 5.5,-1 11.5,-1"/>
<text text-anchor="start" x="7.5" y="-21.8" font-family="FreeSans" font-size="8.00" fill="#1c2021">name = &#39;Tobias&#39;</text>
<text text-anchor="start" x="7.5" y="-11.8" font-family="FreeSans" font-size="8.00" fill="#1c2021">age = 25</text>
</g>
<!-- N1 -->
<g id="node2" class="node"><title>N1</title>
<polygon fill="#ffffff" stroke="#ffffff" stroke-width="1.5" points="125,-1 181,-1 193,-13 193,-25 181,-37 125,-37 113,-25 113,-13 125,-1"/>
<path fill="#ffffff" stroke="#ffffff" stroke-width="1.5" d="M181,-1C187,-1 193,-7 193,-13"/>
<path fill="#ffffff" stroke="#ffffff" stroke-width="1.5" d="M193,-25C193,-31 187,-37 181,-37"/>
<path fill="#ffffff" stroke="#ffffff" stroke-width="1.5" d="M125,-37C119,-37 113,-31 113,-25"/>
<path fill="#ffffff" stroke="#ffffff" stroke-width="1.5" d="M113,-13C113,-7 119,-1 125,-1"/>
<polyline fill="none" stroke="#2e3436" stroke-width="1.5" points="125,-1 181,-1 "/>
<path fill="none" stroke="#2e3436" stroke-width="1.5" d="M181,-1C187,-1 193,-7 193,-13"/>
<polyline fill="none" stroke="#2e3436" stroke-width="1.5" points="193,-13 193,-25 "/>
<path fill="none" stroke="#2e3436" stroke-width="1.5" d="M193,-25C193,-31 187,-37 181,-37"/>
<polyline fill="none" stroke="#2e3436" stroke-width="1.5" points="181,-37 125,-37 "/>
<path fill="none" stroke="#2e3436" stroke-width="1.5" d="M125,-37C119,-37 113,-31 113,-25"/>
<polyline fill="none" stroke="#2e3436" stroke-width="1.5" points="113,-25 113,-13 "/>
<path fill="none" stroke="#2e3436" stroke-width="1.5" d="M113,-13C113,-7 119,-1 125,-1"/>
<text text-anchor="start" x="121" y="-21.8" font-family="FreeSans" font-size="8.00" fill="#1c2021">name = &#39;Peter&#39;</text>
<text text-anchor="start" x="121" y="-11.8" font-family="FreeSans" font-size="8.00" fill="#1c2021">age = 34</text>
</g>
<!-- N2 -->
<g id="node3" class="node"><title>N2</title>
<polygon fill="#ffffff" stroke="#ffffff" stroke-width="1.5" points="65,-85 129,-85 141,-97 141,-129 129,-141 65,-141 53,-129 53,-97 65,-85"/>
<path fill="#ffffff" stroke="#ffffff" stroke-width="1.5" d="M129,-85C135,-85 141,-91 141,-97"/>
<path fill="#ffffff" stroke="#ffffff" stroke-width="1.5" d="M141,-129C141,-135 135,-141 129,-141"/>
<path fill="#ffffff" stroke="#ffffff" stroke-width="1.5" d="M65,-141C59,-141 53,-135 53,-129"/>
<path fill="#ffffff" stroke="#ffffff" stroke-width="1.5" d="M53,-97C53,-91 59,-85 65,-85"/>
<polyline fill="none" stroke="#2e3436" stroke-width="1.5" points="65,-85 129,-85 "/>
<path fill="none" stroke="#2e3436" stroke-width="1.5" d="M129,-85C135,-85 141,-91 141,-97"/>
<polyline fill="none" stroke="#2e3436" stroke-width="1.5" points="141,-97 141,-129 "/>
<path fill="none" stroke="#2e3436" stroke-width="1.5" d="M141,-129C141,-135 135,-141 129,-141"/>
<polyline fill="none" stroke="#2e3436" stroke-width="1.5" points="129,-141 65,-141 "/>
<path fill="none" stroke="#2e3436" stroke-width="1.5" d="M65,-141C59,-141 53,-135 53,-129"/>
<polyline fill="none" stroke="#2e3436" stroke-width="1.5" points="53,-129 53,-97 "/>
<path fill="none" stroke="#2e3436" stroke-width="1.5" d="M53,-97C53,-91 59,-85 65,-85"/>
<text text-anchor="middle" x="97" y="-129.8" font-family="FreeSans" font-size="8.00" fill="#1c2021">Swedish</text>
<polyline fill="none" stroke="#2e3436" stroke-width="1.5" points="53,-123 141,-123 "/>
<text text-anchor="start" x="61" y="-111.8" font-family="FreeSans" font-size="8.00" fill="#1c2021">name = &#39;Andres&#39;</text>
<text text-anchor="start" x="61" y="-101.8" font-family="FreeSans" font-size="8.00" fill="#1c2021">age = 36</text>
<text text-anchor="start" x="61" y="-91.8" font-family="FreeSans" font-size="8.00" fill="#1c2021">belt = &#39;white&#39;</text>
</g>
<!-- N2&#45;&gt;N0 -->
<g id="edge2" class="edge"><title>N2&#45;&gt;N0</title>
<path fill="none" stroke="#2e3436" stroke-width="2" d="M80.4982,-84.7969C72.8626,-71.747 63.8727,-56.3824 56.5012,-43.7839"/>
<polygon fill="#2e3436" stroke="#2e3436" points="52.5913,-37.1015 59.292,-41.8705 54.9167,-40.0857 56.8105,-43.3224 56.379,-43.5749 55.9474,-43.8274 54.0536,-40.5907 53.466,-45.2793 52.5913,-37.1015 52.5913,-37.1015"/>
<text text-anchor="middle" x="85.5" y="-58.8" font-family="FreeSans" font-size="8.00" fill="#2e3436">KNOWS</text>
</g>
<!-- N2&#45;&gt;N1 -->
<g id="edge4" class="edge"><title>N2&#45;&gt;N1</title>
<path fill="none" stroke="#2e3436" stroke-width="2" d="M113.802,-84.7969C121.576,-71.747 130.73,-56.3824 138.235,-43.7839"/>
<polygon fill="#2e3436" stroke="#2e3436" points="142.216,-37.1015 141.277,-45.2722 140.726,-40.5791 138.807,-43.8007 138.378,-43.5448 137.948,-43.2889 139.867,-40.0673 135.478,-41.8174 142.216,-37.1015 142.216,-37.1015"/>
<text text-anchor="middle" x="145.5" y="-58.8" font-family="FreeSans" font-size="8.00" fill="#2e3436">KNOWS</text>
</g>
</g>
</svg>
