<?xml version="1.0" encoding="UTF-8" standalone="no"?>
<!DOCTYPE svg PUBLIC "-//W3C//DTD SVG 1.1//EN"
 "http://www.w3.org/Graphics/SVG/1.1/DTD/svg11.dtd">
<!-- Generated by graphviz version 2.26.3 (20100126.1600)
 -->
<!-- Title: g Pages: 1 -->
<svg width="473pt" height="298pt"
 viewBox="0.00 0.00 473.00 298.00" xmlns="http://www.w3.org/2000/svg" xmlns:xlink="http://www.w3.org/1999/xlink">
<g id="graph1" class="graph" transform="scale(1 1) rotate(0) translate(4 294)">
<title>g</title>
<polygon fill="white" stroke="white" points="-4,5 -4,-294 470,-294 470,5 -4,5"/>
<!-- N0 -->
<g id="node1" class="node"><title>N0</title>
<polygon fill="#ffffff" stroke="#ffffff" stroke-width="1.5" points="156.5,-253 285.5,-253 297.5,-265 297.5,-277 285.5,-289 156.5,-289 144.5,-277 144.5,-265 156.5,-253"/>
<path fill="#ffffff" stroke="#ffffff" stroke-width="1.5" d="M285.5,-253C291.5,-253 297.5,-259 297.5,-265"/>
<path fill="#ffffff" stroke="#ffffff" stroke-width="1.5" d="M297.5,-277C297.5,-283 291.5,-289 285.5,-289"/>
<path fill="#ffffff" stroke="#ffffff" stroke-width="1.5" d="M156.5,-289C150.5,-289 144.5,-283 144.5,-277"/>
<path fill="#ffffff" stroke="#ffffff" stroke-width="1.5" d="M144.5,-265C144.5,-259 150.5,-253 156.5,-253"/>
<polyline fill="none" stroke="#2e3436" stroke-width="1.5" points="156.5,-253 285.5,-253 "/>
<path fill="none" stroke="#2e3436" stroke-width="1.5" d="M285.5,-253C291.5,-253 297.5,-259 297.5,-265"/>
<polyline fill="none" stroke="#2e3436" stroke-width="1.5" points="297.5,-265 297.5,-277 "/>
<path fill="none" stroke="#2e3436" stroke-width="1.5" d="M297.5,-277C297.5,-283 291.5,-289 285.5,-289"/>
<polyline fill="none" stroke="#2e3436" stroke-width="1.5" points="285.5,-289 156.5,-289 "/>
<path fill="none" stroke="#2e3436" stroke-width="1.5" d="M156.5,-289C150.5,-289 144.5,-283 144.5,-277"/>
<polyline fill="none" stroke="#2e3436" stroke-width="1.5" points="144.5,-277 144.5,-265 "/>
<path fill="none" stroke="#2e3436" stroke-width="1.5" d="M144.5,-265C144.5,-259 150.5,-253 156.5,-253"/>
<text text-anchor="middle" x="221" y="-277.8" font-family="FreeSans" font-size="8.00" fill="#1c2021">TVShow</text>
<polyline fill="none" stroke="#2e3436" stroke-width="1.5" points="144.5,-271 297.5,-271 "/>
<text text-anchor="start" x="152.5" y="-259.8" font-family="FreeSans" font-size="8.00" fill="#1c2021">name = &#39;How I Met Your Mother&#39;</text>
</g>
<!-- N1 -->
<g id="node3" class="node"><title>N1</title>
<polygon fill="#ffffff" stroke="#ffffff" stroke-width="1.5" points="169,-169 273,-169 285,-181 285,-193 273,-205 169,-205 157,-193 157,-181 169,-169"/>
<path fill="#ffffff" stroke="#ffffff" stroke-width="1.5" d="M273,-169C279,-169 285,-175 285,-181"/>
<path fill="#ffffff" stroke="#ffffff" stroke-width="1.5" d="M285,-193C285,-199 279,-205 273,-205"/>
<path fill="#ffffff" stroke="#ffffff" stroke-width="1.5" d="M169,-205C163,-205 157,-199 157,-193"/>
<path fill="#ffffff" stroke="#ffffff" stroke-width="1.5" d="M157,-181C157,-175 163,-169 169,-169"/>
<polyline fill="none" stroke="#2e3436" stroke-width="1.5" points="169,-169 273,-169 "/>
<path fill="none" stroke="#2e3436" stroke-width="1.5" d="M273,-169C279,-169 285,-175 285,-181"/>
<polyline fill="none" stroke="#2e3436" stroke-width="1.5" points="285,-181 285,-193 "/>
<path fill="none" stroke="#2e3436" stroke-width="1.5" d="M285,-193C285,-199 279,-205 273,-205"/>
<polyline fill="none" stroke="#2e3436" stroke-width="1.5" points="273,-205 169,-205 "/>
<path fill="none" stroke="#2e3436" stroke-width="1.5" d="M169,-205C163,-205 157,-199 157,-193"/>
<polyline fill="none" stroke="#2e3436" stroke-width="1.5" points="157,-193 157,-181 "/>
<path fill="none" stroke="#2e3436" stroke-width="1.5" d="M157,-181C157,-175 163,-169 169,-169"/>
<text text-anchor="middle" x="221" y="-193.8" font-family="FreeSans" font-size="8.00" fill="#1c2021">Season</text>
<polyline fill="none" stroke="#2e3436" stroke-width="1.5" points="157,-187 285,-187 "/>
<text text-anchor="start" x="165" y="-175.8" font-family="FreeSans" font-size="8.00" fill="#1c2021">name = &#39;HIMYM Season 1&#39;</text>
</g>
<!-- N0&#45;&gt;N1 -->
<g id="edge2" class="edge"><title>N0&#45;&gt;N1</title>
<path fill="none" stroke="#2e3436" stroke-width="2" d="M221,-252.773C221,-241.105 221,-225.787 221,-212.87"/>
<polygon fill="#2e3436" stroke="#2e3436" points="221,-205.191 224.375,-212.691 221.5,-208.941 221.5,-212.691 221,-212.691 220.5,-212.691 220.5,-208.941 217.625,-212.691 221,-205.191 221,-205.191"/>
<text text-anchor="middle" x="250" y="-226.8" font-family="FreeSans" font-size="8.00" fill="#2e3436">HAS_SEASON</text>
</g>
<!-- N2 -->
<g id="node5" class="node"><title>N2</title>
<polygon fill="#ffffff" stroke="#ffffff" stroke-width="1.5" points="195,-85 247,-85 259,-97 259,-109 247,-121 195,-121 183,-109 183,-97 195,-85"/>
<path fill="#ffffff" stroke="#ffffff" stroke-width="1.5" d="M247,-85C253,-85 259,-91 259,-97"/>
<path fill="#ffffff" stroke="#ffffff" stroke-width="1.5" d="M259,-109C259,-115 253,-121 247,-121"/>
<path fill="#ffffff" stroke="#ffffff" stroke-width="1.5" d="M195,-121C189,-121 183,-115 183,-109"/>
<path fill="#ffffff" stroke="#ffffff" stroke-width="1.5" d="M183,-97C183,-91 189,-85 195,-85"/>
<polyline fill="none" stroke="#2e3436" stroke-width="1.5" points="195,-85 247,-85 "/>
<path fill="none" stroke="#2e3436" stroke-width="1.5" d="M247,-85C253,-85 259,-91 259,-97"/>
<polyline fill="none" stroke="#2e3436" stroke-width="1.5" points="259,-97 259,-109 "/>
<path fill="none" stroke="#2e3436" stroke-width="1.5" d="M259,-109C259,-115 253,-121 247,-121"/>
<polyline fill="none" stroke="#2e3436" stroke-width="1.5" points="247,-121 195,-121 "/>
<path fill="none" stroke="#2e3436" stroke-width="1.5" d="M195,-121C189,-121 183,-115 183,-109"/>
<polyline fill="none" stroke="#2e3436" stroke-width="1.5" points="183,-109 183,-97 "/>
<path fill="none" stroke="#2e3436" stroke-width="1.5" d="M183,-97C183,-91 189,-85 195,-85"/>
<text text-anchor="middle" x="221" y="-109.8" font-family="FreeSans" font-size="8.00" fill="#1c2021">Episode</text>
<polyline fill="none" stroke="#2e3436" stroke-width="1.5" points="183,-103 259,-103 "/>
<text text-anchor="start" x="191" y="-91.8" font-family="FreeSans" font-size="8.00" fill="#1c2021">name = &#39;Pilot&#39;</text>
</g>
<!-- N1&#45;&gt;N2 -->
<g id="edge4" class="edge"><title>N1&#45;&gt;N2</title>
<path fill="none" stroke="#4e9a06" stroke-width="2" d="M221,-168.773C221,-157.105 221,-141.787 221,-128.87"/>
<polygon fill="#4e9a06" stroke="#4e9a06" points="221,-121.191 224.375,-128.691 221.5,-124.941 221.5,-128.691 221,-128.691 220.5,-128.691 220.5,-124.941 217.625,-128.691 221,-121.191 221,-121.191"/>
<text text-anchor="middle" x="250.5" y="-142.8" font-family="FreeSans" font-size="8.00" fill="#4e9a06">HAS_EPISODE</text>
</g>
<!-- N3 -->
<g id="node7" class="node"><title>N3</title>
<polygon fill="#ffffff" stroke="#ffffff" stroke-width="1.5" points="84,-1 162,-1 174,-13 174,-25 162,-37 84,-37 72,-25 72,-13 84,-1"/>
<path fill="#ffffff" stroke="#ffffff" stroke-width="1.5" d="M162,-1C168,-1 174,-7 174,-13"/>
<path fill="#ffffff" stroke="#ffffff" stroke-width="1.5" d="M174,-25C174,-31 168,-37 162,-37"/>
<path fill="#ffffff" stroke="#ffffff" stroke-width="1.5" d="M84,-37C78,-37 72,-31 72,-25"/>
<path fill="#ffffff" stroke="#ffffff" stroke-width="1.5" d="M72,-13C72,-7 78,-1 84,-1"/>
<polyline fill="none" stroke="#2e3436" stroke-width="1.5" points="84,-1 162,-1 "/>
<path fill="none" stroke="#2e3436" stroke-width="1.5" d="M162,-1C168,-1 174,-7 174,-13"/>
<polyline fill="none" stroke="#2e3436" stroke-width="1.5" points="174,-13 174,-25 "/>
<path fill="none" stroke="#2e3436" stroke-width="1.5" d="M174,-25C174,-31 168,-37 162,-37"/>
<polyline fill="none" stroke="#2e3436" stroke-width="1.5" points="162,-37 84,-37 "/>
<path fill="none" stroke="#2e3436" stroke-width="1.5" d="M84,-37C78,-37 72,-31 72,-25"/>
<polyline fill="none" stroke="#2e3436" stroke-width="1.5" points="72,-25 72,-13 "/>
<path fill="none" stroke="#2e3436" stroke-width="1.5" d="M72,-13C72,-7 78,-1 84,-1"/>
<text text-anchor="middle" x="123" y="-25.8" font-family="FreeSans" font-size="8.00" fill="#1c2021">Character</text>
<polyline fill="none" stroke="#2e3436" stroke-width="1.5" points="72,-19 174,-19 "/>
<text text-anchor="start" x="80" y="-7.8" font-family="FreeSans" font-size="8.00" fill="#1c2021">name = &#39;Ted Mosby&#39;</text>
</g>
<!-- N2&#45;&gt;N3 -->
<g id="edge6" class="edge"><title>N2&#45;&gt;N3</title>
<path fill="none" stroke="#a40000" stroke-width="2" d="M195.039,-84.8368C187.144,-79.0369 178.56,-72.4455 171,-66 162.513,-58.7644 153.669,-50.3765 145.919,-42.7066"/>
<polygon fill="#a40000" stroke="#a40000" points="140.23,-37.0124 147.918,-39.9326 143.234,-39.3118 145.884,-41.9646 145.531,-42.3181 145.177,-42.6715 142.526,-40.0186 143.143,-44.7035 140.23,-37.0124 140.23,-37.0124"/>
<text text-anchor="middle" x="219.5" y="-58.8" font-family="FreeSans" font-size="8.00" fill="#a40000">FEATURED_CHARACTER</text>
</g>
<!-- N5 -->
<g id="node9" class="node"><title>N5</title>
<polygon fill="#ffffff" stroke="#ffffff" stroke-width="1.5" points="240.5,-1 453.5,-1 465.5,-13 465.5,-25 453.5,-37 240.5,-37 228.5,-25 228.5,-13 240.5,-1"/>
<path fill="#ffffff" stroke="#ffffff" stroke-width="1.5" d="M453.5,-1C459.5,-1 465.5,-7 465.5,-13"/>
<path fill="#ffffff" stroke="#ffffff" stroke-width="1.5" d="M465.5,-25C465.5,-31 459.5,-37 453.5,-37"/>
<path fill="#ffffff" stroke="#ffffff" stroke-width="1.5" d="M240.5,-37C234.5,-37 228.5,-31 228.5,-25"/>
<path fill="#ffffff" stroke="#ffffff" stroke-width="1.5" d="M228.5,-13C228.5,-7 234.5,-1 240.5,-1"/>
<polyline fill="none" stroke="#2e3436" stroke-width="1.5" points="240.5,-1 453.5,-1 "/>
<path fill="none" stroke="#2e3436" stroke-width="1.5" d="M453.5,-1C459.5,-1 465.5,-7 465.5,-13"/>
<polyline fill="none" stroke="#2e3436" stroke-width="1.5" points="465.5,-13 465.5,-25 "/>
<path fill="none" stroke="#2e3436" stroke-width="1.5" d="M465.5,-25C465.5,-31 459.5,-37 453.5,-37"/>
<polyline fill="none" stroke="#2e3436" stroke-width="1.5" points="453.5,-37 240.5,-37 "/>
<path fill="none" stroke="#2e3436" stroke-width="1.5" d="M240.5,-37C234.5,-37 228.5,-31 228.5,-25"/>
<polyline fill="none" stroke="#2e3436" stroke-width="1.5" points="228.5,-25 228.5,-13 "/>
<path fill="none" stroke="#2e3436" stroke-width="1.5" d="M228.5,-13C228.5,-7 234.5,-1 240.5,-1"/>
<text text-anchor="start" x="236.5" y="-21.8" font-family="FreeSans" font-size="8.00" fill="#1c2021">title = &#39;Meet Me At The Bar In 15 Minutes &amp; Suit Up&#39;</text>
<text text-anchor="start" x="236.5" y="-11.8" font-family="FreeSans" font-size="8.00" fill="#1c2021">content = &#39;It was awesome&#39;</text>
</g>
<!-- N2&#45;&gt;N5 -->
<g id="edge8" class="edge"><title>N2&#45;&gt;N5</title>
<path fill="none" stroke="#204a87" stroke-width="2" d="M248.03,-84.9799C267.083,-72.2781 292.736,-55.1759 313.151,-41.5662"/>
<polygon fill="#204a87" stroke="#204a87" points="319.58,-37.2801 315.212,-44.2486 316.737,-39.7763 313.617,-41.8565 313.339,-41.4404 313.062,-41.0244 316.182,-38.9443 311.467,-38.6323 319.58,-37.2801 319.58,-37.2801"/>
<text text-anchor="middle" x="313" y="-58.8" font-family="FreeSans" font-size="8.00" fill="#204a87">HAS_REVIEW</text>
</g>
<!-- N4 -->
<g id="node10" class="node"><title>N4</title>
<polygon fill="#ffffff" stroke="#ffffff" stroke-width="1.5" points="11.5,-85 96.5,-85 108.5,-97 108.5,-109 96.5,-121 11.5,-121 -0.5,-109 -0.5,-97 11.5,-85"/>
<path fill="#ffffff" stroke="#ffffff" stroke-width="1.5" d="M96.5,-85C102.5,-85 108.5,-91 108.5,-97"/>
<path fill="#ffffff" stroke="#ffffff" stroke-width="1.5" d="M108.5,-109C108.5,-115 102.5,-121 96.5,-121"/>
<path fill="#ffffff" stroke="#ffffff" stroke-width="1.5" d="M11.5,-121C5.5,-121 -0.5,-115 -0.5,-109"/>
<path fill="#ffffff" stroke="#ffffff" stroke-width="1.5" d="M-0.5,-97C-0.5,-91 5.5,-85 11.5,-85"/>
<polyline fill="none" stroke="#2e3436" stroke-width="1.5" points="11.5,-85 96.5,-85 "/>
<path fill="none" stroke="#2e3436" stroke-width="1.5" d="M96.5,-85C102.5,-85 108.5,-91 108.5,-97"/>
<polyline fill="none" stroke="#2e3436" stroke-width="1.5" points="108.5,-97 108.5,-109 "/>
<path fill="none" stroke="#2e3436" stroke-width="1.5" d="M108.5,-109C108.5,-115 102.5,-121 96.5,-121"/>
<polyline fill="none" stroke="#2e3436" stroke-width="1.5" points="96.5,-121 11.5,-121 "/>
<path fill="none" stroke="#2e3436" stroke-width="1.5" d="M11.5,-121C5.5,-121 -0.5,-115 -0.5,-109"/>
<polyline fill="none" stroke="#2e3436" stroke-width="1.5" points="-0.5,-109 -0.5,-97 "/>
<path fill="none" stroke="#2e3436" stroke-width="1.5" d="M-0.5,-97C-0.5,-91 5.5,-85 11.5,-85"/>
<text text-anchor="middle" x="54" y="-109.8" font-family="FreeSans" font-size="8.00" fill="#1c2021">Actor</text>
<polyline fill="none" stroke="#2e3436" stroke-width="1.5" points="-0.5,-103 108.5,-103 "/>
<text text-anchor="start" x="7.5" y="-91.8" font-family="FreeSans" font-size="8.00" fill="#1c2021">name = &#39;Josh Radnor&#39;</text>
</g>
<!-- N4&#45;&gt;N3 -->
<g id="edge10" class="edge"><title>N4&#45;&gt;N3</title>
<path fill="none" stroke="#8f5902" stroke-width="2" d="M48.6826,-84.8515C47.0449,-75.593 46.8329,-64.5194 52,-56 55.4712,-50.2768 60.1488,-45.3975 65.4562,-41.2472"/>
<polygon fill="#8f5902" stroke="#8f5902" points="71.9413,-36.703 67.7358,-43.771 69.1571,-39.2645 66.086,-41.4164 65.7991,-41.007 65.5121,-40.5975 68.5832,-38.4455 63.8623,-38.243 71.9413,-36.703 71.9413,-36.703"/>
<text text-anchor="middle" x="94.5" y="-58.8" font-family="FreeSans" font-size="8.00" fill="#8f5902">PLAYED_CHARACTER</text>
</g>
<!-- N6 -->
<g id="node12" class="node"><title>N6</title>
<polygon fill="#ffffff" stroke="#ffffff" stroke-width="1.5" points="347,-85 433,-85 445,-97 445,-109 433,-121 347,-121 335,-109 335,-97 347,-85"/>
<path fill="#ffffff" stroke="#ffffff" stroke-width="1.5" d="M433,-85C439,-85 445,-91 445,-97"/>
<path fill="#ffffff" stroke="#ffffff" stroke-width="1.5" d="M445,-109C445,-115 439,-121 433,-121"/>
<path fill="#ffffff" stroke="#ffffff" stroke-width="1.5" d="M347,-121C341,-121 335,-115 335,-109"/>
<path fill="#ffffff" stroke="#ffffff" stroke-width="1.5" d="M335,-97C335,-91 341,-85 347,-85"/>
<polyline fill="none" stroke="#2e3436" stroke-width="1.5" points="347,-85 433,-85 "/>
<path fill="none" stroke="#2e3436" stroke-width="1.5" d="M433,-85C439,-85 445,-91 445,-97"/>
<polyline fill="none" stroke="#2e3436" stroke-width="1.5" points="445,-97 445,-109 "/>
<path fill="none" stroke="#2e3436" stroke-width="1.5" d="M445,-109C445,-115 439,-121 433,-121"/>
<polyline fill="none" stroke="#2e3436" stroke-width="1.5" points="433,-121 347,-121 "/>
<path fill="none" stroke="#2e3436" stroke-width="1.5" d="M347,-121C341,-121 335,-115 335,-109"/>
<polyline fill="none" stroke="#2e3436" stroke-width="1.5" points="335,-109 335,-97 "/>
<path fill="none" stroke="#2e3436" stroke-width="1.5" d="M335,-97C335,-91 341,-85 347,-85"/>
<text text-anchor="middle" x="390" y="-109.8" font-family="FreeSans" font-size="8.00" fill="#1c2021">User</text>
<polyline fill="none" stroke="#2e3436" stroke-width="1.5" points="335,-103 445,-103 "/>
<text text-anchor="start" x="343" y="-91.8" font-family="FreeSans" font-size="8.00" fill="#1c2021">name = &#39;WakenPayne&#39;</text>
</g>
<!-- N6&#45;&gt;N5 -->
<g id="edge12" class="edge"><title>N6&#45;&gt;N5</title>
<path fill="none" stroke="#5c3566" stroke-width="2" d="M380.67,-84.7733C374.584,-72.8851 366.559,-57.2081 359.87,-44.1413"/>
<polygon fill="#5c3566" stroke="#5c3566" points="356.312,-37.1912 362.734,-42.3294 358.466,-40.3014 360.175,-43.6395 359.73,-43.8673 359.285,-44.0951 357.576,-40.7571 356.725,-45.4052 356.312,-37.1912 356.312,-37.1912"/>
<text text-anchor="middle" x="401" y="-58.8" font-family="FreeSans" font-size="8.00" fill="#5c3566">WROTE_REVIEW</text>
</g>
</g>
</svg>
