<?xml version="1.0" encoding="UTF-8" standalone="no"?>
<!DOCTYPE svg PUBLIC "-//W3C//DTD SVG 1.1//EN"
 "http://www.w3.org/Graphics/SVG/1.1/DTD/svg11.dtd">
<!-- Generated by graphviz version 2.26.3 (20100126.1600)
 -->
<!-- Title: g Pages: 1 -->
<svg width="96pt" height="214pt"
 viewBox="0.00 0.00 96.00 214.00" xmlns="http://www.w3.org/2000/svg" xmlns:xlink="http://www.w3.org/1999/xlink">
<g id="graph1" class="graph" transform="scale(1 1) rotate(0) translate(4 210)">
<title>g</title>
<polygon fill="white" stroke="white" points="-4,5 -4,-210 93,-210 93,5 -4,5"/>
<!-- N0 -->
<g id="node1" class="node"><title>N0</title>
<polygon fill="#ffffff" stroke="#ffffff" stroke-width="1.5" points="15,-169 73,-169 85,-181 85,-193 73,-205 15,-205 3,-193 3,-181 15,-169"/>
<path fill="#ffffff" stroke="#ffffff" stroke-width="1.5" d="M73,-169C79,-169 85,-175 85,-181"/>
<path fill="#ffffff" stroke="#ffffff" stroke-width="1.5" d="M85,-193C85,-199 79,-205 73,-205"/>
<path fill="#ffffff" stroke="#ffffff" stroke-width="1.5" d="M15,-205C9,-205 3,-199 3,-193"/>
<path fill="#ffffff" stroke="#ffffff" stroke-width="1.5" d="M3,-181C3,-175 9,-169 15,-169"/>
<polyline fill="none" stroke="#2e3436" stroke-width="1.5" points="15,-169 73,-169 "/>
<path fill="none" stroke="#2e3436" stroke-width="1.5" d="M73,-169C79,-169 85,-175 85,-181"/>
<polyline fill="none" stroke="#2e3436" stroke-width="1.5" points="85,-181 85,-193 "/>
<path fill="none" stroke="#2e3436" stroke-width="1.5" d="M85,-193C85,-199 79,-205 73,-205"/>
<polyline fill="none" stroke="#2e3436" stroke-width="1.5" points="73,-205 15,-205 "/>
<path fill="none" stroke="#2e3436" stroke-width="1.5" d="M15,-205C9,-205 3,-199 3,-193"/>
<polyline fill="none" stroke="#2e3436" stroke-width="1.5" points="3,-193 3,-181 "/>
<path fill="none" stroke="#2e3436" stroke-width="1.5" d="M3,-181C3,-175 9,-169 15,-169"/>
<text text-anchor="middle" x="44" y="-193.8" font-family="FreeSans" font-size="8.00" fill="#1c2021">User</text>
<polyline fill="none" stroke="#2e3436" stroke-width="1.5" points="3,-187 85,-187 "/>
<text text-anchor="start" x="11" y="-175.8" font-family="FreeSans" font-size="8.00" fill="#1c2021">name = &#39;Adam&#39;</text>
</g>
<!-- N1 -->
<g id="node3" class="node"><title>N1</title>
<polygon fill="#ffffff" stroke="#ffffff" stroke-width="1.5" points="11.5,-85 76.5,-85 88.5,-97 88.5,-109 76.5,-121 11.5,-121 -0.5,-109 -0.5,-97 11.5,-85"/>
<path fill="#ffffff" stroke="#ffffff" stroke-width="1.5" d="M76.5,-85C82.5,-85 88.5,-91 88.5,-97"/>
<path fill="#ffffff" stroke="#ffffff" stroke-width="1.5" d="M88.5,-109C88.5,-115 82.5,-121 76.5,-121"/>
<path fill="#ffffff" stroke="#ffffff" stroke-width="1.5" d="M11.5,-121C5.5,-121 -0.5,-115 -0.5,-109"/>
<path fill="#ffffff" stroke="#ffffff" stroke-width="1.5" d="M-0.5,-97C-0.5,-91 5.5,-85 11.5,-85"/>
<polyline fill="none" stroke="#2e3436" stroke-width="1.5" points="11.5,-85 76.5,-85 "/>
<path fill="none" stroke="#2e3436" stroke-width="1.5" d="M76.5,-85C82.5,-85 88.5,-91 88.5,-97"/>
<polyline fill="none" stroke="#2e3436" stroke-width="1.5" points="88.5,-97 88.5,-109 "/>
<path fill="none" stroke="#2e3436" stroke-width="1.5" d="M88.5,-109C88.5,-115 82.5,-121 76.5,-121"/>
<polyline fill="none" stroke="#2e3436" stroke-width="1.5" points="76.5,-121 11.5,-121 "/>
<path fill="none" stroke="#2e3436" stroke-width="1.5" d="M11.5,-121C5.5,-121 -0.5,-115 -0.5,-109"/>
<polyline fill="none" stroke="#2e3436" stroke-width="1.5" points="-0.5,-109 -0.5,-97 "/>
<path fill="none" stroke="#2e3436" stroke-width="1.5" d="M-0.5,-97C-0.5,-91 5.5,-85 11.5,-85"/>
<text text-anchor="middle" x="44" y="-109.8" font-family="FreeSans" font-size="8.00" fill="#1c2021">User</text>
<polyline fill="none" stroke="#2e3436" stroke-width="1.5" points="-0.5,-103 88.5,-103 "/>
<text text-anchor="start" x="7.5" y="-91.8" font-family="FreeSans" font-size="8.00" fill="#1c2021">name = &#39;Pernilla&#39;</text>
</g>
<!-- N0&#45;&gt;N1 -->
<g id="edge2" class="edge"><title>N0&#45;&gt;N1</title>
<path fill="none" stroke="#2e3436" stroke-width="2" d="M44,-168.773C44,-157.105 44,-141.787 44,-128.87"/>
<polygon fill="#2e3436" stroke="#2e3436" points="44,-121.191 47.3751,-128.691 44.5,-124.941 44.5001,-128.691 44.0001,-128.691 43.5001,-128.691 43.5,-124.941 40.6251,-128.691 44,-121.191 44,-121.191"/>
<text text-anchor="middle" x="59" y="-142.8" font-family="FreeSans" font-size="8.00" fill="#2e3436">FRIEND</text>
</g>
<!-- N2 -->
<g id="node5" class="node"><title>N2</title>
<polygon fill="#ffffff" stroke="#ffffff" stroke-width="1.5" points="15.5,-1 72.5,-1 84.5,-13 84.5,-25 72.5,-37 15.5,-37 3.5,-25 3.5,-13 15.5,-1"/>
<path fill="#ffffff" stroke="#ffffff" stroke-width="1.5" d="M72.5,-1C78.5,-1 84.5,-7 84.5,-13"/>
<path fill="#ffffff" stroke="#ffffff" stroke-width="1.5" d="M84.5,-25C84.5,-31 78.5,-37 72.5,-37"/>
<path fill="#ffffff" stroke="#ffffff" stroke-width="1.5" d="M15.5,-37C9.5,-37 3.5,-31 3.5,-25"/>
<path fill="#ffffff" stroke="#ffffff" stroke-width="1.5" d="M3.5,-13C3.5,-7 9.5,-1 15.5,-1"/>
<polyline fill="none" stroke="#2e3436" stroke-width="1.5" points="15.5,-1 72.5,-1 "/>
<path fill="none" stroke="#2e3436" stroke-width="1.5" d="M72.5,-1C78.5,-1 84.5,-7 84.5,-13"/>
<polyline fill="none" stroke="#2e3436" stroke-width="1.5" points="84.5,-13 84.5,-25 "/>
<path fill="none" stroke="#2e3436" stroke-width="1.5" d="M84.5,-25C84.5,-31 78.5,-37 72.5,-37"/>
<polyline fill="none" stroke="#2e3436" stroke-width="1.5" points="72.5,-37 15.5,-37 "/>
<path fill="none" stroke="#2e3436" stroke-width="1.5" d="M15.5,-37C9.5,-37 3.5,-31 3.5,-25"/>
<polyline fill="none" stroke="#2e3436" stroke-width="1.5" points="3.5,-25 3.5,-13 "/>
<path fill="none" stroke="#2e3436" stroke-width="1.5" d="M3.5,-13C3.5,-7 9.5,-1 15.5,-1"/>
<text text-anchor="middle" x="44" y="-25.8" font-family="FreeSans" font-size="8.00" fill="#1c2021">User</text>
<polyline fill="none" stroke="#2e3436" stroke-width="1.5" points="3.5,-19 84.5,-19 "/>
<text text-anchor="start" x="11.5" y="-7.8" font-family="FreeSans" font-size="8.00" fill="#1c2021">name = &#39;David&#39;</text>
</g>
<!-- N1&#45;&gt;N2 -->
<g id="edge4" class="edge"><title>N1&#45;&gt;N2</title>
<path fill="none" stroke="#2e3436" stroke-width="2" d="M44,-84.7733C44,-73.1053 44,-57.7874 44,-44.8699"/>
<polygon fill="#2e3436" stroke="#2e3436" points="44,-37.1912 47.3751,-44.6911 44.5,-40.9412 44.5001,-44.6912 44.0001,-44.6912 43.5001,-44.6912 43.5,-40.9412 40.6251,-44.6912 44,-37.1912 44,-37.1912"/>
<text text-anchor="middle" x="59" y="-58.8" font-family="FreeSans" font-size="8.00" fill="#2e3436">FRIEND</text>
</g>
</g>
</svg>
