<?xml version="1.0" encoding="UTF-8" standalone="no"?>
<!DOCTYPE svg PUBLIC "-//W3C//DTD SVG 1.1//EN"
 "http://www.w3.org/Graphics/SVG/1.1/DTD/svg11.dtd">
<!-- Generated by graphviz version 2.26.3 (20100126.1600)
 -->
<!-- Title: g Pages: 1 -->
<svg width="90pt" height="130pt"
 viewBox="0.00 0.00 90.00 130.00" xmlns="http://www.w3.org/2000/svg" xmlns:xlink="http://www.w3.org/1999/xlink">
<g id="graph1" class="graph" transform="scale(1 1) rotate(0) translate(4 126)">
<title>g</title>
<polygon fill="white" stroke="white" points="-4,5 -4,-126 87,-126 87,5 -4,5"/>
<!-- N0 -->
<g id="node1" class="node"><title>N0</title>
<polygon fill="#ffffff" stroke="#ffffff" stroke-width="1.5" points="12,-85 70,-85 82,-97 82,-109 70,-121 12,-121 0,-109 0,-97 12,-85"/>
<path fill="#ffffff" stroke="#ffffff" stroke-width="1.5" d="M70,-85C76,-85 82,-91 82,-97"/>
<path fill="#ffffff" stroke="#ffffff" stroke-width="1.5" d="M82,-109C82,-115 76,-121 70,-121"/>
<path fill="#ffffff" stroke="#ffffff" stroke-width="1.5" d="M12,-121C6,-121 0,-115 0,-109"/>
<path fill="#ffffff" stroke="#ffffff" stroke-width="1.5" d="M0,-97C0,-91 6,-85 12,-85"/>
<polyline fill="none" stroke="#2e3436" stroke-width="1.5" points="12,-85 70,-85 "/>
<path fill="none" stroke="#2e3436" stroke-width="1.5" d="M70,-85C76,-85 82,-91 82,-97"/>
<polyline fill="none" stroke="#2e3436" stroke-width="1.5" points="82,-97 82,-109 "/>
<path fill="none" stroke="#2e3436" stroke-width="1.5" d="M82,-109C82,-115 76,-121 70,-121"/>
<polyline fill="none" stroke="#2e3436" stroke-width="1.5" points="70,-121 12,-121 "/>
<path fill="none" stroke="#2e3436" stroke-width="1.5" d="M12,-121C6,-121 0,-115 0,-109"/>
<polyline fill="none" stroke="#2e3436" stroke-width="1.5" points="0,-109 0,-97 "/>
<path fill="none" stroke="#2e3436" stroke-width="1.5" d="M0,-97C0,-91 6,-85 12,-85"/>
<text text-anchor="start" x="8" y="-100.8" font-family="FreeSans" font-size="8.00" fill="#1c2021">name = &#39;ROOT&#39;</text>
</g>
<!-- N1 -->
<g id="node3" class="node"><title>N1</title>
<polygon fill="#ffffff" stroke="#ffffff" stroke-width="1.5" points="22,-1 60,-1 72,-13 72,-25 60,-37 22,-37 10,-25 10,-13 22,-1"/>
<path fill="#ffffff" stroke="#ffffff" stroke-width="1.5" d="M60,-1C66,-1 72,-7 72,-13"/>
<path fill="#ffffff" stroke="#ffffff" stroke-width="1.5" d="M72,-25C72,-31 66,-37 60,-37"/>
<path fill="#ffffff" stroke="#ffffff" stroke-width="1.5" d="M22,-37C16,-37 10,-31 10,-25"/>
<path fill="#ffffff" stroke="#ffffff" stroke-width="1.5" d="M10,-13C10,-7 16,-1 22,-1"/>
<polyline fill="none" stroke="#2e3436" stroke-width="1.5" points="22,-1 60,-1 "/>
<path fill="none" stroke="#2e3436" stroke-width="1.5" d="M60,-1C66,-1 72,-7 72,-13"/>
<polyline fill="none" stroke="#2e3436" stroke-width="1.5" points="72,-13 72,-25 "/>
<path fill="none" stroke="#2e3436" stroke-width="1.5" d="M72,-25C72,-31 66,-37 60,-37"/>
<polyline fill="none" stroke="#2e3436" stroke-width="1.5" points="60,-37 22,-37 "/>
<path fill="none" stroke="#2e3436" stroke-width="1.5" d="M22,-37C16,-37 10,-31 10,-25"/>
<polyline fill="none" stroke="#2e3436" stroke-width="1.5" points="10,-25 10,-13 "/>
<path fill="none" stroke="#2e3436" stroke-width="1.5" d="M10,-13C10,-7 16,-1 22,-1"/>
<text text-anchor="start" x="18" y="-16.8" font-family="FreeSans" font-size="8.00" fill="#1c2021">value = 25</text>
</g>
<!-- N0&#45;&gt;N1 -->
<g id="edge2" class="edge"><title>N0&#45;&gt;N1</title>
<path fill="none" stroke="#2e3436" stroke-width="2" d="M23.5661,-84.793C19.2699,-79.1925 15.2562,-72.7203 13,-66 10.4078,-58.279 12.6938,-50.4571 16.8807,-43.4682"/>
<polygon fill="#2e3436" stroke="#2e3436" points="21.1749,-37.3108 19.6529,-45.3932 19.4399,-40.6727 17.2948,-43.7486 16.8846,-43.4626 16.4745,-43.1766 18.6197,-40.1007 14.1163,-41.532 21.1749,-37.3108 21.1749,-37.3108"/>
<text text-anchor="middle" x="22.5" y="-58.8" font-family="FreeSans" font-size="8.00" fill="#2e3436">LINK</text>
</g>
<!-- N1&#45;&gt;N0 -->
<g id="edge4" class="edge"><title>N1&#45;&gt;N0</title>
<path fill="none" stroke="#2e3436" stroke-width="2" d="M41,-37.1912C41,-48.8517 41,-64.1683 41,-77.0907"/>
<polygon fill="#2e3436" stroke="#2e3436" points="41,-84.7733 37.6251,-77.2732 40.5,-81.0232 40.5001,-77.2732 41.0001,-77.2733 41.5001,-77.2733 41.5,-81.0233 44.3751,-77.2733 41,-84.7733 41,-84.7733"/>
<text text-anchor="middle" x="50.5" y="-58.8" font-family="FreeSans" font-size="8.00" fill="#2e3436">LINK</text>
</g>
</g>
</svg>
