<?xml version="1.0" encoding="UTF-8" standalone="no"?>
<!DOCTYPE svg PUBLIC "-//W3C//DTD SVG 1.1//EN"
 "http://www.w3.org/Graphics/SVG/1.1/DTD/svg11.dtd">
<!-- Generated by graphviz version 2.26.3 (20100126.1600)
 -->
<!-- Title: g Pages: 1 -->
<svg width="201pt" height="130pt"
 viewBox="0.00 0.00 201.00 130.00" xmlns="http://www.w3.org/2000/svg" xmlns:xlink="http://www.w3.org/1999/xlink">
<g id="graph1" class="graph" transform="scale(1 1) rotate(0) translate(4 126)">
<title>g</title>
<polygon fill="white" stroke="white" points="-4,5 -4,-126 198,-126 198,5 -4,5"/>
<!-- N0 -->
<g id="node1" class="node"><title>N0</title>
<polygon fill="#ffffff" stroke="#ffffff" stroke-width="1.5" points="11.5,-1 72.5,-1 84.5,-13 84.5,-25 72.5,-37 11.5,-37 -0.5,-25 -0.5,-13 11.5,-1"/>
<path fill="#ffffff" stroke="#ffffff" stroke-width="1.5" d="M72.5,-1C78.5,-1 84.5,-7 84.5,-13"/>
<path fill="#ffffff" stroke="#ffffff" stroke-width="1.5" d="M84.5,-25C84.5,-31 78.5,-37 72.5,-37"/>
<path fill="#ffffff" stroke="#ffffff" stroke-width="1.5" d="M11.5,-37C5.5,-37 -0.5,-31 -0.5,-25"/>
<path fill="#ffffff" stroke="#ffffff" stroke-width="1.5" d="M-0.5,-13C-0.5,-7 5.5,-1 11.5,-1"/>
<polyline fill="none" stroke="#2e3436" stroke-width="1.5" points="11.5,-1 72.5,-1 "/>
<path fill="none" stroke="#2e3436" stroke-width="1.5" d="M72.5,-1C78.5,-1 84.5,-7 84.5,-13"/>
<polyline fill="none" stroke="#2e3436" stroke-width="1.5" points="84.5,-13 84.5,-25 "/>
<path fill="none" stroke="#2e3436" stroke-width="1.5" d="M84.5,-25C84.5,-31 78.5,-37 72.5,-37"/>
<polyline fill="none" stroke="#2e3436" stroke-width="1.5" points="72.5,-37 11.5,-37 "/>
<path fill="none" stroke="#2e3436" stroke-width="1.5" d="M11.5,-37C5.5,-37 -0.5,-31 -0.5,-25"/>
<polyline fill="none" stroke="#2e3436" stroke-width="1.5" points="-0.5,-25 -0.5,-13 "/>
<path fill="none" stroke="#2e3436" stroke-width="1.5" d="M-0.5,-13C-0.5,-7 5.5,-1 11.5,-1"/>
<text text-anchor="start" x="7.5" y="-21.8" font-family="FreeSans" font-size="8.00" fill="#1c2021">name = &#39;Tobias&#39;</text>
<text text-anchor="start" x="7.5" y="-11.8" font-family="FreeSans" font-size="8.00" fill="#1c2021">age = 25</text>
</g>
<!-- N1 -->
<g id="node2" class="node"><title>N1</title>
<polygon fill="#ffffff" stroke="#ffffff" stroke-width="1.5" points="125,-1 181,-1 193,-13 193,-25 181,-37 125,-37 113,-25 113,-13 125,-1"/>
<path fill="#ffffff" stroke="#ffffff" stroke-width="1.5" d="M181,-1C187,-1 193,-7 193,-13"/>
<path fill="#ffffff" stroke="#ffffff" stroke-width="1.5" d="M193,-25C193,-31 187,-37 181,-37"/>
<path fill="#ffffff" stroke="#ffffff" stroke-width="1.5" d="M125,-37C119,-37 113,-31 113,-25"/>
<path fill="#ffffff" stroke="#ffffff" stroke-width="1.5" d="M113,-13C113,-7 119,-1 125,-1"/>
<polyline fill="none" stroke="#2e3436" stroke-width="1.5" points="125,-1 181,-1 "/>
<path fill="none" stroke="#2e3436" stroke-width="1.5" d="M181,-1C187,-1 193,-7 193,-13"/>
<polyline fill="none" stroke="#2e3436" stroke-width="1.5" points="193,-13 193,-25 "/>
<path fill="none" stroke="#2e3436" stroke-width="1.5" d="M193,-25C193,-31 187,-37 181,-37"/>
<polyline fill="none" stroke="#2e3436" stroke-width="1.5" points="181,-37 125,-37 "/>
<path fill="none" stroke="#2e3436" stroke-width="1.5" d="M125,-37C119,-37 113,-31 113,-25"/>
<polyline fill="none" stroke="#2e3436" stroke-width="1.5" points="113,-25 113,-13 "/>
<path fill="none" stroke="#2e3436" stroke-width="1.5" d="M113,-13C113,-7 119,-1 125,-1"/>
<text text-anchor="start" x="121" y="-21.8" font-family="FreeSans" font-size="8.00" fill="#1c2021">name = &#39;Peter&#39;</text>
<text text-anchor="start" x="121" y="-11.8" font-family="FreeSans" font-size="8.00" fill="#1c2021">age = 34</text>
</g>
<!-- N2 -->
<g id="node3" class="node"><title>N2</title>
<polygon fill="#ffffff" stroke="#ffffff" stroke-width="1.5" points="65,-85 129,-85 141,-97 141,-109 129,-121 65,-121 53,-109 53,-97 65,-85"/>
<path fill="#ffffff" stroke="#ffffff" stroke-width="1.5" d="M129,-85C135,-85 141,-91 141,-97"/>
<path fill="#ffffff" stroke="#ffffff" stroke-width="1.5" d="M141,-109C141,-115 135,-121 129,-121"/>
<path fill="#ffffff" stroke="#ffffff" stroke-width="1.5" d="M65,-121C59,-121 53,-115 53,-109"/>
<path fill="#ffffff" stroke="#ffffff" stroke-width="1.5" d="M53,-97C53,-91 59,-85 65,-85"/>
<polyline fill="none" stroke="#2e3436" stroke-width="1.5" points="65,-85 129,-85 "/>
<path fill="none" stroke="#2e3436" stroke-width="1.5" d="M129,-85C135,-85 141,-91 141,-97"/>
<polyline fill="none" stroke="#2e3436" stroke-width="1.5" points="141,-97 141,-109 "/>
<path fill="none" stroke="#2e3436" stroke-width="1.5" d="M141,-109C141,-115 135,-121 129,-121"/>
<polyline fill="none" stroke="#2e3436" stroke-width="1.5" points="129,-121 65,-121 "/>
<path fill="none" stroke="#2e3436" stroke-width="1.5" d="M65,-121C59,-121 53,-115 53,-109"/>
<polyline fill="none" stroke="#2e3436" stroke-width="1.5" points="53,-109 53,-97 "/>
<path fill="none" stroke="#2e3436" stroke-width="1.5" d="M53,-97C53,-91 59,-85 65,-85"/>
<text text-anchor="start" x="61" y="-105.8" font-family="FreeSans" font-size="8.00" fill="#1c2021">name = &#39;Andres&#39;</text>
<text text-anchor="start" x="61" y="-95.8" font-family="FreeSans" font-size="8.00" fill="#1c2021">age = 36</text>
</g>
<!-- N2&#45;&gt;N0 -->
<g id="edge2" class="edge"><title>N2&#45;&gt;N0</title>
<path fill="none" stroke="#2e3436" stroke-width="2" d="M85.0658,-84.7733C77.2099,-72.7751 66.8269,-56.9174 58.2244,-43.779"/>
<polygon fill="#2e3436" stroke="#2e3436" points="53.9109,-37.1912 60.8429,-41.617 56.3834,-40.0546 58.4376,-43.1919 58.0193,-43.4658 57.601,-43.7397 55.5468,-40.6024 55.1957,-45.3146 53.9109,-37.1912 53.9109,-37.1912"/>
<text text-anchor="middle" x="87.5" y="-58.8" font-family="FreeSans" font-size="8.00" fill="#2e3436">KNOWS</text>
</g>
<!-- N2&#45;&gt;N1 -->
<g id="edge4" class="edge"><title>N2&#45;&gt;N1</title>
<path fill="none" stroke="#2e3436" stroke-width="2" d="M109.151,-84.7733C117.15,-72.7751 127.722,-56.9174 136.481,-43.779"/>
<polygon fill="#2e3436" stroke="#2e3436" points="140.873,-37.1912 139.52,-45.3037 139.208,-40.5887 137.128,-43.7089 136.712,-43.4316 136.296,-43.1542 138.376,-40.034 133.904,-41.5594 140.873,-37.1912 140.873,-37.1912"/>
<text text-anchor="middle" x="141.5" y="-58.8" font-family="FreeSans" font-size="8.00" fill="#2e3436">KNOWS</text>
</g>
</g>
</svg>
