<?xml version="1.0" encoding="UTF-8" standalone="no"?>
<!DOCTYPE svg PUBLIC "-//W3C//DTD SVG 1.1//EN"
 "http://www.w3.org/Graphics/SVG/1.1/DTD/svg11.dtd">
<!-- Generated by graphviz version 2.26.3 (20100126.1600)
 -->
<!-- Title: g Pages: 1 -->
<svg width="72pt" height="298pt"
 viewBox="0.00 0.00 72.00 298.00" xmlns="http://www.w3.org/2000/svg" xmlns:xlink="http://www.w3.org/1999/xlink">
<g id="graph1" class="graph" transform="scale(1 1) rotate(0) translate(4 294)">
<title>g</title>
<polygon fill="white" stroke="white" points="-4,5 -4,-294 69,-294 69,5 -4,5"/>
<!-- N0 -->
<g id="node1" class="node"><title>N0</title>
<polygon fill="#ffffff" stroke="#ffffff" stroke-width="1.5" points="12,-1 52,-1 64,-13 64,-25 52,-37 12,-37 0,-25 0,-13 12,-1"/>
<path fill="#ffffff" stroke="#ffffff" stroke-width="1.5" d="M52,-1C58,-1 64,-7 64,-13"/>
<path fill="#ffffff" stroke="#ffffff" stroke-width="1.5" d="M64,-25C64,-31 58,-37 52,-37"/>
<path fill="#ffffff" stroke="#ffffff" stroke-width="1.5" d="M12,-37C6,-37 0,-31 0,-25"/>
<path fill="#ffffff" stroke="#ffffff" stroke-width="1.5" d="M0,-13C0,-7 6,-1 12,-1"/>
<polyline fill="none" stroke="#2e3436" stroke-width="1.5" points="12,-1 52,-1 "/>
<path fill="none" stroke="#2e3436" stroke-width="1.5" d="M52,-1C58,-1 64,-7 64,-13"/>
<polyline fill="none" stroke="#2e3436" stroke-width="1.5" points="64,-13 64,-25 "/>
<path fill="none" stroke="#2e3436" stroke-width="1.5" d="M64,-25C64,-31 58,-37 52,-37"/>
<polyline fill="none" stroke="#2e3436" stroke-width="1.5" points="52,-37 12,-37 "/>
<path fill="none" stroke="#2e3436" stroke-width="1.5" d="M12,-37C6,-37 0,-31 0,-25"/>
<polyline fill="none" stroke="#2e3436" stroke-width="1.5" points="0,-25 0,-13 "/>
<path fill="none" stroke="#2e3436" stroke-width="1.5" d="M0,-13C0,-7 6,-1 12,-1"/>
<text text-anchor="start" x="8" y="-16.8" font-family="FreeSans" font-size="8.00" fill="#1c2021">name = &#39;D&#39;</text>
</g>
<!-- N1 -->
<g id="node2" class="node"><title>N1</title>
<polygon fill="#ffffff" stroke="#ffffff" stroke-width="1.5" points="12.5,-253 51.5,-253 63.5,-265 63.5,-277 51.5,-289 12.5,-289 0.5,-277 0.5,-265 12.5,-253"/>
<path fill="#ffffff" stroke="#ffffff" stroke-width="1.5" d="M51.5,-253C57.5,-253 63.5,-259 63.5,-265"/>
<path fill="#ffffff" stroke="#ffffff" stroke-width="1.5" d="M63.5,-277C63.5,-283 57.5,-289 51.5,-289"/>
<path fill="#ffffff" stroke="#ffffff" stroke-width="1.5" d="M12.5,-289C6.5,-289 0.5,-283 0.5,-277"/>
<path fill="#ffffff" stroke="#ffffff" stroke-width="1.5" d="M0.5,-265C0.5,-259 6.5,-253 12.5,-253"/>
<polyline fill="none" stroke="#2e3436" stroke-width="1.5" points="12.5,-253 51.5,-253 "/>
<path fill="none" stroke="#2e3436" stroke-width="1.5" d="M51.5,-253C57.5,-253 63.5,-259 63.5,-265"/>
<polyline fill="none" stroke="#2e3436" stroke-width="1.5" points="63.5,-265 63.5,-277 "/>
<path fill="none" stroke="#2e3436" stroke-width="1.5" d="M63.5,-277C63.5,-283 57.5,-289 51.5,-289"/>
<polyline fill="none" stroke="#2e3436" stroke-width="1.5" points="51.5,-289 12.5,-289 "/>
<path fill="none" stroke="#2e3436" stroke-width="1.5" d="M12.5,-289C6.5,-289 0.5,-283 0.5,-277"/>
<polyline fill="none" stroke="#2e3436" stroke-width="1.5" points="0.5,-277 0.5,-265 "/>
<path fill="none" stroke="#2e3436" stroke-width="1.5" d="M0.5,-265C0.5,-259 6.5,-253 12.5,-253"/>
<text text-anchor="start" x="8.5" y="-268.8" font-family="FreeSans" font-size="8.00" fill="#1c2021">name = &#39;A&#39;</text>
</g>
<!-- N2 -->
<g id="node4" class="node"><title>N2</title>
<polygon fill="#ffffff" stroke="#ffffff" stroke-width="1.5" points="12,-169 52,-169 64,-181 64,-193 52,-205 12,-205 0,-193 0,-181 12,-169"/>
<path fill="#ffffff" stroke="#ffffff" stroke-width="1.5" d="M52,-169C58,-169 64,-175 64,-181"/>
<path fill="#ffffff" stroke="#ffffff" stroke-width="1.5" d="M64,-193C64,-199 58,-205 52,-205"/>
<path fill="#ffffff" stroke="#ffffff" stroke-width="1.5" d="M12,-205C6,-205 0,-199 0,-193"/>
<path fill="#ffffff" stroke="#ffffff" stroke-width="1.5" d="M0,-181C0,-175 6,-169 12,-169"/>
<polyline fill="none" stroke="#2e3436" stroke-width="1.5" points="12,-169 52,-169 "/>
<path fill="none" stroke="#2e3436" stroke-width="1.5" d="M52,-169C58,-169 64,-175 64,-181"/>
<polyline fill="none" stroke="#2e3436" stroke-width="1.5" points="64,-181 64,-193 "/>
<path fill="none" stroke="#2e3436" stroke-width="1.5" d="M64,-193C64,-199 58,-205 52,-205"/>
<polyline fill="none" stroke="#2e3436" stroke-width="1.5" points="52,-205 12,-205 "/>
<path fill="none" stroke="#2e3436" stroke-width="1.5" d="M12,-205C6,-205 0,-199 0,-193"/>
<polyline fill="none" stroke="#2e3436" stroke-width="1.5" points="0,-193 0,-181 "/>
<path fill="none" stroke="#2e3436" stroke-width="1.5" d="M0,-181C0,-175 6,-169 12,-169"/>
<text text-anchor="start" x="8" y="-184.8" font-family="FreeSans" font-size="8.00" fill="#1c2021">name = &#39;B&#39;</text>
</g>
<!-- N1&#45;&gt;N2 -->
<g id="edge2" class="edge"><title>N1&#45;&gt;N2</title>
<path fill="none" stroke="#2e3436" stroke-width="2" d="M32,-252.773C32,-241.105 32,-225.787 32,-212.87"/>
<polygon fill="#2e3436" stroke="#2e3436" points="32,-205.191 35.3751,-212.691 32.5,-208.941 32.5001,-212.691 32.0001,-212.691 31.5001,-212.691 31.5,-208.941 28.6251,-212.691 32,-205.191 32,-205.191"/>
<text text-anchor="middle" x="47.5" y="-226.8" font-family="FreeSans" font-size="8.00" fill="#2e3436">KNOWS</text>
</g>
<!-- N3 -->
<g id="node6" class="node"><title>N3</title>
<polygon fill="#ffffff" stroke="#ffffff" stroke-width="1.5" points="12,-85 52,-85 64,-97 64,-109 52,-121 12,-121 0,-109 0,-97 12,-85"/>
<path fill="#ffffff" stroke="#ffffff" stroke-width="1.5" d="M52,-85C58,-85 64,-91 64,-97"/>
<path fill="#ffffff" stroke="#ffffff" stroke-width="1.5" d="M64,-109C64,-115 58,-121 52,-121"/>
<path fill="#ffffff" stroke="#ffffff" stroke-width="1.5" d="M12,-121C6,-121 0,-115 0,-109"/>
<path fill="#ffffff" stroke="#ffffff" stroke-width="1.5" d="M0,-97C0,-91 6,-85 12,-85"/>
<polyline fill="none" stroke="#2e3436" stroke-width="1.5" points="12,-85 52,-85 "/>
<path fill="none" stroke="#2e3436" stroke-width="1.5" d="M52,-85C58,-85 64,-91 64,-97"/>
<polyline fill="none" stroke="#2e3436" stroke-width="1.5" points="64,-97 64,-109 "/>
<path fill="none" stroke="#2e3436" stroke-width="1.5" d="M64,-109C64,-115 58,-121 52,-121"/>
<polyline fill="none" stroke="#2e3436" stroke-width="1.5" points="52,-121 12,-121 "/>
<path fill="none" stroke="#2e3436" stroke-width="1.5" d="M12,-121C6,-121 0,-115 0,-109"/>
<polyline fill="none" stroke="#2e3436" stroke-width="1.5" points="0,-109 0,-97 "/>
<path fill="none" stroke="#2e3436" stroke-width="1.5" d="M0,-97C0,-91 6,-85 12,-85"/>
<text text-anchor="start" x="8" y="-100.8" font-family="FreeSans" font-size="8.00" fill="#1c2021">name = &#39;C&#39;</text>
</g>
<!-- N2&#45;&gt;N3 -->
<g id="edge4" class="edge"><title>N2&#45;&gt;N3</title>
<path fill="none" stroke="#2e3436" stroke-width="2" d="M32,-168.773C32,-157.105 32,-141.787 32,-128.87"/>
<polygon fill="#2e3436" stroke="#2e3436" points="32,-121.191 35.3751,-128.691 32.5,-124.941 32.5001,-128.691 32.0001,-128.691 31.5001,-128.691 31.5,-124.941 28.6251,-128.691 32,-121.191 32,-121.191"/>
<text text-anchor="middle" x="47.5" y="-142.8" font-family="FreeSans" font-size="8.00" fill="#2e3436">KNOWS</text>
</g>
<!-- N3&#45;&gt;N0 -->
<g id="edge6" class="edge"><title>N3&#45;&gt;N0</title>
<path fill="none" stroke="#2e3436" stroke-width="2" d="M32,-84.7733C32,-73.1053 32,-57.7874 32,-44.8699"/>
<polygon fill="#2e3436" stroke="#2e3436" points="32,-37.1912 35.3751,-44.6911 32.5,-40.9412 32.5001,-44.6912 32.0001,-44.6912 31.5001,-44.6912 31.5,-40.9412 28.6251,-44.6912 32,-37.1912 32,-37.1912"/>
<text text-anchor="middle" x="47.5" y="-58.8" font-family="FreeSans" font-size="8.00" fill="#2e3436">KNOWS</text>
</g>
</g>
</svg>
