<?xml version="1.0" encoding="UTF-8" standalone="no"?>
<!DOCTYPE svg PUBLIC "-//W3C//DTD SVG 1.1//EN"
 "http://www.w3.org/Graphics/SVG/1.1/DTD/svg11.dtd">
<!-- Generated by graphviz version 2.26.3 (20100126.1600)
 -->
<!-- Title: g Pages: 1 -->
<svg width="504pt" height="93pt"
 viewBox="0.00 0.00 504.00 92.65" xmlns="http://www.w3.org/2000/svg" xmlns:xlink="http://www.w3.org/1999/xlink">
<g id="graph1" class="graph" transform="scale(0.617659 0.617659) rotate(0) translate(4 146)">
<title>g</title>
<polygon fill="white" stroke="white" points="-4,5 -4,-146 812.984,-146 812.984,5 -4,5"/>
<!-- N0 -->
<g id="node1" class="node"><title>N0</title>
<polygon fill="#ffffff" stroke="#ffffff" stroke-width="1.5" points="231.484,-1 308.484,-1 320.484,-13 320.484,-35 308.484,-47 231.484,-47 219.484,-35 219.484,-13 231.484,-1"/>
<path fill="#ffffff" stroke="#ffffff" stroke-width="1.5" d="M308.484,-1C314.484,-1 320.484,-7 320.484,-13"/>
<path fill="#ffffff" stroke="#ffffff" stroke-width="1.5" d="M320.484,-35C320.484,-41 314.484,-47 308.484,-47"/>
<path fill="#ffffff" stroke="#ffffff" stroke-width="1.5" d="M231.484,-47C225.484,-47 219.484,-41 219.484,-35"/>
<path fill="#ffffff" stroke="#ffffff" stroke-width="1.5" d="M219.484,-13C219.484,-7 225.484,-1 231.484,-1"/>
<polyline fill="none" stroke="#2e3436" stroke-width="1.5" points="231.484,-1 308.484,-1 "/>
<path fill="none" stroke="#2e3436" stroke-width="1.5" d="M308.484,-1C314.484,-1 320.484,-7 320.484,-13"/>
<polyline fill="none" stroke="#2e3436" stroke-width="1.5" points="320.484,-13 320.484,-35 "/>
<path fill="none" stroke="#2e3436" stroke-width="1.5" d="M320.484,-35C320.484,-41 314.484,-47 308.484,-47"/>
<polyline fill="none" stroke="#2e3436" stroke-width="1.5" points="308.484,-47 231.484,-47 "/>
<path fill="none" stroke="#2e3436" stroke-width="1.5" d="M231.484,-47C225.484,-47 219.484,-41 219.484,-35"/>
<polyline fill="none" stroke="#2e3436" stroke-width="1.5" points="219.484,-35 219.484,-13 "/>
<path fill="none" stroke="#2e3436" stroke-width="1.5" d="M219.484,-13C219.484,-7 225.484,-1 231.484,-1"/>
<text text-anchor="middle" x="269.984" y="-35.8" font-family="FreeSans" font-size="8.00" fill="#1c2021">Movie</text>
<polyline fill="none" stroke="#2e3436" stroke-width="1.5" points="219.484,-29 320.484,-29 "/>
<text text-anchor="start" x="227.484" y="-17.8" font-family="FreeSans" font-size="8.00" fill="#1c2021">title = &#39;The Matrix&#39;</text>
<text text-anchor="start" x="227.484" y="-7.8" font-family="FreeSans" font-size="8.00" fill="#1c2021">year = &#39;1999&#45;03&#45;31&#39;</text>
</g>
<!-- N1 -->
<g id="node2" class="node"><title>N1</title>
<polygon fill="#ffffff" stroke="#ffffff" stroke-width="1.5" points="35.9844,-1 147.984,-1 159.984,-13 159.984,-35 147.984,-47 35.9844,-47 23.9844,-35 23.9844,-13 35.9844,-1"/>
<path fill="#ffffff" stroke="#ffffff" stroke-width="1.5" d="M147.984,-1C153.984,-1 159.984,-7 159.984,-13"/>
<path fill="#ffffff" stroke="#ffffff" stroke-width="1.5" d="M159.984,-35C159.984,-41 153.984,-47 147.984,-47"/>
<path fill="#ffffff" stroke="#ffffff" stroke-width="1.5" d="M35.9844,-47C29.9844,-47 23.9844,-41 23.9844,-35"/>
<path fill="#ffffff" stroke="#ffffff" stroke-width="1.5" d="M23.9844,-13C23.9844,-7 29.9844,-1 35.9844,-1"/>
<polyline fill="none" stroke="#2e3436" stroke-width="1.5" points="35.9844,-1 147.984,-1 "/>
<path fill="none" stroke="#2e3436" stroke-width="1.5" d="M147.984,-1C153.984,-1 159.984,-7 159.984,-13"/>
<polyline fill="none" stroke="#2e3436" stroke-width="1.5" points="159.984,-13 159.984,-35 "/>
<path fill="none" stroke="#2e3436" stroke-width="1.5" d="M159.984,-35C159.984,-41 153.984,-47 147.984,-47"/>
<polyline fill="none" stroke="#2e3436" stroke-width="1.5" points="147.984,-47 35.9844,-47 "/>
<path fill="none" stroke="#2e3436" stroke-width="1.5" d="M35.9844,-47C29.9844,-47 23.9844,-41 23.9844,-35"/>
<polyline fill="none" stroke="#2e3436" stroke-width="1.5" points="23.9844,-35 23.9844,-13 "/>
<path fill="none" stroke="#2e3436" stroke-width="1.5" d="M23.9844,-13C23.9844,-7 29.9844,-1 35.9844,-1"/>
<text text-anchor="middle" x="91.9844" y="-35.8" font-family="FreeSans" font-size="8.00" fill="#1c2021">Movie</text>
<polyline fill="none" stroke="#2e3436" stroke-width="1.5" points="23.9844,-29 159.984,-29 "/>
<text text-anchor="start" x="31.9844" y="-17.8" font-family="FreeSans" font-size="8.00" fill="#1c2021">title = &#39;The Matrix Reloaded&#39;</text>
<text text-anchor="start" x="31.9844" y="-7.8" font-family="FreeSans" font-size="8.00" fill="#1c2021">year = &#39;2003&#45;05&#45;07&#39;</text>
</g>
<!-- N2 -->
<g id="node3" class="node"><title>N2</title>
<polygon fill="#ffffff" stroke="#ffffff" stroke-width="1.5" points="496.984,-1 618.984,-1 630.984,-13 630.984,-35 618.984,-47 496.984,-47 484.984,-35 484.984,-13 496.984,-1"/>
<path fill="#ffffff" stroke="#ffffff" stroke-width="1.5" d="M618.984,-1C624.984,-1 630.984,-7 630.984,-13"/>
<path fill="#ffffff" stroke="#ffffff" stroke-width="1.5" d="M630.984,-35C630.984,-41 624.984,-47 618.984,-47"/>
<path fill="#ffffff" stroke="#ffffff" stroke-width="1.5" d="M496.984,-47C490.984,-47 484.984,-41 484.984,-35"/>
<path fill="#ffffff" stroke="#ffffff" stroke-width="1.5" d="M484.984,-13C484.984,-7 490.984,-1 496.984,-1"/>
<polyline fill="none" stroke="#2e3436" stroke-width="1.5" points="496.984,-1 618.984,-1 "/>
<path fill="none" stroke="#2e3436" stroke-width="1.5" d="M618.984,-1C624.984,-1 630.984,-7 630.984,-13"/>
<polyline fill="none" stroke="#2e3436" stroke-width="1.5" points="630.984,-13 630.984,-35 "/>
<path fill="none" stroke="#2e3436" stroke-width="1.5" d="M630.984,-35C630.984,-41 624.984,-47 618.984,-47"/>
<polyline fill="none" stroke="#2e3436" stroke-width="1.5" points="618.984,-47 496.984,-47 "/>
<path fill="none" stroke="#2e3436" stroke-width="1.5" d="M496.984,-47C490.984,-47 484.984,-41 484.984,-35"/>
<polyline fill="none" stroke="#2e3436" stroke-width="1.5" points="484.984,-35 484.984,-13 "/>
<path fill="none" stroke="#2e3436" stroke-width="1.5" d="M484.984,-13C484.984,-7 490.984,-1 496.984,-1"/>
<text text-anchor="middle" x="557.984" y="-35.8" font-family="FreeSans" font-size="8.00" fill="#1c2021">Movie</text>
<polyline fill="none" stroke="#2e3436" stroke-width="1.5" points="484.984,-29 630.984,-29 "/>
<text text-anchor="start" x="492.984" y="-17.8" font-family="FreeSans" font-size="8.00" fill="#1c2021">title = &#39;The Matrix Revolutions&#39;</text>
<text text-anchor="start" x="492.984" y="-7.8" font-family="FreeSans" font-size="8.00" fill="#1c2021">year = &#39;2003&#45;10&#45;27&#39;</text>
</g>
<!-- N3 -->
<g id="node4" class="node"><title>N3</title>
<polygon fill="#ffffff" stroke="#ffffff" stroke-width="1.5" points="103.484,-105 196.484,-105 208.484,-117 208.484,-129 196.484,-141 103.484,-141 91.4844,-129 91.4844,-117 103.484,-105"/>
<path fill="#ffffff" stroke="#ffffff" stroke-width="1.5" d="M196.484,-105C202.484,-105 208.484,-111 208.484,-117"/>
<path fill="#ffffff" stroke="#ffffff" stroke-width="1.5" d="M208.484,-129C208.484,-135 202.484,-141 196.484,-141"/>
<path fill="#ffffff" stroke="#ffffff" stroke-width="1.5" d="M103.484,-141C97.4844,-141 91.4844,-135 91.4844,-129"/>
<path fill="#ffffff" stroke="#ffffff" stroke-width="1.5" d="M91.4844,-117C91.4844,-111 97.4844,-105 103.484,-105"/>
<polyline fill="none" stroke="#2e3436" stroke-width="1.5" points="103.484,-105 196.484,-105 "/>
<path fill="none" stroke="#2e3436" stroke-width="1.5" d="M196.484,-105C202.484,-105 208.484,-111 208.484,-117"/>
<polyline fill="none" stroke="#2e3436" stroke-width="1.5" points="208.484,-117 208.484,-129 "/>
<path fill="none" stroke="#2e3436" stroke-width="1.5" d="M208.484,-129C208.484,-135 202.484,-141 196.484,-141"/>
<polyline fill="none" stroke="#2e3436" stroke-width="1.5" points="196.484,-141 103.484,-141 "/>
<path fill="none" stroke="#2e3436" stroke-width="1.5" d="M103.484,-141C97.4844,-141 91.4844,-135 91.4844,-129"/>
<polyline fill="none" stroke="#2e3436" stroke-width="1.5" points="91.4844,-129 91.4844,-117 "/>
<path fill="none" stroke="#2e3436" stroke-width="1.5" d="M91.4844,-117C91.4844,-111 97.4844,-105 103.484,-105"/>
<text text-anchor="middle" x="149.984" y="-129.8" font-family="FreeSans" font-size="8.00" fill="#1c2021">Actor</text>
<polyline fill="none" stroke="#2e3436" stroke-width="1.5" points="91.4844,-123 208.484,-123 "/>
<text text-anchor="start" x="99.4844" y="-111.8" font-family="FreeSans" font-size="8.00" fill="#1c2021">name = &#39;Keanu Reeves&#39;</text>
</g>
<!-- N3&#45;&gt;N0 -->
<g id="edge2" class="edge"><title>N3&#45;&gt;N0</title>
<path fill="none" stroke="#2e3436" stroke-width="2" d="M165.623,-104.741C176.137,-93.0011 190.648,-77.7949 204.984,-66 211.18,-60.9023 218.023,-55.8973 224.873,-51.2193"/>
<polygon fill="#2e3436" stroke="#2e3436" points="231.147,-47.0218 226.79,-53.9972 228.309,-49.5225 225.192,-51.6076 224.914,-51.192 224.636,-50.7764 227.753,-48.6913 223.037,-48.3868 231.147,-47.0218 231.147,-47.0218"/>
<text text-anchor="middle" x="230.484" y="-78.8" font-family="FreeSans" font-size="8.00" fill="#2e3436">ACTS_IN</text>
<text text-anchor="start" x="204.984" y="-68.8" font-family="FreeSans" font-size="8.00" fill="#2e3436">role = &#39;Neo&#39;</text>
</g>
<!-- N3&#45;&gt;N1 -->
<g id="edge4" class="edge"><title>N3&#45;&gt;N1</title>
<path fill="none" stroke="#2e3436" stroke-width="2" d="M91.4168,-115.429C56.0682,-109.522 15.8227,-99.9513 4.9844,-86 -5.51945,-72.4793 2.86453,-60.6478 17.8804,-51.0453"/>
<polygon fill="#2e3436" stroke="#2e3436" points="24.6861,-47.068 19.9137,-53.7662 21.7007,-49.3919 18.4631,-51.284 18.2108,-50.8523 17.9585,-50.4206 21.1961,-48.5285 16.5078,-47.9384 24.6861,-47.068 24.6861,-47.068"/>
<text text-anchor="middle" x="30.4844" y="-78.8" font-family="FreeSans" font-size="8.00" fill="#2e3436">ACTS_IN</text>
<text text-anchor="start" x="4.9844" y="-68.8" font-family="FreeSans" font-size="8.00" fill="#2e3436">role = &#39;Neo&#39;</text>
</g>
<!-- N3&#45;&gt;N2 -->
<g id="edge6" class="edge"><title>N3&#45;&gt;N2</title>
<path fill="none" stroke="#2e3436" stroke-width="2" d="M208.763,-106.775C213.553,-105.736 218.337,-104.792 222.984,-104 318.386,-87.752 349.418,-120.106 439.984,-86 453.96,-80.7371 454.137,-73.6135 466.984,-66 476.228,-60.5222 486.307,-55.2433 496.28,-50.3861"/>
<polygon fill="#2e3436" stroke="#2e3436" points="503.156,-47.0935 497.849,-53.3767 499.99,-49.1641 496.608,-50.7836 496.392,-50.3327 496.176,-49.8817 499.558,-48.2621 494.934,-47.2886 503.156,-47.0935 503.156,-47.0935"/>
<text text-anchor="middle" x="492.484" y="-78.8" font-family="FreeSans" font-size="8.00" fill="#2e3436">ACTS_IN</text>
<text text-anchor="start" x="466.984" y="-68.8" font-family="FreeSans" font-size="8.00" fill="#2e3436">role = &#39;Neo&#39;</text>
</g>
<!-- N4 -->
<g id="node8" class="node"><title>N4</title>
<polygon fill="#ffffff" stroke="#ffffff" stroke-width="1.5" points="592.484,-105 709.484,-105 721.484,-117 721.484,-129 709.484,-141 592.484,-141 580.484,-129 580.484,-117 592.484,-105"/>
<path fill="#ffffff" stroke="#ffffff" stroke-width="1.5" d="M709.484,-105C715.484,-105 721.484,-111 721.484,-117"/>
<path fill="#ffffff" stroke="#ffffff" stroke-width="1.5" d="M721.484,-129C721.484,-135 715.484,-141 709.484,-141"/>
<path fill="#ffffff" stroke="#ffffff" stroke-width="1.5" d="M592.484,-141C586.484,-141 580.484,-135 580.484,-129"/>
<path fill="#ffffff" stroke="#ffffff" stroke-width="1.5" d="M580.484,-117C580.484,-111 586.484,-105 592.484,-105"/>
<polyline fill="none" stroke="#2e3436" stroke-width="1.5" points="592.484,-105 709.484,-105 "/>
<path fill="none" stroke="#2e3436" stroke-width="1.5" d="M709.484,-105C715.484,-105 721.484,-111 721.484,-117"/>
<polyline fill="none" stroke="#2e3436" stroke-width="1.5" points="721.484,-117 721.484,-129 "/>
<path fill="none" stroke="#2e3436" stroke-width="1.5" d="M721.484,-129C721.484,-135 715.484,-141 709.484,-141"/>
<polyline fill="none" stroke="#2e3436" stroke-width="1.5" points="709.484,-141 592.484,-141 "/>
<path fill="none" stroke="#2e3436" stroke-width="1.5" d="M592.484,-141C586.484,-141 580.484,-135 580.484,-129"/>
<polyline fill="none" stroke="#2e3436" stroke-width="1.5" points="580.484,-129 580.484,-117 "/>
<path fill="none" stroke="#2e3436" stroke-width="1.5" d="M580.484,-117C580.484,-111 586.484,-105 592.484,-105"/>
<text text-anchor="middle" x="650.984" y="-129.8" font-family="FreeSans" font-size="8.00" fill="#1c2021">Actor</text>
<polyline fill="none" stroke="#2e3436" stroke-width="1.5" points="580.484,-123 721.484,-123 "/>
<text text-anchor="start" x="588.484" y="-111.8" font-family="FreeSans" font-size="8.00" fill="#1c2021">name = &#39;Laurence Fishburne&#39;</text>
</g>
<!-- N4&#45;&gt;N0 -->
<g id="edge8" class="edge"><title>N4&#45;&gt;N0</title>
<path fill="none" stroke="#2e3436" stroke-width="2" d="M642.369,-104.945C635.113,-91.8508 623.439,-74.9322 607.984,-66 604.978,-64.2624 424.272,-42.4462 328.359,-30.9642"/>
<polygon fill="#2e3436" stroke="#2e3436" points="320.758,-30.0547 328.606,-27.5948 324.541,-30.0038 328.265,-30.4494 328.205,-30.9459 328.146,-31.4423 324.422,-30.9967 327.804,-34.297 320.758,-30.0547 320.758,-30.0547"/>
<text text-anchor="middle" x="666.984" y="-78.8" font-family="FreeSans" font-size="8.00" fill="#2e3436">ACTS_IN</text>
<text text-anchor="start" x="628.984" y="-68.8" font-family="FreeSans" font-size="8.00" fill="#2e3436">role = &#39;Morpheus&#39;</text>
</g>
<!-- N4&#45;&gt;N1 -->
<g id="edge10" class="edge"><title>N4&#45;&gt;N1</title>
<path fill="none" stroke="#2e3436" stroke-width="2" d="M580.209,-118.234C506.453,-112.535 396.257,-101.749 356.984,-86 343.124,-80.4418 343.792,-71.6893 329.984,-66 278.495,-44.7839 260.815,-57.7411 205.984,-48 193.583,-45.7967 180.468,-43.2451 167.722,-40.645"/>
<polygon fill="#2e3436" stroke="#2e3436" points="160.268,-39.1107 168.294,-37.3171 164.042,-39.377 167.715,-40.1331 167.614,-40.6228 167.513,-41.1125 163.84,-40.3565 166.933,-43.9285 160.268,-39.1107 160.268,-39.1107"/>
<text text-anchor="middle" x="394.984" y="-78.8" font-family="FreeSans" font-size="8.00" fill="#2e3436">ACTS_IN</text>
<text text-anchor="start" x="356.984" y="-68.8" font-family="FreeSans" font-size="8.00" fill="#2e3436">role = &#39;Morpheus&#39;</text>
</g>
<!-- N4&#45;&gt;N2 -->
<g id="edge12" class="edge"><title>N4&#45;&gt;N2</title>
<path fill="none" stroke="#2e3436" stroke-width="2" d="M704.022,-104.888C724.406,-94.9959 740.186,-81.5836 727.984,-66 716.475,-51.3015 676.884,-41.0396 638.803,-34.3404"/>
<polygon fill="#2e3436" stroke="#2e3436" points="631.216,-33.0478 639.176,-30.9804 634.997,-33.1847 638.693,-33.8146 638.609,-34.3074 638.525,-34.8003 634.829,-34.1705 638.043,-37.6345 631.216,-33.0478 631.216,-33.0478"/>
<text text-anchor="middle" x="769.984" y="-78.8" font-family="FreeSans" font-size="8.00" fill="#2e3436">ACTS_IN</text>
<text text-anchor="start" x="731.984" y="-68.8" font-family="FreeSans" font-size="8.00" fill="#2e3436">role = &#39;Morpheus&#39;</text>
</g>
<!-- N5 -->
<g id="node12" class="node"><title>N5</title>
<polygon fill="#ffffff" stroke="#ffffff" stroke-width="1.5" points="248.984,-105 358.984,-105 370.984,-117 370.984,-129 358.984,-141 248.984,-141 236.984,-129 236.984,-117 248.984,-105"/>
<path fill="#ffffff" stroke="#ffffff" stroke-width="1.5" d="M358.984,-105C364.984,-105 370.984,-111 370.984,-117"/>
<path fill="#ffffff" stroke="#ffffff" stroke-width="1.5" d="M370.984,-129C370.984,-135 364.984,-141 358.984,-141"/>
<path fill="#ffffff" stroke="#ffffff" stroke-width="1.5" d="M248.984,-141C242.984,-141 236.984,-135 236.984,-129"/>
<path fill="#ffffff" stroke="#ffffff" stroke-width="1.5" d="M236.984,-117C236.984,-111 242.984,-105 248.984,-105"/>
<polyline fill="none" stroke="#2e3436" stroke-width="1.5" points="248.984,-105 358.984,-105 "/>
<path fill="none" stroke="#2e3436" stroke-width="1.5" d="M358.984,-105C364.984,-105 370.984,-111 370.984,-117"/>
<polyline fill="none" stroke="#2e3436" stroke-width="1.5" points="370.984,-117 370.984,-129 "/>
<path fill="none" stroke="#2e3436" stroke-width="1.5" d="M370.984,-129C370.984,-135 364.984,-141 358.984,-141"/>
<polyline fill="none" stroke="#2e3436" stroke-width="1.5" points="358.984,-141 248.984,-141 "/>
<path fill="none" stroke="#2e3436" stroke-width="1.5" d="M248.984,-141C242.984,-141 236.984,-135 236.984,-129"/>
<polyline fill="none" stroke="#2e3436" stroke-width="1.5" points="236.984,-129 236.984,-117 "/>
<path fill="none" stroke="#2e3436" stroke-width="1.5" d="M236.984,-117C236.984,-111 242.984,-105 248.984,-105"/>
<text text-anchor="middle" x="303.984" y="-129.8" font-family="FreeSans" font-size="8.00" fill="#1c2021">Actor</text>
<polyline fill="none" stroke="#2e3436" stroke-width="1.5" points="236.984,-123 370.984,-123 "/>
<text text-anchor="start" x="244.984" y="-111.8" font-family="FreeSans" font-size="8.00" fill="#1c2021">name = &#39;Carrie&#45;Anne Moss&#39;</text>
</g>
<!-- N5&#45;&gt;N0 -->
<g id="edge14" class="edge"><title>N5&#45;&gt;N0</title>
<path fill="none" stroke="#2e3436" stroke-width="2" d="M280.906,-104.782C275.668,-99.3562 270.818,-92.9749 267.984,-86 264.044,-76.2998 263.385,-65.0256 264.083,-54.7718"/>
<polygon fill="#2e3436" stroke="#2e3436" points="264.85,-47.1725 267.455,-54.9735 264.971,-50.9538 264.594,-54.6849 264.097,-54.6347 263.599,-54.5845 263.976,-50.8534 260.739,-54.2959 264.85,-47.1725 264.85,-47.1725"/>
<text text-anchor="middle" x="297.484" y="-78.8" font-family="FreeSans" font-size="8.00" fill="#2e3436">ACTS_IN</text>
<text text-anchor="start" x="267.984" y="-68.8" font-family="FreeSans" font-size="8.00" fill="#2e3436">role = &#39;Trinity&#39;</text>
</g>
<!-- N5&#45;&gt;N1 -->
<g id="edge16" class="edge"><title>N5&#45;&gt;N1</title>
<path fill="none" stroke="#2e3436" stroke-width="2" d="M236.87,-106.927C232.177,-105.905 227.514,-104.919 222.984,-104 176.582,-94.5893 155.045,-115.467 117.984,-86 108.167,-78.1939 102.01,-66.0165 98.1706,-54.5132"/>
<polygon fill="#2e3436" stroke="#2e3436" points="95.967,-47.104 101.34,-53.3307 97.5153,-50.5558 98.5843,-54.1502 98.1051,-54.2928 97.6258,-54.4353 96.5568,-50.8409 94.8701,-55.2549 95.967,-47.104 95.967,-47.104"/>
<text text-anchor="middle" x="147.484" y="-78.8" font-family="FreeSans" font-size="8.00" fill="#2e3436">ACTS_IN</text>
<text text-anchor="start" x="117.984" y="-68.8" font-family="FreeSans" font-size="8.00" fill="#2e3436">role = &#39;Trinity&#39;</text>
</g>
<!-- N5&#45;&gt;N2 -->
<g id="edge18" class="edge"><title>N5&#45;&gt;N2</title>
<path fill="none" stroke="#2e3436" stroke-width="2" d="M371.066,-118.268C426.849,-113.172 500.868,-103.355 524.984,-86 535.721,-78.2733 543.285,-65.9614 548.436,-54.3379"/>
<polygon fill="#2e3436" stroke="#2e3436" points="551.338,-47.2368 551.625,-55.4562 550.382,-50.8972 548.963,-54.3685 548.5,-54.1793 548.038,-53.9901 549.456,-50.5189 545.376,-52.9024 551.338,-47.2368 551.338,-47.2368"/>
<text text-anchor="middle" x="571.484" y="-78.8" font-family="FreeSans" font-size="8.00" fill="#2e3436">ACTS_IN</text>
<text text-anchor="start" x="541.984" y="-68.8" font-family="FreeSans" font-size="8.00" fill="#2e3436">role = &#39;Trinity&#39;</text>
</g>
</g>
</svg>
