<?xml version="1.0" encoding="UTF-8" standalone="no"?>
<!DOCTYPE svg PUBLIC "-//W3C//DTD SVG 1.1//EN"
 "http://www.w3.org/Graphics/SVG/1.1/DTD/svg11.dtd">
<!-- Generated by graphviz version 2.26.3 (20100126.1600)
 -->
<!-- Title: g Pages: 1 -->
<svg width="259pt" height="266pt"
 viewBox="0.00 0.00 259.00 266.00" xmlns="http://www.w3.org/2000/svg" xmlns:xlink="http://www.w3.org/1999/xlink">
<g id="graph1" class="graph" transform="scale(1 1) rotate(0) translate(4 262)">
<title>g</title>
<polygon fill="white" stroke="white" points="-4,5 -4,-262 256,-262 256,5 -4,5"/>
<!-- N0 -->
<g id="node1" class="node"><title>N0</title>
<polygon fill="#ffffff" stroke="#ffffff" stroke-width="1.5" points="177,-15 237,-15 249,-27 249,-41 237,-53 177,-53 165,-41 165,-27 177,-15"/>
<path fill="#ffffff" stroke="#ffffff" stroke-width="1.5" d="M237,-15C243,-15 249,-21 249,-27"/>
<path fill="#ffffff" stroke="#ffffff" stroke-width="1.5" d="M249,-41C249,-47 243,-53 237,-53"/>
<path fill="#ffffff" stroke="#ffffff" stroke-width="1.5" d="M177,-53C171,-53 165,-47 165,-41"/>
<path fill="#ffffff" stroke="#ffffff" stroke-width="1.5" d="M165,-27C165,-21 171,-15 177,-15"/>
<polyline fill="none" stroke="#2e3436" stroke-width="1.5" points="177,-15 237,-15 "/>
<path fill="none" stroke="#2e3436" stroke-width="1.5" d="M237,-15C243,-15 249,-21 249,-27"/>
<polyline fill="none" stroke="#2e3436" stroke-width="1.5" points="249,-27 249,-41 "/>
<path fill="none" stroke="#2e3436" stroke-width="1.5" d="M249,-41C249,-47 243,-53 237,-53"/>
<polyline fill="none" stroke="#2e3436" stroke-width="1.5" points="237,-53 177,-53 "/>
<path fill="none" stroke="#2e3436" stroke-width="1.5" d="M177,-53C171,-53 165,-47 165,-41"/>
<polyline fill="none" stroke="#2e3436" stroke-width="1.5" points="165,-41 165,-27 "/>
<path fill="none" stroke="#2e3436" stroke-width="1.5" d="M165,-27C165,-21 171,-15 177,-15"/>
<text text-anchor="start" x="173" y="-41.8" font-family="FreeSans" font-size="8.00" fill="#1c2021">name = &#39;Daniel&#39;</text>
<text text-anchor="start" x="173" y="-31.8" font-family="FreeSans" font-size="8.00" fill="#1c2021">age = 54</text>
<text text-anchor="start" x="173" y="-21.8" font-family="FreeSans" font-size="8.00" fill="#1c2021">eyes = &#39;brown&#39;</text>
</g>
<!-- N1 -->
<g id="node2" class="node"><title>N1</title>
<polygon fill="#ffffff" stroke="#ffffff" stroke-width="1.5" points="11.5,-1 124.5,-1 136.5,-13 136.5,-55 124.5,-67 11.5,-67 -0.5,-55 -0.5,-13 11.5,-1"/>
<path fill="#ffffff" stroke="#ffffff" stroke-width="1.5" d="M124.5,-1C130.5,-1 136.5,-7 136.5,-13"/>
<path fill="#ffffff" stroke="#ffffff" stroke-width="1.5" d="M136.5,-55C136.5,-61 130.5,-67 124.5,-67"/>
<path fill="#ffffff" stroke="#ffffff" stroke-width="1.5" d="M11.5,-67C5.5,-67 -0.5,-61 -0.5,-55"/>
<path fill="#ffffff" stroke="#ffffff" stroke-width="1.5" d="M-0.5,-13C-0.5,-7 5.5,-1 11.5,-1"/>
<polyline fill="none" stroke="#2e3436" stroke-width="1.5" points="11.5,-1 124.5,-1 "/>
<path fill="none" stroke="#2e3436" stroke-width="1.5" d="M124.5,-1C130.5,-1 136.5,-7 136.5,-13"/>
<polyline fill="none" stroke="#2e3436" stroke-width="1.5" points="136.5,-13 136.5,-55 "/>
<path fill="none" stroke="#2e3436" stroke-width="1.5" d="M136.5,-55C136.5,-61 130.5,-67 124.5,-67"/>
<polyline fill="none" stroke="#2e3436" stroke-width="1.5" points="124.5,-67 11.5,-67 "/>
<path fill="none" stroke="#2e3436" stroke-width="1.5" d="M11.5,-67C5.5,-67 -0.5,-61 -0.5,-55"/>
<polyline fill="none" stroke="#2e3436" stroke-width="1.5" points="-0.5,-55 -0.5,-13 "/>
<path fill="none" stroke="#2e3436" stroke-width="1.5" d="M-0.5,-13C-0.5,-7 5.5,-1 11.5,-1"/>
<text text-anchor="middle" x="68" y="-55.8" font-family="FreeSans" font-size="8.00" fill="#1c2021">Spouse</text>
<polyline fill="none" stroke="#2e3436" stroke-width="1.5" points="-0.5,-49 136.5,-49 "/>
<text text-anchor="start" x="7.5" y="-37.8" font-family="FreeSans" font-size="8.00" fill="#1c2021">name = &#39;Eskil&#39;</text>
<text text-anchor="start" x="7.5" y="-27.8" font-family="FreeSans" font-size="8.00" fill="#1c2021">age = 41</text>
<text text-anchor="start" x="7.5" y="-17.8" font-family="FreeSans" font-size="8.00" fill="#1c2021">eyes = &#39;blue&#39;</text>
<text text-anchor="start" x="7.5" y="-7.8" font-family="FreeSans" font-size="8.00" fill="#1c2021">array = [&#39;one&#39;, &#39;two&#39;, &#39;three&#39;]</text>
</g>
<!-- N2 -->
<g id="node3" class="node"><title>N2</title>
<polygon fill="#ffffff" stroke="#ffffff" stroke-width="1.5" points="129,-201 185,-201 197,-213 197,-245 185,-257 129,-257 117,-245 117,-213 129,-201"/>
<path fill="#ffffff" stroke="#ffffff" stroke-width="1.5" d="M185,-201C191,-201 197,-207 197,-213"/>
<path fill="#ffffff" stroke="#ffffff" stroke-width="1.5" d="M197,-245C197,-251 191,-257 185,-257"/>
<path fill="#ffffff" stroke="#ffffff" stroke-width="1.5" d="M129,-257C123,-257 117,-251 117,-245"/>
<path fill="#ffffff" stroke="#ffffff" stroke-width="1.5" d="M117,-213C117,-207 123,-201 129,-201"/>
<polyline fill="none" stroke="#2e3436" stroke-width="1.5" points="129,-201 185,-201 "/>
<path fill="none" stroke="#2e3436" stroke-width="1.5" d="M185,-201C191,-201 197,-207 197,-213"/>
<polyline fill="none" stroke="#2e3436" stroke-width="1.5" points="197,-213 197,-245 "/>
<path fill="none" stroke="#2e3436" stroke-width="1.5" d="M197,-245C197,-251 191,-257 185,-257"/>
<polyline fill="none" stroke="#2e3436" stroke-width="1.5" points="185,-257 129,-257 "/>
<path fill="none" stroke="#2e3436" stroke-width="1.5" d="M129,-257C123,-257 117,-251 117,-245"/>
<polyline fill="none" stroke="#2e3436" stroke-width="1.5" points="117,-245 117,-213 "/>
<path fill="none" stroke="#2e3436" stroke-width="1.5" d="M117,-213C117,-207 123,-201 129,-201"/>
<text text-anchor="middle" x="157" y="-245.8" font-family="FreeSans" font-size="8.00" fill="#1c2021">foo, bar</text>
<polyline fill="none" stroke="#2e3436" stroke-width="1.5" points="117,-239 197,-239 "/>
<text text-anchor="start" x="125" y="-227.8" font-family="FreeSans" font-size="8.00" fill="#1c2021">name = &#39;Alice&#39;</text>
<text text-anchor="start" x="125" y="-217.8" font-family="FreeSans" font-size="8.00" fill="#1c2021">age = 38</text>
<text text-anchor="start" x="125" y="-207.8" font-family="FreeSans" font-size="8.00" fill="#1c2021">eyes = &#39;brown&#39;</text>
</g>
<!-- N3 -->
<g id="node5" class="node"><title>N3</title>
<polygon fill="#ffffff" stroke="#ffffff" stroke-width="1.5" points="72,-115 122,-115 134,-127 134,-141 122,-153 72,-153 60,-141 60,-127 72,-115"/>
<path fill="#ffffff" stroke="#ffffff" stroke-width="1.5" d="M122,-115C128,-115 134,-121 134,-127"/>
<path fill="#ffffff" stroke="#ffffff" stroke-width="1.5" d="M134,-141C134,-147 128,-153 122,-153"/>
<path fill="#ffffff" stroke="#ffffff" stroke-width="1.5" d="M72,-153C66,-153 60,-147 60,-141"/>
<path fill="#ffffff" stroke="#ffffff" stroke-width="1.5" d="M60,-127C60,-121 66,-115 72,-115"/>
<polyline fill="none" stroke="#2e3436" stroke-width="1.5" points="72,-115 122,-115 "/>
<path fill="none" stroke="#2e3436" stroke-width="1.5" d="M122,-115C128,-115 134,-121 134,-127"/>
<polyline fill="none" stroke="#2e3436" stroke-width="1.5" points="134,-127 134,-141 "/>
<path fill="none" stroke="#2e3436" stroke-width="1.5" d="M134,-141C134,-147 128,-153 122,-153"/>
<polyline fill="none" stroke="#2e3436" stroke-width="1.5" points="122,-153 72,-153 "/>
<path fill="none" stroke="#2e3436" stroke-width="1.5" d="M72,-153C66,-153 60,-147 60,-141"/>
<polyline fill="none" stroke="#2e3436" stroke-width="1.5" points="60,-141 60,-127 "/>
<path fill="none" stroke="#2e3436" stroke-width="1.5" d="M60,-127C60,-121 66,-115 72,-115"/>
<text text-anchor="start" x="68" y="-141.8" font-family="FreeSans" font-size="8.00" fill="#1c2021">name = &#39;Bob&#39;</text>
<text text-anchor="start" x="68" y="-131.8" font-family="FreeSans" font-size="8.00" fill="#1c2021">age = 25</text>
<text text-anchor="start" x="68" y="-121.8" font-family="FreeSans" font-size="8.00" fill="#1c2021">eyes = &#39;blue&#39;</text>
</g>
<!-- N2&#45;&gt;N3 -->
<g id="edge2" class="edge"><title>N2&#45;&gt;N3</title>
<path fill="none" stroke="#2e3436" stroke-width="2" d="M139.16,-200.754C130.924,-187.713 121.215,-172.341 113.192,-159.637"/>
<polygon fill="#2e3436" stroke="#2e3436" points="109.167,-153.264 116.025,-157.803 111.592,-156.168 113.594,-159.338 113.172,-159.605 112.749,-159.872 110.746,-156.702 110.318,-161.407 109.167,-153.264 109.167,-153.264"/>
<text text-anchor="middle" x="142.5" y="-174.8" font-family="FreeSans" font-size="8.00" fill="#2e3436">KNOWS</text>
</g>
<!-- N4 -->
<g id="node7" class="node"><title>N4</title>
<polygon fill="#ffffff" stroke="#ffffff" stroke-width="1.5" points="175,-115 239,-115 251,-127 251,-141 239,-153 175,-153 163,-141 163,-127 175,-115"/>
<path fill="#ffffff" stroke="#ffffff" stroke-width="1.5" d="M239,-115C245,-115 251,-121 251,-127"/>
<path fill="#ffffff" stroke="#ffffff" stroke-width="1.5" d="M251,-141C251,-147 245,-153 239,-153"/>
<path fill="#ffffff" stroke="#ffffff" stroke-width="1.5" d="M175,-153C169,-153 163,-147 163,-141"/>
<path fill="#ffffff" stroke="#ffffff" stroke-width="1.5" d="M163,-127C163,-121 169,-115 175,-115"/>
<polyline fill="none" stroke="#2e3436" stroke-width="1.5" points="175,-115 239,-115 "/>
<path fill="none" stroke="#2e3436" stroke-width="1.5" d="M239,-115C245,-115 251,-121 251,-127"/>
<polyline fill="none" stroke="#2e3436" stroke-width="1.5" points="251,-127 251,-141 "/>
<path fill="none" stroke="#2e3436" stroke-width="1.5" d="M251,-141C251,-147 245,-153 239,-153"/>
<polyline fill="none" stroke="#2e3436" stroke-width="1.5" points="239,-153 175,-153 "/>
<path fill="none" stroke="#2e3436" stroke-width="1.5" d="M175,-153C169,-153 163,-147 163,-141"/>
<polyline fill="none" stroke="#2e3436" stroke-width="1.5" points="163,-141 163,-127 "/>
<path fill="none" stroke="#2e3436" stroke-width="1.5" d="M163,-127C163,-121 169,-115 175,-115"/>
<text text-anchor="start" x="171" y="-141.8" font-family="FreeSans" font-size="8.00" fill="#1c2021">name = &#39;Charlie&#39;</text>
<text text-anchor="start" x="171" y="-131.8" font-family="FreeSans" font-size="8.00" fill="#1c2021">age = 53</text>
<text text-anchor="start" x="171" y="-121.8" font-family="FreeSans" font-size="8.00" fill="#1c2021">eyes = &#39;green&#39;</text>
</g>
<!-- N2&#45;&gt;N4 -->
<g id="edge4" class="edge"><title>N2&#45;&gt;N4</title>
<path fill="none" stroke="#2e3436" stroke-width="2" d="M171.866,-200.754C178.667,-187.833 186.672,-172.623 193.322,-159.988"/>
<polygon fill="#2e3436" stroke="#2e3436" points="196.861,-153.264 196.355,-161.473 195.557,-156.815 193.81,-160.134 193.368,-159.901 192.925,-159.668 194.672,-156.35 190.381,-158.329 196.861,-153.264 196.861,-153.264"/>
<text text-anchor="middle" x="201.5" y="-174.8" font-family="FreeSans" font-size="8.00" fill="#2e3436">KNOWS</text>
</g>
<!-- N3&#45;&gt;N0 -->
<g id="edge6" class="edge"><title>N3&#45;&gt;N0</title>
<path fill="none" stroke="#2e3436" stroke-width="2" d="M117.949,-114.955C135.574,-98.9325 160.891,-75.9173 180.029,-58.5194"/>
<polygon fill="#2e3436" stroke="#2e3436" points="185.754,-53.3143 182.475,-60.8567 183.316,-56.2068 180.541,-58.7294 180.205,-58.3594 179.868,-57.9894 182.643,-55.4669 177.934,-55.8621 185.754,-53.3143 185.754,-53.3143"/>
<text text-anchor="middle" x="163.5" y="-88.8" font-family="FreeSans" font-size="8.00" fill="#2e3436">KNOWS</text>
</g>
<!-- N3&#45;&gt;N1 -->
<g id="edge8" class="edge"><title>N3&#45;&gt;N1</title>
<path fill="none" stroke="#4e9a06" stroke-width="2" d="M77.7061,-114.622C73.3415,-109.054 69.3156,-102.67 67,-96 64.6924,-89.353 63.6283,-82.0588 63.3232,-74.881"/>
<polygon fill="#4e9a06" stroke="#4e9a06" points="63.267,-67.1743 66.6967,-74.6494 63.7944,-70.9205 63.8217,-74.6704 63.3218,-74.6741 62.8218,-74.6777 62.7944,-70.9278 59.9469,-74.6987 63.267,-67.1743 63.267,-67.1743"/>
<text text-anchor="middle" x="85.5" y="-88.8" font-family="FreeSans" font-size="8.00" fill="#4e9a06">MARRIED</text>
</g>
<!-- N4&#45;&gt;N0 -->
<g id="edge10" class="edge"><title>N4&#45;&gt;N0</title>
<path fill="none" stroke="#2e3436" stroke-width="2" d="M207,-114.719C207,-99.5014 207,-78.0856 207,-61.1366"/>
<polygon fill="#2e3436" stroke="#2e3436" points="207,-53.2218 210.375,-60.7218 207.5,-56.9718 207.5,-60.7218 207,-60.7218 206.5,-60.7218 206.5,-56.9718 203.625,-60.7219 207,-53.2218 207,-53.2218"/>
<text text-anchor="middle" x="222.5" y="-88.8" font-family="FreeSans" font-size="8.00" fill="#2e3436">KNOWS</text>
</g>
</g>
</svg>
