<?xml version="1.0" encoding="UTF-8" standalone="no"?>
<!DOCTYPE svg PUBLIC "-//W3C//DTD SVG 1.1//EN"
 "http://www.w3.org/Graphics/SVG/1.1/DTD/svg11.dtd">
<!-- Generated by graphviz version 2.26.3 (20100126.1600)
 -->
<!-- Title: g Pages: 1 -->
<svg width="84pt" height="132pt"
 viewBox="0.00 0.00 84.00 132.00" xmlns="http://www.w3.org/2000/svg" xmlns:xlink="http://www.w3.org/1999/xlink">
<g id="graph1" class="graph" transform="scale(1 1) rotate(0) translate(4 128)">
<title>g</title>
<polygon fill="white" stroke="white" points="-4,5 -4,-128 81,-128 81,5 -4,5"/>
<!-- N0 -->
<g id="node1" class="node"><title>N0</title>
<polygon fill="#ffffff" stroke="#ffffff" stroke-width="1.5" points="11.5,-85 64.5,-85 76.5,-97 76.5,-111 64.5,-123 11.5,-123 -0.5,-111 -0.5,-97 11.5,-85"/>
<path fill="#ffffff" stroke="#ffffff" stroke-width="1.5" d="M64.5,-85C70.5,-85 76.5,-91 76.5,-97"/>
<path fill="#ffffff" stroke="#ffffff" stroke-width="1.5" d="M76.5,-111C76.5,-117 70.5,-123 64.5,-123"/>
<path fill="#ffffff" stroke="#ffffff" stroke-width="1.5" d="M11.5,-123C5.5,-123 -0.5,-117 -0.5,-111"/>
<path fill="#ffffff" stroke="#ffffff" stroke-width="1.5" d="M-0.5,-97C-0.5,-91 5.5,-85 11.5,-85"/>
<polyline fill="none" stroke="#2e3436" stroke-width="1.5" points="11.5,-85 64.5,-85 "/>
<path fill="none" stroke="#2e3436" stroke-width="1.5" d="M64.5,-85C70.5,-85 76.5,-91 76.5,-97"/>
<polyline fill="none" stroke="#2e3436" stroke-width="1.5" points="76.5,-97 76.5,-111 "/>
<path fill="none" stroke="#2e3436" stroke-width="1.5" d="M76.5,-111C76.5,-117 70.5,-123 64.5,-123"/>
<polyline fill="none" stroke="#2e3436" stroke-width="1.5" points="64.5,-123 11.5,-123 "/>
<path fill="none" stroke="#2e3436" stroke-width="1.5" d="M11.5,-123C5.5,-123 -0.5,-117 -0.5,-111"/>
<polyline fill="none" stroke="#2e3436" stroke-width="1.5" points="-0.5,-111 -0.5,-97 "/>
<path fill="none" stroke="#2e3436" stroke-width="1.5" d="M-0.5,-97C-0.5,-91 5.5,-85 11.5,-85"/>
<text text-anchor="start" x="7.5" y="-111.8" font-family="FreeSans" font-size="8.00" fill="#1c2021">name = &#39;A&#39;</text>
<text text-anchor="start" x="7.5" y="-101.8" font-family="FreeSans" font-size="8.00" fill="#1c2021">happy = &#39;Yes!&#39;</text>
<text text-anchor="start" x="7.5" y="-91.8" font-family="FreeSans" font-size="8.00" fill="#1c2021">age = 55</text>
</g>
<!-- N1 -->
<g id="node3" class="node"><title>N1</title>
<polygon fill="#ffffff" stroke="#ffffff" stroke-width="1.5" points="18,-1 58,-1 70,-13 70,-25 58,-37 18,-37 6,-25 6,-13 18,-1"/>
<path fill="#ffffff" stroke="#ffffff" stroke-width="1.5" d="M58,-1C64,-1 70,-7 70,-13"/>
<path fill="#ffffff" stroke="#ffffff" stroke-width="1.5" d="M70,-25C70,-31 64,-37 58,-37"/>
<path fill="#ffffff" stroke="#ffffff" stroke-width="1.5" d="M18,-37C12,-37 6,-31 6,-25"/>
<path fill="#ffffff" stroke="#ffffff" stroke-width="1.5" d="M6,-13C6,-7 12,-1 18,-1"/>
<polyline fill="none" stroke="#2e3436" stroke-width="1.5" points="18,-1 58,-1 "/>
<path fill="none" stroke="#2e3436" stroke-width="1.5" d="M58,-1C64,-1 70,-7 70,-13"/>
<polyline fill="none" stroke="#2e3436" stroke-width="1.5" points="70,-13 70,-25 "/>
<path fill="none" stroke="#2e3436" stroke-width="1.5" d="M70,-25C70,-31 64,-37 58,-37"/>
<polyline fill="none" stroke="#2e3436" stroke-width="1.5" points="58,-37 18,-37 "/>
<path fill="none" stroke="#2e3436" stroke-width="1.5" d="M18,-37C12,-37 6,-31 6,-25"/>
<polyline fill="none" stroke="#2e3436" stroke-width="1.5" points="6,-25 6,-13 "/>
<path fill="none" stroke="#2e3436" stroke-width="1.5" d="M6,-13C6,-7 12,-1 18,-1"/>
<text text-anchor="start" x="14" y="-16.8" font-family="FreeSans" font-size="8.00" fill="#1c2021">name = &#39;B&#39;</text>
</g>
<!-- N0&#45;&gt;N1 -->
<g id="edge2" class="edge"><title>N0&#45;&gt;N1</title>
<path fill="none" stroke="#2e3436" stroke-width="2" d="M16.1737,-84.9961C11.2269,-79.4255 6.65395,-72.9463 4,-66 0.972889,-58.077 3.61723,-50.2803 8.52905,-43.3843"/>
<polygon fill="#2e3436" stroke="#2e3436" points="13.5797,-37.3267 11.369,-45.2484 11.5623,-40.5271 9.16085,-43.4073 8.77682,-43.0871 8.39279,-42.7669 10.7942,-39.8867 6.18462,-40.9258 13.5797,-37.3267 13.5797,-37.3267"/>
<text text-anchor="middle" x="19.5" y="-58.8" font-family="FreeSans" font-size="8.00" fill="#2e3436">KNOWS</text>
</g>
<!-- N0&#45;&gt;N1 -->
<g id="edge4" class="edge"><title>N0&#45;&gt;N1</title>
<path fill="none" stroke="#4e9a06" stroke-width="2" d="M38,-84.7122C38,-72.8678 38,-57.5538 38,-44.6894"/>
<polygon fill="#4e9a06" stroke="#4e9a06" points="38,-37.0491 41.3751,-44.549 38.5,-40.7991 38.5001,-44.5491 38.0001,-44.5491 37.5001,-44.5491 37.5,-40.7991 34.6251,-44.5491 38,-37.0491 38,-37.0491"/>
<text text-anchor="middle" x="55.5" y="-58.8" font-family="FreeSans" font-size="8.00" fill="#4e9a06">BLOCKS</text>
</g>
</g>
</svg>
