<?xml version="1.0" encoding="UTF-8" standalone="no"?>
<!DOCTYPE svg PUBLIC "-//W3C//DTD SVG 1.1//EN"
 "http://www.w3.org/Graphics/SVG/1.1/DTD/svg11.dtd">
<!-- Generated by graphviz version 2.26.3 (20100126.1600)
 -->
<!-- Title: g Pages: 1 -->
<svg width="142pt" height="130pt"
 viewBox="0.00 0.00 142.00 130.00" xmlns="http://www.w3.org/2000/svg" xmlns:xlink="http://www.w3.org/1999/xlink">
<g id="graph1" class="graph" transform="scale(1 1) rotate(0) translate(4 126)">
<title>g</title>
<polygon fill="white" stroke="white" points="-4,5 -4,-126 139,-126 139,5 -4,5"/>
<!-- N0 -->
<g id="node1" class="node"><title>N0</title>
<polygon fill="#ffffff" stroke="#ffffff" stroke-width="1.5" points="27,-85 107,-85 119,-97 119,-109 107,-121 27,-121 15,-109 15,-97 27,-85"/>
<path fill="#ffffff" stroke="#ffffff" stroke-width="1.5" d="M107,-85C113,-85 119,-91 119,-97"/>
<path fill="#ffffff" stroke="#ffffff" stroke-width="1.5" d="M119,-109C119,-115 113,-121 107,-121"/>
<path fill="#ffffff" stroke="#ffffff" stroke-width="1.5" d="M27,-121C21,-121 15,-115 15,-109"/>
<path fill="#ffffff" stroke="#ffffff" stroke-width="1.5" d="M15,-97C15,-91 21,-85 27,-85"/>
<polyline fill="none" stroke="#2e3436" stroke-width="1.5" points="27,-85 107,-85 "/>
<path fill="none" stroke="#2e3436" stroke-width="1.5" d="M107,-85C113,-85 119,-91 119,-97"/>
<polyline fill="none" stroke="#2e3436" stroke-width="1.5" points="119,-97 119,-109 "/>
<path fill="none" stroke="#2e3436" stroke-width="1.5" d="M119,-109C119,-115 113,-121 107,-121"/>
<polyline fill="none" stroke="#2e3436" stroke-width="1.5" points="107,-121 27,-121 "/>
<path fill="none" stroke="#2e3436" stroke-width="1.5" d="M27,-121C21,-121 15,-115 15,-109"/>
<polyline fill="none" stroke="#2e3436" stroke-width="1.5" points="15,-109 15,-97 "/>
<path fill="none" stroke="#2e3436" stroke-width="1.5" d="M15,-97C15,-91 21,-85 27,-85"/>
<text text-anchor="middle" x="67" y="-109.8" font-family="FreeSans" font-size="8.00" fill="#1c2021">Actor</text>
<polyline fill="none" stroke="#2e3436" stroke-width="1.5" points="15,-103 119,-103 "/>
<text text-anchor="start" x="23" y="-91.8" font-family="FreeSans" font-size="8.00" fill="#1c2021">name = &#39;Tom Hanks&#39;</text>
</g>
<!-- N1 -->
<g id="node3" class="node"><title>N1</title>
<polygon fill="#ffffff" stroke="#ffffff" stroke-width="1.5" points="11.5,-1 122.5,-1 134.5,-13 134.5,-25 122.5,-37 11.5,-37 -0.5,-25 -0.5,-13 11.5,-1"/>
<path fill="#ffffff" stroke="#ffffff" stroke-width="1.5" d="M122.5,-1C128.5,-1 134.5,-7 134.5,-13"/>
<path fill="#ffffff" stroke="#ffffff" stroke-width="1.5" d="M134.5,-25C134.5,-31 128.5,-37 122.5,-37"/>
<path fill="#ffffff" stroke="#ffffff" stroke-width="1.5" d="M11.5,-37C5.5,-37 -0.5,-31 -0.5,-25"/>
<path fill="#ffffff" stroke="#ffffff" stroke-width="1.5" d="M-0.5,-13C-0.5,-7 5.5,-1 11.5,-1"/>
<polyline fill="none" stroke="#2e3436" stroke-width="1.5" points="11.5,-1 122.5,-1 "/>
<path fill="none" stroke="#2e3436" stroke-width="1.5" d="M122.5,-1C128.5,-1 134.5,-7 134.5,-13"/>
<polyline fill="none" stroke="#2e3436" stroke-width="1.5" points="134.5,-13 134.5,-25 "/>
<path fill="none" stroke="#2e3436" stroke-width="1.5" d="M134.5,-25C134.5,-31 128.5,-37 122.5,-37"/>
<polyline fill="none" stroke="#2e3436" stroke-width="1.5" points="122.5,-37 11.5,-37 "/>
<path fill="none" stroke="#2e3436" stroke-width="1.5" d="M11.5,-37C5.5,-37 -0.5,-31 -0.5,-25"/>
<polyline fill="none" stroke="#2e3436" stroke-width="1.5" points="-0.5,-25 -0.5,-13 "/>
<path fill="none" stroke="#2e3436" stroke-width="1.5" d="M-0.5,-13C-0.5,-7 5.5,-1 11.5,-1"/>
<text text-anchor="middle" x="67" y="-25.8" font-family="FreeSans" font-size="8.00" fill="#1c2021">Movie</text>
<polyline fill="none" stroke="#2e3436" stroke-width="1.5" points="-0.5,-19 134.5,-19 "/>
<text text-anchor="start" x="7.5" y="-7.8" font-family="FreeSans" font-size="8.00" fill="#1c2021">title = &#39;Sleepless in Seattle&#39;</text>
</g>
<!-- N0&#45;&gt;N1 -->
<g id="edge2" class="edge"><title>N0&#45;&gt;N1</title>
<path fill="none" stroke="#2e3436" stroke-width="2" d="M67,-84.7733C67,-73.1053 67,-57.7874 67,-44.8699"/>
<polygon fill="#2e3436" stroke="#2e3436" points="67,-37.1912 70.3751,-44.6911 67.5,-40.9412 67.5001,-44.6912 67.0001,-44.6912 66.5001,-44.6912 66.5,-40.9412 63.6251,-44.6912 67,-37.1912 67,-37.1912"/>
<text text-anchor="middle" x="87.5" y="-58.8" font-family="FreeSans" font-size="8.00" fill="#2e3436">ACTED_IN</text>
</g>
</g>
</svg>
