<?xml version="1.0" encoding="UTF-8" standalone="no"?>
<!DOCTYPE svg PUBLIC "-//W3C//DTD SVG 1.1//EN"
 "http://www.w3.org/Graphics/SVG/1.1/DTD/svg11.dtd">
<!-- Generated by graphviz version 2.26.3 (20100126.1600)
 -->
<!-- Title: g Pages: 1 -->
<svg width="146pt" height="214pt"
 viewBox="0.00 0.00 146.00 214.00" xmlns="http://www.w3.org/2000/svg" xmlns:xlink="http://www.w3.org/1999/xlink">
<g id="graph1" class="graph" transform="scale(1 1) rotate(0) translate(4 210)">
<title>g</title>
<polygon fill="white" stroke="white" points="-4,5 -4,-210 143,-210 143,5 -4,5"/>
<!-- N0 -->
<g id="node1" class="node"><title>N0</title>
<polygon fill="#ffffff" stroke="#ffffff" stroke-width="1.5" points="68,-169 126,-169 138,-181 138,-193 126,-205 68,-205 56,-193 56,-181 68,-169"/>
<path fill="#ffffff" stroke="#ffffff" stroke-width="1.5" d="M126,-169C132,-169 138,-175 138,-181"/>
<path fill="#ffffff" stroke="#ffffff" stroke-width="1.5" d="M138,-193C138,-199 132,-205 126,-205"/>
<path fill="#ffffff" stroke="#ffffff" stroke-width="1.5" d="M68,-205C62,-205 56,-199 56,-193"/>
<path fill="#ffffff" stroke="#ffffff" stroke-width="1.5" d="M56,-181C56,-175 62,-169 68,-169"/>
<polyline fill="none" stroke="#2e3436" stroke-width="1.5" points="68,-169 126,-169 "/>
<path fill="none" stroke="#2e3436" stroke-width="1.5" d="M126,-169C132,-169 138,-175 138,-181"/>
<polyline fill="none" stroke="#2e3436" stroke-width="1.5" points="138,-181 138,-193 "/>
<path fill="none" stroke="#2e3436" stroke-width="1.5" d="M138,-193C138,-199 132,-205 126,-205"/>
<polyline fill="none" stroke="#2e3436" stroke-width="1.5" points="126,-205 68,-205 "/>
<path fill="none" stroke="#2e3436" stroke-width="1.5" d="M68,-205C62,-205 56,-199 56,-193"/>
<polyline fill="none" stroke="#2e3436" stroke-width="1.5" points="56,-193 56,-181 "/>
<path fill="none" stroke="#2e3436" stroke-width="1.5" d="M56,-181C56,-175 62,-169 68,-169"/>
<text text-anchor="start" x="64" y="-184.8" font-family="FreeSans" font-size="8.00" fill="#1c2021">name = &#39;ROOT&#39;</text>
</g>
<!-- N2 -->
<g id="node3" class="node"><title>N2</title>
<polygon fill="#ffffff" stroke="#ffffff" stroke-width="1.5" points="12,-85 50,-85 62,-97 62,-109 50,-121 12,-121 0,-109 0,-97 12,-85"/>
<path fill="#ffffff" stroke="#ffffff" stroke-width="1.5" d="M50,-85C56,-85 62,-91 62,-97"/>
<path fill="#ffffff" stroke="#ffffff" stroke-width="1.5" d="M62,-109C62,-115 56,-121 50,-121"/>
<path fill="#ffffff" stroke="#ffffff" stroke-width="1.5" d="M12,-121C6,-121 0,-115 0,-109"/>
<path fill="#ffffff" stroke="#ffffff" stroke-width="1.5" d="M0,-97C0,-91 6,-85 12,-85"/>
<polyline fill="none" stroke="#2e3436" stroke-width="1.5" points="12,-85 50,-85 "/>
<path fill="none" stroke="#2e3436" stroke-width="1.5" d="M50,-85C56,-85 62,-91 62,-97"/>
<polyline fill="none" stroke="#2e3436" stroke-width="1.5" points="62,-97 62,-109 "/>
<path fill="none" stroke="#2e3436" stroke-width="1.5" d="M62,-109C62,-115 56,-121 50,-121"/>
<polyline fill="none" stroke="#2e3436" stroke-width="1.5" points="50,-121 12,-121 "/>
<path fill="none" stroke="#2e3436" stroke-width="1.5" d="M12,-121C6,-121 0,-115 0,-109"/>
<polyline fill="none" stroke="#2e3436" stroke-width="1.5" points="0,-109 0,-97 "/>
<path fill="none" stroke="#2e3436" stroke-width="1.5" d="M0,-97C0,-91 6,-85 12,-85"/>
<text text-anchor="start" x="8" y="-100.8" font-family="FreeSans" font-size="8.00" fill="#1c2021">value = 10</text>
</g>
<!-- N0&#45;&gt;N2 -->
<g id="edge2" class="edge"><title>N0&#45;&gt;N2</title>
<path fill="none" stroke="#2e3436" stroke-width="2" d="M82.679,-168.773C73.1653,-156.665 60.5634,-140.626 50.1857,-127.418"/>
<polygon fill="#2e3436" stroke="#2e3436" points="45.2931,-121.191 52.5806,-125.003 48.0031,-123.831 50.3199,-126.78 49.9268,-127.089 49.5336,-127.397 47.2168,-124.449 47.2729,-129.174 45.2931,-121.191 45.2931,-121.191"/>
<text text-anchor="middle" x="75.5" y="-142.8" font-family="FreeSans" font-size="8.00" fill="#2e3436">LINK</text>
</g>
<!-- N1 -->
<g id="node4" class="node"><title>N1</title>
<polygon fill="#ffffff" stroke="#ffffff" stroke-width="1.5" points="69,-1 107,-1 119,-13 119,-25 107,-37 69,-37 57,-25 57,-13 69,-1"/>
<path fill="#ffffff" stroke="#ffffff" stroke-width="1.5" d="M107,-1C113,-1 119,-7 119,-13"/>
<path fill="#ffffff" stroke="#ffffff" stroke-width="1.5" d="M119,-25C119,-31 113,-37 107,-37"/>
<path fill="#ffffff" stroke="#ffffff" stroke-width="1.5" d="M69,-37C63,-37 57,-31 57,-25"/>
<path fill="#ffffff" stroke="#ffffff" stroke-width="1.5" d="M57,-13C57,-7 63,-1 69,-1"/>
<polyline fill="none" stroke="#2e3436" stroke-width="1.5" points="69,-1 107,-1 "/>
<path fill="none" stroke="#2e3436" stroke-width="1.5" d="M107,-1C113,-1 119,-7 119,-13"/>
<polyline fill="none" stroke="#2e3436" stroke-width="1.5" points="119,-13 119,-25 "/>
<path fill="none" stroke="#2e3436" stroke-width="1.5" d="M119,-25C119,-31 113,-37 107,-37"/>
<polyline fill="none" stroke="#2e3436" stroke-width="1.5" points="107,-37 69,-37 "/>
<path fill="none" stroke="#2e3436" stroke-width="1.5" d="M69,-37C63,-37 57,-31 57,-25"/>
<polyline fill="none" stroke="#2e3436" stroke-width="1.5" points="57,-25 57,-13 "/>
<path fill="none" stroke="#2e3436" stroke-width="1.5" d="M57,-13C57,-7 63,-1 69,-1"/>
<text text-anchor="start" x="65" y="-16.8" font-family="FreeSans" font-size="8.00" fill="#1c2021">value = 25</text>
</g>
<!-- N2&#45;&gt;N1 -->
<g id="edge6" class="edge"><title>N2&#45;&gt;N1</title>
<path fill="none" stroke="#2e3436" stroke-width="2" d="M43.3682,-84.7733C51.5845,-72.665 62.468,-56.6261 71.4306,-43.4181"/>
<polygon fill="#2e3436" stroke="#2e3436" points="75.656,-37.1912 74.2374,-45.2924 73.9641,-40.575 71.8584,-43.678 71.4447,-43.3973 71.0309,-43.1165 73.1366,-40.0135 68.6519,-41.5022 75.656,-37.1912 75.656,-37.1912"/>
<text text-anchor="middle" x="71.5" y="-58.8" font-family="FreeSans" font-size="8.00" fill="#2e3436">LINK</text>
</g>
<!-- N1&#45;&gt;N0 -->
<g id="edge4" class="edge"><title>N1&#45;&gt;N0</title>
<path fill="none" stroke="#2e3436" stroke-width="2" d="M88.9655,-37.0219C90.5626,-66.8345 93.7608,-126.536 95.6041,-160.942"/>
<polygon fill="#2e3436" stroke="#2e3436" points="96.0197,-168.701 92.2482,-161.393 95.3198,-164.983 95.1191,-161.239 95.6184,-161.212 96.1177,-161.185 96.3183,-164.93 98.9886,-161.031 96.0197,-168.701 96.0197,-168.701"/>
<text text-anchor="middle" x="102.5" y="-100.8" font-family="FreeSans" font-size="8.00" fill="#2e3436">LINK</text>
</g>
</g>
</svg>
