<?xml version="1.0" encoding="UTF-8" standalone="no"?>
<!DOCTYPE svg PUBLIC "-//W3C//DTD SVG 1.1//EN"
 "http://www.w3.org/Graphics/SVG/1.1/DTD/svg11.dtd">
<!-- Generated by graphviz version 2.26.3 (20100126.1600)
 -->
<!-- Title: g Pages: 1 -->
<svg width="138pt" height="46pt"
 viewBox="0.00 0.00 138.00 46.00" xmlns="http://www.w3.org/2000/svg" xmlns:xlink="http://www.w3.org/1999/xlink">
<g id="graph1" class="graph" transform="scale(1 1) rotate(0) translate(4 42)">
<title>g</title>
<polygon fill="white" stroke="white" points="-4,5 -4,-42 135,-42 135,5 -4,5"/>
<!-- N0 -->
<g id="node1" class="node"><title>N0</title>
<polygon fill="#ffffff" stroke="#ffffff" stroke-width="1.5" points="12,-1 70,-1 82,-13 82,-25 70,-37 12,-37 0,-25 0,-13 12,-1"/>
<path fill="#ffffff" stroke="#ffffff" stroke-width="1.5" d="M70,-1C76,-1 82,-7 82,-13"/>
<path fill="#ffffff" stroke="#ffffff" stroke-width="1.5" d="M82,-25C82,-31 76,-37 70,-37"/>
<path fill="#ffffff" stroke="#ffffff" stroke-width="1.5" d="M12,-37C6,-37 0,-31 0,-25"/>
<path fill="#ffffff" stroke="#ffffff" stroke-width="1.5" d="M0,-13C0,-7 6,-1 12,-1"/>
<polyline fill="none" stroke="#2e3436" stroke-width="1.5" points="12,-1 70,-1 "/>
<path fill="none" stroke="#2e3436" stroke-width="1.5" d="M70,-1C76,-1 82,-7 82,-13"/>
<polyline fill="none" stroke="#2e3436" stroke-width="1.5" points="82,-13 82,-25 "/>
<path fill="none" stroke="#2e3436" stroke-width="1.5" d="M82,-25C82,-31 76,-37 70,-37"/>
<polyline fill="none" stroke="#2e3436" stroke-width="1.5" points="70,-37 12,-37 "/>
<path fill="none" stroke="#2e3436" stroke-width="1.5" d="M12,-37C6,-37 0,-31 0,-25"/>
<polyline fill="none" stroke="#2e3436" stroke-width="1.5" points="0,-25 0,-13 "/>
<path fill="none" stroke="#2e3436" stroke-width="1.5" d="M0,-13C0,-7 6,-1 12,-1"/>
<text text-anchor="start" x="8" y="-16.8" font-family="FreeSans" font-size="8.00" fill="#1c2021">name = &#39;ROOT&#39;</text>
</g>
<!-- N0&#45;&gt;N0 -->
<g id="edge2" class="edge"><title>N0&#45;&gt;N0</title>
<path fill="none" stroke="#2e3436" stroke-width="2" d="M82.3327,-25.7298C98.0224,-25.9894 111,-23.7461 111,-19 111,-15.0696 102.1,-12.8557 90.1302,-12.3582"/>
<polygon fill="#2e3436" stroke="#2e3436" points="82.3327,-12.2702 89.8703,-8.98011 86.0881,-11.8126 89.8379,-11.8549 89.8322,-12.3549 89.8266,-12.8549 86.0768,-12.8125 89.7941,-15.7297 82.3327,-12.2702 82.3327,-12.2702"/>
<text text-anchor="middle" x="120.5" y="-16.8" font-family="FreeSans" font-size="8.00" fill="#2e3436">LINK</text>
</g>
</g>
</svg>
