<?xml version="1.0" encoding="UTF-8" standalone="no"?>
<!DOCTYPE svg PUBLIC "-//W3C//DTD SVG 1.1//EN"
 "http://www.w3.org/Graphics/SVG/1.1/DTD/svg11.dtd">
<!-- Generated by graphviz version 2.26.3 (20100126.1600)
 -->
<!-- Title: g Pages: 1 -->
<svg width="340pt" height="214pt"
 viewBox="0.00 0.00 340.00 214.00" xmlns="http://www.w3.org/2000/svg" xmlns:xlink="http://www.w3.org/1999/xlink">
<g id="graph1" class="graph" transform="scale(1 1) rotate(0) translate(4 210)">
<title>g</title>
<polygon fill="white" stroke="white" points="-4,5 -4,-210 337,-210 337,5 -4,5"/>
<!-- N0 -->
<g id="node1" class="node"><title>N0</title>
<polygon fill="#ffffff" stroke="#ffffff" stroke-width="1.5" points="89,-169 193,-169 205,-181 205,-193 193,-205 89,-205 77,-193 77,-181 89,-169"/>
<path fill="#ffffff" stroke="#ffffff" stroke-width="1.5" d="M193,-169C199,-169 205,-175 205,-181"/>
<path fill="#ffffff" stroke="#ffffff" stroke-width="1.5" d="M205,-193C205,-199 199,-205 193,-205"/>
<path fill="#ffffff" stroke="#ffffff" stroke-width="1.5" d="M89,-205C83,-205 77,-199 77,-193"/>
<path fill="#ffffff" stroke="#ffffff" stroke-width="1.5" d="M77,-181C77,-175 83,-169 89,-169"/>
<polyline fill="none" stroke="#2e3436" stroke-width="1.5" points="89,-169 193,-169 "/>
<path fill="none" stroke="#2e3436" stroke-width="1.5" d="M193,-169C199,-169 205,-175 205,-181"/>
<polyline fill="none" stroke="#2e3436" stroke-width="1.5" points="205,-181 205,-193 "/>
<path fill="none" stroke="#2e3436" stroke-width="1.5" d="M205,-193C205,-199 199,-205 193,-205"/>
<polyline fill="none" stroke="#2e3436" stroke-width="1.5" points="193,-205 89,-205 "/>
<path fill="none" stroke="#2e3436" stroke-width="1.5" d="M89,-205C83,-205 77,-199 77,-193"/>
<polyline fill="none" stroke="#2e3436" stroke-width="1.5" points="77,-193 77,-181 "/>
<path fill="none" stroke="#2e3436" stroke-width="1.5" d="M77,-181C77,-175 83,-169 89,-169"/>
<text text-anchor="middle" x="141" y="-193.8" font-family="FreeSans" font-size="8.00" fill="#1c2021">Actor</text>
<polyline fill="none" stroke="#2e3436" stroke-width="1.5" points="77,-187 205,-187 "/>
<text text-anchor="start" x="85" y="-175.8" font-family="FreeSans" font-size="8.00" fill="#1c2021">name = &#39;Anthony Hopkins&#39;</text>
</g>
<!-- N1 -->
<g id="node3" class="node"><title>N1</title>
<polygon fill="#ffffff" stroke="#ffffff" stroke-width="1.5" points="12,-85 100,-85 112,-97 112,-109 100,-121 12,-121 0,-109 0,-97 12,-85"/>
<path fill="#ffffff" stroke="#ffffff" stroke-width="1.5" d="M100,-85C106,-85 112,-91 112,-97"/>
<path fill="#ffffff" stroke="#ffffff" stroke-width="1.5" d="M112,-109C112,-115 106,-121 100,-121"/>
<path fill="#ffffff" stroke="#ffffff" stroke-width="1.5" d="M12,-121C6,-121 0,-115 0,-109"/>
<path fill="#ffffff" stroke="#ffffff" stroke-width="1.5" d="M0,-97C0,-91 6,-85 12,-85"/>
<polyline fill="none" stroke="#2e3436" stroke-width="1.5" points="12,-85 100,-85 "/>
<path fill="none" stroke="#2e3436" stroke-width="1.5" d="M100,-85C106,-85 112,-91 112,-97"/>
<polyline fill="none" stroke="#2e3436" stroke-width="1.5" points="112,-97 112,-109 "/>
<path fill="none" stroke="#2e3436" stroke-width="1.5" d="M112,-109C112,-115 106,-121 100,-121"/>
<polyline fill="none" stroke="#2e3436" stroke-width="1.5" points="100,-121 12,-121 "/>
<path fill="none" stroke="#2e3436" stroke-width="1.5" d="M12,-121C6,-121 0,-115 0,-109"/>
<polyline fill="none" stroke="#2e3436" stroke-width="1.5" points="0,-109 0,-97 "/>
<path fill="none" stroke="#2e3436" stroke-width="1.5" d="M0,-97C0,-91 6,-85 12,-85"/>
<text text-anchor="middle" x="56" y="-109.8" font-family="FreeSans" font-size="8.00" fill="#1c2021">Actor</text>
<polyline fill="none" stroke="#2e3436" stroke-width="1.5" points="0,-103 112,-103 "/>
<text text-anchor="start" x="8" y="-91.8" font-family="FreeSans" font-size="8.00" fill="#1c2021">name = &#39;Helen Mirren&#39;</text>
</g>
<!-- N0&#45;&gt;N1 -->
<g id="edge2" class="edge"><title>N0&#45;&gt;N1</title>
<path fill="none" stroke="#2e3436" stroke-width="2" d="M122.556,-168.773C110.081,-156.445 93.4826,-140.042 79.9827,-126.701"/>
<polygon fill="#2e3436" stroke="#2e3436" points="74.4077,-121.191 82.1147,-124.062 77.4265,-123.471 80.0938,-126.107 79.7424,-126.463 79.3909,-126.819 76.7236,-124.183 77.37,-128.864 74.4077,-121.191 74.4077,-121.191"/>
<text text-anchor="middle" x="117.5" y="-142.8" font-family="FreeSans" font-size="8.00" fill="#2e3436">KNOWS</text>
</g>
<!-- N3 -->
<g id="node5" class="node"><title>N3</title>
<polygon fill="#ffffff" stroke="#ffffff" stroke-width="1.5" points="94.5,-1 159.5,-1 171.5,-13 171.5,-25 159.5,-37 94.5,-37 82.5,-25 82.5,-13 94.5,-1"/>
<path fill="#ffffff" stroke="#ffffff" stroke-width="1.5" d="M159.5,-1C165.5,-1 171.5,-7 171.5,-13"/>
<path fill="#ffffff" stroke="#ffffff" stroke-width="1.5" d="M171.5,-25C171.5,-31 165.5,-37 159.5,-37"/>
<path fill="#ffffff" stroke="#ffffff" stroke-width="1.5" d="M94.5,-37C88.5,-37 82.5,-31 82.5,-25"/>
<path fill="#ffffff" stroke="#ffffff" stroke-width="1.5" d="M82.5,-13C82.5,-7 88.5,-1 94.5,-1"/>
<polyline fill="none" stroke="#2e3436" stroke-width="1.5" points="94.5,-1 159.5,-1 "/>
<path fill="none" stroke="#2e3436" stroke-width="1.5" d="M159.5,-1C165.5,-1 171.5,-7 171.5,-13"/>
<polyline fill="none" stroke="#2e3436" stroke-width="1.5" points="171.5,-13 171.5,-25 "/>
<path fill="none" stroke="#2e3436" stroke-width="1.5" d="M171.5,-25C171.5,-31 165.5,-37 159.5,-37"/>
<polyline fill="none" stroke="#2e3436" stroke-width="1.5" points="159.5,-37 94.5,-37 "/>
<path fill="none" stroke="#2e3436" stroke-width="1.5" d="M94.5,-37C88.5,-37 82.5,-31 82.5,-25"/>
<polyline fill="none" stroke="#2e3436" stroke-width="1.5" points="82.5,-25 82.5,-13 "/>
<path fill="none" stroke="#2e3436" stroke-width="1.5" d="M82.5,-13C82.5,-7 88.5,-1 94.5,-1"/>
<text text-anchor="middle" x="127" y="-25.8" font-family="FreeSans" font-size="8.00" fill="#1c2021">Movie</text>
<polyline fill="none" stroke="#2e3436" stroke-width="1.5" points="82.5,-19 171.5,-19 "/>
<text text-anchor="start" x="90.5" y="-7.8" font-family="FreeSans" font-size="8.00" fill="#1c2021">title = &#39;Hitchcock&#39;</text>
</g>
<!-- N0&#45;&gt;N3 -->
<g id="edge4" class="edge"><title>N0&#45;&gt;N3</title>
<path fill="none" stroke="#4e9a06" stroke-width="2" d="M141.81,-168.651C142.623,-143.202 143.012,-95.8228 137,-56 136.446,-52.3278 135.658,-48.4981 134.764,-44.7542"/>
<polygon fill="#4e9a06" stroke="#4e9a06" points="132.824,-37.2676 137.973,-43.6808 134.249,-40.7722 135.19,-44.4022 134.706,-44.5277 134.222,-44.6532 133.281,-41.0231 131.439,-45.3746 132.824,-37.2676 132.824,-37.2676"/>
<text text-anchor="middle" x="160" y="-100.8" font-family="FreeSans" font-size="8.00" fill="#4e9a06">ACTS_IN</text>
</g>
<!-- N1&#45;&gt;N3 -->
<g id="edge6" class="edge"><title>N1&#45;&gt;N3</title>
<path fill="none" stroke="#4e9a06" stroke-width="2" d="M71.4059,-84.7733C81.7333,-72.5549 95.4437,-56.3342 106.665,-43.0586"/>
<polygon fill="#4e9a06" stroke="#4e9a06" points="111.624,-37.1912 109.36,-45.0979 109.585,-40.378 107.164,-43.242 106.783,-42.9192 106.401,-42.5964 108.821,-39.7324 104.205,-40.7405 111.624,-37.1912 111.624,-37.1912"/>
<text text-anchor="middle" x="112" y="-58.8" font-family="FreeSans" font-size="8.00" fill="#4e9a06">ACTS_IN</text>
</g>
<!-- N2 -->
<g id="node7" class="node"><title>N2</title>
<polygon fill="#ffffff" stroke="#ffffff" stroke-width="1.5" points="246,-169 320,-169 332,-181 332,-193 320,-205 246,-205 234,-193 234,-181 246,-169"/>
<path fill="#ffffff" stroke="#ffffff" stroke-width="1.5" d="M320,-169C326,-169 332,-175 332,-181"/>
<path fill="#ffffff" stroke="#ffffff" stroke-width="1.5" d="M332,-193C332,-199 326,-205 320,-205"/>
<path fill="#ffffff" stroke="#ffffff" stroke-width="1.5" d="M246,-205C240,-205 234,-199 234,-193"/>
<path fill="#ffffff" stroke="#ffffff" stroke-width="1.5" d="M234,-181C234,-175 240,-169 246,-169"/>
<polyline fill="none" stroke="#2e3436" stroke-width="1.5" points="246,-169 320,-169 "/>
<path fill="none" stroke="#2e3436" stroke-width="1.5" d="M320,-169C326,-169 332,-175 332,-181"/>
<polyline fill="none" stroke="#2e3436" stroke-width="1.5" points="332,-181 332,-193 "/>
<path fill="none" stroke="#2e3436" stroke-width="1.5" d="M332,-193C332,-199 326,-205 320,-205"/>
<polyline fill="none" stroke="#2e3436" stroke-width="1.5" points="320,-205 246,-205 "/>
<path fill="none" stroke="#2e3436" stroke-width="1.5" d="M246,-205C240,-205 234,-199 234,-193"/>
<polyline fill="none" stroke="#2e3436" stroke-width="1.5" points="234,-193 234,-181 "/>
<path fill="none" stroke="#2e3436" stroke-width="1.5" d="M234,-181C234,-175 240,-169 246,-169"/>
<text text-anchor="middle" x="283" y="-193.8" font-family="FreeSans" font-size="8.00" fill="#1c2021">Actor</text>
<polyline fill="none" stroke="#2e3436" stroke-width="1.5" points="234,-187 332,-187 "/>
<text text-anchor="start" x="242" y="-175.8" font-family="FreeSans" font-size="8.00" fill="#1c2021">name = &#39;Hitchcock&#39;</text>
</g>
</g>
</svg>
