<?xml version="1.0" encoding="UTF-8" standalone="no"?>
<!DOCTYPE svg PUBLIC "-//W3C//DTD SVG 1.1//EN"
 "http://www.w3.org/Graphics/SVG/1.1/DTD/svg11.dtd">
<!-- Generated by graphviz version 2.26.3 (20100126.1600)
 -->
<!-- Title: g Pages: 1 -->
<svg width="482pt" height="130pt"
 viewBox="0.00 0.00 482.00 130.00" xmlns="http://www.w3.org/2000/svg" xmlns:xlink="http://www.w3.org/1999/xlink">
<g id="graph1" class="graph" transform="scale(1 1) rotate(0) translate(4 126)">
<title>g</title>
<polygon fill="white" stroke="white" points="-4,5 -4,-126 479,-126 479,5 -4,5"/>
<!-- N0 -->
<g id="node1" class="node"><title>N0</title>
<polygon fill="#ffffff" stroke="#ffffff" stroke-width="1.5" points="28,-1 114,-1 126,-13 126,-25 114,-37 28,-37 16,-25 16,-13 28,-1"/>
<path fill="#ffffff" stroke="#ffffff" stroke-width="1.5" d="M114,-1C120,-1 126,-7 126,-13"/>
<path fill="#ffffff" stroke="#ffffff" stroke-width="1.5" d="M126,-25C126,-31 120,-37 114,-37"/>
<path fill="#ffffff" stroke="#ffffff" stroke-width="1.5" d="M28,-37C22,-37 16,-31 16,-25"/>
<path fill="#ffffff" stroke="#ffffff" stroke-width="1.5" d="M16,-13C16,-7 22,-1 28,-1"/>
<polyline fill="none" stroke="#2e3436" stroke-width="1.5" points="28,-1 114,-1 "/>
<path fill="none" stroke="#2e3436" stroke-width="1.5" d="M114,-1C120,-1 126,-7 126,-13"/>
<polyline fill="none" stroke="#2e3436" stroke-width="1.5" points="126,-13 126,-25 "/>
<path fill="none" stroke="#2e3436" stroke-width="1.5" d="M126,-25C126,-31 120,-37 114,-37"/>
<polyline fill="none" stroke="#2e3436" stroke-width="1.5" points="114,-37 28,-37 "/>
<path fill="none" stroke="#2e3436" stroke-width="1.5" d="M28,-37C22,-37 16,-31 16,-25"/>
<polyline fill="none" stroke="#2e3436" stroke-width="1.5" points="16,-25 16,-13 "/>
<path fill="none" stroke="#2e3436" stroke-width="1.5" d="M16,-13C16,-7 22,-1 28,-1"/>
<text text-anchor="start" x="24" y="-16.8" font-family="FreeSans" font-size="8.00" fill="#1c2021">Node[0]name = &#39;Pet1&#39;</text>
</g>
<!-- N1 -->
<g id="node2" class="node"><title>N1</title>
<polygon fill="#ffffff" stroke="#ffffff" stroke-width="1.5" points="309,-1 395,-1 407,-13 407,-25 395,-37 309,-37 297,-25 297,-13 309,-1"/>
<path fill="#ffffff" stroke="#ffffff" stroke-width="1.5" d="M395,-1C401,-1 407,-7 407,-13"/>
<path fill="#ffffff" stroke="#ffffff" stroke-width="1.5" d="M407,-25C407,-31 401,-37 395,-37"/>
<path fill="#ffffff" stroke="#ffffff" stroke-width="1.5" d="M309,-37C303,-37 297,-31 297,-25"/>
<path fill="#ffffff" stroke="#ffffff" stroke-width="1.5" d="M297,-13C297,-7 303,-1 309,-1"/>
<polyline fill="none" stroke="#2e3436" stroke-width="1.5" points="309,-1 395,-1 "/>
<path fill="none" stroke="#2e3436" stroke-width="1.5" d="M395,-1C401,-1 407,-7 407,-13"/>
<polyline fill="none" stroke="#2e3436" stroke-width="1.5" points="407,-13 407,-25 "/>
<path fill="none" stroke="#2e3436" stroke-width="1.5" d="M407,-25C407,-31 401,-37 395,-37"/>
<polyline fill="none" stroke="#2e3436" stroke-width="1.5" points="395,-37 309,-37 "/>
<path fill="none" stroke="#2e3436" stroke-width="1.5" d="M309,-37C303,-37 297,-31 297,-25"/>
<polyline fill="none" stroke="#2e3436" stroke-width="1.5" points="297,-25 297,-13 "/>
<path fill="none" stroke="#2e3436" stroke-width="1.5" d="M297,-13C297,-7 303,-1 309,-1"/>
<text text-anchor="start" x="305" y="-16.8" font-family="FreeSans" font-size="8.00" fill="#1c2021">Node[1]name = &#39;Pet2&#39;</text>
</g>
<!-- N2 -->
<g id="node3" class="node"><title>N2</title>
<polygon fill="#ffffff" stroke="#ffffff" stroke-width="1.5" points="197,-85 283,-85 295,-97 295,-109 283,-121 197,-121 185,-109 185,-97 197,-85"/>
<path fill="#ffffff" stroke="#ffffff" stroke-width="1.5" d="M283,-85C289,-85 295,-91 295,-97"/>
<path fill="#ffffff" stroke="#ffffff" stroke-width="1.5" d="M295,-109C295,-115 289,-121 283,-121"/>
<path fill="#ffffff" stroke="#ffffff" stroke-width="1.5" d="M197,-121C191,-121 185,-115 185,-109"/>
<path fill="#ffffff" stroke="#ffffff" stroke-width="1.5" d="M185,-97C185,-91 191,-85 197,-85"/>
<polyline fill="none" stroke="#2e3436" stroke-width="1.5" points="197,-85 283,-85 "/>
<path fill="none" stroke="#2e3436" stroke-width="1.5" d="M283,-85C289,-85 295,-91 295,-97"/>
<polyline fill="none" stroke="#2e3436" stroke-width="1.5" points="295,-97 295,-109 "/>
<path fill="none" stroke="#2e3436" stroke-width="1.5" d="M295,-109C295,-115 289,-121 283,-121"/>
<polyline fill="none" stroke="#2e3436" stroke-width="1.5" points="283,-121 197,-121 "/>
<path fill="none" stroke="#2e3436" stroke-width="1.5" d="M197,-121C191,-121 185,-115 185,-109"/>
<polyline fill="none" stroke="#2e3436" stroke-width="1.5" points="185,-109 185,-97 "/>
<path fill="none" stroke="#2e3436" stroke-width="1.5" d="M185,-97C185,-91 191,-85 197,-85"/>
<text text-anchor="start" x="193" y="-100.8" font-family="FreeSans" font-size="8.00" fill="#1c2021">Node[2]name = &#39;Pet0&#39;</text>
</g>
<!-- N2&#45;&gt;N0 -->
<g id="edge2" class="edge"><title>N2&#45;&gt;N0</title>
<path fill="none" stroke="#2e3436" stroke-width="2" d="M203.745,-84.9799C177.548,-71.9587 142.047,-54.3131 114.349,-40.5463"/>
<polygon fill="#2e3436" stroke="#2e3436" points="107.486,-37.135 115.704,-37.451 111.067,-38.3564 114.425,-40.0255 114.202,-40.4733 113.98,-40.921 110.621,-39.2519 112.7,-43.4956 107.486,-37.135 107.486,-37.135"/>
<text text-anchor="middle" x="185" y="-58.8" font-family="FreeSans" font-size="8.00" fill="#2e3436">descendant</text>
</g>
<!-- N2&#45;&gt;N1 -->
<g id="edge4" class="edge"><title>N2&#45;&gt;N1</title>
<path fill="none" stroke="#2e3436" stroke-width="2" d="M264.027,-84.9799C280.743,-72.4431 303.174,-55.6194 321.202,-42.0982"/>
<polygon fill="#2e3436" stroke="#2e3436" points="327.626,-37.2801 323.651,-44.4802 324.926,-39.9302 321.926,-42.1802 321.626,-41.7802 321.326,-41.3802 324.326,-39.1302 319.601,-39.0802 327.626,-37.2801 327.626,-37.2801"/>
<text text-anchor="middle" x="324" y="-58.8" font-family="FreeSans" font-size="8.00" fill="#2e3436">descendant</text>
</g>
<!-- N3 -->
<g id="node7" class="node"><title>N3</title>
<polygon fill="#ffffff" stroke="#ffffff" stroke-width="1.5" points="169,-1 255,-1 267,-13 267,-25 255,-37 169,-37 157,-25 157,-13 169,-1"/>
<path fill="#ffffff" stroke="#ffffff" stroke-width="1.5" d="M255,-1C261,-1 267,-7 267,-13"/>
<path fill="#ffffff" stroke="#ffffff" stroke-width="1.5" d="M267,-25C267,-31 261,-37 255,-37"/>
<path fill="#ffffff" stroke="#ffffff" stroke-width="1.5" d="M169,-37C163,-37 157,-31 157,-25"/>
<path fill="#ffffff" stroke="#ffffff" stroke-width="1.5" d="M157,-13C157,-7 163,-1 169,-1"/>
<polyline fill="none" stroke="#2e3436" stroke-width="1.5" points="169,-1 255,-1 "/>
<path fill="none" stroke="#2e3436" stroke-width="1.5" d="M255,-1C261,-1 267,-7 267,-13"/>
<polyline fill="none" stroke="#2e3436" stroke-width="1.5" points="267,-13 267,-25 "/>
<path fill="none" stroke="#2e3436" stroke-width="1.5" d="M267,-25C267,-31 261,-37 255,-37"/>
<polyline fill="none" stroke="#2e3436" stroke-width="1.5" points="255,-37 169,-37 "/>
<path fill="none" stroke="#2e3436" stroke-width="1.5" d="M169,-37C163,-37 157,-31 157,-25"/>
<polyline fill="none" stroke="#2e3436" stroke-width="1.5" points="157,-25 157,-13 "/>
<path fill="none" stroke="#2e3436" stroke-width="1.5" d="M157,-13C157,-7 163,-1 169,-1"/>
<text text-anchor="start" x="165" y="-16.8" font-family="FreeSans" font-size="8.00" fill="#1c2021">Node[3]name = &#39;Pet3&#39;</text>
</g>
<!-- N2&#45;&gt;N3 -->
<g id="edge6" class="edge"><title>N2&#45;&gt;N3</title>
<path fill="none" stroke="#2e3436" stroke-width="2" d="M233.924,-84.7733C229.998,-72.9952 224.833,-57.4981 220.502,-44.5049"/>
<polygon fill="#2e3436" stroke="#2e3436" points="218.064,-37.1912 223.637,-43.239 219.724,-40.5906 220.91,-44.1482 220.436,-44.3063 219.961,-44.4644 218.775,-40.9069 217.234,-45.3736 218.064,-37.1912 218.064,-37.1912"/>
<text text-anchor="middle" x="251" y="-58.8" font-family="FreeSans" font-size="8.00" fill="#2e3436">descendant</text>
</g>
<!-- N4 -->
<g id="node8" class="node"><title>N4</title>
<polygon fill="#ffffff" stroke="#ffffff" stroke-width="1.5" points="12,-85 120,-85 132,-97 132,-109 120,-121 12,-121 0,-109 0,-97 12,-85"/>
<path fill="#ffffff" stroke="#ffffff" stroke-width="1.5" d="M120,-85C126,-85 132,-91 132,-97"/>
<path fill="#ffffff" stroke="#ffffff" stroke-width="1.5" d="M132,-109C132,-115 126,-121 120,-121"/>
<path fill="#ffffff" stroke="#ffffff" stroke-width="1.5" d="M12,-121C6,-121 0,-115 0,-109"/>
<path fill="#ffffff" stroke="#ffffff" stroke-width="1.5" d="M0,-97C0,-91 6,-85 12,-85"/>
<polyline fill="none" stroke="#2e3436" stroke-width="1.5" points="12,-85 120,-85 "/>
<path fill="none" stroke="#2e3436" stroke-width="1.5" d="M120,-85C126,-85 132,-91 132,-97"/>
<polyline fill="none" stroke="#2e3436" stroke-width="1.5" points="132,-97 132,-109 "/>
<path fill="none" stroke="#2e3436" stroke-width="1.5" d="M132,-109C132,-115 126,-121 120,-121"/>
<polyline fill="none" stroke="#2e3436" stroke-width="1.5" points="120,-121 12,-121 "/>
<path fill="none" stroke="#2e3436" stroke-width="1.5" d="M12,-121C6,-121 0,-115 0,-109"/>
<polyline fill="none" stroke="#2e3436" stroke-width="1.5" points="0,-109 0,-97 "/>
<path fill="none" stroke="#2e3436" stroke-width="1.5" d="M0,-97C0,-91 6,-85 12,-85"/>
<text text-anchor="start" x="8" y="-100.8" font-family="FreeSans" font-size="8.00" fill="#1c2021">Node[4]name = &#39;Principal1&#39;</text>
</g>
<!-- N4&#45;&gt;N0 -->
<g id="edge8" class="edge"><title>N4&#45;&gt;N0</title>
<path fill="none" stroke="#4e9a06" stroke-width="2" d="M47.5231,-84.8817C41.1265,-76.4038 36.3678,-65.9908 40,-56 41.616,-51.555 44.0261,-47.2717 46.8017,-43.2947"/>
<polygon fill="#4e9a06" stroke="#4e9a06" points="51.4025,-37.3181 49.5018,-45.3199 49.5112,-40.5946 47.2237,-43.5661 46.8275,-43.2611 46.4313,-42.9561 48.7188,-39.9846 44.1531,-41.2023 51.4025,-37.3181 51.4025,-37.3181"/>
<text text-anchor="middle" x="51.5" y="-58.8" font-family="FreeSans" font-size="8.00" fill="#4e9a06">owns</text>
</g>
<!-- N4&#45;&gt;N3 -->
<g id="edge10" class="edge"><title>N4&#45;&gt;N3</title>
<path fill="none" stroke="#4e9a06" stroke-width="2" d="M74.2752,-84.7117C79.5286,-74.9508 87.1915,-63.4487 97,-56 101.77,-52.3778 125.178,-44.6219 149.642,-37.1421"/>
<polygon fill="#4e9a06" stroke="#4e9a06" points="156.901,-34.9394 150.704,-40.3469 153.458,-36.5068 149.869,-37.5958 149.724,-37.1173 149.579,-36.6389 153.167,-35.5499 148.744,-33.8877 156.901,-34.9394 156.901,-34.9394"/>
<text text-anchor="middle" x="108.5" y="-58.8" font-family="FreeSans" font-size="8.00" fill="#4e9a06">owns</text>
</g>
<!-- N5 -->
<g id="node11" class="node"><title>N5</title>
<polygon fill="#ffffff" stroke="#ffffff" stroke-width="1.5" points="354,-85 462,-85 474,-97 474,-109 462,-121 354,-121 342,-109 342,-97 354,-85"/>
<path fill="#ffffff" stroke="#ffffff" stroke-width="1.5" d="M462,-85C468,-85 474,-91 474,-97"/>
<path fill="#ffffff" stroke="#ffffff" stroke-width="1.5" d="M474,-109C474,-115 468,-121 462,-121"/>
<path fill="#ffffff" stroke="#ffffff" stroke-width="1.5" d="M354,-121C348,-121 342,-115 342,-109"/>
<path fill="#ffffff" stroke="#ffffff" stroke-width="1.5" d="M342,-97C342,-91 348,-85 354,-85"/>
<polyline fill="none" stroke="#2e3436" stroke-width="1.5" points="354,-85 462,-85 "/>
<path fill="none" stroke="#2e3436" stroke-width="1.5" d="M462,-85C468,-85 474,-91 474,-97"/>
<polyline fill="none" stroke="#2e3436" stroke-width="1.5" points="474,-97 474,-109 "/>
<path fill="none" stroke="#2e3436" stroke-width="1.5" d="M474,-109C474,-115 468,-121 462,-121"/>
<polyline fill="none" stroke="#2e3436" stroke-width="1.5" points="462,-121 354,-121 "/>
<path fill="none" stroke="#2e3436" stroke-width="1.5" d="M354,-121C348,-121 342,-115 342,-109"/>
<polyline fill="none" stroke="#2e3436" stroke-width="1.5" points="342,-109 342,-97 "/>
<path fill="none" stroke="#2e3436" stroke-width="1.5" d="M342,-97C342,-91 348,-85 354,-85"/>
<text text-anchor="start" x="350" y="-100.8" font-family="FreeSans" font-size="8.00" fill="#1c2021">Node[5]name = &#39;Principal2&#39;</text>
</g>
<!-- N5&#45;&gt;N1 -->
<g id="edge12" class="edge"><title>N5&#45;&gt;N1</title>
<path fill="none" stroke="#4e9a06" stroke-width="2" d="M395.849,-84.7733C387.85,-72.7751 377.278,-56.9174 368.519,-43.779"/>
<polygon fill="#4e9a06" stroke="#4e9a06" points="364.127,-37.1912 371.096,-41.5594 366.624,-40.034 368.704,-43.1542 368.288,-43.4316 367.872,-43.7089 365.792,-40.5887 365.48,-45.3037 364.127,-37.1912 364.127,-37.1912"/>
<text text-anchor="middle" x="392.5" y="-58.8" font-family="FreeSans" font-size="8.00" fill="#4e9a06">owns</text>
</g>
</g>
</svg>
