<?xml version="1.0" encoding="UTF-8" standalone="no"?>
<!DOCTYPE svg PUBLIC "-//W3C//DTD SVG 1.1//EN"
 "http://www.w3.org/Graphics/SVG/1.1/DTD/svg11.dtd">
<!-- Generated by graphviz version 2.26.3 (20100126.1600)
 -->
<!-- Title: g Pages: 1 -->
<svg width="265pt" height="214pt"
 viewBox="0.00 0.00 265.00 214.00" xmlns="http://www.w3.org/2000/svg" xmlns:xlink="http://www.w3.org/1999/xlink">
<g id="graph1" class="graph" transform="scale(1 1) rotate(0) translate(4 210)">
<title>g</title>
<polygon fill="white" stroke="white" points="-4,5 -4,-210 262,-210 262,5 -4,5"/>
<!-- N0 -->
<g id="node1" class="node"><title>N0</title>
<polygon fill="#ffffff" stroke="#ffffff" stroke-width="1.5" points="15.5,-85 102.5,-85 114.5,-97 114.5,-109 102.5,-121 15.5,-121 3.5,-109 3.5,-97 15.5,-85"/>
<path fill="#ffffff" stroke="#ffffff" stroke-width="1.5" d="M102.5,-85C108.5,-85 114.5,-91 114.5,-97"/>
<path fill="#ffffff" stroke="#ffffff" stroke-width="1.5" d="M114.5,-109C114.5,-115 108.5,-121 102.5,-121"/>
<path fill="#ffffff" stroke="#ffffff" stroke-width="1.5" d="M15.5,-121C9.5,-121 3.5,-115 3.5,-109"/>
<path fill="#ffffff" stroke="#ffffff" stroke-width="1.5" d="M3.5,-97C3.5,-91 9.5,-85 15.5,-85"/>
<polyline fill="none" stroke="#2e3436" stroke-width="1.5" points="15.5,-85 102.5,-85 "/>
<path fill="none" stroke="#2e3436" stroke-width="1.5" d="M102.5,-85C108.5,-85 114.5,-91 114.5,-97"/>
<polyline fill="none" stroke="#2e3436" stroke-width="1.5" points="114.5,-97 114.5,-109 "/>
<path fill="none" stroke="#2e3436" stroke-width="1.5" d="M114.5,-109C114.5,-115 108.5,-121 102.5,-121"/>
<polyline fill="none" stroke="#2e3436" stroke-width="1.5" points="102.5,-121 15.5,-121 "/>
<path fill="none" stroke="#2e3436" stroke-width="1.5" d="M15.5,-121C9.5,-121 3.5,-115 3.5,-109"/>
<polyline fill="none" stroke="#2e3436" stroke-width="1.5" points="3.5,-109 3.5,-97 "/>
<path fill="none" stroke="#2e3436" stroke-width="1.5" d="M3.5,-97C3.5,-91 9.5,-85 15.5,-85"/>
<text text-anchor="start" x="11.5" y="-100.8" font-family="FreeSans" font-size="8.00" fill="#1c2021">Node[0]name = &#39;Sara&#39;</text>
</g>
<!-- N1 -->
<g id="node3" class="node"><title>N1</title>
<polygon fill="#ffffff" stroke="#ffffff" stroke-width="1.5" points="12,-1 102,-1 114,-13 114,-25 102,-37 12,-37 0,-25 0,-13 12,-1"/>
<path fill="#ffffff" stroke="#ffffff" stroke-width="1.5" d="M102,-1C108,-1 114,-7 114,-13"/>
<path fill="#ffffff" stroke="#ffffff" stroke-width="1.5" d="M114,-25C114,-31 108,-37 102,-37"/>
<path fill="#ffffff" stroke="#ffffff" stroke-width="1.5" d="M12,-37C6,-37 0,-31 0,-25"/>
<path fill="#ffffff" stroke="#ffffff" stroke-width="1.5" d="M0,-13C0,-7 6,-1 12,-1"/>
<polyline fill="none" stroke="#2e3436" stroke-width="1.5" points="12,-1 102,-1 "/>
<path fill="none" stroke="#2e3436" stroke-width="1.5" d="M102,-1C108,-1 114,-7 114,-13"/>
<polyline fill="none" stroke="#2e3436" stroke-width="1.5" points="114,-13 114,-25 "/>
<path fill="none" stroke="#2e3436" stroke-width="1.5" d="M114,-25C114,-31 108,-37 102,-37"/>
<polyline fill="none" stroke="#2e3436" stroke-width="1.5" points="102,-37 12,-37 "/>
<path fill="none" stroke="#2e3436" stroke-width="1.5" d="M12,-37C6,-37 0,-31 0,-25"/>
<polyline fill="none" stroke="#2e3436" stroke-width="1.5" points="0,-25 0,-13 "/>
<path fill="none" stroke="#2e3436" stroke-width="1.5" d="M0,-13C0,-7 6,-1 12,-1"/>
<text text-anchor="start" x="8" y="-16.8" font-family="FreeSans" font-size="8.00" fill="#1c2021">Node[1]name = &#39;Maria&#39;</text>
</g>
<!-- N0&#45;&gt;N1 -->
<g id="edge2" class="edge"><title>N0&#45;&gt;N1</title>
<path fill="none" stroke="#2e3436" stroke-width="2" d="M58.566,-84.7733C58.2882,-73.1053 57.9235,-57.7874 57.6159,-44.8699"/>
<polygon fill="#2e3436" stroke="#2e3436" points="57.4331,-37.1912 60.9858,-44.6087 58.0223,-40.9282 58.1116,-44.6771 57.6117,-44.6891 57.1119,-44.701 57.0226,-40.952 54.2377,-44.7694 57.4331,-37.1912 57.4331,-37.1912"/>
<text text-anchor="middle" x="71.5" y="-58.8" font-family="FreeSans" font-size="8.00" fill="#2e3436">friend</text>
</g>
<!-- N2 -->
<g id="node4" class="node"><title>N2</title>
<polygon fill="#ffffff" stroke="#ffffff" stroke-width="1.5" points="154.5,-1 245.5,-1 257.5,-13 257.5,-25 245.5,-37 154.5,-37 142.5,-25 142.5,-13 154.5,-1"/>
<path fill="#ffffff" stroke="#ffffff" stroke-width="1.5" d="M245.5,-1C251.5,-1 257.5,-7 257.5,-13"/>
<path fill="#ffffff" stroke="#ffffff" stroke-width="1.5" d="M257.5,-25C257.5,-31 251.5,-37 245.5,-37"/>
<path fill="#ffffff" stroke="#ffffff" stroke-width="1.5" d="M154.5,-37C148.5,-37 142.5,-31 142.5,-25"/>
<path fill="#ffffff" stroke="#ffffff" stroke-width="1.5" d="M142.5,-13C142.5,-7 148.5,-1 154.5,-1"/>
<polyline fill="none" stroke="#2e3436" stroke-width="1.5" points="154.5,-1 245.5,-1 "/>
<path fill="none" stroke="#2e3436" stroke-width="1.5" d="M245.5,-1C251.5,-1 257.5,-7 257.5,-13"/>
<polyline fill="none" stroke="#2e3436" stroke-width="1.5" points="257.5,-13 257.5,-25 "/>
<path fill="none" stroke="#2e3436" stroke-width="1.5" d="M257.5,-25C257.5,-31 251.5,-37 245.5,-37"/>
<polyline fill="none" stroke="#2e3436" stroke-width="1.5" points="245.5,-37 154.5,-37 "/>
<path fill="none" stroke="#2e3436" stroke-width="1.5" d="M154.5,-37C148.5,-37 142.5,-31 142.5,-25"/>
<polyline fill="none" stroke="#2e3436" stroke-width="1.5" points="142.5,-25 142.5,-13 "/>
<path fill="none" stroke="#2e3436" stroke-width="1.5" d="M142.5,-13C142.5,-7 148.5,-1 154.5,-1"/>
<text text-anchor="start" x="150.5" y="-16.8" font-family="FreeSans" font-size="8.00" fill="#1c2021">Node[2]name = &#39;Steve&#39;</text>
</g>
<!-- N3 -->
<g id="node5" class="node"><title>N3</title>
<polygon fill="#ffffff" stroke="#ffffff" stroke-width="1.5" points="95.5,-169 180.5,-169 192.5,-181 192.5,-193 180.5,-205 95.5,-205 83.5,-193 83.5,-181 95.5,-169"/>
<path fill="#ffffff" stroke="#ffffff" stroke-width="1.5" d="M180.5,-169C186.5,-169 192.5,-175 192.5,-181"/>
<path fill="#ffffff" stroke="#ffffff" stroke-width="1.5" d="M192.5,-193C192.5,-199 186.5,-205 180.5,-205"/>
<path fill="#ffffff" stroke="#ffffff" stroke-width="1.5" d="M95.5,-205C89.5,-205 83.5,-199 83.5,-193"/>
<path fill="#ffffff" stroke="#ffffff" stroke-width="1.5" d="M83.5,-181C83.5,-175 89.5,-169 95.5,-169"/>
<polyline fill="none" stroke="#2e3436" stroke-width="1.5" points="95.5,-169 180.5,-169 "/>
<path fill="none" stroke="#2e3436" stroke-width="1.5" d="M180.5,-169C186.5,-169 192.5,-175 192.5,-181"/>
<polyline fill="none" stroke="#2e3436" stroke-width="1.5" points="192.5,-181 192.5,-193 "/>
<path fill="none" stroke="#2e3436" stroke-width="1.5" d="M192.5,-193C192.5,-199 186.5,-205 180.5,-205"/>
<polyline fill="none" stroke="#2e3436" stroke-width="1.5" points="180.5,-205 95.5,-205 "/>
<path fill="none" stroke="#2e3436" stroke-width="1.5" d="M95.5,-205C89.5,-205 83.5,-199 83.5,-193"/>
<polyline fill="none" stroke="#2e3436" stroke-width="1.5" points="83.5,-193 83.5,-181 "/>
<path fill="none" stroke="#2e3436" stroke-width="1.5" d="M83.5,-181C83.5,-175 89.5,-169 95.5,-169"/>
<text text-anchor="start" x="91.5" y="-184.8" font-family="FreeSans" font-size="8.00" fill="#1c2021">Node[3]name = &#39;John&#39;</text>
</g>
<!-- N3&#45;&gt;N0 -->
<g id="edge4" class="edge"><title>N3&#45;&gt;N0</title>
<path fill="none" stroke="#2e3436" stroke-width="2" d="M120.858,-168.773C109.264,-156.445 93.8368,-140.042 81.2898,-126.701"/>
<polygon fill="#2e3436" stroke="#2e3436" points="76.1084,-121.191 83.7052,-124.342 79.0417,-123.58 81.6108,-126.312 81.2466,-126.655 80.8824,-126.997 78.3133,-124.265 78.7881,-128.967 76.1084,-121.191 76.1084,-121.191"/>
<text text-anchor="middle" x="113.5" y="-142.8" font-family="FreeSans" font-size="8.00" fill="#2e3436">friend</text>
</g>
<!-- N4 -->
<g id="node8" class="node"><title>N4</title>
<polygon fill="#ffffff" stroke="#ffffff" stroke-width="1.5" points="158,-85 238,-85 250,-97 250,-109 238,-121 158,-121 146,-109 146,-97 158,-85"/>
<path fill="#ffffff" stroke="#ffffff" stroke-width="1.5" d="M238,-85C244,-85 250,-91 250,-97"/>
<path fill="#ffffff" stroke="#ffffff" stroke-width="1.5" d="M250,-109C250,-115 244,-121 238,-121"/>
<path fill="#ffffff" stroke="#ffffff" stroke-width="1.5" d="M158,-121C152,-121 146,-115 146,-109"/>
<path fill="#ffffff" stroke="#ffffff" stroke-width="1.5" d="M146,-97C146,-91 152,-85 158,-85"/>
<polyline fill="none" stroke="#2e3436" stroke-width="1.5" points="158,-85 238,-85 "/>
<path fill="none" stroke="#2e3436" stroke-width="1.5" d="M238,-85C244,-85 250,-91 250,-97"/>
<polyline fill="none" stroke="#2e3436" stroke-width="1.5" points="250,-97 250,-109 "/>
<path fill="none" stroke="#2e3436" stroke-width="1.5" d="M250,-109C250,-115 244,-121 238,-121"/>
<polyline fill="none" stroke="#2e3436" stroke-width="1.5" points="238,-121 158,-121 "/>
<path fill="none" stroke="#2e3436" stroke-width="1.5" d="M158,-121C152,-121 146,-115 146,-109"/>
<polyline fill="none" stroke="#2e3436" stroke-width="1.5" points="146,-109 146,-97 "/>
<path fill="none" stroke="#2e3436" stroke-width="1.5" d="M146,-97C146,-91 152,-85 158,-85"/>
<text text-anchor="start" x="154" y="-100.8" font-family="FreeSans" font-size="8.00" fill="#1c2021">Node[4]name = &#39;Joe&#39;</text>
</g>
<!-- N3&#45;&gt;N4 -->
<g id="edge6" class="edge"><title>N3&#45;&gt;N4</title>
<path fill="none" stroke="#2e3436" stroke-width="2" d="M151.019,-168.773C159.668,-156.665 171.124,-140.626 180.558,-127.418"/>
<polygon fill="#2e3436" stroke="#2e3436" points="185.006,-121.191 183.393,-129.256 183.234,-124.533 181.054,-127.585 180.647,-127.294 180.24,-127.004 182.42,-123.952 177.901,-125.332 185.006,-121.191 185.006,-121.191"/>
<text text-anchor="middle" x="181.5" y="-142.8" font-family="FreeSans" font-size="8.00" fill="#2e3436">friend</text>
</g>
<!-- N4&#45;&gt;N2 -->
<g id="edge8" class="edge"><title>N4&#45;&gt;N2</title>
<path fill="none" stroke="#2e3436" stroke-width="2" d="M198.434,-84.7733C198.712,-73.1053 199.076,-57.7874 199.384,-44.8699"/>
<polygon fill="#2e3436" stroke="#2e3436" points="199.567,-37.1912 202.762,-44.7694 199.977,-40.952 199.888,-44.701 199.388,-44.6891 198.888,-44.6771 198.978,-40.9282 196.014,-44.6087 199.567,-37.1912 199.567,-37.1912"/>
<text text-anchor="middle" x="211.5" y="-58.8" font-family="FreeSans" font-size="8.00" fill="#2e3436">friend</text>
</g>
</g>
</svg>
