<?xml version="1.0" encoding="UTF-8" standalone="no"?>
<!DOCTYPE svg PUBLIC "-//W3C//DTD SVG 1.1//EN"
 "http://www.w3.org/Graphics/SVG/1.1/DTD/svg11.dtd">
<!-- Generated by graphviz version 2.26.3 (20100126.1600)
 -->
<!-- Title: g Pages: 1 -->
<svg width="404pt" height="382pt"
 viewBox="0.00 0.00 404.00 382.00" xmlns="http://www.w3.org/2000/svg" xmlns:xlink="http://www.w3.org/1999/xlink">
<g id="graph1" class="graph" transform="scale(1 1) rotate(0) translate(4 378)">
<title>g</title>
<polygon fill="white" stroke="white" points="-4,5 -4,-378 401,-378 401,5 -4,5"/>
<!-- N196 -->
<g id="node1" class="node"><title>N196</title>
<polygon fill="#ffffff" stroke="#ffffff" stroke-width="1.5" points="274,-85 354,-85 366,-97 366,-109 354,-121 274,-121 262,-109 262,-97 274,-85"/>
<path fill="#ffffff" stroke="#ffffff" stroke-width="1.5" d="M354,-85C360,-85 366,-91 366,-97"/>
<path fill="#ffffff" stroke="#ffffff" stroke-width="1.5" d="M366,-109C366,-115 360,-121 354,-121"/>
<path fill="#ffffff" stroke="#ffffff" stroke-width="1.5" d="M274,-121C268,-121 262,-115 262,-109"/>
<path fill="#ffffff" stroke="#ffffff" stroke-width="1.5" d="M262,-97C262,-91 268,-85 274,-85"/>
<polyline fill="none" stroke="#2e3436" stroke-width="1.5" points="274,-85 354,-85 "/>
<path fill="none" stroke="#2e3436" stroke-width="1.5" d="M354,-85C360,-85 366,-91 366,-97"/>
<polyline fill="none" stroke="#2e3436" stroke-width="1.5" points="366,-97 366,-109 "/>
<path fill="none" stroke="#2e3436" stroke-width="1.5" d="M366,-109C366,-115 360,-121 354,-121"/>
<polyline fill="none" stroke="#2e3436" stroke-width="1.5" points="354,-121 274,-121 "/>
<path fill="none" stroke="#2e3436" stroke-width="1.5" d="M274,-121C268,-121 262,-115 262,-109"/>
<polyline fill="none" stroke="#2e3436" stroke-width="1.5" points="262,-109 262,-97 "/>
<path fill="none" stroke="#2e3436" stroke-width="1.5" d="M262,-97C262,-91 268,-85 274,-85"/>
<text text-anchor="start" x="270" y="-100.8" font-family="FreeSans" font-size="8.00" fill="#1c2021">Node[196]name = &#39;f&#39;</text>
</g>
<!-- N197 -->
<g id="node3" class="node"><title>N197</title>
<polygon fill="#ffffff" stroke="#ffffff" stroke-width="1.5" points="148.5,-1 231.5,-1 243.5,-13 243.5,-25 231.5,-37 148.5,-37 136.5,-25 136.5,-13 148.5,-1"/>
<path fill="#ffffff" stroke="#ffffff" stroke-width="1.5" d="M231.5,-1C237.5,-1 243.5,-7 243.5,-13"/>
<path fill="#ffffff" stroke="#ffffff" stroke-width="1.5" d="M243.5,-25C243.5,-31 237.5,-37 231.5,-37"/>
<path fill="#ffffff" stroke="#ffffff" stroke-width="1.5" d="M148.5,-37C142.5,-37 136.5,-31 136.5,-25"/>
<path fill="#ffffff" stroke="#ffffff" stroke-width="1.5" d="M136.5,-13C136.5,-7 142.5,-1 148.5,-1"/>
<polyline fill="none" stroke="#2e3436" stroke-width="1.5" points="148.5,-1 231.5,-1 "/>
<path fill="none" stroke="#2e3436" stroke-width="1.5" d="M231.5,-1C237.5,-1 243.5,-7 243.5,-13"/>
<polyline fill="none" stroke="#2e3436" stroke-width="1.5" points="243.5,-13 243.5,-25 "/>
<path fill="none" stroke="#2e3436" stroke-width="1.5" d="M243.5,-25C243.5,-31 237.5,-37 231.5,-37"/>
<polyline fill="none" stroke="#2e3436" stroke-width="1.5" points="231.5,-37 148.5,-37 "/>
<path fill="none" stroke="#2e3436" stroke-width="1.5" d="M148.5,-37C142.5,-37 136.5,-31 136.5,-25"/>
<polyline fill="none" stroke="#2e3436" stroke-width="1.5" points="136.5,-25 136.5,-13 "/>
<path fill="none" stroke="#2e3436" stroke-width="1.5" d="M136.5,-13C136.5,-7 142.5,-1 148.5,-1"/>
<text text-anchor="start" x="144.5" y="-16.8" font-family="FreeSans" font-size="8.00" fill="#1c2021">Node[197]name = &#39;g&#39;</text>
</g>
<!-- N196&#45;&gt;N197 -->
<g id="edge2" class="edge"><title>N196&#45;&gt;N197</title>
<path fill="none" stroke="#2e3436" stroke-width="2" d="M287.399,-84.9799C268.649,-72.2781 243.403,-55.1759 223.312,-41.5662"/>
<polygon fill="#2e3436" stroke="#2e3436" points="216.985,-37.2801 225.087,-38.6923 220.37,-38.9694 223.475,-41.0726 223.194,-41.4866 222.914,-41.9005 219.809,-39.7973 221.302,-44.2808 216.985,-37.2801 216.985,-37.2801"/>
<text text-anchor="middle" x="259.5" y="-58.8" font-family="FreeSans" font-size="8.00" fill="#2e3436">to</text>
</g>
<!-- N198 -->
<g id="node4" class="node"><title>N198</title>
<polygon fill="#ffffff" stroke="#ffffff" stroke-width="1.5" points="78.5,-169 161.5,-169 173.5,-181 173.5,-193 161.5,-205 78.5,-205 66.5,-193 66.5,-181 78.5,-169"/>
<path fill="#ffffff" stroke="#ffffff" stroke-width="1.5" d="M161.5,-169C167.5,-169 173.5,-175 173.5,-181"/>
<path fill="#ffffff" stroke="#ffffff" stroke-width="1.5" d="M173.5,-193C173.5,-199 167.5,-205 161.5,-205"/>
<path fill="#ffffff" stroke="#ffffff" stroke-width="1.5" d="M78.5,-205C72.5,-205 66.5,-199 66.5,-193"/>
<path fill="#ffffff" stroke="#ffffff" stroke-width="1.5" d="M66.5,-181C66.5,-175 72.5,-169 78.5,-169"/>
<polyline fill="none" stroke="#2e3436" stroke-width="1.5" points="78.5,-169 161.5,-169 "/>
<path fill="none" stroke="#2e3436" stroke-width="1.5" d="M161.5,-169C167.5,-169 173.5,-175 173.5,-181"/>
<polyline fill="none" stroke="#2e3436" stroke-width="1.5" points="173.5,-181 173.5,-193 "/>
<path fill="none" stroke="#2e3436" stroke-width="1.5" d="M173.5,-193C173.5,-199 167.5,-205 161.5,-205"/>
<polyline fill="none" stroke="#2e3436" stroke-width="1.5" points="161.5,-205 78.5,-205 "/>
<path fill="none" stroke="#2e3436" stroke-width="1.5" d="M78.5,-205C72.5,-205 66.5,-199 66.5,-193"/>
<polyline fill="none" stroke="#2e3436" stroke-width="1.5" points="66.5,-193 66.5,-181 "/>
<path fill="none" stroke="#2e3436" stroke-width="1.5" d="M66.5,-181C66.5,-175 72.5,-169 78.5,-169"/>
<text text-anchor="start" x="74.5" y="-184.8" font-family="FreeSans" font-size="8.00" fill="#1c2021">Node[198]name = &#39;d&#39;</text>
</g>
<!-- N198&#45;&gt;N197 -->
<g id="edge6" class="edge"><title>N198&#45;&gt;N197</title>
<path fill="none" stroke="#2e3436" stroke-width="2" d="M127.624,-168.701C140.176,-138.578 165.214,-78.4856 179.455,-44.3077"/>
<polygon fill="#2e3436" stroke="#2e3436" points="182.491,-37.0219 182.722,-45.2431 181.51,-40.6758 180.068,-44.1373 179.606,-43.945 179.145,-43.7527 180.587,-40.2911 176.491,-42.6469 182.491,-37.0219 182.491,-37.0219"/>
<text text-anchor="middle" x="166.5" y="-100.8" font-family="FreeSans" font-size="8.00" fill="#2e3436">to</text>
</g>
<!-- N199 -->
<g id="node6" class="node"><title>N199</title>
<polygon fill="#ffffff" stroke="#ffffff" stroke-width="1.5" points="11.5,-85 94.5,-85 106.5,-97 106.5,-109 94.5,-121 11.5,-121 -0.5,-109 -0.5,-97 11.5,-85"/>
<path fill="#ffffff" stroke="#ffffff" stroke-width="1.5" d="M94.5,-85C100.5,-85 106.5,-91 106.5,-97"/>
<path fill="#ffffff" stroke="#ffffff" stroke-width="1.5" d="M106.5,-109C106.5,-115 100.5,-121 94.5,-121"/>
<path fill="#ffffff" stroke="#ffffff" stroke-width="1.5" d="M11.5,-121C5.5,-121 -0.5,-115 -0.5,-109"/>
<path fill="#ffffff" stroke="#ffffff" stroke-width="1.5" d="M-0.5,-97C-0.5,-91 5.5,-85 11.5,-85"/>
<polyline fill="none" stroke="#2e3436" stroke-width="1.5" points="11.5,-85 94.5,-85 "/>
<path fill="none" stroke="#2e3436" stroke-width="1.5" d="M94.5,-85C100.5,-85 106.5,-91 106.5,-97"/>
<polyline fill="none" stroke="#2e3436" stroke-width="1.5" points="106.5,-97 106.5,-109 "/>
<path fill="none" stroke="#2e3436" stroke-width="1.5" d="M106.5,-109C106.5,-115 100.5,-121 94.5,-121"/>
<polyline fill="none" stroke="#2e3436" stroke-width="1.5" points="94.5,-121 11.5,-121 "/>
<path fill="none" stroke="#2e3436" stroke-width="1.5" d="M11.5,-121C5.5,-121 -0.5,-115 -0.5,-109"/>
<polyline fill="none" stroke="#2e3436" stroke-width="1.5" points="-0.5,-109 -0.5,-97 "/>
<path fill="none" stroke="#2e3436" stroke-width="1.5" d="M-0.5,-97C-0.5,-91 5.5,-85 11.5,-85"/>
<text text-anchor="start" x="7.5" y="-100.8" font-family="FreeSans" font-size="8.00" fill="#1c2021">Node[199]name = &#39;e&#39;</text>
</g>
<!-- N198&#45;&gt;N199 -->
<g id="edge4" class="edge"><title>N198&#45;&gt;N199</title>
<path fill="none" stroke="#2e3436" stroke-width="2" d="M105.462,-168.773C95.7164,-156.555 82.7785,-140.334 72.1896,-127.059"/>
<polygon fill="#2e3436" stroke="#2e3436" points="67.5096,-121.191 74.8249,-124.95 70.2389,-123.811 72.5773,-126.743 72.1864,-127.055 71.7955,-127.366 69.4571,-124.435 69.5479,-129.159 67.5096,-121.191 67.5096,-121.191"/>
<text text-anchor="middle" x="93.5" y="-142.8" font-family="FreeSans" font-size="8.00" fill="#2e3436">to</text>
</g>
<!-- N199&#45;&gt;N197 -->
<g id="edge8" class="edge"><title>N199&#45;&gt;N197</title>
<path fill="none" stroke="#2e3436" stroke-width="2" d="M82.3899,-84.9799C103.285,-72.1681 131.482,-54.8794 153.771,-41.2135"/>
<polygon fill="#2e3436" stroke="#2e3436" points="160.186,-37.2801 155.556,-44.0777 157.25,-39.6666 154.053,-41.6268 153.792,-41.2005 153.531,-40.7742 156.728,-38.8141 152.028,-38.3233 160.186,-37.2801 160.186,-37.2801"/>
<text text-anchor="middle" x="130.5" y="-58.8" font-family="FreeSans" font-size="8.00" fill="#2e3436">to</text>
</g>
<!-- N200 -->
<g id="node9" class="node"><title>N200</title>
<polygon fill="#ffffff" stroke="#ffffff" stroke-width="1.5" points="272.5,-169 355.5,-169 367.5,-181 367.5,-193 355.5,-205 272.5,-205 260.5,-193 260.5,-181 272.5,-169"/>
<path fill="#ffffff" stroke="#ffffff" stroke-width="1.5" d="M355.5,-169C361.5,-169 367.5,-175 367.5,-181"/>
<path fill="#ffffff" stroke="#ffffff" stroke-width="1.5" d="M367.5,-193C367.5,-199 361.5,-205 355.5,-205"/>
<path fill="#ffffff" stroke="#ffffff" stroke-width="1.5" d="M272.5,-205C266.5,-205 260.5,-199 260.5,-193"/>
<path fill="#ffffff" stroke="#ffffff" stroke-width="1.5" d="M260.5,-181C260.5,-175 266.5,-169 272.5,-169"/>
<polyline fill="none" stroke="#2e3436" stroke-width="1.5" points="272.5,-169 355.5,-169 "/>
<path fill="none" stroke="#2e3436" stroke-width="1.5" d="M355.5,-169C361.5,-169 367.5,-175 367.5,-181"/>
<polyline fill="none" stroke="#2e3436" stroke-width="1.5" points="367.5,-181 367.5,-193 "/>
<path fill="none" stroke="#2e3436" stroke-width="1.5" d="M367.5,-193C367.5,-199 361.5,-205 355.5,-205"/>
<polyline fill="none" stroke="#2e3436" stroke-width="1.5" points="355.5,-205 272.5,-205 "/>
<path fill="none" stroke="#2e3436" stroke-width="1.5" d="M272.5,-205C266.5,-205 260.5,-199 260.5,-193"/>
<polyline fill="none" stroke="#2e3436" stroke-width="1.5" points="260.5,-193 260.5,-181 "/>
<path fill="none" stroke="#2e3436" stroke-width="1.5" d="M260.5,-181C260.5,-175 266.5,-169 272.5,-169"/>
<text text-anchor="start" x="268.5" y="-184.8" font-family="FreeSans" font-size="8.00" fill="#1c2021">Node[200]name = &#39;b&#39;</text>
</g>
<!-- N200&#45;&gt;N196 -->
<g id="edge10" class="edge"><title>N200&#45;&gt;N196</title>
<path fill="none" stroke="#2e3436" stroke-width="2" d="M314,-168.773C314,-157.105 314,-141.787 314,-128.87"/>
<polygon fill="#2e3436" stroke="#2e3436" points="314,-121.191 317.375,-128.691 314.5,-124.941 314.5,-128.691 314,-128.691 313.5,-128.691 313.5,-124.941 310.625,-128.691 314,-121.191 314,-121.191"/>
<text text-anchor="middle" x="318.5" y="-142.8" font-family="FreeSans" font-size="8.00" fill="#2e3436">to</text>
</g>
<!-- N201 -->
<g id="node11" class="node"><title>N201</title>
<polygon fill="#ffffff" stroke="#ffffff" stroke-width="1.5" points="240,-253 322,-253 334,-265 334,-277 322,-289 240,-289 228,-277 228,-265 240,-253"/>
<path fill="#ffffff" stroke="#ffffff" stroke-width="1.5" d="M322,-253C328,-253 334,-259 334,-265"/>
<path fill="#ffffff" stroke="#ffffff" stroke-width="1.5" d="M334,-277C334,-283 328,-289 322,-289"/>
<path fill="#ffffff" stroke="#ffffff" stroke-width="1.5" d="M240,-289C234,-289 228,-283 228,-277"/>
<path fill="#ffffff" stroke="#ffffff" stroke-width="1.5" d="M228,-265C228,-259 234,-253 240,-253"/>
<polyline fill="none" stroke="#2e3436" stroke-width="1.5" points="240,-253 322,-253 "/>
<path fill="none" stroke="#2e3436" stroke-width="1.5" d="M322,-253C328,-253 334,-259 334,-265"/>
<polyline fill="none" stroke="#2e3436" stroke-width="1.5" points="334,-265 334,-277 "/>
<path fill="none" stroke="#2e3436" stroke-width="1.5" d="M334,-277C334,-283 328,-289 322,-289"/>
<polyline fill="none" stroke="#2e3436" stroke-width="1.5" points="322,-289 240,-289 "/>
<path fill="none" stroke="#2e3436" stroke-width="1.5" d="M240,-289C234,-289 228,-283 228,-277"/>
<polyline fill="none" stroke="#2e3436" stroke-width="1.5" points="228,-277 228,-265 "/>
<path fill="none" stroke="#2e3436" stroke-width="1.5" d="M228,-265C228,-259 234,-253 240,-253"/>
<text text-anchor="start" x="236" y="-268.8" font-family="FreeSans" font-size="8.00" fill="#1c2021">Node[201]name = &#39;c&#39;</text>
</g>
<!-- N201&#45;&gt;N196 -->
<g id="edge14" class="edge"><title>N201&#45;&gt;N196</title>
<path fill="none" stroke="#2e3436" stroke-width="2" d="M328.186,-252.994C348.591,-242.57 370.414,-227.233 382,-206 390.089,-191.174 388.639,-183.529 382,-168 374.874,-151.331 361.144,-136.897 347.876,-125.894"/>
<polygon fill="#2e3436" stroke="#2e3436" points="341.837,-121.084 349.806,-123.117 345.082,-123.029 348.015,-125.366 347.704,-125.757 347.392,-126.148 344.459,-123.811 345.601,-128.397 341.837,-121.084 341.837,-121.084"/>
<text text-anchor="middle" x="391.5" y="-184.8" font-family="FreeSans" font-size="8.00" fill="#2e3436">to</text>
</g>
<!-- N201&#45;&gt;N197 -->
<g id="edge16" class="edge"><title>N201&#45;&gt;N197</title>
<path fill="none" stroke="#2e3436" stroke-width="2" d="M270.392,-252.943C263.159,-240.135 253.712,-222.38 247,-206 224.088,-150.087 205.476,-81.5008 196.265,-44.9108"/>
<polygon fill="#2e3436" stroke="#2e3436" points="194.339,-37.1773 199.426,-43.639 195.73,-40.6952 196.637,-44.334 196.151,-44.4549 195.666,-44.5757 194.76,-40.9369 192.877,-45.2707 194.339,-37.1773 194.339,-37.1773"/>
<text text-anchor="middle" x="230.5" y="-142.8" font-family="FreeSans" font-size="8.00" fill="#2e3436">to</text>
</g>
<!-- N201&#45;&gt;N200 -->
<g id="edge12" class="edge"><title>N201&#45;&gt;N200</title>
<path fill="none" stroke="#2e3436" stroke-width="2" d="M288.161,-252.773C292.788,-240.995 298.876,-225.498 303.98,-212.505"/>
<polygon fill="#2e3436" stroke="#2e3436" points="306.853,-205.191 307.252,-213.406 305.948,-208.864 304.576,-212.355 304.111,-212.172 303.646,-211.989 305.017,-208.499 300.97,-210.938 306.853,-205.191 306.853,-205.191"/>
<text text-anchor="middle" x="302.5" y="-226.8" font-family="FreeSans" font-size="8.00" fill="#2e3436">to</text>
</g>
<!-- N202 -->
<g id="node15" class="node"><title>N202</title>
<polygon fill="#ffffff" stroke="#ffffff" stroke-width="1.5" points="174.5,-337 257.5,-337 269.5,-349 269.5,-361 257.5,-373 174.5,-373 162.5,-361 162.5,-349 174.5,-337"/>
<path fill="#ffffff" stroke="#ffffff" stroke-width="1.5" d="M257.5,-337C263.5,-337 269.5,-343 269.5,-349"/>
<path fill="#ffffff" stroke="#ffffff" stroke-width="1.5" d="M269.5,-361C269.5,-367 263.5,-373 257.5,-373"/>
<path fill="#ffffff" stroke="#ffffff" stroke-width="1.5" d="M174.5,-373C168.5,-373 162.5,-367 162.5,-361"/>
<path fill="#ffffff" stroke="#ffffff" stroke-width="1.5" d="M162.5,-349C162.5,-343 168.5,-337 174.5,-337"/>
<polyline fill="none" stroke="#2e3436" stroke-width="1.5" points="174.5,-337 257.5,-337 "/>
<path fill="none" stroke="#2e3436" stroke-width="1.5" d="M257.5,-337C263.5,-337 269.5,-343 269.5,-349"/>
<polyline fill="none" stroke="#2e3436" stroke-width="1.5" points="269.5,-349 269.5,-361 "/>
<path fill="none" stroke="#2e3436" stroke-width="1.5" d="M269.5,-361C269.5,-367 263.5,-373 257.5,-373"/>
<polyline fill="none" stroke="#2e3436" stroke-width="1.5" points="257.5,-373 174.5,-373 "/>
<path fill="none" stroke="#2e3436" stroke-width="1.5" d="M174.5,-373C168.5,-373 162.5,-367 162.5,-361"/>
<polyline fill="none" stroke="#2e3436" stroke-width="1.5" points="162.5,-361 162.5,-349 "/>
<path fill="none" stroke="#2e3436" stroke-width="1.5" d="M162.5,-349C162.5,-343 168.5,-337 174.5,-337"/>
<text text-anchor="start" x="170.5" y="-352.8" font-family="FreeSans" font-size="8.00" fill="#1c2021">Node[202]name = &#39;a&#39;</text>
</g>
<!-- N202&#45;&gt;N198 -->
<g id="edge20" class="edge"><title>N202&#45;&gt;N198</title>
<path fill="none" stroke="#2e3436" stroke-width="2" d="M205.544,-336.701C188.258,-306.452 153.703,-245.98 134.216,-211.878"/>
<polygon fill="#2e3436" stroke="#2e3436" points="130.298,-205.022 136.95,-209.859 132.593,-208.03 134.453,-211.286 134.019,-211.534 133.585,-211.782 131.725,-208.526 131.089,-213.208 130.298,-205.022 130.298,-205.022"/>
<text text-anchor="middle" x="182.5" y="-268.8" font-family="FreeSans" font-size="8.00" fill="#2e3436">to</text>
</g>
<!-- N202&#45;&gt;N201 -->
<g id="edge18" class="edge"><title>N202&#45;&gt;N201</title>
<path fill="none" stroke="#2e3436" stroke-width="2" d="M230.104,-336.773C239.474,-324.665 251.885,-308.626 262.105,-295.418"/>
<polygon fill="#2e3436" stroke="#2e3436" points="266.923,-289.191 265.003,-297.188 265.024,-292.463 262.729,-295.429 262.334,-295.123 261.938,-294.817 264.233,-291.851 259.664,-293.057 266.923,-289.191 266.923,-289.191"/>
<text text-anchor="middle" x="254.5" y="-310.8" font-family="FreeSans" font-size="8.00" fill="#2e3436">to</text>
</g>
</g>
</svg>
