<?xml version="1.0" encoding="UTF-8" standalone="no"?>
<!DOCTYPE svg PUBLIC "-//W3C//DTD SVG 1.1//EN"
 "http://www.w3.org/Graphics/SVG/1.1/DTD/svg11.dtd">
<!-- Generated by graphviz version 2.26.3 (20100126.1600)
 -->
<!-- Title: g Pages: 1 -->
<svg width="116pt" height="130pt"
 viewBox="0.00 0.00 116.00 130.00" xmlns="http://www.w3.org/2000/svg" xmlns:xlink="http://www.w3.org/1999/xlink">
<g id="graph1" class="graph" transform="scale(1 1) rotate(0) translate(4 126)">
<title>g</title>
<polygon fill="white" stroke="white" points="-4,5 -4,-126 113,-126 113,5 -4,5"/>
<!-- N9 -->
<g id="node1" class="node"><title>N9</title>
<polygon fill="#ffffff" stroke="#ffffff" stroke-width="1.5" points="19.5,-85 88.5,-85 100.5,-97 100.5,-109 88.5,-121 19.5,-121 7.5,-109 7.5,-97 19.5,-85"/>
<path fill="#ffffff" stroke="#ffffff" stroke-width="1.5" d="M88.5,-85C94.5,-85 100.5,-91 100.5,-97"/>
<path fill="#ffffff" stroke="#ffffff" stroke-width="1.5" d="M100.5,-109C100.5,-115 94.5,-121 88.5,-121"/>
<path fill="#ffffff" stroke="#ffffff" stroke-width="1.5" d="M19.5,-121C13.5,-121 7.5,-115 7.5,-109"/>
<path fill="#ffffff" stroke="#ffffff" stroke-width="1.5" d="M7.5,-97C7.5,-91 13.5,-85 19.5,-85"/>
<polyline fill="none" stroke="#2e3436" stroke-width="1.5" points="19.5,-85 88.5,-85 "/>
<path fill="none" stroke="#2e3436" stroke-width="1.5" d="M88.5,-85C94.5,-85 100.5,-91 100.5,-97"/>
<polyline fill="none" stroke="#2e3436" stroke-width="1.5" points="100.5,-97 100.5,-109 "/>
<path fill="none" stroke="#2e3436" stroke-width="1.5" d="M100.5,-109C100.5,-115 94.5,-121 88.5,-121"/>
<polyline fill="none" stroke="#2e3436" stroke-width="1.5" points="88.5,-121 19.5,-121 "/>
<path fill="none" stroke="#2e3436" stroke-width="1.5" d="M19.5,-121C13.5,-121 7.5,-115 7.5,-109"/>
<polyline fill="none" stroke="#2e3436" stroke-width="1.5" points="7.5,-109 7.5,-97 "/>
<path fill="none" stroke="#2e3436" stroke-width="1.5" d="M7.5,-97C7.5,-91 13.5,-85 19.5,-85"/>
<text text-anchor="start" x="15.5" y="-100.8" font-family="FreeSans" font-size="8.00" fill="#1c2021">Node[9]age = &#39;18&#39;</text>
</g>
<!-- N10 -->
<g id="node3" class="node"><title>N10</title>
<polygon fill="#ffffff" stroke="#ffffff" stroke-width="1.5" points="11.5,-1 96.5,-1 108.5,-13 108.5,-25 96.5,-37 11.5,-37 -0.5,-25 -0.5,-13 11.5,-1"/>
<path fill="#ffffff" stroke="#ffffff" stroke-width="1.5" d="M96.5,-1C102.5,-1 108.5,-7 108.5,-13"/>
<path fill="#ffffff" stroke="#ffffff" stroke-width="1.5" d="M108.5,-25C108.5,-31 102.5,-37 96.5,-37"/>
<path fill="#ffffff" stroke="#ffffff" stroke-width="1.5" d="M11.5,-37C5.5,-37 -0.5,-31 -0.5,-25"/>
<path fill="#ffffff" stroke="#ffffff" stroke-width="1.5" d="M-0.5,-13C-0.5,-7 5.5,-1 11.5,-1"/>
<polyline fill="none" stroke="#2e3436" stroke-width="1.5" points="11.5,-1 96.5,-1 "/>
<path fill="none" stroke="#2e3436" stroke-width="1.5" d="M96.5,-1C102.5,-1 108.5,-7 108.5,-13"/>
<polyline fill="none" stroke="#2e3436" stroke-width="1.5" points="108.5,-13 108.5,-25 "/>
<path fill="none" stroke="#2e3436" stroke-width="1.5" d="M108.5,-25C108.5,-31 102.5,-37 96.5,-37"/>
<polyline fill="none" stroke="#2e3436" stroke-width="1.5" points="96.5,-37 11.5,-37 "/>
<path fill="none" stroke="#2e3436" stroke-width="1.5" d="M11.5,-37C5.5,-37 -0.5,-31 -0.5,-25"/>
<polyline fill="none" stroke="#2e3436" stroke-width="1.5" points="-0.5,-25 -0.5,-13 "/>
<path fill="none" stroke="#2e3436" stroke-width="1.5" d="M-0.5,-13C-0.5,-7 5.5,-1 11.5,-1"/>
<text text-anchor="start" x="7.5" y="-16.8" font-family="FreeSans" font-size="8.00" fill="#1c2021">Node[10]name = &#39;joe&#39;</text>
</g>
<!-- N9&#45;&gt;N10 -->
<g id="edge2" class="edge"><title>N9&#45;&gt;N10</title>
<path fill="none" stroke="#2e3436" stroke-width="2" d="M54,-84.7733C54,-73.1053 54,-57.7874 54,-44.8699"/>
<polygon fill="#2e3436" stroke="#2e3436" points="54,-37.1912 57.3751,-44.6911 54.5,-40.9412 54.5001,-44.6912 54.0001,-44.6912 53.5001,-44.6912 53.5,-40.9412 50.6251,-44.6912 54,-37.1912 54,-37.1912"/>
<text text-anchor="middle" x="68" y="-58.8" font-family="FreeSans" font-size="8.00" fill="#2e3436">knows</text>
</g>
</g>
</svg>
