<?xml version="1.0" encoding="UTF-8" standalone="no"?>
<!DOCTYPE svg PUBLIC "-//W3C//DTD SVG 1.1//EN"
 "http://www.w3.org/Graphics/SVG/1.1/DTD/svg11.dtd">
<!-- Generated by graphviz version 2.26.3 (20100126.1600)
 -->
<!-- Title: g Pages: 1 -->
<svg width="267pt" height="130pt"
 viewBox="0.00 0.00 267.00 130.00" xmlns="http://www.w3.org/2000/svg" xmlns:xlink="http://www.w3.org/1999/xlink">
<g id="graph1" class="graph" transform="scale(1 1) rotate(0) translate(4 126)">
<title>g</title>
<polygon fill="white" stroke="white" points="-4,5 -4,-126 264,-126 264,5 -4,5"/>
<!-- N367 -->
<g id="node1" class="node"><title>N367</title>
<polygon fill="#ffffff" stroke="#ffffff" stroke-width="1.5" points="11.5,-1 102.5,-1 114.5,-13 114.5,-25 102.5,-37 11.5,-37 -0.5,-25 -0.5,-13 11.5,-1"/>
<path fill="#ffffff" stroke="#ffffff" stroke-width="1.5" d="M102.5,-1C108.5,-1 114.5,-7 114.5,-13"/>
<path fill="#ffffff" stroke="#ffffff" stroke-width="1.5" d="M114.5,-25C114.5,-31 108.5,-37 102.5,-37"/>
<path fill="#ffffff" stroke="#ffffff" stroke-width="1.5" d="M11.5,-37C5.5,-37 -0.5,-31 -0.5,-25"/>
<path fill="#ffffff" stroke="#ffffff" stroke-width="1.5" d="M-0.5,-13C-0.5,-7 5.5,-1 11.5,-1"/>
<polyline fill="none" stroke="#2e3436" stroke-width="1.5" points="11.5,-1 102.5,-1 "/>
<path fill="none" stroke="#2e3436" stroke-width="1.5" d="M102.5,-1C108.5,-1 114.5,-7 114.5,-13"/>
<polyline fill="none" stroke="#2e3436" stroke-width="1.5" points="114.5,-13 114.5,-25 "/>
<path fill="none" stroke="#2e3436" stroke-width="1.5" d="M114.5,-25C114.5,-31 108.5,-37 102.5,-37"/>
<polyline fill="none" stroke="#2e3436" stroke-width="1.5" points="102.5,-37 11.5,-37 "/>
<path fill="none" stroke="#2e3436" stroke-width="1.5" d="M11.5,-37C5.5,-37 -0.5,-31 -0.5,-25"/>
<polyline fill="none" stroke="#2e3436" stroke-width="1.5" points="-0.5,-25 -0.5,-13 "/>
<path fill="none" stroke="#2e3436" stroke-width="1.5" d="M-0.5,-13C-0.5,-7 5.5,-1 11.5,-1"/>
<text text-anchor="start" x="7.5" y="-16.8" font-family="FreeSans" font-size="8.00" fill="#1c2021">Node[367]name = &#39;car&#39;</text>
</g>
<!-- N368 -->
<g id="node2" class="node"><title>N368</title>
<polygon fill="#ffffff" stroke="#ffffff" stroke-width="1.5" points="155,-1 247,-1 259,-13 259,-25 247,-37 155,-37 143,-25 143,-13 155,-1"/>
<path fill="#ffffff" stroke="#ffffff" stroke-width="1.5" d="M247,-1C253,-1 259,-7 259,-13"/>
<path fill="#ffffff" stroke="#ffffff" stroke-width="1.5" d="M259,-25C259,-31 253,-37 247,-37"/>
<path fill="#ffffff" stroke="#ffffff" stroke-width="1.5" d="M155,-37C149,-37 143,-31 143,-25"/>
<path fill="#ffffff" stroke="#ffffff" stroke-width="1.5" d="M143,-13C143,-7 149,-1 155,-1"/>
<polyline fill="none" stroke="#2e3436" stroke-width="1.5" points="155,-1 247,-1 "/>
<path fill="none" stroke="#2e3436" stroke-width="1.5" d="M247,-1C253,-1 259,-7 259,-13"/>
<polyline fill="none" stroke="#2e3436" stroke-width="1.5" points="259,-13 259,-25 "/>
<path fill="none" stroke="#2e3436" stroke-width="1.5" d="M259,-25C259,-31 253,-37 247,-37"/>
<polyline fill="none" stroke="#2e3436" stroke-width="1.5" points="247,-37 155,-37 "/>
<path fill="none" stroke="#2e3436" stroke-width="1.5" d="M155,-37C149,-37 143,-31 143,-25"/>
<polyline fill="none" stroke="#2e3436" stroke-width="1.5" points="143,-25 143,-13 "/>
<path fill="none" stroke="#2e3436" stroke-width="1.5" d="M143,-13C143,-7 149,-1 155,-1"/>
<text text-anchor="start" x="151" y="-16.8" font-family="FreeSans" font-size="8.00" fill="#1c2021">Node[368]name = &#39;you&#39;</text>
</g>
<!-- N369 -->
<g id="node3" class="node"><title>N369</title>
<polygon fill="#ffffff" stroke="#ffffff" stroke-width="1.5" points="89,-85 169,-85 181,-97 181,-109 169,-121 89,-121 77,-109 77,-97 89,-85"/>
<path fill="#ffffff" stroke="#ffffff" stroke-width="1.5" d="M169,-85C175,-85 181,-91 181,-97"/>
<path fill="#ffffff" stroke="#ffffff" stroke-width="1.5" d="M181,-109C181,-115 175,-121 169,-121"/>
<path fill="#ffffff" stroke="#ffffff" stroke-width="1.5" d="M89,-121C83,-121 77,-115 77,-109"/>
<path fill="#ffffff" stroke="#ffffff" stroke-width="1.5" d="M77,-97C77,-91 83,-85 89,-85"/>
<polyline fill="none" stroke="#2e3436" stroke-width="1.5" points="89,-85 169,-85 "/>
<path fill="none" stroke="#2e3436" stroke-width="1.5" d="M169,-85C175,-85 181,-91 181,-97"/>
<polyline fill="none" stroke="#2e3436" stroke-width="1.5" points="181,-97 181,-109 "/>
<path fill="none" stroke="#2e3436" stroke-width="1.5" d="M181,-109C181,-115 175,-121 169,-121"/>
<polyline fill="none" stroke="#2e3436" stroke-width="1.5" points="169,-121 89,-121 "/>
<path fill="none" stroke="#2e3436" stroke-width="1.5" d="M89,-121C83,-121 77,-115 77,-109"/>
<polyline fill="none" stroke="#2e3436" stroke-width="1.5" points="77,-109 77,-97 "/>
<path fill="none" stroke="#2e3436" stroke-width="1.5" d="M77,-97C77,-91 83,-85 89,-85"/>
<text text-anchor="start" x="85" y="-100.8" font-family="FreeSans" font-size="8.00" fill="#1c2021">Node[369]name = &#39;I&#39;</text>
</g>
<!-- N369&#45;&gt;N367 -->
<g id="edge4" class="edge"><title>N369&#45;&gt;N367</title>
<path fill="none" stroke="#4e9a06" stroke-width="2" d="M113.377,-84.7733C102.904,-72.5549 89.0007,-56.3342 77.6216,-43.0586"/>
<polygon fill="#4e9a06" stroke="#4e9a06" points="72.5924,-37.1912 80.0359,-40.6892 75.4126,-39.713 77.853,-42.5602 77.4734,-42.8856 77.0938,-43.211 74.6533,-40.3638 74.9109,-45.0821 72.5924,-37.1912 72.5924,-37.1912"/>
<text text-anchor="middle" x="105" y="-58.8" font-family="FreeSans" font-size="8.00" fill="#4e9a06">own</text>
</g>
<!-- N369&#45;&gt;N368 -->
<g id="edge2" class="edge"><title>N369&#45;&gt;N368</title>
<path fill="none" stroke="#2e3436" stroke-width="2" d="M144.623,-84.7733C155.096,-72.5549 168.999,-56.3342 180.378,-43.0586"/>
<polygon fill="#2e3436" stroke="#2e3436" points="185.408,-37.1912 183.089,-45.0821 183.347,-40.3638 180.906,-43.211 180.527,-42.8856 180.147,-42.5602 182.587,-39.713 177.964,-40.6892 185.408,-37.1912 185.408,-37.1912"/>
<text text-anchor="middle" x="178" y="-58.8" font-family="FreeSans" font-size="8.00" fill="#2e3436">know</text>
</g>
</g>
</svg>
