<?xml version="1.0" encoding="UTF-8" standalone="no"?>
<!DOCTYPE svg PUBLIC "-//W3C//DTD SVG 1.1//EN"
 "http://www.w3.org/Graphics/SVG/1.1/DTD/svg11.dtd">
<!-- Generated by graphviz version 2.26.3 (20100126.1600)
 -->
<!-- Title: g Pages: 1 -->
<svg width="460pt" height="46pt"
 viewBox="0.00 0.00 460.00 46.00" xmlns="http://www.w3.org/2000/svg" xmlns:xlink="http://www.w3.org/1999/xlink">
<g id="graph1" class="graph" transform="scale(1 1) rotate(0) translate(4 42)">
<title>g</title>
<polygon fill="white" stroke="white" points="-4,5 -4,-42 457,-42 457,5 -4,5"/>
<!-- N113 -->
<g id="node1" class="node"><title>N113</title>
<polygon fill="#ffffff" stroke="#ffffff" stroke-width="1.5" points="11.5,-1 118.5,-1 130.5,-13 130.5,-25 118.5,-37 11.5,-37 -0.5,-25 -0.5,-13 11.5,-1"/>
<path fill="#ffffff" stroke="#ffffff" stroke-width="1.5" d="M118.5,-1C124.5,-1 130.5,-7 130.5,-13"/>
<path fill="#ffffff" stroke="#ffffff" stroke-width="1.5" d="M130.5,-25C130.5,-31 124.5,-37 118.5,-37"/>
<path fill="#ffffff" stroke="#ffffff" stroke-width="1.5" d="M11.5,-37C5.5,-37 -0.5,-31 -0.5,-25"/>
<path fill="#ffffff" stroke="#ffffff" stroke-width="1.5" d="M-0.5,-13C-0.5,-7 5.5,-1 11.5,-1"/>
<polyline fill="none" stroke="#2e3436" stroke-width="1.5" points="11.5,-1 118.5,-1 "/>
<path fill="none" stroke="#2e3436" stroke-width="1.5" d="M118.5,-1C124.5,-1 130.5,-7 130.5,-13"/>
<polyline fill="none" stroke="#2e3436" stroke-width="1.5" points="130.5,-13 130.5,-25 "/>
<path fill="none" stroke="#2e3436" stroke-width="1.5" d="M130.5,-25C130.5,-31 124.5,-37 118.5,-37"/>
<polyline fill="none" stroke="#2e3436" stroke-width="1.5" points="118.5,-37 11.5,-37 "/>
<path fill="none" stroke="#2e3436" stroke-width="1.5" d="M11.5,-37C5.5,-37 -0.5,-31 -0.5,-25"/>
<polyline fill="none" stroke="#2e3436" stroke-width="1.5" points="-0.5,-25 -0.5,-13 "/>
<path fill="none" stroke="#2e3436" stroke-width="1.5" d="M-0.5,-13C-0.5,-7 5.5,-1 11.5,-1"/>
<text text-anchor="middle" x="65" y="-25.8" font-family="FreeSans" font-size="8.00" fill="#1c2021">Node[113]: Director</text>
<polyline fill="none" stroke="#2e3436" stroke-width="1.5" points="-0.5,-19 130.5,-19 "/>
<text text-anchor="start" x="7.5" y="-7.8" font-family="FreeSans" font-size="8.00" fill="#1c2021">name = &#39;Steven Spielberg&#39;</text>
</g>
<!-- N114 -->
<g id="node2" class="node"><title>N114</title>
<polygon fill="#ffffff" stroke="#ffffff" stroke-width="1.5" points="171,-1 275,-1 287,-13 287,-25 275,-37 171,-37 159,-25 159,-13 171,-1"/>
<path fill="#ffffff" stroke="#ffffff" stroke-width="1.5" d="M275,-1C281,-1 287,-7 287,-13"/>
<path fill="#ffffff" stroke="#ffffff" stroke-width="1.5" d="M287,-25C287,-31 281,-37 275,-37"/>
<path fill="#ffffff" stroke="#ffffff" stroke-width="1.5" d="M171,-37C165,-37 159,-31 159,-25"/>
<path fill="#ffffff" stroke="#ffffff" stroke-width="1.5" d="M159,-13C159,-7 165,-1 171,-1"/>
<polyline fill="none" stroke="#2e3436" stroke-width="1.5" points="171,-1 275,-1 "/>
<path fill="none" stroke="#2e3436" stroke-width="1.5" d="M275,-1C281,-1 287,-7 287,-13"/>
<polyline fill="none" stroke="#2e3436" stroke-width="1.5" points="287,-13 287,-25 "/>
<path fill="none" stroke="#2e3436" stroke-width="1.5" d="M287,-25C287,-31 281,-37 275,-37"/>
<polyline fill="none" stroke="#2e3436" stroke-width="1.5" points="275,-37 171,-37 "/>
<path fill="none" stroke="#2e3436" stroke-width="1.5" d="M171,-37C165,-37 159,-31 159,-25"/>
<polyline fill="none" stroke="#2e3436" stroke-width="1.5" points="159,-25 159,-13 "/>
<path fill="none" stroke="#2e3436" stroke-width="1.5" d="M159,-13C159,-7 165,-1 171,-1"/>
<text text-anchor="middle" x="223" y="-25.8" font-family="FreeSans" font-size="8.00" fill="#1c2021">Node[114]: Director, Actor</text>
<polyline fill="none" stroke="#2e3436" stroke-width="1.5" points="159,-19 287,-19 "/>
<text text-anchor="start" x="167" y="-7.8" font-family="FreeSans" font-size="8.00" fill="#1c2021">name = &#39;Clint Eastwood&#39;</text>
</g>
<!-- N115 -->
<g id="node3" class="node"><title>N115</title>
<polygon fill="#ffffff" stroke="#ffffff" stroke-width="1.5" points="327.5,-1 440.5,-1 452.5,-13 452.5,-25 440.5,-37 327.5,-37 315.5,-25 315.5,-13 327.5,-1"/>
<path fill="#ffffff" stroke="#ffffff" stroke-width="1.5" d="M440.5,-1C446.5,-1 452.5,-7 452.5,-13"/>
<path fill="#ffffff" stroke="#ffffff" stroke-width="1.5" d="M452.5,-25C452.5,-31 446.5,-37 440.5,-37"/>
<path fill="#ffffff" stroke="#ffffff" stroke-width="1.5" d="M327.5,-37C321.5,-37 315.5,-31 315.5,-25"/>
<path fill="#ffffff" stroke="#ffffff" stroke-width="1.5" d="M315.5,-13C315.5,-7 321.5,-1 327.5,-1"/>
<polyline fill="none" stroke="#2e3436" stroke-width="1.5" points="327.5,-1 440.5,-1 "/>
<path fill="none" stroke="#2e3436" stroke-width="1.5" d="M440.5,-1C446.5,-1 452.5,-7 452.5,-13"/>
<polyline fill="none" stroke="#2e3436" stroke-width="1.5" points="452.5,-13 452.5,-25 "/>
<path fill="none" stroke="#2e3436" stroke-width="1.5" d="M452.5,-25C452.5,-31 446.5,-37 440.5,-37"/>
<polyline fill="none" stroke="#2e3436" stroke-width="1.5" points="440.5,-37 327.5,-37 "/>
<path fill="none" stroke="#2e3436" stroke-width="1.5" d="M327.5,-37C321.5,-37 315.5,-31 315.5,-25"/>
<polyline fill="none" stroke="#2e3436" stroke-width="1.5" points="315.5,-25 315.5,-13 "/>
<path fill="none" stroke="#2e3436" stroke-width="1.5" d="M315.5,-13C315.5,-7 321.5,-1 327.5,-1"/>
<text text-anchor="middle" x="384" y="-25.8" font-family="FreeSans" font-size="8.00" fill="#1c2021">Node[115]: Actor</text>
<polyline fill="none" stroke="#2e3436" stroke-width="1.5" points="315.5,-19 452.5,-19 "/>
<text text-anchor="start" x="323.5" y="-7.8" font-family="FreeSans" font-size="8.00" fill="#1c2021">name = &#39;Donald Sutherland&#39;</text>
</g>
</g>
</svg>
