<?xml version="1.0" encoding="UTF-8" standalone="no"?>
<!DOCTYPE svg PUBLIC "-//W3C//DTD SVG 1.1//EN"
 "http://www.w3.org/Graphics/SVG/1.1/DTD/svg11.dtd">
<!-- Generated by graphviz version 2.26.3 (20100126.1600)
 -->
<!-- Title: g Pages: 1 -->
<svg width="118pt" height="130pt"
 viewBox="0.00 0.00 118.00 130.00" xmlns="http://www.w3.org/2000/svg" xmlns:xlink="http://www.w3.org/1999/xlink">
<g id="graph1" class="graph" transform="scale(1 1) rotate(0) translate(4 126)">
<title>g</title>
<polygon fill="white" stroke="white" points="-4,5 -4,-126 115,-126 115,5 -4,5"/>
<!-- N73 -->
<g id="node1" class="node"><title>N73</title>
<polygon fill="#ffffff" stroke="#ffffff" stroke-width="1.5" points="11.5,-1 98.5,-1 110.5,-13 110.5,-25 98.5,-37 11.5,-37 -0.5,-25 -0.5,-13 11.5,-1"/>
<path fill="#ffffff" stroke="#ffffff" stroke-width="1.5" d="M98.5,-1C104.5,-1 110.5,-7 110.5,-13"/>
<path fill="#ffffff" stroke="#ffffff" stroke-width="1.5" d="M110.5,-25C110.5,-31 104.5,-37 98.5,-37"/>
<path fill="#ffffff" stroke="#ffffff" stroke-width="1.5" d="M11.5,-37C5.5,-37 -0.5,-31 -0.5,-25"/>
<path fill="#ffffff" stroke="#ffffff" stroke-width="1.5" d="M-0.5,-13C-0.5,-7 5.5,-1 11.5,-1"/>
<polyline fill="none" stroke="#2e3436" stroke-width="1.5" points="11.5,-1 98.5,-1 "/>
<path fill="none" stroke="#2e3436" stroke-width="1.5" d="M98.5,-1C104.5,-1 110.5,-7 110.5,-13"/>
<polyline fill="none" stroke="#2e3436" stroke-width="1.5" points="110.5,-13 110.5,-25 "/>
<path fill="none" stroke="#2e3436" stroke-width="1.5" d="M110.5,-25C110.5,-31 104.5,-37 98.5,-37"/>
<polyline fill="none" stroke="#2e3436" stroke-width="1.5" points="98.5,-37 11.5,-37 "/>
<path fill="none" stroke="#2e3436" stroke-width="1.5" d="M11.5,-37C5.5,-37 -0.5,-31 -0.5,-25"/>
<polyline fill="none" stroke="#2e3436" stroke-width="1.5" points="-0.5,-25 -0.5,-13 "/>
<path fill="none" stroke="#2e3436" stroke-width="1.5" d="M-0.5,-13C-0.5,-7 5.5,-1 11.5,-1"/>
<text text-anchor="start" x="7.5" y="-16.8" font-family="FreeSans" font-size="8.00" fill="#1c2021">Node[73]name = &#39;you&#39;</text>
</g>
<!-- N74 -->
<g id="node2" class="node"><title>N74</title>
<polygon fill="#ffffff" stroke="#ffffff" stroke-width="1.5" points="18,-85 92,-85 104,-97 104,-109 92,-121 18,-121 6,-109 6,-97 18,-85"/>
<path fill="#ffffff" stroke="#ffffff" stroke-width="1.5" d="M92,-85C98,-85 104,-91 104,-97"/>
<path fill="#ffffff" stroke="#ffffff" stroke-width="1.5" d="M104,-109C104,-115 98,-121 92,-121"/>
<path fill="#ffffff" stroke="#ffffff" stroke-width="1.5" d="M18,-121C12,-121 6,-115 6,-109"/>
<path fill="#ffffff" stroke="#ffffff" stroke-width="1.5" d="M6,-97C6,-91 12,-85 18,-85"/>
<polyline fill="none" stroke="#2e3436" stroke-width="1.5" points="18,-85 92,-85 "/>
<path fill="none" stroke="#2e3436" stroke-width="1.5" d="M92,-85C98,-85 104,-91 104,-97"/>
<polyline fill="none" stroke="#2e3436" stroke-width="1.5" points="104,-97 104,-109 "/>
<path fill="none" stroke="#2e3436" stroke-width="1.5" d="M104,-109C104,-115 98,-121 92,-121"/>
<polyline fill="none" stroke="#2e3436" stroke-width="1.5" points="92,-121 18,-121 "/>
<path fill="none" stroke="#2e3436" stroke-width="1.5" d="M18,-121C12,-121 6,-115 6,-109"/>
<polyline fill="none" stroke="#2e3436" stroke-width="1.5" points="6,-109 6,-97 "/>
<path fill="none" stroke="#2e3436" stroke-width="1.5" d="M6,-97C6,-91 12,-85 18,-85"/>
<text text-anchor="start" x="14" y="-100.8" font-family="FreeSans" font-size="8.00" fill="#1c2021">Node[74]name = &#39;I&#39;</text>
</g>
<!-- N74&#45;&gt;N73 -->
<g id="edge2" class="edge"><title>N74&#45;&gt;N73</title>
<path fill="none" stroke="#2e3436" stroke-width="2" d="M55,-84.7733C55,-73.1053 55,-57.7874 55,-44.8699"/>
<polygon fill="#2e3436" stroke="#2e3436" points="55,-37.1912 58.3751,-44.6911 55.5,-40.9412 55.5001,-44.6912 55.0001,-44.6912 54.5001,-44.6912 54.5,-40.9412 51.6251,-44.6912 55,-37.1912 55,-37.1912"/>
<text text-anchor="middle" x="66" y="-58.8" font-family="FreeSans" font-size="8.00" fill="#2e3436">know</text>
</g>
</g>
</svg>
