<?xml version="1.0" encoding="UTF-8" standalone="no"?>
<!DOCTYPE svg PUBLIC "-//W3C//DTD SVG 1.1//EN"
 "http://www.w3.org/Graphics/SVG/1.1/DTD/svg11.dtd">
<!-- Generated by graphviz version 2.26.3 (20100126.1600)
 -->
<!-- Title: g Pages: 1 -->
<svg width="257pt" height="56pt"
 viewBox="0.00 0.00 257.00 56.00" xmlns="http://www.w3.org/2000/svg" xmlns:xlink="http://www.w3.org/1999/xlink">
<g id="graph1" class="graph" transform="scale(1 1) rotate(0) translate(4 52)">
<title>g</title>
<polygon fill="white" stroke="white" points="-4,5 -4,-52 254,-52 254,5 -4,5"/>
<!-- N48 -->
<g id="node1" class="node"><title>N48</title>
<polygon fill="#ffffff" stroke="#ffffff" stroke-width="1.5" points="12,-1 98,-1 110,-13 110,-35 98,-47 12,-47 0,-35 0,-13 12,-1"/>
<path fill="#ffffff" stroke="#ffffff" stroke-width="1.5" d="M98,-1C104,-1 110,-7 110,-13"/>
<path fill="#ffffff" stroke="#ffffff" stroke-width="1.5" d="M110,-35C110,-41 104,-47 98,-47"/>
<path fill="#ffffff" stroke="#ffffff" stroke-width="1.5" d="M12,-47C6,-47 0,-41 0,-35"/>
<path fill="#ffffff" stroke="#ffffff" stroke-width="1.5" d="M0,-13C0,-7 6,-1 12,-1"/>
<polyline fill="none" stroke="#2e3436" stroke-width="1.5" points="12,-1 98,-1 "/>
<path fill="none" stroke="#2e3436" stroke-width="1.5" d="M98,-1C104,-1 110,-7 110,-13"/>
<polyline fill="none" stroke="#2e3436" stroke-width="1.5" points="110,-13 110,-35 "/>
<path fill="none" stroke="#2e3436" stroke-width="1.5" d="M110,-35C110,-41 104,-47 98,-47"/>
<polyline fill="none" stroke="#2e3436" stroke-width="1.5" points="98,-47 12,-47 "/>
<path fill="none" stroke="#2e3436" stroke-width="1.5" d="M12,-47C6,-47 0,-41 0,-35"/>
<polyline fill="none" stroke="#2e3436" stroke-width="1.5" points="0,-35 0,-13 "/>
<path fill="none" stroke="#2e3436" stroke-width="1.5" d="M0,-13C0,-7 6,-1 12,-1"/>
<text text-anchor="middle" x="55" y="-35.8" font-family="FreeSans" font-size="8.00" fill="#1c2021">Node[48]: Person</text>
<polyline fill="none" stroke="#2e3436" stroke-width="1.5" points="0,-29 110,-29 "/>
<text text-anchor="start" x="8" y="-17.8" font-family="FreeSans" font-size="8.00" fill="#1c2021">name = &#39;Andres&#39;</text>
<text text-anchor="start" x="8" y="-7.8" font-family="FreeSans" font-size="8.00" fill="#1c2021">position = &#39;Developer&#39;</text>
</g>
<!-- N49 -->
<g id="node2" class="node"><title>N49</title>
<polygon fill="#ffffff" stroke="#ffffff" stroke-width="1.5" points="151,-1 237,-1 249,-13 249,-35 237,-47 151,-47 139,-35 139,-13 151,-1"/>
<path fill="#ffffff" stroke="#ffffff" stroke-width="1.5" d="M237,-1C243,-1 249,-7 249,-13"/>
<path fill="#ffffff" stroke="#ffffff" stroke-width="1.5" d="M249,-35C249,-41 243,-47 237,-47"/>
<path fill="#ffffff" stroke="#ffffff" stroke-width="1.5" d="M151,-47C145,-47 139,-41 139,-35"/>
<path fill="#ffffff" stroke="#ffffff" stroke-width="1.5" d="M139,-13C139,-7 145,-1 151,-1"/>
<polyline fill="none" stroke="#2e3436" stroke-width="1.5" points="151,-1 237,-1 "/>
<path fill="none" stroke="#2e3436" stroke-width="1.5" d="M237,-1C243,-1 249,-7 249,-13"/>
<polyline fill="none" stroke="#2e3436" stroke-width="1.5" points="249,-13 249,-35 "/>
<path fill="none" stroke="#2e3436" stroke-width="1.5" d="M249,-35C249,-41 243,-47 237,-47"/>
<polyline fill="none" stroke="#2e3436" stroke-width="1.5" points="237,-47 151,-47 "/>
<path fill="none" stroke="#2e3436" stroke-width="1.5" d="M151,-47C145,-47 139,-41 139,-35"/>
<polyline fill="none" stroke="#2e3436" stroke-width="1.5" points="139,-35 139,-13 "/>
<path fill="none" stroke="#2e3436" stroke-width="1.5" d="M139,-13C139,-7 145,-1 151,-1"/>
<text text-anchor="middle" x="194" y="-35.8" font-family="FreeSans" font-size="8.00" fill="#1c2021">Node[49]: Person</text>
<polyline fill="none" stroke="#2e3436" stroke-width="1.5" points="139,-29 249,-29 "/>
<text text-anchor="start" x="147" y="-17.8" font-family="FreeSans" font-size="8.00" fill="#1c2021">name = &#39;Michael&#39;</text>
<text text-anchor="start" x="147" y="-7.8" font-family="FreeSans" font-size="8.00" fill="#1c2021">position = &#39;Developer&#39;</text>
</g>
</g>
</svg>
