<?xml version="1.0" encoding="UTF-8" standalone="no"?>
<!DOCTYPE svg PUBLIC "-//W3C//DTD SVG 1.1//EN"
 "http://www.w3.org/Graphics/SVG/1.1/DTD/svg11.dtd">
<!-- Generated by graphviz version 2.26.3 (20100126.1600)
 -->
<!-- Title: g Pages: 1 -->
<svg width="138pt" height="130pt"
 viewBox="0.00 0.00 138.00 130.00" xmlns="http://www.w3.org/2000/svg" xmlns:xlink="http://www.w3.org/1999/xlink">
<g id="graph1" class="graph" transform="scale(1 1) rotate(0) translate(4 126)">
<title>g</title>
<polygon fill="white" stroke="white" points="-4,5 -4,-126 135,-126 135,5 -4,5"/>
<!-- N126 -->
<g id="node1" class="node"><title>N126</title>
<polygon fill="#ffffff" stroke="#ffffff" stroke-width="1.5" points="16,-1 114,-1 126,-13 126,-25 114,-37 16,-37 4,-25 4,-13 16,-1"/>
<path fill="#ffffff" stroke="#ffffff" stroke-width="1.5" d="M114,-1C120,-1 126,-7 126,-13"/>
<path fill="#ffffff" stroke="#ffffff" stroke-width="1.5" d="M126,-25C126,-31 120,-37 114,-37"/>
<path fill="#ffffff" stroke="#ffffff" stroke-width="1.5" d="M16,-37C10,-37 4,-31 4,-25"/>
<path fill="#ffffff" stroke="#ffffff" stroke-width="1.5" d="M4,-13C4,-7 10,-1 16,-1"/>
<polyline fill="none" stroke="#2e3436" stroke-width="1.5" points="16,-1 114,-1 "/>
<path fill="none" stroke="#2e3436" stroke-width="1.5" d="M114,-1C120,-1 126,-7 126,-13"/>
<polyline fill="none" stroke="#2e3436" stroke-width="1.5" points="126,-13 126,-25 "/>
<path fill="none" stroke="#2e3436" stroke-width="1.5" d="M126,-25C126,-31 120,-37 114,-37"/>
<polyline fill="none" stroke="#2e3436" stroke-width="1.5" points="114,-37 16,-37 "/>
<path fill="none" stroke="#2e3436" stroke-width="1.5" d="M16,-37C10,-37 4,-31 4,-25"/>
<polyline fill="none" stroke="#2e3436" stroke-width="1.5" points="4,-25 4,-13 "/>
<path fill="none" stroke="#2e3436" stroke-width="1.5" d="M4,-13C4,-7 10,-1 16,-1"/>
<text text-anchor="start" x="12" y="-16.8" font-family="FreeSans" font-size="8.00" fill="#1c2021">Node[126]name = &#39;Juliet&#39;</text>
</g>
<!-- N127 -->
<g id="node2" class="node"><title>N127</title>
<polygon fill="#ffffff" stroke="#ffffff" stroke-width="1.5" points="11.5,-85 118.5,-85 130.5,-97 130.5,-109 118.5,-121 11.5,-121 -0.5,-109 -0.5,-97 11.5,-85"/>
<path fill="#ffffff" stroke="#ffffff" stroke-width="1.5" d="M118.5,-85C124.5,-85 130.5,-91 130.5,-97"/>
<path fill="#ffffff" stroke="#ffffff" stroke-width="1.5" d="M130.5,-109C130.5,-115 124.5,-121 118.5,-121"/>
<path fill="#ffffff" stroke="#ffffff" stroke-width="1.5" d="M11.5,-121C5.5,-121 -0.5,-115 -0.5,-109"/>
<path fill="#ffffff" stroke="#ffffff" stroke-width="1.5" d="M-0.5,-97C-0.5,-91 5.5,-85 11.5,-85"/>
<polyline fill="none" stroke="#2e3436" stroke-width="1.5" points="11.5,-85 118.5,-85 "/>
<path fill="none" stroke="#2e3436" stroke-width="1.5" d="M118.5,-85C124.5,-85 130.5,-91 130.5,-97"/>
<polyline fill="none" stroke="#2e3436" stroke-width="1.5" points="130.5,-97 130.5,-109 "/>
<path fill="none" stroke="#2e3436" stroke-width="1.5" d="M130.5,-109C130.5,-115 124.5,-121 118.5,-121"/>
<polyline fill="none" stroke="#2e3436" stroke-width="1.5" points="118.5,-121 11.5,-121 "/>
<path fill="none" stroke="#2e3436" stroke-width="1.5" d="M11.5,-121C5.5,-121 -0.5,-115 -0.5,-109"/>
<polyline fill="none" stroke="#2e3436" stroke-width="1.5" points="-0.5,-109 -0.5,-97 "/>
<path fill="none" stroke="#2e3436" stroke-width="1.5" d="M-0.5,-97C-0.5,-91 5.5,-85 11.5,-85"/>
<text text-anchor="start" x="7.5" y="-100.8" font-family="FreeSans" font-size="8.00" fill="#1c2021">Node[127]name = &#39;Romeo&#39;</text>
</g>
<!-- N127&#45;&gt;N126 -->
<g id="edge2" class="edge"><title>N127&#45;&gt;N126</title>
<path fill="none" stroke="#2e3436" stroke-width="2" d="M65,-84.7733C65,-73.1053 65,-57.7874 65,-44.8699"/>
<polygon fill="#2e3436" stroke="#2e3436" points="65,-37.1912 68.3751,-44.6911 65.5,-40.9412 65.5001,-44.6912 65.0001,-44.6912 64.5001,-44.6912 64.5,-40.9412 61.6251,-44.6912 65,-37.1912 65,-37.1912"/>
<text text-anchor="middle" x="79" y="-58.8" font-family="FreeSans" font-size="8.00" fill="#2e3436">LOVES</text>
</g>
</g>
</svg>
