<?xml version="1.0" encoding="UTF-8" standalone="no"?>
<!DOCTYPE svg PUBLIC "-//W3C//DTD SVG 1.1//EN"
 "http://www.w3.org/Graphics/SVG/1.1/DTD/svg11.dtd">
<!-- Generated by graphviz version 2.26.3 (20100126.1600)
 -->
<!-- Title: g Pages: 1 -->
<svg width="327pt" height="346pt"
 viewBox="0.00 0.00 327.00 346.00" xmlns="http://www.w3.org/2000/svg" xmlns:xlink="http://www.w3.org/1999/xlink">
<g id="graph1" class="graph" transform="scale(1 1) rotate(0) translate(4 342)">
<title>g</title>
<polygon fill="white" stroke="white" points="-4,5 -4,-342 324,-342 324,5 -4,5"/>
<!-- N209 -->
<g id="node1" class="node"><title>N209</title>
<polygon fill="#ffffff" stroke="#ffffff" stroke-width="1.5" points="12,-151 92,-151 104,-163 104,-175 92,-187 12,-187 0,-175 0,-163 12,-151"/>
<path fill="#ffffff" stroke="#ffffff" stroke-width="1.5" d="M92,-151C98,-151 104,-157 104,-163"/>
<path fill="#ffffff" stroke="#ffffff" stroke-width="1.5" d="M104,-175C104,-181 98,-187 92,-187"/>
<path fill="#ffffff" stroke="#ffffff" stroke-width="1.5" d="M12,-187C6,-187 0,-181 0,-175"/>
<path fill="#ffffff" stroke="#ffffff" stroke-width="1.5" d="M0,-163C0,-157 6,-151 12,-151"/>
<polyline fill="none" stroke="#2e3436" stroke-width="1.5" points="12,-151 92,-151 "/>
<path fill="none" stroke="#2e3436" stroke-width="1.5" d="M92,-151C98,-151 104,-157 104,-163"/>
<polyline fill="none" stroke="#2e3436" stroke-width="1.5" points="104,-163 104,-175 "/>
<path fill="none" stroke="#2e3436" stroke-width="1.5" d="M104,-175C104,-181 98,-187 92,-187"/>
<polyline fill="none" stroke="#2e3436" stroke-width="1.5" points="92,-187 12,-187 "/>
<path fill="none" stroke="#2e3436" stroke-width="1.5" d="M12,-187C6,-187 0,-181 0,-175"/>
<polyline fill="none" stroke="#2e3436" stroke-width="1.5" points="0,-175 0,-163 "/>
<path fill="none" stroke="#2e3436" stroke-width="1.5" d="M0,-163C0,-157 6,-151 12,-151"/>
<text text-anchor="start" x="8" y="-166.8" font-family="FreeSans" font-size="8.00" fill="#1c2021">Node[209]name = &#39;f&#39;</text>
</g>
<!-- N211 -->
<g id="node3" class="node"><title>N211</title>
<polygon fill="#ffffff" stroke="#ffffff" stroke-width="1.5" points="105.5,-1 188.5,-1 200.5,-13 200.5,-25 188.5,-37 105.5,-37 93.5,-25 93.5,-13 105.5,-1"/>
<path fill="#ffffff" stroke="#ffffff" stroke-width="1.5" d="M188.5,-1C194.5,-1 200.5,-7 200.5,-13"/>
<path fill="#ffffff" stroke="#ffffff" stroke-width="1.5" d="M200.5,-25C200.5,-31 194.5,-37 188.5,-37"/>
<path fill="#ffffff" stroke="#ffffff" stroke-width="1.5" d="M105.5,-37C99.5,-37 93.5,-31 93.5,-25"/>
<path fill="#ffffff" stroke="#ffffff" stroke-width="1.5" d="M93.5,-13C93.5,-7 99.5,-1 105.5,-1"/>
<polyline fill="none" stroke="#2e3436" stroke-width="1.5" points="105.5,-1 188.5,-1 "/>
<path fill="none" stroke="#2e3436" stroke-width="1.5" d="M188.5,-1C194.5,-1 200.5,-7 200.5,-13"/>
<polyline fill="none" stroke="#2e3436" stroke-width="1.5" points="200.5,-13 200.5,-25 "/>
<path fill="none" stroke="#2e3436" stroke-width="1.5" d="M200.5,-25C200.5,-31 194.5,-37 188.5,-37"/>
<polyline fill="none" stroke="#2e3436" stroke-width="1.5" points="188.5,-37 105.5,-37 "/>
<path fill="none" stroke="#2e3436" stroke-width="1.5" d="M105.5,-37C99.5,-37 93.5,-31 93.5,-25"/>
<polyline fill="none" stroke="#2e3436" stroke-width="1.5" points="93.5,-25 93.5,-13 "/>
<path fill="none" stroke="#2e3436" stroke-width="1.5" d="M93.5,-13C93.5,-7 99.5,-1 105.5,-1"/>
<text text-anchor="start" x="101.5" y="-16.8" font-family="FreeSans" font-size="8.00" fill="#1c2021">Node[211]name = &#39;e&#39;</text>
</g>
<!-- N209&#45;&gt;N211 -->
<g id="edge2" class="edge"><title>N209&#45;&gt;N211</title>
<path fill="none" stroke="#2e3436" stroke-width="2" d="M63.4592,-150.906C80.4348,-124.103 112.309,-73.7758 131.4,-43.6318"/>
<polygon fill="#2e3436" stroke="#2e3436" points="135.5,-37.1577 134.338,-45.2997 133.916,-40.5933 131.91,-43.7614 131.487,-43.4938 131.065,-43.2263 133.071,-40.0582 128.636,-41.688 135.5,-37.1577 135.5,-37.1577"/>
<text text-anchor="middle" x="118.5" y="-115.8" font-family="FreeSans" font-size="8.00" fill="#2e3436">to</text>
<text text-anchor="start" x="100" y="-105.8" font-family="FreeSans" font-size="8.00" fill="#2e3436">cost = 1</text>
</g>
<!-- N210 -->
<g id="node4" class="node"><title>N210</title>
<polygon fill="#ffffff" stroke="#ffffff" stroke-width="1.5" points="224.5,-95 307.5,-95 319.5,-107 319.5,-119 307.5,-131 224.5,-131 212.5,-119 212.5,-107 224.5,-95"/>
<path fill="#ffffff" stroke="#ffffff" stroke-width="1.5" d="M307.5,-95C313.5,-95 319.5,-101 319.5,-107"/>
<path fill="#ffffff" stroke="#ffffff" stroke-width="1.5" d="M319.5,-119C319.5,-125 313.5,-131 307.5,-131"/>
<path fill="#ffffff" stroke="#ffffff" stroke-width="1.5" d="M224.5,-131C218.5,-131 212.5,-125 212.5,-119"/>
<path fill="#ffffff" stroke="#ffffff" stroke-width="1.5" d="M212.5,-107C212.5,-101 218.5,-95 224.5,-95"/>
<polyline fill="none" stroke="#2e3436" stroke-width="1.5" points="224.5,-95 307.5,-95 "/>
<path fill="none" stroke="#2e3436" stroke-width="1.5" d="M307.5,-95C313.5,-95 319.5,-101 319.5,-107"/>
<polyline fill="none" stroke="#2e3436" stroke-width="1.5" points="319.5,-107 319.5,-119 "/>
<path fill="none" stroke="#2e3436" stroke-width="1.5" d="M319.5,-119C319.5,-125 313.5,-131 307.5,-131"/>
<polyline fill="none" stroke="#2e3436" stroke-width="1.5" points="307.5,-131 224.5,-131 "/>
<path fill="none" stroke="#2e3436" stroke-width="1.5" d="M224.5,-131C218.5,-131 212.5,-125 212.5,-119"/>
<polyline fill="none" stroke="#2e3436" stroke-width="1.5" points="212.5,-119 212.5,-107 "/>
<path fill="none" stroke="#2e3436" stroke-width="1.5" d="M212.5,-107C212.5,-101 218.5,-95 224.5,-95"/>
<text text-anchor="start" x="220.5" y="-110.8" font-family="FreeSans" font-size="8.00" fill="#1c2021">Node[210]name = &#39;d&#39;</text>
</g>
<!-- N210&#45;&gt;N211 -->
<g id="edge4" class="edge"><title>N210&#45;&gt;N211</title>
<path fill="none" stroke="#2e3436" stroke-width="2" d="M243.056,-94.8759C223.877,-79.7261 196.424,-58.041 175.775,-41.7302"/>
<polygon fill="#2e3436" stroke="#2e3436" points="169.874,-37.0685 177.851,-39.0691 173.127,-39.0006 176.069,-41.3251 175.759,-41.7175 175.449,-42.1098 172.507,-39.7854 173.667,-44.3659 169.874,-37.0685 169.874,-37.0685"/>
<text text-anchor="middle" x="235.5" y="-68.8" font-family="FreeSans" font-size="8.00" fill="#2e3436">to</text>
<text text-anchor="start" x="217" y="-58.8" font-family="FreeSans" font-size="8.00" fill="#2e3436">cost = 1</text>
</g>
<!-- N212 -->
<g id="node6" class="node"><title>N212</title>
<polygon fill="#ffffff" stroke="#ffffff" stroke-width="1.5" points="120.5,-151 203.5,-151 215.5,-163 215.5,-175 203.5,-187 120.5,-187 108.5,-175 108.5,-163 120.5,-151"/>
<path fill="#ffffff" stroke="#ffffff" stroke-width="1.5" d="M203.5,-151C209.5,-151 215.5,-157 215.5,-163"/>
<path fill="#ffffff" stroke="#ffffff" stroke-width="1.5" d="M215.5,-175C215.5,-181 209.5,-187 203.5,-187"/>
<path fill="#ffffff" stroke="#ffffff" stroke-width="1.5" d="M120.5,-187C114.5,-187 108.5,-181 108.5,-175"/>
<path fill="#ffffff" stroke="#ffffff" stroke-width="1.5" d="M108.5,-163C108.5,-157 114.5,-151 120.5,-151"/>
<polyline fill="none" stroke="#2e3436" stroke-width="1.5" points="120.5,-151 203.5,-151 "/>
<path fill="none" stroke="#2e3436" stroke-width="1.5" d="M203.5,-151C209.5,-151 215.5,-157 215.5,-163"/>
<polyline fill="none" stroke="#2e3436" stroke-width="1.5" points="215.5,-163 215.5,-175 "/>
<path fill="none" stroke="#2e3436" stroke-width="1.5" d="M215.5,-175C215.5,-181 209.5,-187 203.5,-187"/>
<polyline fill="none" stroke="#2e3436" stroke-width="1.5" points="203.5,-187 120.5,-187 "/>
<path fill="none" stroke="#2e3436" stroke-width="1.5" d="M120.5,-187C114.5,-187 108.5,-181 108.5,-175"/>
<polyline fill="none" stroke="#2e3436" stroke-width="1.5" points="108.5,-175 108.5,-163 "/>
<path fill="none" stroke="#2e3436" stroke-width="1.5" d="M108.5,-163C108.5,-157 114.5,-151 120.5,-151"/>
<text text-anchor="start" x="116.5" y="-166.8" font-family="FreeSans" font-size="8.00" fill="#1c2021">Node[212]name = &#39;b&#39;</text>
</g>
<!-- N212&#45;&gt;N211 -->
<g id="edge6" class="edge"><title>N212&#45;&gt;N211</title>
<path fill="none" stroke="#2e3436" stroke-width="2" d="M160.191,-150.906C157.544,-124.441 152.604,-75.0408 149.578,-44.7812"/>
<polygon fill="#2e3436" stroke="#2e3436" points="148.816,-37.1577 152.92,-44.2846 149.686,-40.8393 150.06,-44.5707 149.562,-44.6205 149.065,-44.6702 148.691,-40.9388 146.204,-44.9563 148.816,-37.1577 148.816,-37.1577"/>
<text text-anchor="middle" x="176.5" y="-115.8" font-family="FreeSans" font-size="8.00" fill="#2e3436">to</text>
<text text-anchor="start" x="158" y="-105.8" font-family="FreeSans" font-size="8.00" fill="#2e3436">cost = 1</text>
</g>
<!-- N213 -->
<g id="node8" class="node"><title>N213</title>
<polygon fill="#ffffff" stroke="#ffffff" stroke-width="1.5" points="220,-207 302,-207 314,-219 314,-231 302,-243 220,-243 208,-231 208,-219 220,-207"/>
<path fill="#ffffff" stroke="#ffffff" stroke-width="1.5" d="M302,-207C308,-207 314,-213 314,-219"/>
<path fill="#ffffff" stroke="#ffffff" stroke-width="1.5" d="M314,-231C314,-237 308,-243 302,-243"/>
<path fill="#ffffff" stroke="#ffffff" stroke-width="1.5" d="M220,-243C214,-243 208,-237 208,-231"/>
<path fill="#ffffff" stroke="#ffffff" stroke-width="1.5" d="M208,-219C208,-213 214,-207 220,-207"/>
<polyline fill="none" stroke="#2e3436" stroke-width="1.5" points="220,-207 302,-207 "/>
<path fill="none" stroke="#2e3436" stroke-width="1.5" d="M302,-207C308,-207 314,-213 314,-219"/>
<polyline fill="none" stroke="#2e3436" stroke-width="1.5" points="314,-219 314,-231 "/>
<path fill="none" stroke="#2e3436" stroke-width="1.5" d="M314,-231C314,-237 308,-243 302,-243"/>
<polyline fill="none" stroke="#2e3436" stroke-width="1.5" points="302,-243 220,-243 "/>
<path fill="none" stroke="#2e3436" stroke-width="1.5" d="M220,-243C214,-243 208,-237 208,-231"/>
<polyline fill="none" stroke="#2e3436" stroke-width="1.5" points="208,-231 208,-219 "/>
<path fill="none" stroke="#2e3436" stroke-width="1.5" d="M208,-219C208,-213 214,-207 220,-207"/>
<text text-anchor="start" x="216" y="-222.8" font-family="FreeSans" font-size="8.00" fill="#1c2021">Node[213]name = &#39;c&#39;</text>
</g>
<!-- N213&#45;&gt;N210 -->
<g id="edge8" class="edge"><title>N213&#45;&gt;N210</title>
<path fill="none" stroke="#2e3436" stroke-width="2" d="M261.826,-206.505C262.652,-187.994 263.93,-159.364 264.854,-138.66"/>
<polygon fill="#2e3436" stroke="#2e3436" points="265.19,-131.15 268.227,-138.793 265.522,-134.919 265.355,-138.665 264.855,-138.643 264.356,-138.621 264.523,-134.874 261.483,-138.492 265.19,-131.15 265.19,-131.15"/>
<text text-anchor="middle" x="282.5" y="-171.8" font-family="FreeSans" font-size="8.00" fill="#2e3436">to</text>
<text text-anchor="start" x="264" y="-161.8" font-family="FreeSans" font-size="8.00" fill="#2e3436">cost = 1</text>
</g>
<!-- N214 -->
<g id="node10" class="node"><title>N214</title>
<polygon fill="#ffffff" stroke="#ffffff" stroke-width="1.5" points="120.5,-301 203.5,-301 215.5,-313 215.5,-325 203.5,-337 120.5,-337 108.5,-325 108.5,-313 120.5,-301"/>
<path fill="#ffffff" stroke="#ffffff" stroke-width="1.5" d="M203.5,-301C209.5,-301 215.5,-307 215.5,-313"/>
<path fill="#ffffff" stroke="#ffffff" stroke-width="1.5" d="M215.5,-325C215.5,-331 209.5,-337 203.5,-337"/>
<path fill="#ffffff" stroke="#ffffff" stroke-width="1.5" d="M120.5,-337C114.5,-337 108.5,-331 108.5,-325"/>
<path fill="#ffffff" stroke="#ffffff" stroke-width="1.5" d="M108.5,-313C108.5,-307 114.5,-301 120.5,-301"/>
<polyline fill="none" stroke="#2e3436" stroke-width="1.5" points="120.5,-301 203.5,-301 "/>
<path fill="none" stroke="#2e3436" stroke-width="1.5" d="M203.5,-301C209.5,-301 215.5,-307 215.5,-313"/>
<polyline fill="none" stroke="#2e3436" stroke-width="1.5" points="215.5,-313 215.5,-325 "/>
<path fill="none" stroke="#2e3436" stroke-width="1.5" d="M215.5,-325C215.5,-331 209.5,-337 203.5,-337"/>
<polyline fill="none" stroke="#2e3436" stroke-width="1.5" points="203.5,-337 120.5,-337 "/>
<path fill="none" stroke="#2e3436" stroke-width="1.5" d="M120.5,-337C114.5,-337 108.5,-331 108.5,-325"/>
<polyline fill="none" stroke="#2e3436" stroke-width="1.5" points="108.5,-325 108.5,-313 "/>
<path fill="none" stroke="#2e3436" stroke-width="1.5" d="M108.5,-313C108.5,-307 114.5,-301 120.5,-301"/>
<text text-anchor="start" x="116.5" y="-316.8" font-family="FreeSans" font-size="8.00" fill="#1c2021">Node[214]name = &#39;a&#39;</text>
</g>
<!-- N214&#45;&gt;N209 -->
<g id="edge14" class="edge"><title>N214&#45;&gt;N209</title>
<path fill="none" stroke="#2e3436" stroke-width="2" d="M137.335,-300.789C130.627,-295.188 123.659,-288.717 118,-282 94.9176,-254.602 75.2298,-218.083 63.5125,-194.074"/>
<polygon fill="#2e3436" stroke="#2e3436" points="60.137,-187.049 66.4272,-192.347 62.2117,-190.212 63.8358,-193.592 63.3851,-193.809 62.9344,-194.025 61.3104,-190.645 60.343,-195.27 60.137,-187.049 60.137,-187.049"/>
<text text-anchor="middle" x="136.5" y="-274.8" font-family="FreeSans" font-size="8.00" fill="#2e3436">to</text>
<text text-anchor="start" x="118" y="-264.8" font-family="FreeSans" font-size="8.00" fill="#2e3436">cost = 1</text>
</g>
<!-- N214&#45;&gt;N212 -->
<g id="edge10" class="edge"><title>N214&#45;&gt;N212</title>
<path fill="none" stroke="#2e3436" stroke-width="2" d="M162,-300.906C162,-274.441 162,-225.041 162,-194.781"/>
<polygon fill="#2e3436" stroke="#2e3436" points="162,-187.158 165.375,-194.658 162.5,-190.908 162.5,-194.658 162,-194.658 161.5,-194.658 161.5,-190.908 158.625,-194.658 162,-187.158 162,-187.158"/>
<text text-anchor="middle" x="180.5" y="-274.8" font-family="FreeSans" font-size="8.00" fill="#2e3436">to</text>
<text text-anchor="start" x="162" y="-264.8" font-family="FreeSans" font-size="8.00" fill="#2e3436">cost = 1</text>
</g>
<!-- N214&#45;&gt;N213 -->
<g id="edge12" class="edge"><title>N214&#45;&gt;N213</title>
<path fill="none" stroke="#2e3436" stroke-width="2" d="M184.322,-300.995C191.389,-295.093 199.143,-288.403 206,-282 217.278,-271.467 229.237,-259.216 239.113,-248.777"/>
<polygon fill="#2e3436" stroke="#2e3436" points="244.368,-243.186 241.691,-250.962 242.164,-246.261 239.596,-248.993 239.231,-248.651 238.867,-248.308 241.435,-245.576 236.772,-246.339 244.368,-243.186 244.368,-243.186"/>
<text text-anchor="middle" x="244.5" y="-274.8" font-family="FreeSans" font-size="8.00" fill="#2e3436">to</text>
<text text-anchor="start" x="226" y="-264.8" font-family="FreeSans" font-size="8.00" fill="#2e3436">cost = 1</text>
</g>
</g>
</svg>
