<?xml version="1.0" encoding="UTF-8" standalone="no"?>
<!DOCTYPE svg PUBLIC "-//W3C//DTD SVG 1.1//EN"
 "http://www.w3.org/Graphics/SVG/1.1/DTD/svg11.dtd">
<!-- Generated by graphviz version 2.26.3 (20100126.1600)
 -->
<!-- Title: g Pages: 1 -->
<svg width="125pt" height="140pt"
 viewBox="0.00 0.00 125.00 140.00" xmlns="http://www.w3.org/2000/svg" xmlns:xlink="http://www.w3.org/1999/xlink">
<g id="graph1" class="graph" transform="scale(1 1) rotate(0) translate(4 136)">
<title>g</title>
<polygon fill="white" stroke="white" points="-4,5 -4,-136 122,-136 122,5 -4,5"/>
<!-- N23 -->
<g id="node1" class="node"><title>N23</title>
<polygon fill="#ffffff" stroke="#ffffff" stroke-width="1.5" points="12,-95 100,-95 112,-107 112,-119 100,-131 12,-131 0,-119 0,-107 12,-95"/>
<path fill="#ffffff" stroke="#ffffff" stroke-width="1.5" d="M100,-95C106,-95 112,-101 112,-107"/>
<path fill="#ffffff" stroke="#ffffff" stroke-width="1.5" d="M112,-119C112,-125 106,-131 100,-131"/>
<path fill="#ffffff" stroke="#ffffff" stroke-width="1.5" d="M12,-131C6,-131 0,-125 0,-119"/>
<path fill="#ffffff" stroke="#ffffff" stroke-width="1.5" d="M0,-107C0,-101 6,-95 12,-95"/>
<polyline fill="none" stroke="#2e3436" stroke-width="1.5" points="12,-95 100,-95 "/>
<path fill="none" stroke="#2e3436" stroke-width="1.5" d="M100,-95C106,-95 112,-101 112,-107"/>
<polyline fill="none" stroke="#2e3436" stroke-width="1.5" points="112,-107 112,-119 "/>
<path fill="none" stroke="#2e3436" stroke-width="1.5" d="M112,-119C112,-125 106,-131 100,-131"/>
<polyline fill="none" stroke="#2e3436" stroke-width="1.5" points="100,-131 12,-131 "/>
<path fill="none" stroke="#2e3436" stroke-width="1.5" d="M12,-131C6,-131 0,-125 0,-119"/>
<polyline fill="none" stroke="#2e3436" stroke-width="1.5" points="0,-119 0,-107 "/>
<path fill="none" stroke="#2e3436" stroke-width="1.5" d="M0,-107C0,-101 6,-95 12,-95"/>
<text text-anchor="start" x="8" y="-110.8" font-family="FreeSans" font-size="8.00" fill="#1c2021">Node[23]name = &#39;bob&#39;</text>
</g>
<!-- N24 -->
<g id="node3" class="node"><title>N24</title>
<polygon fill="#ffffff" stroke="#ffffff" stroke-width="1.5" points="21,-1 91,-1 103,-13 103,-25 91,-37 21,-37 9,-25 9,-13 21,-1"/>
<path fill="#ffffff" stroke="#ffffff" stroke-width="1.5" d="M91,-1C97,-1 103,-7 103,-13"/>
<path fill="#ffffff" stroke="#ffffff" stroke-width="1.5" d="M103,-25C103,-31 97,-37 91,-37"/>
<path fill="#ffffff" stroke="#ffffff" stroke-width="1.5" d="M21,-37C15,-37 9,-31 9,-25"/>
<path fill="#ffffff" stroke="#ffffff" stroke-width="1.5" d="M9,-13C9,-7 15,-1 21,-1"/>
<polyline fill="none" stroke="#2e3436" stroke-width="1.5" points="21,-1 91,-1 "/>
<path fill="none" stroke="#2e3436" stroke-width="1.5" d="M91,-1C97,-1 103,-7 103,-13"/>
<polyline fill="none" stroke="#2e3436" stroke-width="1.5" points="103,-13 103,-25 "/>
<path fill="none" stroke="#2e3436" stroke-width="1.5" d="M103,-25C103,-31 97,-37 91,-37"/>
<polyline fill="none" stroke="#2e3436" stroke-width="1.5" points="91,-37 21,-37 "/>
<path fill="none" stroke="#2e3436" stroke-width="1.5" d="M21,-37C15,-37 9,-31 9,-25"/>
<polyline fill="none" stroke="#2e3436" stroke-width="1.5" points="9,-25 9,-13 "/>
<path fill="none" stroke="#2e3436" stroke-width="1.5" d="M9,-13C9,-7 15,-1 21,-1"/>
<text text-anchor="start" x="17" y="-16.8" font-family="FreeSans" font-size="8.00" fill="#1c2021">Node[24]age = 12</text>
</g>
<!-- N23&#45;&gt;N24 -->
<g id="edge2" class="edge"><title>N23&#45;&gt;N24</title>
<path fill="none" stroke="#2e3436" stroke-width="2" d="M56,-94.8759C56,-80.7014 56,-60.806 56,-44.944"/>
<polygon fill="#2e3436" stroke="#2e3436" points="56,-37.0685 59.3751,-44.5685 56.5,-40.8185 56.5001,-44.5685 56.0001,-44.5685 55.5001,-44.5685 55.5,-40.8185 52.6251,-44.5685 56,-37.0685 56,-37.0685"/>
<text text-anchor="middle" x="86.5" y="-68.8" font-family="FreeSans" font-size="8.00" fill="#2e3436">KNOWS</text>
<text text-anchor="start" x="56" y="-58.8" font-family="FreeSans" font-size="8.00" fill="#2e3436">since = &#39;2010&#39;</text>
</g>
</g>
</svg>
