<?xml version="1.0" encoding="UTF-8" standalone="no"?>
<!DOCTYPE svg PUBLIC "-//W3C//DTD SVG 1.1//EN"
 "http://www.w3.org/Graphics/SVG/1.1/DTD/svg11.dtd">
<!-- Generated by graphviz version 2.26.3 (20100126.1600)
 -->
<!-- Title: g Pages: 1 -->
<svg width="138pt" height="150pt"
 viewBox="0.00 0.00 138.00 150.00" xmlns="http://www.w3.org/2000/svg" xmlns:xlink="http://www.w3.org/1999/xlink">
<g id="graph1" class="graph" transform="scale(1 1) rotate(0) translate(4 146)">
<title>g</title>
<polygon fill="white" stroke="white" points="-4,5 -4,-146 135,-146 135,5 -4,5"/>
<!-- N130 -->
<g id="node1" class="node"><title>N130</title>
<polygon fill="#ffffff" stroke="#ffffff" stroke-width="1.5" points="16,-1 114,-1 126,-13 126,-25 114,-37 16,-37 4,-25 4,-13 16,-1"/>
<path fill="#ffffff" stroke="#ffffff" stroke-width="1.5" d="M114,-1C120,-1 126,-7 126,-13"/>
<path fill="#ffffff" stroke="#ffffff" stroke-width="1.5" d="M126,-25C126,-31 120,-37 114,-37"/>
<path fill="#ffffff" stroke="#ffffff" stroke-width="1.5" d="M16,-37C10,-37 4,-31 4,-25"/>
<path fill="#ffffff" stroke="#ffffff" stroke-width="1.5" d="M4,-13C4,-7 10,-1 16,-1"/>
<polyline fill="none" stroke="#2e3436" stroke-width="1.5" points="16,-1 114,-1 "/>
<path fill="none" stroke="#2e3436" stroke-width="1.5" d="M114,-1C120,-1 126,-7 126,-13"/>
<polyline fill="none" stroke="#2e3436" stroke-width="1.5" points="126,-13 126,-25 "/>
<path fill="none" stroke="#2e3436" stroke-width="1.5" d="M126,-25C126,-31 120,-37 114,-37"/>
<polyline fill="none" stroke="#2e3436" stroke-width="1.5" points="114,-37 16,-37 "/>
<path fill="none" stroke="#2e3436" stroke-width="1.5" d="M16,-37C10,-37 4,-31 4,-25"/>
<polyline fill="none" stroke="#2e3436" stroke-width="1.5" points="4,-25 4,-13 "/>
<path fill="none" stroke="#2e3436" stroke-width="1.5" d="M4,-13C4,-7 10,-1 16,-1"/>
<text text-anchor="start" x="12" y="-16.8" font-family="FreeSans" font-size="8.00" fill="#1c2021">Node[130]name = &#39;Juliet&#39;</text>
</g>
<!-- N131 -->
<g id="node2" class="node"><title>N131</title>
<polygon fill="#ffffff" stroke="#ffffff" stroke-width="1.5" points="11.5,-105 118.5,-105 130.5,-117 130.5,-129 118.5,-141 11.5,-141 -0.5,-129 -0.5,-117 11.5,-105"/>
<path fill="#ffffff" stroke="#ffffff" stroke-width="1.5" d="M118.5,-105C124.5,-105 130.5,-111 130.5,-117"/>
<path fill="#ffffff" stroke="#ffffff" stroke-width="1.5" d="M130.5,-129C130.5,-135 124.5,-141 118.5,-141"/>
<path fill="#ffffff" stroke="#ffffff" stroke-width="1.5" d="M11.5,-141C5.5,-141 -0.5,-135 -0.5,-129"/>
<path fill="#ffffff" stroke="#ffffff" stroke-width="1.5" d="M-0.5,-117C-0.5,-111 5.5,-105 11.5,-105"/>
<polyline fill="none" stroke="#2e3436" stroke-width="1.5" points="11.5,-105 118.5,-105 "/>
<path fill="none" stroke="#2e3436" stroke-width="1.5" d="M118.5,-105C124.5,-105 130.5,-111 130.5,-117"/>
<polyline fill="none" stroke="#2e3436" stroke-width="1.5" points="130.5,-117 130.5,-129 "/>
<path fill="none" stroke="#2e3436" stroke-width="1.5" d="M130.5,-129C130.5,-135 124.5,-141 118.5,-141"/>
<polyline fill="none" stroke="#2e3436" stroke-width="1.5" points="118.5,-141 11.5,-141 "/>
<path fill="none" stroke="#2e3436" stroke-width="1.5" d="M11.5,-141C5.5,-141 -0.5,-135 -0.5,-129"/>
<polyline fill="none" stroke="#2e3436" stroke-width="1.5" points="-0.5,-129 -0.5,-117 "/>
<path fill="none" stroke="#2e3436" stroke-width="1.5" d="M-0.5,-117C-0.5,-111 5.5,-105 11.5,-105"/>
<text text-anchor="start" x="7.5" y="-120.8" font-family="FreeSans" font-size="8.00" fill="#1c2021">Node[131]name = &#39;Romeo&#39;</text>
</g>
<!-- N131&#45;&gt;N130 -->
<g id="edge2" class="edge"><title>N131&#45;&gt;N130</title>
<path fill="none" stroke="#2e3436" stroke-width="2" d="M65,-104.885C65,-88.284 65,-63.5228 65,-44.8467"/>
<polygon fill="#2e3436" stroke="#2e3436" points="65,-37.2568 68.3751,-44.7567 65.5,-41.0068 65.5001,-44.7568 65.0001,-44.7568 64.5001,-44.7568 64.5,-41.0068 61.6251,-44.7568 65,-37.2568 65,-37.2568"/>
<text text-anchor="middle" x="95.5" y="-78.8" font-family="FreeSans" font-size="8.00" fill="#2e3436">LOVES</text>
<text text-anchor="start" x="65" y="-68.8" font-family="FreeSans" font-size="8.00" fill="#2e3436">since = &#39;1day&#39;</text>
<text text-anchor="start" x="65" y="-58.8" font-family="FreeSans" font-size="8.00" fill="#2e3436">cost = &#39;high&#39;</text>
</g>
</g>
</svg>
