<?xml version="1.0" encoding="UTF-8" standalone="no"?>
<!DOCTYPE svg PUBLIC "-//W3C//DTD SVG 1.1//EN"
 "http://www.w3.org/Graphics/SVG/1.1/DTD/svg11.dtd">
<!-- Generated by graphviz version 2.26.3 (20100126.1600)
 -->
<!-- Title: g Pages: 1 -->
<svg width="343pt" height="130pt"
 viewBox="0.00 0.00 343.00 130.00" xmlns="http://www.w3.org/2000/svg" xmlns:xlink="http://www.w3.org/1999/xlink">
<g id="graph1" class="graph" transform="scale(1 1) rotate(0) translate(4 126)">
<title>g</title>
<polygon fill="white" stroke="white" points="-4,5 -4,-126 340,-126 340,5 -4,5"/>
<!-- N30 -->
<g id="node1" class="node"><title>N30</title>
<polygon fill="#ffffff" stroke="#ffffff" stroke-width="1.5" points="12,-1 102,-1 114,-13 114,-25 102,-37 12,-37 0,-25 0,-13 12,-1"/>
<path fill="#ffffff" stroke="#ffffff" stroke-width="1.5" d="M102,-1C108,-1 114,-7 114,-13"/>
<path fill="#ffffff" stroke="#ffffff" stroke-width="1.5" d="M114,-25C114,-31 108,-37 102,-37"/>
<path fill="#ffffff" stroke="#ffffff" stroke-width="1.5" d="M12,-37C6,-37 0,-31 0,-25"/>
<path fill="#ffffff" stroke="#ffffff" stroke-width="1.5" d="M0,-13C0,-7 6,-1 12,-1"/>
<polyline fill="none" stroke="#2e3436" stroke-width="1.5" points="12,-1 102,-1 "/>
<path fill="none" stroke="#2e3436" stroke-width="1.5" d="M102,-1C108,-1 114,-7 114,-13"/>
<polyline fill="none" stroke="#2e3436" stroke-width="1.5" points="114,-13 114,-25 "/>
<path fill="none" stroke="#2e3436" stroke-width="1.5" d="M114,-25C114,-31 108,-37 102,-37"/>
<polyline fill="none" stroke="#2e3436" stroke-width="1.5" points="102,-37 12,-37 "/>
<path fill="none" stroke="#2e3436" stroke-width="1.5" d="M12,-37C6,-37 0,-31 0,-25"/>
<polyline fill="none" stroke="#2e3436" stroke-width="1.5" points="0,-25 0,-13 "/>
<path fill="none" stroke="#2e3436" stroke-width="1.5" d="M0,-13C0,-7 6,-1 12,-1"/>
<text text-anchor="start" x="8" y="-16.8" font-family="FreeSans" font-size="8.00" fill="#1c2021">Node[30]name = &#39;John&#39;</text>
</g>
<!-- N31 -->
<g id="node2" class="node"><title>N31</title>
<polygon fill="#ffffff" stroke="#ffffff" stroke-width="1.5" points="24.5,-85 89.5,-85 101.5,-97 101.5,-109 89.5,-121 24.5,-121 12.5,-109 12.5,-97 24.5,-85"/>
<path fill="#ffffff" stroke="#ffffff" stroke-width="1.5" d="M89.5,-85C95.5,-85 101.5,-91 101.5,-97"/>
<path fill="#ffffff" stroke="#ffffff" stroke-width="1.5" d="M101.5,-109C101.5,-115 95.5,-121 89.5,-121"/>
<path fill="#ffffff" stroke="#ffffff" stroke-width="1.5" d="M24.5,-121C18.5,-121 12.5,-115 12.5,-109"/>
<path fill="#ffffff" stroke="#ffffff" stroke-width="1.5" d="M12.5,-97C12.5,-91 18.5,-85 24.5,-85"/>
<polyline fill="none" stroke="#2e3436" stroke-width="1.5" points="24.5,-85 89.5,-85 "/>
<path fill="none" stroke="#2e3436" stroke-width="1.5" d="M89.5,-85C95.5,-85 101.5,-91 101.5,-97"/>
<polyline fill="none" stroke="#2e3436" stroke-width="1.5" points="101.5,-97 101.5,-109 "/>
<path fill="none" stroke="#2e3436" stroke-width="1.5" d="M101.5,-109C101.5,-115 95.5,-121 89.5,-121"/>
<polyline fill="none" stroke="#2e3436" stroke-width="1.5" points="89.5,-121 24.5,-121 "/>
<path fill="none" stroke="#2e3436" stroke-width="1.5" d="M24.5,-121C18.5,-121 12.5,-115 12.5,-109"/>
<polyline fill="none" stroke="#2e3436" stroke-width="1.5" points="12.5,-109 12.5,-97 "/>
<path fill="none" stroke="#2e3436" stroke-width="1.5" d="M12.5,-97C12.5,-91 18.5,-85 24.5,-85"/>
<text text-anchor="start" x="20.5" y="-100.8" font-family="FreeSans" font-size="8.00" fill="#1c2021">Node[31]age = 1</text>
</g>
<!-- N31&#45;&gt;N30 -->
<g id="edge2" class="edge"><title>N31&#45;&gt;N30</title>
<path fill="none" stroke="#2e3436" stroke-width="2" d="M57,-84.7733C57,-73.1053 57,-57.7874 57,-44.8699"/>
<polygon fill="#2e3436" stroke="#2e3436" points="57,-37.1912 60.3751,-44.6911 57.5,-40.9412 57.5001,-44.6912 57.0001,-44.6912 56.5001,-44.6912 56.5,-40.9412 53.6251,-44.6912 57,-37.1912 57,-37.1912"/>
<text text-anchor="middle" x="71" y="-58.8" font-family="FreeSans" font-size="8.00" fill="#2e3436">knows</text>
</g>
<!-- N32 -->
<g id="node4" class="node"><title>N32</title>
<polygon fill="#ffffff" stroke="#ffffff" stroke-width="1.5" points="141.5,-85 206.5,-85 218.5,-97 218.5,-109 206.5,-121 141.5,-121 129.5,-109 129.5,-97 141.5,-85"/>
<path fill="#ffffff" stroke="#ffffff" stroke-width="1.5" d="M206.5,-85C212.5,-85 218.5,-91 218.5,-97"/>
<path fill="#ffffff" stroke="#ffffff" stroke-width="1.5" d="M218.5,-109C218.5,-115 212.5,-121 206.5,-121"/>
<path fill="#ffffff" stroke="#ffffff" stroke-width="1.5" d="M141.5,-121C135.5,-121 129.5,-115 129.5,-109"/>
<path fill="#ffffff" stroke="#ffffff" stroke-width="1.5" d="M129.5,-97C129.5,-91 135.5,-85 141.5,-85"/>
<polyline fill="none" stroke="#2e3436" stroke-width="1.5" points="141.5,-85 206.5,-85 "/>
<path fill="none" stroke="#2e3436" stroke-width="1.5" d="M206.5,-85C212.5,-85 218.5,-91 218.5,-97"/>
<polyline fill="none" stroke="#2e3436" stroke-width="1.5" points="218.5,-97 218.5,-109 "/>
<path fill="none" stroke="#2e3436" stroke-width="1.5" d="M218.5,-109C218.5,-115 212.5,-121 206.5,-121"/>
<polyline fill="none" stroke="#2e3436" stroke-width="1.5" points="206.5,-121 141.5,-121 "/>
<path fill="none" stroke="#2e3436" stroke-width="1.5" d="M141.5,-121C135.5,-121 129.5,-115 129.5,-109"/>
<polyline fill="none" stroke="#2e3436" stroke-width="1.5" points="129.5,-109 129.5,-97 "/>
<path fill="none" stroke="#2e3436" stroke-width="1.5" d="M129.5,-97C129.5,-91 135.5,-85 141.5,-85"/>
<text text-anchor="start" x="137.5" y="-100.8" font-family="FreeSans" font-size="8.00" fill="#1c2021">Node[32]age = 1</text>
</g>
<!-- N33 -->
<g id="node5" class="node"><title>N33</title>
<polygon fill="#ffffff" stroke="#ffffff" stroke-width="1.5" points="258.5,-85 323.5,-85 335.5,-97 335.5,-109 323.5,-121 258.5,-121 246.5,-109 246.5,-97 258.5,-85"/>
<path fill="#ffffff" stroke="#ffffff" stroke-width="1.5" d="M323.5,-85C329.5,-85 335.5,-91 335.5,-97"/>
<path fill="#ffffff" stroke="#ffffff" stroke-width="1.5" d="M335.5,-109C335.5,-115 329.5,-121 323.5,-121"/>
<path fill="#ffffff" stroke="#ffffff" stroke-width="1.5" d="M258.5,-121C252.5,-121 246.5,-115 246.5,-109"/>
<path fill="#ffffff" stroke="#ffffff" stroke-width="1.5" d="M246.5,-97C246.5,-91 252.5,-85 258.5,-85"/>
<polyline fill="none" stroke="#2e3436" stroke-width="1.5" points="258.5,-85 323.5,-85 "/>
<path fill="none" stroke="#2e3436" stroke-width="1.5" d="M323.5,-85C329.5,-85 335.5,-91 335.5,-97"/>
<polyline fill="none" stroke="#2e3436" stroke-width="1.5" points="335.5,-97 335.5,-109 "/>
<path fill="none" stroke="#2e3436" stroke-width="1.5" d="M335.5,-109C335.5,-115 329.5,-121 323.5,-121"/>
<polyline fill="none" stroke="#2e3436" stroke-width="1.5" points="323.5,-121 258.5,-121 "/>
<path fill="none" stroke="#2e3436" stroke-width="1.5" d="M258.5,-121C252.5,-121 246.5,-115 246.5,-109"/>
<polyline fill="none" stroke="#2e3436" stroke-width="1.5" points="246.5,-109 246.5,-97 "/>
<path fill="none" stroke="#2e3436" stroke-width="1.5" d="M246.5,-97C246.5,-91 252.5,-85 258.5,-85"/>
<text text-anchor="start" x="254.5" y="-100.8" font-family="FreeSans" font-size="8.00" fill="#1c2021">Node[33]age = 1</text>
</g>
</g>
</svg>
