<?xml version="1.0" encoding="UTF-8" standalone="no"?>
<!DOCTYPE svg PUBLIC "-//W3C//DTD SVG 1.1//EN"
 "http://www.w3.org/Graphics/SVG/1.1/DTD/svg11.dtd">
<!-- Generated by graphviz version 2.26.3 (20100126.1600)
 -->
<!-- Title: g Pages: 1 -->
<svg width="98pt" height="46pt"
 viewBox="0.00 0.00 98.00 46.00" xmlns="http://www.w3.org/2000/svg" xmlns:xlink="http://www.w3.org/1999/xlink">
<g id="graph1" class="graph" transform="scale(1 1) rotate(0) translate(4 42)">
<title>g</title>
<polygon fill="white" stroke="white" points="-4,5 -4,-42 95,-42 95,5 -4,5"/>
<!-- N47 -->
<g id="node1" class="node"><title>N47</title>
<polygon fill="#ffffff" stroke="#ffffff" stroke-width="1.5" points="11.5,-1 78.5,-1 90.5,-13 90.5,-25 78.5,-37 11.5,-37 -0.5,-25 -0.5,-13 11.5,-1"/>
<path fill="#ffffff" stroke="#ffffff" stroke-width="1.5" d="M78.5,-1C84.5,-1 90.5,-7 90.5,-13"/>
<path fill="#ffffff" stroke="#ffffff" stroke-width="1.5" d="M90.5,-25C90.5,-31 84.5,-37 78.5,-37"/>
<path fill="#ffffff" stroke="#ffffff" stroke-width="1.5" d="M11.5,-37C5.5,-37 -0.5,-31 -0.5,-25"/>
<path fill="#ffffff" stroke="#ffffff" stroke-width="1.5" d="M-0.5,-13C-0.5,-7 5.5,-1 11.5,-1"/>
<polyline fill="none" stroke="#2e3436" stroke-width="1.5" points="11.5,-1 78.5,-1 "/>
<path fill="none" stroke="#2e3436" stroke-width="1.5" d="M78.5,-1C84.5,-1 90.5,-7 90.5,-13"/>
<polyline fill="none" stroke="#2e3436" stroke-width="1.5" points="90.5,-13 90.5,-25 "/>
<path fill="none" stroke="#2e3436" stroke-width="1.5" d="M90.5,-25C90.5,-31 84.5,-37 78.5,-37"/>
<polyline fill="none" stroke="#2e3436" stroke-width="1.5" points="78.5,-37 11.5,-37 "/>
<path fill="none" stroke="#2e3436" stroke-width="1.5" d="M11.5,-37C5.5,-37 -0.5,-31 -0.5,-25"/>
<polyline fill="none" stroke="#2e3436" stroke-width="1.5" points="-0.5,-25 -0.5,-13 "/>
<path fill="none" stroke="#2e3436" stroke-width="1.5" d="M-0.5,-13C-0.5,-7 5.5,-1 11.5,-1"/>
<text text-anchor="middle" x="45" y="-25.8" font-family="FreeSans" font-size="8.00" fill="#1c2021">Node[47]: Person</text>
<polyline fill="none" stroke="#2e3436" stroke-width="1.5" points="-0.5,-19 90.5,-19 "/>
<text text-anchor="start" x="7.5" y="-7.8" font-family="FreeSans" font-size="8.00" fill="#1c2021">name = &#39;Andres&#39;</text>
</g>
</g>
</svg>
