<?xml version="1.0" encoding="UTF-8" standalone="no"?>
<!DOCTYPE svg PUBLIC "-//W3C//DTD SVG 1.1//EN"
 "http://www.w3.org/Graphics/SVG/1.1/DTD/svg11.dtd">
<!-- Generated by graphviz version 2.26.3 (20100126.1600)
 -->
<!-- Title: g Pages: 1 -->
<svg width="118pt" height="130pt"
 viewBox="0.00 0.00 118.00 130.00" xmlns="http://www.w3.org/2000/svg" xmlns:xlink="http://www.w3.org/1999/xlink">
<g id="graph1" class="graph" transform="scale(1 1) rotate(0) translate(4 126)">
<title>g</title>
<polygon fill="white" stroke="white" points="-4,5 -4,-126 115,-126 115,5 -4,5"/>
<!-- N0 -->
<g id="node1" class="node"><title>N0</title>
<polygon fill="#ffffff" stroke="#ffffff" stroke-width="1.5" points="11.5,-1 98.5,-1 110.5,-13 110.5,-25 98.5,-37 11.5,-37 -0.5,-25 -0.5,-13 11.5,-1"/>
<path fill="#ffffff" stroke="#ffffff" stroke-width="1.5" d="M98.5,-1C104.5,-1 110.5,-7 110.5,-13"/>
<path fill="#ffffff" stroke="#ffffff" stroke-width="1.5" d="M110.5,-25C110.5,-31 104.5,-37 98.5,-37"/>
<path fill="#ffffff" stroke="#ffffff" stroke-width="1.5" d="M11.5,-37C5.5,-37 -0.5,-31 -0.5,-25"/>
<path fill="#ffffff" stroke="#ffffff" stroke-width="1.5" d="M-0.5,-13C-0.5,-7 5.5,-1 11.5,-1"/>
<polyline fill="none" stroke="#2e3436" stroke-width="1.5" points="11.5,-1 98.5,-1 "/>
<path fill="none" stroke="#2e3436" stroke-width="1.5" d="M98.5,-1C104.5,-1 110.5,-7 110.5,-13"/>
<polyline fill="none" stroke="#2e3436" stroke-width="1.5" points="110.5,-13 110.5,-25 "/>
<path fill="none" stroke="#2e3436" stroke-width="1.5" d="M110.5,-25C110.5,-31 104.5,-37 98.5,-37"/>
<polyline fill="none" stroke="#2e3436" stroke-width="1.5" points="98.5,-37 11.5,-37 "/>
<path fill="none" stroke="#2e3436" stroke-width="1.5" d="M11.5,-37C5.5,-37 -0.5,-31 -0.5,-25"/>
<polyline fill="none" stroke="#2e3436" stroke-width="1.5" points="-0.5,-25 -0.5,-13 "/>
<path fill="none" stroke="#2e3436" stroke-width="1.5" d="M-0.5,-13C-0.5,-7 5.5,-1 11.5,-1"/>
<text text-anchor="start" x="7.5" y="-16.8" font-family="FreeSans" font-size="8.00" fill="#1c2021">Node[0]name = &#39;Sara&#39;</text>
</g>
<!-- N1 -->
<g id="node2" class="node"><title>N1</title>
<polygon fill="#ffffff" stroke="#ffffff" stroke-width="1.5" points="15,-85 95,-85 107,-97 107,-109 95,-121 15,-121 3,-109 3,-97 15,-85"/>
<path fill="#ffffff" stroke="#ffffff" stroke-width="1.5" d="M95,-85C101,-85 107,-91 107,-97"/>
<path fill="#ffffff" stroke="#ffffff" stroke-width="1.5" d="M107,-109C107,-115 101,-121 95,-121"/>
<path fill="#ffffff" stroke="#ffffff" stroke-width="1.5" d="M15,-121C9,-121 3,-115 3,-109"/>
<path fill="#ffffff" stroke="#ffffff" stroke-width="1.5" d="M3,-97C3,-91 9,-85 15,-85"/>
<polyline fill="none" stroke="#2e3436" stroke-width="1.5" points="15,-85 95,-85 "/>
<path fill="none" stroke="#2e3436" stroke-width="1.5" d="M95,-85C101,-85 107,-91 107,-97"/>
<polyline fill="none" stroke="#2e3436" stroke-width="1.5" points="107,-97 107,-109 "/>
<path fill="none" stroke="#2e3436" stroke-width="1.5" d="M107,-109C107,-115 101,-121 95,-121"/>
<polyline fill="none" stroke="#2e3436" stroke-width="1.5" points="95,-121 15,-121 "/>
<path fill="none" stroke="#2e3436" stroke-width="1.5" d="M15,-121C9,-121 3,-115 3,-109"/>
<polyline fill="none" stroke="#2e3436" stroke-width="1.5" points="3,-109 3,-97 "/>
<path fill="none" stroke="#2e3436" stroke-width="1.5" d="M3,-97C3,-91 9,-85 15,-85"/>
<text text-anchor="start" x="11" y="-100.8" font-family="FreeSans" font-size="8.00" fill="#1c2021">Node[1]name = &#39;Joe&#39;</text>
</g>
<!-- N1&#45;&gt;N0 -->
<g id="edge2" class="edge"><title>N1&#45;&gt;N0</title>
<path fill="none" stroke="#2e3436" stroke-width="2" d="M34.1582,-84.8719C29.2257,-79.3621 24.6364,-72.9169 22,-66 19.0094,-58.1539 21.558,-50.3835 26.3249,-43.4882"/>
<polygon fill="#2e3436" stroke="#2e3436" points="31.231,-37.4247 29.1371,-45.3781 29.2609,-40.6544 26.9021,-43.5697 26.5134,-43.2552 26.1247,-42.9406 28.4835,-40.0254 23.8897,-41.1322 31.231,-37.4247 31.231,-37.4247"/>
<text text-anchor="middle" x="36" y="-58.8" font-family="FreeSans" font-size="8.00" fill="#2e3436">knows</text>
</g>
<!-- N1&#45;&gt;N0 -->
<g id="edge4" class="edge"><title>N1&#45;&gt;N0</title>
<path fill="none" stroke="#4e9a06" stroke-width="2" d="M55,-84.7733C55,-73.1053 55,-57.7874 55,-44.8699"/>
<polygon fill="#4e9a06" stroke="#4e9a06" points="55,-37.1912 58.3751,-44.6911 55.5,-40.9412 55.5001,-44.6912 55.0001,-44.6912 54.5001,-44.6912 54.5,-40.9412 51.6251,-44.6912 55,-37.1912 55,-37.1912"/>
<text text-anchor="middle" x="69" y="-58.8" font-family="FreeSans" font-size="8.00" fill="#4e9a06">LOVES</text>
</g>
</g>
</svg>
