<?xml version="1.0" encoding="UTF-8" standalone="no"?>
<!DOCTYPE svg PUBLIC "-//W3C//DTD SVG 1.1//EN"
 "http://www.w3.org/Graphics/SVG/1.1/DTD/svg11.dtd">
<!-- Generated by graphviz version 2.26.3 (20100126.1600)
 -->
<!-- Title: g Pages: 1 -->
<svg width="124pt" height="140pt"
 viewBox="0.00 0.00 124.00 140.00" xmlns="http://www.w3.org/2000/svg" xmlns:xlink="http://www.w3.org/1999/xlink">
<g id="graph1" class="graph" transform="scale(1 1) rotate(0) translate(4 136)">
<title>g</title>
<polygon fill="white" stroke="white" points="-4,5 -4,-136 121,-136 121,5 -4,5"/>
<!-- N10 -->
<g id="node1" class="node"><title>N10</title>
<polygon fill="#ffffff" stroke="#ffffff" stroke-width="1.5" points="12,-1 104,-1 116,-13 116,-25 104,-37 12,-37 0,-25 0,-13 12,-1"/>
<path fill="#ffffff" stroke="#ffffff" stroke-width="1.5" d="M104,-1C110,-1 116,-7 116,-13"/>
<path fill="#ffffff" stroke="#ffffff" stroke-width="1.5" d="M116,-25C116,-31 110,-37 104,-37"/>
<path fill="#ffffff" stroke="#ffffff" stroke-width="1.5" d="M12,-37C6,-37 0,-31 0,-25"/>
<path fill="#ffffff" stroke="#ffffff" stroke-width="1.5" d="M0,-13C0,-7 6,-1 12,-1"/>
<polyline fill="none" stroke="#2e3436" stroke-width="1.5" points="12,-1 104,-1 "/>
<path fill="none" stroke="#2e3436" stroke-width="1.5" d="M104,-1C110,-1 116,-7 116,-13"/>
<polyline fill="none" stroke="#2e3436" stroke-width="1.5" points="116,-13 116,-25 "/>
<path fill="none" stroke="#2e3436" stroke-width="1.5" d="M116,-25C116,-31 110,-37 104,-37"/>
<polyline fill="none" stroke="#2e3436" stroke-width="1.5" points="104,-37 12,-37 "/>
<path fill="none" stroke="#2e3436" stroke-width="1.5" d="M12,-37C6,-37 0,-31 0,-25"/>
<polyline fill="none" stroke="#2e3436" stroke-width="1.5" points="0,-25 0,-13 "/>
<path fill="none" stroke="#2e3436" stroke-width="1.5" d="M0,-13C0,-7 6,-1 12,-1"/>
<text text-anchor="start" x="8" y="-16.8" font-family="FreeSans" font-size="8.00" fill="#1c2021">Node[10]name = &#39;Sara&#39;</text>
</g>
<!-- N11 -->
<g id="node2" class="node"><title>N11</title>
<polygon fill="#ffffff" stroke="#ffffff" stroke-width="1.5" points="15.5,-95 100.5,-95 112.5,-107 112.5,-119 100.5,-131 15.5,-131 3.5,-119 3.5,-107 15.5,-95"/>
<path fill="#ffffff" stroke="#ffffff" stroke-width="1.5" d="M100.5,-95C106.5,-95 112.5,-101 112.5,-107"/>
<path fill="#ffffff" stroke="#ffffff" stroke-width="1.5" d="M112.5,-119C112.5,-125 106.5,-131 100.5,-131"/>
<path fill="#ffffff" stroke="#ffffff" stroke-width="1.5" d="M15.5,-131C9.5,-131 3.5,-125 3.5,-119"/>
<path fill="#ffffff" stroke="#ffffff" stroke-width="1.5" d="M3.5,-107C3.5,-101 9.5,-95 15.5,-95"/>
<polyline fill="none" stroke="#2e3436" stroke-width="1.5" points="15.5,-95 100.5,-95 "/>
<path fill="none" stroke="#2e3436" stroke-width="1.5" d="M100.5,-95C106.5,-95 112.5,-101 112.5,-107"/>
<polyline fill="none" stroke="#2e3436" stroke-width="1.5" points="112.5,-107 112.5,-119 "/>
<path fill="none" stroke="#2e3436" stroke-width="1.5" d="M112.5,-119C112.5,-125 106.5,-131 100.5,-131"/>
<polyline fill="none" stroke="#2e3436" stroke-width="1.5" points="100.5,-131 15.5,-131 "/>
<path fill="none" stroke="#2e3436" stroke-width="1.5" d="M15.5,-131C9.5,-131 3.5,-125 3.5,-119"/>
<polyline fill="none" stroke="#2e3436" stroke-width="1.5" points="3.5,-119 3.5,-107 "/>
<path fill="none" stroke="#2e3436" stroke-width="1.5" d="M3.5,-107C3.5,-101 9.5,-95 15.5,-95"/>
<text text-anchor="start" x="11.5" y="-110.8" font-family="FreeSans" font-size="8.00" fill="#1c2021">Node[11]name = &#39;Joe&#39;</text>
</g>
<!-- N11&#45;&gt;N10 -->
<g id="edge2" class="edge"><title>N11&#45;&gt;N10</title>
<path fill="none" stroke="#2e3436" stroke-width="2" d="M37.1582,-94.8719C32.2257,-89.3621 27.6364,-82.9169 25,-76 21.8341,-67.694 21.8341,-64.306 25,-56 26.7302,-51.4608 29.3013,-47.1247 32.2586,-43.1228"/>
<polygon fill="#2e3436" stroke="#2e3436" points="37.1582,-37.1281 35.0251,-45.0711 35.1722,-40.3481 32.799,-43.2517 32.4119,-42.9353 32.0248,-42.6188 34.3979,-39.7152 29.7987,-40.7994 37.1582,-37.1281 37.1582,-37.1281"/>
<text text-anchor="middle" x="39" y="-63.8" font-family="FreeSans" font-size="8.00" fill="#2e3436">knows</text>
</g>
<!-- N11&#45;&gt;N10 -->
<g id="edge4" class="edge"><title>N11&#45;&gt;N10</title>
<path fill="none" stroke="#4e9a06" stroke-width="2" d="M58,-94.8759C58,-80.7014 58,-60.806 58,-44.944"/>
<polygon fill="#4e9a06" stroke="#4e9a06" points="58,-37.0685 61.3751,-44.5685 58.5,-40.8185 58.5001,-44.5685 58.0001,-44.5685 57.5001,-44.5685 57.5,-40.8185 54.6251,-44.5685 58,-37.0685 58,-37.0685"/>
<text text-anchor="middle" x="81" y="-68.8" font-family="FreeSans" font-size="8.00" fill="#4e9a06">LOVES</text>
<text text-anchor="start" x="58" y="-58.8" font-family="FreeSans" font-size="8.00" fill="#4e9a06">foo = &#39;bar&#39;</text>
</g>
</g>
</svg>
