<?xml version="1.0" encoding="UTF-8" standalone="no"?>
<!DOCTYPE svg PUBLIC "-//W3C//DTD SVG 1.1//EN"
 "http://www.w3.org/Graphics/SVG/1.1/DTD/svg11.dtd">
<!-- Generated by graphviz version 2.26.3 (20100126.1600)
 -->
<!-- Title: g Pages: 1 -->
<svg width="124pt" height="130pt"
 viewBox="0.00 0.00 124.00 130.00" xmlns="http://www.w3.org/2000/svg" xmlns:xlink="http://www.w3.org/1999/xlink">
<g id="graph1" class="graph" transform="scale(1 1) rotate(0) translate(4 126)">
<title>g</title>
<polygon fill="white" stroke="white" points="-4,5 -4,-126 121,-126 121,5 -4,5"/>
<!-- N136 -->
<g id="node1" class="node"><title>N136</title>
<polygon fill="#ffffff" stroke="#ffffff" stroke-width="1.5" points="12,-1 104,-1 116,-13 116,-25 104,-37 12,-37 0,-25 0,-13 12,-1"/>
<path fill="#ffffff" stroke="#ffffff" stroke-width="1.5" d="M104,-1C110,-1 116,-7 116,-13"/>
<path fill="#ffffff" stroke="#ffffff" stroke-width="1.5" d="M116,-25C116,-31 110,-37 104,-37"/>
<path fill="#ffffff" stroke="#ffffff" stroke-width="1.5" d="M12,-37C6,-37 0,-31 0,-25"/>
<path fill="#ffffff" stroke="#ffffff" stroke-width="1.5" d="M0,-13C0,-7 6,-1 12,-1"/>
<polyline fill="none" stroke="#2e3436" stroke-width="1.5" points="12,-1 104,-1 "/>
<path fill="none" stroke="#2e3436" stroke-width="1.5" d="M104,-1C110,-1 116,-7 116,-13"/>
<polyline fill="none" stroke="#2e3436" stroke-width="1.5" points="116,-13 116,-25 "/>
<path fill="none" stroke="#2e3436" stroke-width="1.5" d="M116,-25C116,-31 110,-37 104,-37"/>
<polyline fill="none" stroke="#2e3436" stroke-width="1.5" points="104,-37 12,-37 "/>
<path fill="none" stroke="#2e3436" stroke-width="1.5" d="M12,-37C6,-37 0,-31 0,-25"/>
<polyline fill="none" stroke="#2e3436" stroke-width="1.5" points="0,-25 0,-13 "/>
<path fill="none" stroke="#2e3436" stroke-width="1.5" d="M0,-13C0,-7 6,-1 12,-1"/>
<text text-anchor="start" x="8" y="-16.8" font-family="FreeSans" font-size="8.00" fill="#1c2021">Node[136]name = &#39;you&#39;</text>
</g>
<!-- N137 -->
<g id="node2" class="node"><title>N137</title>
<polygon fill="#ffffff" stroke="#ffffff" stroke-width="1.5" points="18,-85 98,-85 110,-97 110,-109 98,-121 18,-121 6,-109 6,-97 18,-85"/>
<path fill="#ffffff" stroke="#ffffff" stroke-width="1.5" d="M98,-85C104,-85 110,-91 110,-97"/>
<path fill="#ffffff" stroke="#ffffff" stroke-width="1.5" d="M110,-109C110,-115 104,-121 98,-121"/>
<path fill="#ffffff" stroke="#ffffff" stroke-width="1.5" d="M18,-121C12,-121 6,-115 6,-109"/>
<path fill="#ffffff" stroke="#ffffff" stroke-width="1.5" d="M6,-97C6,-91 12,-85 18,-85"/>
<polyline fill="none" stroke="#2e3436" stroke-width="1.5" points="18,-85 98,-85 "/>
<path fill="none" stroke="#2e3436" stroke-width="1.5" d="M98,-85C104,-85 110,-91 110,-97"/>
<polyline fill="none" stroke="#2e3436" stroke-width="1.5" points="110,-97 110,-109 "/>
<path fill="none" stroke="#2e3436" stroke-width="1.5" d="M110,-109C110,-115 104,-121 98,-121"/>
<polyline fill="none" stroke="#2e3436" stroke-width="1.5" points="98,-121 18,-121 "/>
<path fill="none" stroke="#2e3436" stroke-width="1.5" d="M18,-121C12,-121 6,-115 6,-109"/>
<polyline fill="none" stroke="#2e3436" stroke-width="1.5" points="6,-109 6,-97 "/>
<path fill="none" stroke="#2e3436" stroke-width="1.5" d="M6,-97C6,-91 12,-85 18,-85"/>
<text text-anchor="start" x="14" y="-100.8" font-family="FreeSans" font-size="8.00" fill="#1c2021">Node[137]name = &#39;I&#39;</text>
</g>
<!-- N137&#45;&gt;N136 -->
<g id="edge2" class="edge"><title>N137&#45;&gt;N136</title>
<path fill="none" stroke="#2e3436" stroke-width="2" d="M58,-84.7733C58,-73.1053 58,-57.7874 58,-44.8699"/>
<polygon fill="#2e3436" stroke="#2e3436" points="58,-37.1912 61.3751,-44.6911 58.5,-40.9412 58.5001,-44.6912 58.0001,-44.6912 57.5001,-44.6912 57.5,-40.9412 54.6251,-44.6912 58,-37.1912 58,-37.1912"/>
<text text-anchor="middle" x="69" y="-58.8" font-family="FreeSans" font-size="8.00" fill="#2e3436">know</text>
</g>
</g>
</svg>
