<?xml version="1.0" encoding="UTF-8" standalone="no"?>
<!DOCTYPE svg PUBLIC "-//W3C//DTD SVG 1.1//EN"
 "http://www.w3.org/Graphics/SVG/1.1/DTD/svg11.dtd">
<!-- Generated by graphviz version 2.26.3 (20100126.1600)
 -->
<!-- Title: g Pages: 1 -->
<svg width="360pt" height="130pt"
 viewBox="0.00 0.00 360.00 130.00" xmlns="http://www.w3.org/2000/svg" xmlns:xlink="http://www.w3.org/1999/xlink">
<g id="graph1" class="graph" transform="scale(1 1) rotate(0) translate(4 126)">
<title>g</title>
<polygon fill="white" stroke="white" points="-4,5 -4,-126 357,-126 357,5 -4,5"/>
<!-- N100 -->
<g id="node1" class="node"><title>N100</title>
<polygon fill="#ffffff" stroke="#ffffff" stroke-width="1.5" points="11.5,-1 106.5,-1 118.5,-13 118.5,-25 106.5,-37 11.5,-37 -0.5,-25 -0.5,-13 11.5,-1"/>
<path fill="#ffffff" stroke="#ffffff" stroke-width="1.5" d="M106.5,-1C112.5,-1 118.5,-7 118.5,-13"/>
<path fill="#ffffff" stroke="#ffffff" stroke-width="1.5" d="M118.5,-25C118.5,-31 112.5,-37 106.5,-37"/>
<path fill="#ffffff" stroke="#ffffff" stroke-width="1.5" d="M11.5,-37C5.5,-37 -0.5,-31 -0.5,-25"/>
<path fill="#ffffff" stroke="#ffffff" stroke-width="1.5" d="M-0.5,-13C-0.5,-7 5.5,-1 11.5,-1"/>
<polyline fill="none" stroke="#2e3436" stroke-width="1.5" points="11.5,-1 106.5,-1 "/>
<path fill="none" stroke="#2e3436" stroke-width="1.5" d="M106.5,-1C112.5,-1 118.5,-7 118.5,-13"/>
<polyline fill="none" stroke="#2e3436" stroke-width="1.5" points="118.5,-13 118.5,-25 "/>
<path fill="none" stroke="#2e3436" stroke-width="1.5" d="M118.5,-25C118.5,-31 112.5,-37 106.5,-37"/>
<polyline fill="none" stroke="#2e3436" stroke-width="1.5" points="106.5,-37 11.5,-37 "/>
<path fill="none" stroke="#2e3436" stroke-width="1.5" d="M11.5,-37C5.5,-37 -0.5,-31 -0.5,-25"/>
<polyline fill="none" stroke="#2e3436" stroke-width="1.5" points="-0.5,-25 -0.5,-13 "/>
<path fill="none" stroke="#2e3436" stroke-width="1.5" d="M-0.5,-13C-0.5,-7 5.5,-1 11.5,-1"/>
<text text-anchor="start" x="7.5" y="-16.8" font-family="FreeSans" font-size="8.00" fill="#1c2021">Node[100]name = &#39;John&#39;</text>
</g>
<!-- N101 -->
<g id="node2" class="node"><title>N101</title>
<polygon fill="#ffffff" stroke="#ffffff" stroke-width="1.5" points="24,-85 94,-85 106,-97 106,-109 94,-121 24,-121 12,-109 12,-97 24,-85"/>
<path fill="#ffffff" stroke="#ffffff" stroke-width="1.5" d="M94,-85C100,-85 106,-91 106,-97"/>
<path fill="#ffffff" stroke="#ffffff" stroke-width="1.5" d="M106,-109C106,-115 100,-121 94,-121"/>
<path fill="#ffffff" stroke="#ffffff" stroke-width="1.5" d="M24,-121C18,-121 12,-115 12,-109"/>
<path fill="#ffffff" stroke="#ffffff" stroke-width="1.5" d="M12,-97C12,-91 18,-85 24,-85"/>
<polyline fill="none" stroke="#2e3436" stroke-width="1.5" points="24,-85 94,-85 "/>
<path fill="none" stroke="#2e3436" stroke-width="1.5" d="M94,-85C100,-85 106,-91 106,-97"/>
<polyline fill="none" stroke="#2e3436" stroke-width="1.5" points="106,-97 106,-109 "/>
<path fill="none" stroke="#2e3436" stroke-width="1.5" d="M106,-109C106,-115 100,-121 94,-121"/>
<polyline fill="none" stroke="#2e3436" stroke-width="1.5" points="94,-121 24,-121 "/>
<path fill="none" stroke="#2e3436" stroke-width="1.5" d="M24,-121C18,-121 12,-115 12,-109"/>
<polyline fill="none" stroke="#2e3436" stroke-width="1.5" points="12,-109 12,-97 "/>
<path fill="none" stroke="#2e3436" stroke-width="1.5" d="M12,-97C12,-91 18,-85 24,-85"/>
<text text-anchor="start" x="20" y="-100.8" font-family="FreeSans" font-size="8.00" fill="#1c2021">Node[101]age = 1</text>
</g>
<!-- N101&#45;&gt;N100 -->
<g id="edge2" class="edge"><title>N101&#45;&gt;N100</title>
<path fill="none" stroke="#2e3436" stroke-width="2" d="M59,-84.7733C59,-73.1053 59,-57.7874 59,-44.8699"/>
<polygon fill="#2e3436" stroke="#2e3436" points="59,-37.1912 62.3751,-44.6911 59.5,-40.9412 59.5001,-44.6912 59.0001,-44.6912 58.5001,-44.6912 58.5,-40.9412 55.6251,-44.6912 59,-37.1912 59,-37.1912"/>
<text text-anchor="middle" x="73" y="-58.8" font-family="FreeSans" font-size="8.00" fill="#2e3436">knows</text>
</g>
<!-- N102 -->
<g id="node4" class="node"><title>N102</title>
<polygon fill="#ffffff" stroke="#ffffff" stroke-width="1.5" points="147,-85 217,-85 229,-97 229,-109 217,-121 147,-121 135,-109 135,-97 147,-85"/>
<path fill="#ffffff" stroke="#ffffff" stroke-width="1.5" d="M217,-85C223,-85 229,-91 229,-97"/>
<path fill="#ffffff" stroke="#ffffff" stroke-width="1.5" d="M229,-109C229,-115 223,-121 217,-121"/>
<path fill="#ffffff" stroke="#ffffff" stroke-width="1.5" d="M147,-121C141,-121 135,-115 135,-109"/>
<path fill="#ffffff" stroke="#ffffff" stroke-width="1.5" d="M135,-97C135,-91 141,-85 147,-85"/>
<polyline fill="none" stroke="#2e3436" stroke-width="1.5" points="147,-85 217,-85 "/>
<path fill="none" stroke="#2e3436" stroke-width="1.5" d="M217,-85C223,-85 229,-91 229,-97"/>
<polyline fill="none" stroke="#2e3436" stroke-width="1.5" points="229,-97 229,-109 "/>
<path fill="none" stroke="#2e3436" stroke-width="1.5" d="M229,-109C229,-115 223,-121 217,-121"/>
<polyline fill="none" stroke="#2e3436" stroke-width="1.5" points="217,-121 147,-121 "/>
<path fill="none" stroke="#2e3436" stroke-width="1.5" d="M147,-121C141,-121 135,-115 135,-109"/>
<polyline fill="none" stroke="#2e3436" stroke-width="1.5" points="135,-109 135,-97 "/>
<path fill="none" stroke="#2e3436" stroke-width="1.5" d="M135,-97C135,-91 141,-85 147,-85"/>
<text text-anchor="start" x="143" y="-100.8" font-family="FreeSans" font-size="8.00" fill="#1c2021">Node[102]age = 1</text>
</g>
<!-- N103 -->
<g id="node5" class="node"><title>N103</title>
<polygon fill="#ffffff" stroke="#ffffff" stroke-width="1.5" points="270,-85 340,-85 352,-97 352,-109 340,-121 270,-121 258,-109 258,-97 270,-85"/>
<path fill="#ffffff" stroke="#ffffff" stroke-width="1.5" d="M340,-85C346,-85 352,-91 352,-97"/>
<path fill="#ffffff" stroke="#ffffff" stroke-width="1.5" d="M352,-109C352,-115 346,-121 340,-121"/>
<path fill="#ffffff" stroke="#ffffff" stroke-width="1.5" d="M270,-121C264,-121 258,-115 258,-109"/>
<path fill="#ffffff" stroke="#ffffff" stroke-width="1.5" d="M258,-97C258,-91 264,-85 270,-85"/>
<polyline fill="none" stroke="#2e3436" stroke-width="1.5" points="270,-85 340,-85 "/>
<path fill="none" stroke="#2e3436" stroke-width="1.5" d="M340,-85C346,-85 352,-91 352,-97"/>
<polyline fill="none" stroke="#2e3436" stroke-width="1.5" points="352,-97 352,-109 "/>
<path fill="none" stroke="#2e3436" stroke-width="1.5" d="M352,-109C352,-115 346,-121 340,-121"/>
<polyline fill="none" stroke="#2e3436" stroke-width="1.5" points="340,-121 270,-121 "/>
<path fill="none" stroke="#2e3436" stroke-width="1.5" d="M270,-121C264,-121 258,-115 258,-109"/>
<polyline fill="none" stroke="#2e3436" stroke-width="1.5" points="258,-109 258,-97 "/>
<path fill="none" stroke="#2e3436" stroke-width="1.5" d="M258,-97C258,-91 264,-85 270,-85"/>
<text text-anchor="start" x="266" y="-100.8" font-family="FreeSans" font-size="8.00" fill="#1c2021">Node[103]age = 1</text>
</g>
</g>
</svg>
