<?xml version="1.0" encoding="UTF-8" standalone="no"?>
<!DOCTYPE svg PUBLIC "-//W3C//DTD SVG 1.1//EN"
 "http://www.w3.org/Graphics/SVG/1.1/DTD/svg11.dtd">
<!-- Generated by graphviz version 2.26.3 (20100126.1600)
 -->
<!-- Title: g Pages: 1 -->
<svg width="289pt" height="46pt"
 viewBox="0.00 0.00 289.00 46.00" xmlns="http://www.w3.org/2000/svg" xmlns:xlink="http://www.w3.org/1999/xlink">
<g id="graph1" class="graph" transform="scale(1 1) rotate(0) translate(4 42)">
<title>g</title>
<polygon fill="white" stroke="white" points="-4,5 -4,-42 286,-42 286,5 -4,5"/>
<!-- N124 -->
<g id="node1" class="node"><title>N124</title>
<polygon fill="#ffffff" stroke="#ffffff" stroke-width="1.5" points="12,-1 110,-1 122,-13 122,-25 110,-37 12,-37 0,-25 0,-13 12,-1"/>
<path fill="#ffffff" stroke="#ffffff" stroke-width="1.5" d="M110,-1C116,-1 122,-7 122,-13"/>
<path fill="#ffffff" stroke="#ffffff" stroke-width="1.5" d="M122,-25C122,-31 116,-37 110,-37"/>
<path fill="#ffffff" stroke="#ffffff" stroke-width="1.5" d="M12,-37C6,-37 0,-31 0,-25"/>
<path fill="#ffffff" stroke="#ffffff" stroke-width="1.5" d="M0,-13C0,-7 6,-1 12,-1"/>
<polyline fill="none" stroke="#2e3436" stroke-width="1.5" points="12,-1 110,-1 "/>
<path fill="none" stroke="#2e3436" stroke-width="1.5" d="M110,-1C116,-1 122,-7 122,-13"/>
<polyline fill="none" stroke="#2e3436" stroke-width="1.5" points="122,-13 122,-25 "/>
<path fill="none" stroke="#2e3436" stroke-width="1.5" d="M122,-25C122,-31 116,-37 110,-37"/>
<polyline fill="none" stroke="#2e3436" stroke-width="1.5" points="110,-37 12,-37 "/>
<path fill="none" stroke="#2e3436" stroke-width="1.5" d="M12,-37C6,-37 0,-31 0,-25"/>
<polyline fill="none" stroke="#2e3436" stroke-width="1.5" points="0,-25 0,-13 "/>
<path fill="none" stroke="#2e3436" stroke-width="1.5" d="M0,-13C0,-7 6,-1 12,-1"/>
<text text-anchor="start" x="8" y="-16.8" font-family="FreeSans" font-size="8.00" fill="#1c2021">Node[124]name = &#39;Juliet&#39;</text>
</g>
<!-- N125 -->
<g id="node2" class="node"><title>N125</title>
<polygon fill="#ffffff" stroke="#ffffff" stroke-width="1.5" points="162.5,-1 269.5,-1 281.5,-13 281.5,-25 269.5,-37 162.5,-37 150.5,-25 150.5,-13 162.5,-1"/>
<path fill="#ffffff" stroke="#ffffff" stroke-width="1.5" d="M269.5,-1C275.5,-1 281.5,-7 281.5,-13"/>
<path fill="#ffffff" stroke="#ffffff" stroke-width="1.5" d="M281.5,-25C281.5,-31 275.5,-37 269.5,-37"/>
<path fill="#ffffff" stroke="#ffffff" stroke-width="1.5" d="M162.5,-37C156.5,-37 150.5,-31 150.5,-25"/>
<path fill="#ffffff" stroke="#ffffff" stroke-width="1.5" d="M150.5,-13C150.5,-7 156.5,-1 162.5,-1"/>
<polyline fill="none" stroke="#2e3436" stroke-width="1.5" points="162.5,-1 269.5,-1 "/>
<path fill="none" stroke="#2e3436" stroke-width="1.5" d="M269.5,-1C275.5,-1 281.5,-7 281.5,-13"/>
<polyline fill="none" stroke="#2e3436" stroke-width="1.5" points="281.5,-13 281.5,-25 "/>
<path fill="none" stroke="#2e3436" stroke-width="1.5" d="M281.5,-25C281.5,-31 275.5,-37 269.5,-37"/>
<polyline fill="none" stroke="#2e3436" stroke-width="1.5" points="269.5,-37 162.5,-37 "/>
<path fill="none" stroke="#2e3436" stroke-width="1.5" d="M162.5,-37C156.5,-37 150.5,-31 150.5,-25"/>
<polyline fill="none" stroke="#2e3436" stroke-width="1.5" points="150.5,-25 150.5,-13 "/>
<path fill="none" stroke="#2e3436" stroke-width="1.5" d="M150.5,-13C150.5,-7 156.5,-1 162.5,-1"/>
<text text-anchor="start" x="158.5" y="-16.8" font-family="FreeSans" font-size="8.00" fill="#1c2021">Node[125]name = &#39;Romeo&#39;</text>
</g>
</g>
</svg>
