<?xml version="1.0" encoding="UTF-8" standalone="no"?>
<!DOCTYPE svg PUBLIC "-//W3C//DTD SVG 1.1//EN"
 "http://www.w3.org/Graphics/SVG/1.1/DTD/svg11.dtd">
<!-- Generated by graphviz version 2.26.3 (20100126.1600)
 -->
<!-- Title: g Pages: 1 -->
<svg width="502pt" height="46pt"
 viewBox="0.00 0.00 502.00 46.00" xmlns="http://www.w3.org/2000/svg" xmlns:xlink="http://www.w3.org/1999/xlink">
<g id="graph1" class="graph" transform="scale(1 1) rotate(0) translate(4 42)">
<title>g</title>
<polygon fill="white" stroke="white" points="-4,5 -4,-42 499,-42 499,5 -4,5"/>
<!-- N109 -->
<g id="node1" class="node"><title>N109</title>
<polygon fill="#ffffff" stroke="#ffffff" stroke-width="1.5" points="12,-1 124,-1 136,-13 136,-25 124,-37 12,-37 0,-25 0,-13 12,-1"/>
<path fill="#ffffff" stroke="#ffffff" stroke-width="1.5" d="M124,-1C130,-1 136,-7 136,-13"/>
<path fill="#ffffff" stroke="#ffffff" stroke-width="1.5" d="M136,-25C136,-31 130,-37 124,-37"/>
<path fill="#ffffff" stroke="#ffffff" stroke-width="1.5" d="M12,-37C6,-37 0,-31 0,-25"/>
<path fill="#ffffff" stroke="#ffffff" stroke-width="1.5" d="M0,-13C0,-7 6,-1 12,-1"/>
<polyline fill="none" stroke="#2e3436" stroke-width="1.5" points="12,-1 124,-1 "/>
<path fill="none" stroke="#2e3436" stroke-width="1.5" d="M124,-1C130,-1 136,-7 136,-13"/>
<polyline fill="none" stroke="#2e3436" stroke-width="1.5" points="136,-13 136,-25 "/>
<path fill="none" stroke="#2e3436" stroke-width="1.5" d="M136,-25C136,-31 130,-37 124,-37"/>
<polyline fill="none" stroke="#2e3436" stroke-width="1.5" points="124,-37 12,-37 "/>
<path fill="none" stroke="#2e3436" stroke-width="1.5" d="M12,-37C6,-37 0,-31 0,-25"/>
<polyline fill="none" stroke="#2e3436" stroke-width="1.5" points="0,-25 0,-13 "/>
<path fill="none" stroke="#2e3436" stroke-width="1.5" d="M0,-13C0,-7 6,-1 12,-1"/>
<text text-anchor="middle" x="68" y="-25.8" font-family="FreeSans" font-size="8.00" fill="#1c2021">Node[109]: Person, Director</text>
<polyline fill="none" stroke="#2e3436" stroke-width="1.5" points="0,-19 136,-19 "/>
<text text-anchor="start" x="8" y="-7.8" font-family="FreeSans" font-size="8.00" fill="#1c2021">name = &#39;Steven Spielberg&#39;</text>
</g>
<!-- N110 -->
<g id="node2" class="node"><title>N110</title>
<polygon fill="#ffffff" stroke="#ffffff" stroke-width="1.5" points="177,-1 317,-1 329,-13 329,-25 317,-37 177,-37 165,-25 165,-13 177,-1"/>
<path fill="#ffffff" stroke="#ffffff" stroke-width="1.5" d="M317,-1C323,-1 329,-7 329,-13"/>
<path fill="#ffffff" stroke="#ffffff" stroke-width="1.5" d="M329,-25C329,-31 323,-37 317,-37"/>
<path fill="#ffffff" stroke="#ffffff" stroke-width="1.5" d="M177,-37C171,-37 165,-31 165,-25"/>
<path fill="#ffffff" stroke="#ffffff" stroke-width="1.5" d="M165,-13C165,-7 171,-1 177,-1"/>
<polyline fill="none" stroke="#2e3436" stroke-width="1.5" points="177,-1 317,-1 "/>
<path fill="none" stroke="#2e3436" stroke-width="1.5" d="M317,-1C323,-1 329,-7 329,-13"/>
<polyline fill="none" stroke="#2e3436" stroke-width="1.5" points="329,-13 329,-25 "/>
<path fill="none" stroke="#2e3436" stroke-width="1.5" d="M329,-25C329,-31 323,-37 317,-37"/>
<polyline fill="none" stroke="#2e3436" stroke-width="1.5" points="317,-37 177,-37 "/>
<path fill="none" stroke="#2e3436" stroke-width="1.5" d="M177,-37C171,-37 165,-31 165,-25"/>
<polyline fill="none" stroke="#2e3436" stroke-width="1.5" points="165,-25 165,-13 "/>
<path fill="none" stroke="#2e3436" stroke-width="1.5" d="M165,-13C165,-7 171,-1 177,-1"/>
<text text-anchor="middle" x="247" y="-25.8" font-family="FreeSans" font-size="8.00" fill="#1c2021">Node[110]: Person, Director, Actor</text>
<polyline fill="none" stroke="#2e3436" stroke-width="1.5" points="165,-19 329,-19 "/>
<text text-anchor="start" x="173" y="-7.8" font-family="FreeSans" font-size="8.00" fill="#1c2021">name = &#39;Clint Eastwood&#39;</text>
</g>
<!-- N111 -->
<g id="node3" class="node"><title>N111</title>
<polygon fill="#ffffff" stroke="#ffffff" stroke-width="1.5" points="369.5,-1 482.5,-1 494.5,-13 494.5,-25 482.5,-37 369.5,-37 357.5,-25 357.5,-13 369.5,-1"/>
<path fill="#ffffff" stroke="#ffffff" stroke-width="1.5" d="M482.5,-1C488.5,-1 494.5,-7 494.5,-13"/>
<path fill="#ffffff" stroke="#ffffff" stroke-width="1.5" d="M494.5,-25C494.5,-31 488.5,-37 482.5,-37"/>
<path fill="#ffffff" stroke="#ffffff" stroke-width="1.5" d="M369.5,-37C363.5,-37 357.5,-31 357.5,-25"/>
<path fill="#ffffff" stroke="#ffffff" stroke-width="1.5" d="M357.5,-13C357.5,-7 363.5,-1 369.5,-1"/>
<polyline fill="none" stroke="#2e3436" stroke-width="1.5" points="369.5,-1 482.5,-1 "/>
<path fill="none" stroke="#2e3436" stroke-width="1.5" d="M482.5,-1C488.5,-1 494.5,-7 494.5,-13"/>
<polyline fill="none" stroke="#2e3436" stroke-width="1.5" points="494.5,-13 494.5,-25 "/>
<path fill="none" stroke="#2e3436" stroke-width="1.5" d="M494.5,-25C494.5,-31 488.5,-37 482.5,-37"/>
<polyline fill="none" stroke="#2e3436" stroke-width="1.5" points="482.5,-37 369.5,-37 "/>
<path fill="none" stroke="#2e3436" stroke-width="1.5" d="M369.5,-37C363.5,-37 357.5,-31 357.5,-25"/>
<polyline fill="none" stroke="#2e3436" stroke-width="1.5" points="357.5,-25 357.5,-13 "/>
<path fill="none" stroke="#2e3436" stroke-width="1.5" d="M357.5,-13C357.5,-7 363.5,-1 369.5,-1"/>
<text text-anchor="middle" x="426" y="-25.8" font-family="FreeSans" font-size="8.00" fill="#1c2021">Node[111]: Person, Actor</text>
<polyline fill="none" stroke="#2e3436" stroke-width="1.5" points="357.5,-19 494.5,-19 "/>
<text text-anchor="start" x="365.5" y="-7.8" font-family="FreeSans" font-size="8.00" fill="#1c2021">name = &#39;Donald Sutherland&#39;</text>
</g>
</g>
</svg>
