<?xml version="1.0" encoding="UTF-8" standalone="no"?>
<!DOCTYPE svg PUBLIC "-//W3C//DTD SVG 1.1//EN"
 "http://www.w3.org/Graphics/SVG/1.1/DTD/svg11.dtd">
<!-- Generated by graphviz version 2.26.3 (20100126.1600)
 -->
<!-- Title: g Pages: 1 -->
<svg width="324pt" height="382pt"
 viewBox="0.00 0.00 324.00 382.00" xmlns="http://www.w3.org/2000/svg" xmlns:xlink="http://www.w3.org/1999/xlink">
<g id="graph1" class="graph" transform="scale(1 1) rotate(0) translate(4 378)">
<title>g</title>
<polygon fill="white" stroke="white" points="-4,5 -4,-378 321,-378 321,5 -4,5"/>
<!-- N372 -->
<g id="node1" class="node"><title>N372</title>
<polygon fill="#ffffff" stroke="#ffffff" stroke-width="1.5" points="168,-1 266,-1 278,-13 278,-25 266,-37 168,-37 156,-25 156,-13 168,-1"/>
<path fill="#ffffff" stroke="#ffffff" stroke-width="1.5" d="M266,-1C272,-1 278,-7 278,-13"/>
<path fill="#ffffff" stroke="#ffffff" stroke-width="1.5" d="M278,-25C278,-31 272,-37 266,-37"/>
<path fill="#ffffff" stroke="#ffffff" stroke-width="1.5" d="M168,-37C162,-37 156,-31 156,-25"/>
<path fill="#ffffff" stroke="#ffffff" stroke-width="1.5" d="M156,-13C156,-7 162,-1 168,-1"/>
<polyline fill="none" stroke="#2e3436" stroke-width="1.5" points="168,-1 266,-1 "/>
<path fill="none" stroke="#2e3436" stroke-width="1.5" d="M266,-1C272,-1 278,-7 278,-13"/>
<polyline fill="none" stroke="#2e3436" stroke-width="1.5" points="278,-13 278,-25 "/>
<path fill="none" stroke="#2e3436" stroke-width="1.5" d="M278,-25C278,-31 272,-37 266,-37"/>
<polyline fill="none" stroke="#2e3436" stroke-width="1.5" points="266,-37 168,-37 "/>
<path fill="none" stroke="#2e3436" stroke-width="1.5" d="M168,-37C162,-37 156,-31 156,-25"/>
<polyline fill="none" stroke="#2e3436" stroke-width="1.5" points="156,-25 156,-13 "/>
<path fill="none" stroke="#2e3436" stroke-width="1.5" d="M156,-13C156,-7 162,-1 168,-1"/>
<text text-anchor="start" x="164" y="-16.8" font-family="FreeSans" font-size="8.00" fill="#1c2021">Node[372]name = &#39;Sara&#39;</text>
</g>
<!-- N373 -->
<g id="node2" class="node"><title>N373</title>
<polygon fill="#ffffff" stroke="#ffffff" stroke-width="1.5" points="42.5,-253 143.5,-253 155.5,-265 155.5,-277 143.5,-289 42.5,-289 30.5,-277 30.5,-265 42.5,-253"/>
<path fill="#ffffff" stroke="#ffffff" stroke-width="1.5" d="M143.5,-253C149.5,-253 155.5,-259 155.5,-265"/>
<path fill="#ffffff" stroke="#ffffff" stroke-width="1.5" d="M155.5,-277C155.5,-283 149.5,-289 143.5,-289"/>
<path fill="#ffffff" stroke="#ffffff" stroke-width="1.5" d="M42.5,-289C36.5,-289 30.5,-283 30.5,-277"/>
<path fill="#ffffff" stroke="#ffffff" stroke-width="1.5" d="M30.5,-265C30.5,-259 36.5,-253 42.5,-253"/>
<polyline fill="none" stroke="#2e3436" stroke-width="1.5" points="42.5,-253 143.5,-253 "/>
<path fill="none" stroke="#2e3436" stroke-width="1.5" d="M143.5,-253C149.5,-253 155.5,-259 155.5,-265"/>
<polyline fill="none" stroke="#2e3436" stroke-width="1.5" points="155.5,-265 155.5,-277 "/>
<path fill="none" stroke="#2e3436" stroke-width="1.5" d="M155.5,-277C155.5,-283 149.5,-289 143.5,-289"/>
<polyline fill="none" stroke="#2e3436" stroke-width="1.5" points="143.5,-289 42.5,-289 "/>
<path fill="none" stroke="#2e3436" stroke-width="1.5" d="M42.5,-289C36.5,-289 30.5,-283 30.5,-277"/>
<polyline fill="none" stroke="#2e3436" stroke-width="1.5" points="30.5,-277 30.5,-265 "/>
<path fill="none" stroke="#2e3436" stroke-width="1.5" d="M30.5,-265C30.5,-259 36.5,-253 42.5,-253"/>
<text text-anchor="start" x="38.5" y="-268.8" font-family="FreeSans" font-size="8.00" fill="#1c2021">Node[373]name = &#39;Johan&#39;</text>
</g>
<!-- N374 -->
<g id="node4" class="node"><title>N374</title>
<polygon fill="#ffffff" stroke="#ffffff" stroke-width="1.5" points="45.5,-169 140.5,-169 152.5,-181 152.5,-193 140.5,-205 45.5,-205 33.5,-193 33.5,-181 45.5,-169"/>
<path fill="#ffffff" stroke="#ffffff" stroke-width="1.5" d="M140.5,-169C146.5,-169 152.5,-175 152.5,-181"/>
<path fill="#ffffff" stroke="#ffffff" stroke-width="1.5" d="M152.5,-193C152.5,-199 146.5,-205 140.5,-205"/>
<path fill="#ffffff" stroke="#ffffff" stroke-width="1.5" d="M45.5,-205C39.5,-205 33.5,-199 33.5,-193"/>
<path fill="#ffffff" stroke="#ffffff" stroke-width="1.5" d="M33.5,-181C33.5,-175 39.5,-169 45.5,-169"/>
<polyline fill="none" stroke="#2e3436" stroke-width="1.5" points="45.5,-169 140.5,-169 "/>
<path fill="none" stroke="#2e3436" stroke-width="1.5" d="M140.5,-169C146.5,-169 152.5,-175 152.5,-181"/>
<polyline fill="none" stroke="#2e3436" stroke-width="1.5" points="152.5,-181 152.5,-193 "/>
<path fill="none" stroke="#2e3436" stroke-width="1.5" d="M152.5,-193C152.5,-199 146.5,-205 140.5,-205"/>
<polyline fill="none" stroke="#2e3436" stroke-width="1.5" points="140.5,-205 45.5,-205 "/>
<path fill="none" stroke="#2e3436" stroke-width="1.5" d="M45.5,-205C39.5,-205 33.5,-199 33.5,-193"/>
<polyline fill="none" stroke="#2e3436" stroke-width="1.5" points="33.5,-193 33.5,-181 "/>
<path fill="none" stroke="#2e3436" stroke-width="1.5" d="M33.5,-181C33.5,-175 39.5,-169 45.5,-169"/>
<text text-anchor="start" x="41.5" y="-184.8" font-family="FreeSans" font-size="8.00" fill="#1c2021">Node[374]name = &#39;Emil&#39;</text>
</g>
<!-- N373&#45;&gt;N374 -->
<g id="edge2" class="edge"><title>N373&#45;&gt;N374</title>
<path fill="none" stroke="#2e3436" stroke-width="2" d="M93,-252.773C93,-241.105 93,-225.787 93,-212.87"/>
<polygon fill="#2e3436" stroke="#2e3436" points="93,-205.191 96.3751,-212.691 93.5,-208.941 93.5001,-212.691 93.0001,-212.691 92.5001,-212.691 92.5,-208.941 89.6251,-212.691 93,-205.191 93,-205.191"/>
<text text-anchor="middle" x="107" y="-226.8" font-family="FreeSans" font-size="8.00" fill="#2e3436">knows</text>
</g>
<!-- N377 -->
<g id="node6" class="node"><title>N377</title>
<polygon fill="#ffffff" stroke="#ffffff" stroke-width="1.5" points="12,-85 112,-85 124,-97 124,-109 112,-121 12,-121 0,-109 0,-97 12,-85"/>
<path fill="#ffffff" stroke="#ffffff" stroke-width="1.5" d="M112,-85C118,-85 124,-91 124,-97"/>
<path fill="#ffffff" stroke="#ffffff" stroke-width="1.5" d="M124,-109C124,-115 118,-121 112,-121"/>
<path fill="#ffffff" stroke="#ffffff" stroke-width="1.5" d="M12,-121C6,-121 0,-115 0,-109"/>
<path fill="#ffffff" stroke="#ffffff" stroke-width="1.5" d="M0,-97C0,-91 6,-85 12,-85"/>
<polyline fill="none" stroke="#2e3436" stroke-width="1.5" points="12,-85 112,-85 "/>
<path fill="none" stroke="#2e3436" stroke-width="1.5" d="M112,-85C118,-85 124,-91 124,-97"/>
<polyline fill="none" stroke="#2e3436" stroke-width="1.5" points="124,-97 124,-109 "/>
<path fill="none" stroke="#2e3436" stroke-width="1.5" d="M124,-109C124,-115 118,-121 112,-121"/>
<polyline fill="none" stroke="#2e3436" stroke-width="1.5" points="112,-121 12,-121 "/>
<path fill="none" stroke="#2e3436" stroke-width="1.5" d="M12,-121C6,-121 0,-115 0,-109"/>
<polyline fill="none" stroke="#2e3436" stroke-width="1.5" points="0,-109 0,-97 "/>
<path fill="none" stroke="#2e3436" stroke-width="1.5" d="M0,-97C0,-91 6,-85 12,-85"/>
<text text-anchor="start" x="8" y="-100.8" font-family="FreeSans" font-size="8.00" fill="#1c2021">Node[377]name = &#39;Peter&#39;</text>
</g>
<!-- N374&#45;&gt;N377 -->
<g id="edge4" class="edge"><title>N374&#45;&gt;N377</title>
<path fill="none" stroke="#2e3436" stroke-width="2" d="M86.2735,-168.773C81.9268,-156.995 76.2076,-141.498 71.4125,-128.505"/>
<polygon fill="#2e3436" stroke="#2e3436" points="68.7134,-121.191 74.4764,-127.059 70.4809,-124.536 71.7792,-128.054 71.3101,-128.227 70.8411,-128.4 69.5427,-124.882 68.1439,-129.396 68.7134,-121.191 68.7134,-121.191"/>
<text text-anchor="middle" x="93" y="-142.8" font-family="FreeSans" font-size="8.00" fill="#2e3436">knows</text>
</g>
<!-- N376 -->
<g id="node8" class="node"><title>N376</title>
<polygon fill="#ffffff" stroke="#ffffff" stroke-width="1.5" points="165,-85 269,-85 281,-97 281,-109 269,-121 165,-121 153,-109 153,-97 165,-85"/>
<path fill="#ffffff" stroke="#ffffff" stroke-width="1.5" d="M269,-85C275,-85 281,-91 281,-97"/>
<path fill="#ffffff" stroke="#ffffff" stroke-width="1.5" d="M281,-109C281,-115 275,-121 269,-121"/>
<path fill="#ffffff" stroke="#ffffff" stroke-width="1.5" d="M165,-121C159,-121 153,-115 153,-109"/>
<path fill="#ffffff" stroke="#ffffff" stroke-width="1.5" d="M153,-97C153,-91 159,-85 165,-85"/>
<polyline fill="none" stroke="#2e3436" stroke-width="1.5" points="165,-85 269,-85 "/>
<path fill="none" stroke="#2e3436" stroke-width="1.5" d="M269,-85C275,-85 281,-91 281,-97"/>
<polyline fill="none" stroke="#2e3436" stroke-width="1.5" points="281,-97 281,-109 "/>
<path fill="none" stroke="#2e3436" stroke-width="1.5" d="M281,-109C281,-115 275,-121 269,-121"/>
<polyline fill="none" stroke="#2e3436" stroke-width="1.5" points="269,-121 165,-121 "/>
<path fill="none" stroke="#2e3436" stroke-width="1.5" d="M165,-121C159,-121 153,-115 153,-109"/>
<polyline fill="none" stroke="#2e3436" stroke-width="1.5" points="153,-109 153,-97 "/>
<path fill="none" stroke="#2e3436" stroke-width="1.5" d="M153,-97C153,-91 159,-85 165,-85"/>
<text text-anchor="start" x="161" y="-100.8" font-family="FreeSans" font-size="8.00" fill="#1c2021">Node[376]name = &#39;Tobias&#39;</text>
</g>
<!-- N374&#45;&gt;N376 -->
<g id="edge6" class="edge"><title>N374&#45;&gt;N376</title>
<path fill="none" stroke="#2e3436" stroke-width="2" d="M119.601,-168.98C138.351,-156.278 163.597,-139.176 183.688,-125.566"/>
<polygon fill="#2e3436" stroke="#2e3436" points="190.015,-121.28 185.698,-128.281 187.191,-123.797 184.086,-125.901 183.806,-125.487 183.525,-125.073 186.63,-122.969 181.913,-122.692 190.015,-121.28 190.015,-121.28"/>
<text text-anchor="middle" x="173" y="-142.8" font-family="FreeSans" font-size="8.00" fill="#2e3436">knows</text>
</g>
<!-- N376&#45;&gt;N372 -->
<g id="edge12" class="edge"><title>N376&#45;&gt;N372</title>
<path fill="none" stroke="#4e9a06" stroke-width="2" d="M217,-84.7733C217,-73.1053 217,-57.7874 217,-44.8699"/>
<polygon fill="#4e9a06" stroke="#4e9a06" points="217,-37.1912 220.375,-44.6911 217.5,-40.9412 217.5,-44.6912 217,-44.6912 216.5,-44.6912 216.5,-40.9412 213.625,-44.6912 217,-37.1912 217,-37.1912"/>
<text text-anchor="middle" x="228.5" y="-58.8" font-family="FreeSans" font-size="8.00" fill="#4e9a06">loves</text>
</g>
<!-- N375 -->
<g id="node9" class="node"><title>N375</title>
<polygon fill="#ffffff" stroke="#ffffff" stroke-width="1.5" points="147,-337 243,-337 255,-349 255,-361 243,-373 147,-373 135,-361 135,-349 147,-337"/>
<path fill="#ffffff" stroke="#ffffff" stroke-width="1.5" d="M243,-337C249,-337 255,-343 255,-349"/>
<path fill="#ffffff" stroke="#ffffff" stroke-width="1.5" d="M255,-361C255,-367 249,-373 243,-373"/>
<path fill="#ffffff" stroke="#ffffff" stroke-width="1.5" d="M147,-373C141,-373 135,-367 135,-361"/>
<path fill="#ffffff" stroke="#ffffff" stroke-width="1.5" d="M135,-349C135,-343 141,-337 147,-337"/>
<polyline fill="none" stroke="#2e3436" stroke-width="1.5" points="147,-337 243,-337 "/>
<path fill="none" stroke="#2e3436" stroke-width="1.5" d="M243,-337C249,-337 255,-343 255,-349"/>
<polyline fill="none" stroke="#2e3436" stroke-width="1.5" points="255,-349 255,-361 "/>
<path fill="none" stroke="#2e3436" stroke-width="1.5" d="M255,-361C255,-367 249,-373 243,-373"/>
<polyline fill="none" stroke="#2e3436" stroke-width="1.5" points="243,-373 147,-373 "/>
<path fill="none" stroke="#2e3436" stroke-width="1.5" d="M147,-373C141,-373 135,-367 135,-361"/>
<polyline fill="none" stroke="#2e3436" stroke-width="1.5" points="135,-361 135,-349 "/>
<path fill="none" stroke="#2e3436" stroke-width="1.5" d="M135,-349C135,-343 141,-337 147,-337"/>
<text text-anchor="start" x="143" y="-352.8" font-family="FreeSans" font-size="8.00" fill="#1c2021">Node[375]name = &#39;Root&#39;</text>
</g>
<!-- N375&#45;&gt;N373 -->
<g id="edge10" class="edge"><title>N375&#45;&gt;N373</title>
<path fill="none" stroke="#2e3436" stroke-width="2" d="M173.118,-336.98C157.895,-324.443 137.466,-307.619 121.048,-294.098"/>
<polygon fill="#2e3436" stroke="#2e3436" points="115.197,-289.28 123.132,-291.443 118.41,-291.278 121.305,-293.662 120.987,-294.048 120.669,-294.434 117.774,-292.05 118.841,-296.653 115.197,-289.28 115.197,-289.28"/>
<text text-anchor="middle" x="162" y="-310.8" font-family="FreeSans" font-size="8.00" fill="#2e3436">knows</text>
</g>
<!-- N378 -->
<g id="node11" class="node"><title>N378</title>
<polygon fill="#ffffff" stroke="#ffffff" stroke-width="1.5" points="196,-253 304,-253 316,-265 316,-277 304,-289 196,-289 184,-277 184,-265 196,-253"/>
<path fill="#ffffff" stroke="#ffffff" stroke-width="1.5" d="M304,-253C310,-253 316,-259 316,-265"/>
<path fill="#ffffff" stroke="#ffffff" stroke-width="1.5" d="M316,-277C316,-283 310,-289 304,-289"/>
<path fill="#ffffff" stroke="#ffffff" stroke-width="1.5" d="M196,-289C190,-289 184,-283 184,-277"/>
<path fill="#ffffff" stroke="#ffffff" stroke-width="1.5" d="M184,-265C184,-259 190,-253 196,-253"/>
<polyline fill="none" stroke="#2e3436" stroke-width="1.5" points="196,-253 304,-253 "/>
<path fill="none" stroke="#2e3436" stroke-width="1.5" d="M304,-253C310,-253 316,-259 316,-265"/>
<polyline fill="none" stroke="#2e3436" stroke-width="1.5" points="316,-265 316,-277 "/>
<path fill="none" stroke="#2e3436" stroke-width="1.5" d="M316,-277C316,-283 310,-289 304,-289"/>
<polyline fill="none" stroke="#2e3436" stroke-width="1.5" points="304,-289 196,-289 "/>
<path fill="none" stroke="#2e3436" stroke-width="1.5" d="M196,-289C190,-289 184,-283 184,-277"/>
<polyline fill="none" stroke="#2e3436" stroke-width="1.5" points="184,-277 184,-265 "/>
<path fill="none" stroke="#2e3436" stroke-width="1.5" d="M184,-265C184,-259 190,-253 196,-253"/>
<text text-anchor="start" x="192" y="-268.8" font-family="FreeSans" font-size="8.00" fill="#1c2021">Node[378]name = &#39;Mattias&#39;</text>
</g>
<!-- N375&#45;&gt;N378 -->
<g id="edge8" class="edge"><title>N375&#45;&gt;N378</title>
<path fill="none" stroke="#2e3436" stroke-width="2" d="M206.934,-336.773C214.79,-324.775 225.173,-308.917 233.776,-295.779"/>
<polygon fill="#2e3436" stroke="#2e3436" points="238.089,-289.191 236.804,-297.315 236.453,-292.602 234.399,-295.74 233.981,-295.466 233.562,-295.192 235.617,-292.055 231.157,-293.617 238.089,-289.191 238.089,-289.191"/>
<text text-anchor="middle" x="239" y="-310.8" font-family="FreeSans" font-size="8.00" fill="#2e3436">knows</text>
</g>
</g>
</svg>
