<?xml version="1.0" encoding="UTF-8" standalone="no"?>
<!DOCTYPE svg PUBLIC "-//W3C//DTD SVG 1.1//EN"
 "http://www.w3.org/Graphics/SVG/1.1/DTD/svg11.dtd">
<!-- Generated by graphviz version 2.26.3 (20100126.1600)
 -->
<!-- Title: g Pages: 1 -->
<svg width="118pt" height="76pt"
 viewBox="0.00 0.00 118.00 76.00" xmlns="http://www.w3.org/2000/svg" xmlns:xlink="http://www.w3.org/1999/xlink">
<g id="graph1" class="graph" transform="scale(1 1) rotate(0) translate(4 72)">
<title>g</title>
<polygon fill="white" stroke="white" points="-4,5 -4,-72 115,-72 115,5 -4,5"/>
<!-- N44 -->
<g id="node1" class="node"><title>N44</title>
<polygon fill="#ffffff" stroke="#ffffff" stroke-width="1.5" points="12,-1 98,-1 110,-13 110,-55 98,-67 12,-67 0,-55 0,-13 12,-1"/>
<path fill="#ffffff" stroke="#ffffff" stroke-width="1.5" d="M98,-1C104,-1 110,-7 110,-13"/>
<path fill="#ffffff" stroke="#ffffff" stroke-width="1.5" d="M110,-55C110,-61 104,-67 98,-67"/>
<path fill="#ffffff" stroke="#ffffff" stroke-width="1.5" d="M12,-67C6,-67 0,-61 0,-55"/>
<path fill="#ffffff" stroke="#ffffff" stroke-width="1.5" d="M0,-13C0,-7 6,-1 12,-1"/>
<polyline fill="none" stroke="#2e3436" stroke-width="1.5" points="12,-1 98,-1 "/>
<path fill="none" stroke="#2e3436" stroke-width="1.5" d="M98,-1C104,-1 110,-7 110,-13"/>
<polyline fill="none" stroke="#2e3436" stroke-width="1.5" points="110,-13 110,-55 "/>
<path fill="none" stroke="#2e3436" stroke-width="1.5" d="M110,-55C110,-61 104,-67 98,-67"/>
<polyline fill="none" stroke="#2e3436" stroke-width="1.5" points="98,-67 12,-67 "/>
<path fill="none" stroke="#2e3436" stroke-width="1.5" d="M12,-67C6,-67 0,-61 0,-55"/>
<polyline fill="none" stroke="#2e3436" stroke-width="1.5" points="0,-55 0,-13 "/>
<path fill="none" stroke="#2e3436" stroke-width="1.5" d="M0,-13C0,-7 6,-1 12,-1"/>
<text text-anchor="middle" x="55" y="-55.8" font-family="FreeSans" font-size="8.00" fill="#1c2021">Node[44]: Person</text>
<polyline fill="none" stroke="#2e3436" stroke-width="1.5" points="0,-49 110,-49 "/>
<text text-anchor="start" x="8" y="-37.8" font-family="FreeSans" font-size="8.00" fill="#1c2021">name = &#39;Michael&#39;</text>
<text text-anchor="start" x="8" y="-27.8" font-family="FreeSans" font-size="8.00" fill="#1c2021">position = &#39;Developer&#39;</text>
<text text-anchor="start" x="8" y="-17.8" font-family="FreeSans" font-size="8.00" fill="#1c2021">awesome = true</text>
<text text-anchor="start" x="8" y="-7.8" font-family="FreeSans" font-size="8.00" fill="#1c2021">children = 3</text>
</g>
</g>
</svg>
