<?xml version="1.0" encoding="UTF-8" standalone="no"?>
<!DOCTYPE svg PUBLIC "-//W3C//DTD SVG 1.1//EN"
 "http://www.w3.org/Graphics/SVG/1.1/DTD/svg11.dtd">
<!-- Generated by graphviz version 2.26.3 (20100126.1600)
 -->
<!-- Title: g Pages: 1 -->
<svg width="241pt" height="130pt"
 viewBox="0.00 0.00 241.00 130.00" xmlns="http://www.w3.org/2000/svg" xmlns:xlink="http://www.w3.org/1999/xlink">
<g id="graph1" class="graph" transform="scale(1 1) rotate(0) translate(4 126)">
<title>g</title>
<polygon fill="white" stroke="white" points="-4,5 -4,-126 238,-126 238,5 -4,5"/>
<!-- N67 -->
<g id="node1" class="node"><title>N67</title>
<polygon fill="#ffffff" stroke="#ffffff" stroke-width="1.5" points="11.5,-1 98.5,-1 110.5,-13 110.5,-25 98.5,-37 11.5,-37 -0.5,-25 -0.5,-13 11.5,-1"/>
<path fill="#ffffff" stroke="#ffffff" stroke-width="1.5" d="M98.5,-1C104.5,-1 110.5,-7 110.5,-13"/>
<path fill="#ffffff" stroke="#ffffff" stroke-width="1.5" d="M110.5,-25C110.5,-31 104.5,-37 98.5,-37"/>
<path fill="#ffffff" stroke="#ffffff" stroke-width="1.5" d="M11.5,-37C5.5,-37 -0.5,-31 -0.5,-25"/>
<path fill="#ffffff" stroke="#ffffff" stroke-width="1.5" d="M-0.5,-13C-0.5,-7 5.5,-1 11.5,-1"/>
<polyline fill="none" stroke="#2e3436" stroke-width="1.5" points="11.5,-1 98.5,-1 "/>
<path fill="none" stroke="#2e3436" stroke-width="1.5" d="M98.5,-1C104.5,-1 110.5,-7 110.5,-13"/>
<polyline fill="none" stroke="#2e3436" stroke-width="1.5" points="110.5,-13 110.5,-25 "/>
<path fill="none" stroke="#2e3436" stroke-width="1.5" d="M110.5,-25C110.5,-31 104.5,-37 98.5,-37"/>
<polyline fill="none" stroke="#2e3436" stroke-width="1.5" points="98.5,-37 11.5,-37 "/>
<path fill="none" stroke="#2e3436" stroke-width="1.5" d="M11.5,-37C5.5,-37 -0.5,-31 -0.5,-25"/>
<polyline fill="none" stroke="#2e3436" stroke-width="1.5" points="-0.5,-25 -0.5,-13 "/>
<path fill="none" stroke="#2e3436" stroke-width="1.5" d="M-0.5,-13C-0.5,-7 5.5,-1 11.5,-1"/>
<text text-anchor="start" x="7.5" y="-16.8" font-family="FreeSans" font-size="8.00" fill="#1c2021">Node[67]name = &#39;you&#39;</text>
</g>
<!-- N68 -->
<g id="node2" class="node"><title>N68</title>
<polygon fill="#ffffff" stroke="#ffffff" stroke-width="1.5" points="151,-1 221,-1 233,-13 233,-25 221,-37 151,-37 139,-25 139,-13 151,-1"/>
<path fill="#ffffff" stroke="#ffffff" stroke-width="1.5" d="M221,-1C227,-1 233,-7 233,-13"/>
<path fill="#ffffff" stroke="#ffffff" stroke-width="1.5" d="M233,-25C233,-31 227,-37 221,-37"/>
<path fill="#ffffff" stroke="#ffffff" stroke-width="1.5" d="M151,-37C145,-37 139,-31 139,-25"/>
<path fill="#ffffff" stroke="#ffffff" stroke-width="1.5" d="M139,-13C139,-7 145,-1 151,-1"/>
<polyline fill="none" stroke="#2e3436" stroke-width="1.5" points="151,-1 221,-1 "/>
<path fill="none" stroke="#2e3436" stroke-width="1.5" d="M221,-1C227,-1 233,-7 233,-13"/>
<polyline fill="none" stroke="#2e3436" stroke-width="1.5" points="233,-13 233,-25 "/>
<path fill="none" stroke="#2e3436" stroke-width="1.5" d="M233,-25C233,-31 227,-37 221,-37"/>
<polyline fill="none" stroke="#2e3436" stroke-width="1.5" points="221,-37 151,-37 "/>
<path fill="none" stroke="#2e3436" stroke-width="1.5" d="M151,-37C145,-37 139,-31 139,-25"/>
<polyline fill="none" stroke="#2e3436" stroke-width="1.5" points="139,-25 139,-13 "/>
<path fill="none" stroke="#2e3436" stroke-width="1.5" d="M139,-13C139,-7 145,-1 151,-1"/>
<text text-anchor="start" x="147" y="-21.8" font-family="FreeSans" font-size="8.00" fill="#1c2021">Node[68]age = 25</text>
<text text-anchor="start" x="147" y="-11.8" font-family="FreeSans" font-size="8.00" fill="#1c2021">name = &#39;him&#39;</text>
</g>
<!-- N69 -->
<g id="node3" class="node"><title>N69</title>
<polygon fill="#ffffff" stroke="#ffffff" stroke-width="1.5" points="83,-85 157,-85 169,-97 169,-109 157,-121 83,-121 71,-109 71,-97 83,-85"/>
<path fill="#ffffff" stroke="#ffffff" stroke-width="1.5" d="M157,-85C163,-85 169,-91 169,-97"/>
<path fill="#ffffff" stroke="#ffffff" stroke-width="1.5" d="M169,-109C169,-115 163,-121 157,-121"/>
<path fill="#ffffff" stroke="#ffffff" stroke-width="1.5" d="M83,-121C77,-121 71,-115 71,-109"/>
<path fill="#ffffff" stroke="#ffffff" stroke-width="1.5" d="M71,-97C71,-91 77,-85 83,-85"/>
<polyline fill="none" stroke="#2e3436" stroke-width="1.5" points="83,-85 157,-85 "/>
<path fill="none" stroke="#2e3436" stroke-width="1.5" d="M157,-85C163,-85 169,-91 169,-97"/>
<polyline fill="none" stroke="#2e3436" stroke-width="1.5" points="169,-97 169,-109 "/>
<path fill="none" stroke="#2e3436" stroke-width="1.5" d="M169,-109C169,-115 163,-121 157,-121"/>
<polyline fill="none" stroke="#2e3436" stroke-width="1.5" points="157,-121 83,-121 "/>
<path fill="none" stroke="#2e3436" stroke-width="1.5" d="M83,-121C77,-121 71,-115 71,-109"/>
<polyline fill="none" stroke="#2e3436" stroke-width="1.5" points="71,-109 71,-97 "/>
<path fill="none" stroke="#2e3436" stroke-width="1.5" d="M71,-97C71,-91 77,-85 83,-85"/>
<text text-anchor="start" x="79" y="-100.8" font-family="FreeSans" font-size="8.00" fill="#1c2021">Node[69]name = &#39;I&#39;</text>
</g>
<!-- N69&#45;&gt;N67 -->
<g id="edge4" class="edge"><title>N69&#45;&gt;N67</title>
<path fill="none" stroke="#2e3436" stroke-width="2" d="M105.896,-84.7733C96.5265,-72.665 84.1155,-56.6261 73.895,-43.4181"/>
<polygon fill="#2e3436" stroke="#2e3436" points="69.0765,-37.1912 76.3356,-41.0573 71.7669,-39.851 74.0619,-42.8167 73.6664,-43.1227 73.271,-43.4287 70.976,-40.4629 70.9972,-45.1882 69.0765,-37.1912 69.0765,-37.1912"/>
<text text-anchor="middle" x="101" y="-58.8" font-family="FreeSans" font-size="8.00" fill="#2e3436">know</text>
</g>
<!-- N69&#45;&gt;N68 -->
<g id="edge2" class="edge"><title>N69&#45;&gt;N68</title>
<path fill="none" stroke="#2e3436" stroke-width="2" d="M134.321,-84.7733C143.835,-72.665 156.437,-56.6261 166.814,-43.4181"/>
<polygon fill="#2e3436" stroke="#2e3436" points="171.707,-37.1912 169.727,-45.1737 169.783,-40.4488 167.466,-43.3975 167.073,-43.0886 166.68,-42.7797 168.997,-39.831 164.419,-41.0034 171.707,-37.1912 171.707,-37.1912"/>
<text text-anchor="middle" x="165" y="-58.8" font-family="FreeSans" font-size="8.00" fill="#2e3436">know</text>
</g>
</g>
</svg>
