<?xml version="1.0" encoding="UTF-8" standalone="no"?>
<!DOCTYPE svg PUBLIC "-//W3C//DTD SVG 1.1//EN"
 "http://www.w3.org/Graphics/SVG/1.1/DTD/svg11.dtd">
<!-- Generated by graphviz version 2.26.3 (20100126.1600)
 -->
<!-- Title: g Pages: 1 -->
<svg width="412pt" height="46pt"
 viewBox="0.00 0.00 412.00 46.00" xmlns="http://www.w3.org/2000/svg" xmlns:xlink="http://www.w3.org/1999/xlink">
<g id="graph1" class="graph" transform="scale(1 1) rotate(0) translate(4 42)">
<title>g</title>
<polygon fill="white" stroke="white" points="-4,5 -4,-42 409,-42 409,5 -4,5"/>
<!-- N116 -->
<g id="node1" class="node"><title>N116</title>
<polygon fill="#ffffff" stroke="#ffffff" stroke-width="1.5" points="11.5,-1 118.5,-1 130.5,-13 130.5,-25 118.5,-37 11.5,-37 -0.5,-25 -0.5,-13 11.5,-1"/>
<path fill="#ffffff" stroke="#ffffff" stroke-width="1.5" d="M118.5,-1C124.5,-1 130.5,-7 130.5,-13"/>
<path fill="#ffffff" stroke="#ffffff" stroke-width="1.5" d="M130.5,-25C130.5,-31 124.5,-37 118.5,-37"/>
<path fill="#ffffff" stroke="#ffffff" stroke-width="1.5" d="M11.5,-37C5.5,-37 -0.5,-31 -0.5,-25"/>
<path fill="#ffffff" stroke="#ffffff" stroke-width="1.5" d="M-0.5,-13C-0.5,-7 5.5,-1 11.5,-1"/>
<polyline fill="none" stroke="#2e3436" stroke-width="1.5" points="11.5,-1 118.5,-1 "/>
<path fill="none" stroke="#2e3436" stroke-width="1.5" d="M118.5,-1C124.5,-1 130.5,-7 130.5,-13"/>
<polyline fill="none" stroke="#2e3436" stroke-width="1.5" points="130.5,-13 130.5,-25 "/>
<path fill="none" stroke="#2e3436" stroke-width="1.5" d="M130.5,-25C130.5,-31 124.5,-37 118.5,-37"/>
<polyline fill="none" stroke="#2e3436" stroke-width="1.5" points="118.5,-37 11.5,-37 "/>
<path fill="none" stroke="#2e3436" stroke-width="1.5" d="M11.5,-37C5.5,-37 -0.5,-31 -0.5,-25"/>
<polyline fill="none" stroke="#2e3436" stroke-width="1.5" points="-0.5,-25 -0.5,-13 "/>
<path fill="none" stroke="#2e3436" stroke-width="1.5" d="M-0.5,-13C-0.5,-7 5.5,-1 11.5,-1"/>
<text text-anchor="middle" x="65" y="-25.8" font-family="FreeSans" font-size="8.00" fill="#1c2021">Node[116]: Person</text>
<polyline fill="none" stroke="#2e3436" stroke-width="1.5" points="-0.5,-19 130.5,-19 "/>
<text text-anchor="start" x="7.5" y="-7.8" font-family="FreeSans" font-size="8.00" fill="#1c2021">name = &#39;Steven Spielberg&#39;</text>
</g>
<!-- N117 -->
<g id="node2" class="node"><title>N117</title>
<polygon fill="#ffffff" stroke="#ffffff" stroke-width="1.5" points="170.5,-1 267.5,-1 279.5,-13 279.5,-25 267.5,-37 170.5,-37 158.5,-25 158.5,-13 170.5,-1"/>
<path fill="#ffffff" stroke="#ffffff" stroke-width="1.5" d="M267.5,-1C273.5,-1 279.5,-7 279.5,-13"/>
<path fill="#ffffff" stroke="#ffffff" stroke-width="1.5" d="M279.5,-25C279.5,-31 273.5,-37 267.5,-37"/>
<path fill="#ffffff" stroke="#ffffff" stroke-width="1.5" d="M170.5,-37C164.5,-37 158.5,-31 158.5,-25"/>
<path fill="#ffffff" stroke="#ffffff" stroke-width="1.5" d="M158.5,-13C158.5,-7 164.5,-1 170.5,-1"/>
<polyline fill="none" stroke="#2e3436" stroke-width="1.5" points="170.5,-1 267.5,-1 "/>
<path fill="none" stroke="#2e3436" stroke-width="1.5" d="M267.5,-1C273.5,-1 279.5,-7 279.5,-13"/>
<polyline fill="none" stroke="#2e3436" stroke-width="1.5" points="279.5,-13 279.5,-25 "/>
<path fill="none" stroke="#2e3436" stroke-width="1.5" d="M279.5,-25C279.5,-31 273.5,-37 267.5,-37"/>
<polyline fill="none" stroke="#2e3436" stroke-width="1.5" points="267.5,-37 170.5,-37 "/>
<path fill="none" stroke="#2e3436" stroke-width="1.5" d="M170.5,-37C164.5,-37 158.5,-31 158.5,-25"/>
<polyline fill="none" stroke="#2e3436" stroke-width="1.5" points="158.5,-25 158.5,-13 "/>
<path fill="none" stroke="#2e3436" stroke-width="1.5" d="M158.5,-13C158.5,-7 164.5,-1 170.5,-1"/>
<text text-anchor="middle" x="219" y="-25.8" font-family="FreeSans" font-size="8.00" fill="#1c2021">Node[117]: Person</text>
<polyline fill="none" stroke="#2e3436" stroke-width="1.5" points="158.5,-19 279.5,-19 "/>
<text text-anchor="start" x="166.5" y="-7.8" font-family="FreeSans" font-size="8.00" fill="#1c2021">name = &#39;Clint Eastwood&#39;</text>
</g>
<!-- N118 -->
<g id="node3" class="node"><title>N118</title>
<polygon fill="#ffffff" stroke="#ffffff" stroke-width="1.5" points="320,-1 392,-1 404,-13 404,-25 392,-37 320,-37 308,-25 308,-13 320,-1"/>
<path fill="#ffffff" stroke="#ffffff" stroke-width="1.5" d="M392,-1C398,-1 404,-7 404,-13"/>
<path fill="#ffffff" stroke="#ffffff" stroke-width="1.5" d="M404,-25C404,-31 398,-37 392,-37"/>
<path fill="#ffffff" stroke="#ffffff" stroke-width="1.5" d="M320,-37C314,-37 308,-31 308,-25"/>
<path fill="#ffffff" stroke="#ffffff" stroke-width="1.5" d="M308,-13C308,-7 314,-1 320,-1"/>
<polyline fill="none" stroke="#2e3436" stroke-width="1.5" points="320,-1 392,-1 "/>
<path fill="none" stroke="#2e3436" stroke-width="1.5" d="M392,-1C398,-1 404,-7 404,-13"/>
<polyline fill="none" stroke="#2e3436" stroke-width="1.5" points="404,-13 404,-25 "/>
<path fill="none" stroke="#2e3436" stroke-width="1.5" d="M404,-25C404,-31 398,-37 392,-37"/>
<polyline fill="none" stroke="#2e3436" stroke-width="1.5" points="392,-37 320,-37 "/>
<path fill="none" stroke="#2e3436" stroke-width="1.5" d="M320,-37C314,-37 308,-31 308,-25"/>
<polyline fill="none" stroke="#2e3436" stroke-width="1.5" points="308,-25 308,-13 "/>
<path fill="none" stroke="#2e3436" stroke-width="1.5" d="M308,-13C308,-7 314,-1 320,-1"/>
<text text-anchor="middle" x="356" y="-25.8" font-family="FreeSans" font-size="8.00" fill="#1c2021">Node[118]: Person</text>
<polyline fill="none" stroke="#2e3436" stroke-width="1.5" points="308,-19 404,-19 "/>
<text text-anchor="middle" x="356" y="-7.8" font-family="FreeSans" font-size="8.00" fill="#1c2021"> </text>
</g>
</g>
</svg>
