<?xml version="1.0" encoding="UTF-8" standalone="no"?>
<!DOCTYPE svg PUBLIC "-//W3C//DTD SVG 1.1//EN"
 "http://www.w3.org/Graphics/SVG/1.1/DTD/svg11.dtd">
<!-- Generated by graphviz version 2.26.3 (20100126.1600)
 -->
<!-- Title: g Pages: 1 -->
<svg width="343pt" height="346pt"
 viewBox="0.00 0.00 343.00 346.00" xmlns="http://www.w3.org/2000/svg" xmlns:xlink="http://www.w3.org/1999/xlink">
<g id="graph1" class="graph" transform="scale(1 1) rotate(0) translate(4 342)">
<title>g</title>
<polygon fill="white" stroke="white" points="-4,5 -4,-342 340,-342 340,5 -4,5"/>
<!-- N183 -->
<g id="node1" class="node"><title>N183</title>
<polygon fill="#ffffff" stroke="#ffffff" stroke-width="1.5" points="12,-151 92,-151 104,-163 104,-175 92,-187 12,-187 0,-175 0,-163 12,-151"/>
<path fill="#ffffff" stroke="#ffffff" stroke-width="1.5" d="M92,-151C98,-151 104,-157 104,-163"/>
<path fill="#ffffff" stroke="#ffffff" stroke-width="1.5" d="M104,-175C104,-181 98,-187 92,-187"/>
<path fill="#ffffff" stroke="#ffffff" stroke-width="1.5" d="M12,-187C6,-187 0,-181 0,-175"/>
<path fill="#ffffff" stroke="#ffffff" stroke-width="1.5" d="M0,-163C0,-157 6,-151 12,-151"/>
<polyline fill="none" stroke="#2e3436" stroke-width="1.5" points="12,-151 92,-151 "/>
<path fill="none" stroke="#2e3436" stroke-width="1.5" d="M92,-151C98,-151 104,-157 104,-163"/>
<polyline fill="none" stroke="#2e3436" stroke-width="1.5" points="104,-163 104,-175 "/>
<path fill="none" stroke="#2e3436" stroke-width="1.5" d="M104,-175C104,-181 98,-187 92,-187"/>
<polyline fill="none" stroke="#2e3436" stroke-width="1.5" points="92,-187 12,-187 "/>
<path fill="none" stroke="#2e3436" stroke-width="1.5" d="M12,-187C6,-187 0,-181 0,-175"/>
<polyline fill="none" stroke="#2e3436" stroke-width="1.5" points="0,-175 0,-163 "/>
<path fill="none" stroke="#2e3436" stroke-width="1.5" d="M0,-163C0,-157 6,-151 12,-151"/>
<text text-anchor="start" x="8" y="-166.8" font-family="FreeSans" font-size="8.00" fill="#1c2021">Node[183]name = &#39;f&#39;</text>
</g>
<!-- N185 -->
<g id="node3" class="node"><title>N185</title>
<polygon fill="#ffffff" stroke="#ffffff" stroke-width="1.5" points="113.5,-1 196.5,-1 208.5,-13 208.5,-25 196.5,-37 113.5,-37 101.5,-25 101.5,-13 113.5,-1"/>
<path fill="#ffffff" stroke="#ffffff" stroke-width="1.5" d="M196.5,-1C202.5,-1 208.5,-7 208.5,-13"/>
<path fill="#ffffff" stroke="#ffffff" stroke-width="1.5" d="M208.5,-25C208.5,-31 202.5,-37 196.5,-37"/>
<path fill="#ffffff" stroke="#ffffff" stroke-width="1.5" d="M113.5,-37C107.5,-37 101.5,-31 101.5,-25"/>
<path fill="#ffffff" stroke="#ffffff" stroke-width="1.5" d="M101.5,-13C101.5,-7 107.5,-1 113.5,-1"/>
<polyline fill="none" stroke="#2e3436" stroke-width="1.5" points="113.5,-1 196.5,-1 "/>
<path fill="none" stroke="#2e3436" stroke-width="1.5" d="M196.5,-1C202.5,-1 208.5,-7 208.5,-13"/>
<polyline fill="none" stroke="#2e3436" stroke-width="1.5" points="208.5,-13 208.5,-25 "/>
<path fill="none" stroke="#2e3436" stroke-width="1.5" d="M208.5,-25C208.5,-31 202.5,-37 196.5,-37"/>
<polyline fill="none" stroke="#2e3436" stroke-width="1.5" points="196.5,-37 113.5,-37 "/>
<path fill="none" stroke="#2e3436" stroke-width="1.5" d="M113.5,-37C107.5,-37 101.5,-31 101.5,-25"/>
<polyline fill="none" stroke="#2e3436" stroke-width="1.5" points="101.5,-25 101.5,-13 "/>
<path fill="none" stroke="#2e3436" stroke-width="1.5" d="M101.5,-13C101.5,-7 107.5,-1 113.5,-1"/>
<text text-anchor="start" x="109.5" y="-16.8" font-family="FreeSans" font-size="8.00" fill="#1c2021">Node[185]name = &#39;e&#39;</text>
</g>
<!-- N183&#45;&gt;N185 -->
<g id="edge2" class="edge"><title>N183&#45;&gt;N185</title>
<path fill="none" stroke="#2e3436" stroke-width="2" d="M64.4242,-150.906C82.8293,-124.103 117.387,-73.7758 138.086,-43.6318"/>
<polygon fill="#2e3436" stroke="#2e3436" points="142.532,-37.1577 141.068,-45.2509 140.821,-40.5321 138.698,-43.6234 138.286,-43.3404 137.874,-43.0574 139.997,-39.966 135.504,-41.4299 142.532,-37.1577 142.532,-37.1577"/>
<text text-anchor="middle" x="126.5" y="-115.8" font-family="FreeSans" font-size="8.00" fill="#2e3436">to</text>
<text text-anchor="start" x="104" y="-105.8" font-family="FreeSans" font-size="8.00" fill="#2e3436">cost = 1.0</text>
</g>
<!-- N184 -->
<g id="node4" class="node"><title>N184</title>
<polygon fill="#ffffff" stroke="#ffffff" stroke-width="1.5" points="240.5,-95 323.5,-95 335.5,-107 335.5,-119 323.5,-131 240.5,-131 228.5,-119 228.5,-107 240.5,-95"/>
<path fill="#ffffff" stroke="#ffffff" stroke-width="1.5" d="M323.5,-95C329.5,-95 335.5,-101 335.5,-107"/>
<path fill="#ffffff" stroke="#ffffff" stroke-width="1.5" d="M335.5,-119C335.5,-125 329.5,-131 323.5,-131"/>
<path fill="#ffffff" stroke="#ffffff" stroke-width="1.5" d="M240.5,-131C234.5,-131 228.5,-125 228.5,-119"/>
<path fill="#ffffff" stroke="#ffffff" stroke-width="1.5" d="M228.5,-107C228.5,-101 234.5,-95 240.5,-95"/>
<polyline fill="none" stroke="#2e3436" stroke-width="1.5" points="240.5,-95 323.5,-95 "/>
<path fill="none" stroke="#2e3436" stroke-width="1.5" d="M323.5,-95C329.5,-95 335.5,-101 335.5,-107"/>
<polyline fill="none" stroke="#2e3436" stroke-width="1.5" points="335.5,-107 335.5,-119 "/>
<path fill="none" stroke="#2e3436" stroke-width="1.5" d="M335.5,-119C335.5,-125 329.5,-131 323.5,-131"/>
<polyline fill="none" stroke="#2e3436" stroke-width="1.5" points="323.5,-131 240.5,-131 "/>
<path fill="none" stroke="#2e3436" stroke-width="1.5" d="M240.5,-131C234.5,-131 228.5,-125 228.5,-119"/>
<polyline fill="none" stroke="#2e3436" stroke-width="1.5" points="228.5,-119 228.5,-107 "/>
<path fill="none" stroke="#2e3436" stroke-width="1.5" d="M228.5,-107C228.5,-101 234.5,-95 240.5,-95"/>
<text text-anchor="start" x="236.5" y="-110.8" font-family="FreeSans" font-size="8.00" fill="#1c2021">Node[184]name = &#39;d&#39;</text>
</g>
<!-- N184&#45;&gt;N185 -->
<g id="edge4" class="edge"><title>N184&#45;&gt;N185</title>
<path fill="none" stroke="#2e3436" stroke-width="2" d="M257.513,-94.8759C237.045,-79.7261 207.747,-58.041 185.71,-41.7302"/>
<polygon fill="#2e3436" stroke="#2e3436" points="179.412,-37.0685 187.448,-38.8177 182.723,-38.8976 185.738,-41.1286 185.44,-41.5305 185.143,-41.9324 182.128,-39.7014 183.432,-44.2433 179.412,-37.0685 179.412,-37.0685"/>
<text text-anchor="middle" x="251.5" y="-68.8" font-family="FreeSans" font-size="8.00" fill="#2e3436">to</text>
<text text-anchor="start" x="229" y="-58.8" font-family="FreeSans" font-size="8.00" fill="#2e3436">cost = 0.5</text>
</g>
<!-- N186 -->
<g id="node6" class="node"><title>N186</title>
<polygon fill="#ffffff" stroke="#ffffff" stroke-width="1.5" points="120.5,-151 203.5,-151 215.5,-163 215.5,-175 203.5,-187 120.5,-187 108.5,-175 108.5,-163 120.5,-151"/>
<path fill="#ffffff" stroke="#ffffff" stroke-width="1.5" d="M203.5,-151C209.5,-151 215.5,-157 215.5,-163"/>
<path fill="#ffffff" stroke="#ffffff" stroke-width="1.5" d="M215.5,-175C215.5,-181 209.5,-187 203.5,-187"/>
<path fill="#ffffff" stroke="#ffffff" stroke-width="1.5" d="M120.5,-187C114.5,-187 108.5,-181 108.5,-175"/>
<path fill="#ffffff" stroke="#ffffff" stroke-width="1.5" d="M108.5,-163C108.5,-157 114.5,-151 120.5,-151"/>
<polyline fill="none" stroke="#2e3436" stroke-width="1.5" points="120.5,-151 203.5,-151 "/>
<path fill="none" stroke="#2e3436" stroke-width="1.5" d="M203.5,-151C209.5,-151 215.5,-157 215.5,-163"/>
<polyline fill="none" stroke="#2e3436" stroke-width="1.5" points="215.5,-163 215.5,-175 "/>
<path fill="none" stroke="#2e3436" stroke-width="1.5" d="M215.5,-175C215.5,-181 209.5,-187 203.5,-187"/>
<polyline fill="none" stroke="#2e3436" stroke-width="1.5" points="203.5,-187 120.5,-187 "/>
<path fill="none" stroke="#2e3436" stroke-width="1.5" d="M120.5,-187C114.5,-187 108.5,-181 108.5,-175"/>
<polyline fill="none" stroke="#2e3436" stroke-width="1.5" points="108.5,-175 108.5,-163 "/>
<path fill="none" stroke="#2e3436" stroke-width="1.5" d="M108.5,-163C108.5,-157 114.5,-151 120.5,-151"/>
<text text-anchor="start" x="116.5" y="-166.8" font-family="FreeSans" font-size="8.00" fill="#1c2021">Node[186]name = &#39;b&#39;</text>
</g>
<!-- N186&#45;&gt;N185 -->
<g id="edge6" class="edge"><title>N186&#45;&gt;N185</title>
<path fill="none" stroke="#2e3436" stroke-width="2" d="M161.156,-150.906C159.921,-124.441 157.615,-75.0408 156.203,-44.7812"/>
<polygon fill="#2e3436" stroke="#2e3436" points="155.847,-37.1577 159.568,-44.4921 156.522,-40.8803 156.697,-44.6262 156.197,-44.6495 155.698,-44.6728 155.523,-40.9269 152.826,-44.8069 155.847,-37.1577 155.847,-37.1577"/>
<text text-anchor="middle" x="182.5" y="-115.8" font-family="FreeSans" font-size="8.00" fill="#2e3436">to</text>
<text text-anchor="start" x="160" y="-105.8" font-family="FreeSans" font-size="8.00" fill="#2e3436">cost = 0.5</text>
</g>
<!-- N187 -->
<g id="node8" class="node"><title>N187</title>
<polygon fill="#ffffff" stroke="#ffffff" stroke-width="1.5" points="224,-207 306,-207 318,-219 318,-231 306,-243 224,-243 212,-231 212,-219 224,-207"/>
<path fill="#ffffff" stroke="#ffffff" stroke-width="1.5" d="M306,-207C312,-207 318,-213 318,-219"/>
<path fill="#ffffff" stroke="#ffffff" stroke-width="1.5" d="M318,-231C318,-237 312,-243 306,-243"/>
<path fill="#ffffff" stroke="#ffffff" stroke-width="1.5" d="M224,-243C218,-243 212,-237 212,-231"/>
<path fill="#ffffff" stroke="#ffffff" stroke-width="1.5" d="M212,-219C212,-213 218,-207 224,-207"/>
<polyline fill="none" stroke="#2e3436" stroke-width="1.5" points="224,-207 306,-207 "/>
<path fill="none" stroke="#2e3436" stroke-width="1.5" d="M306,-207C312,-207 318,-213 318,-219"/>
<polyline fill="none" stroke="#2e3436" stroke-width="1.5" points="318,-219 318,-231 "/>
<path fill="none" stroke="#2e3436" stroke-width="1.5" d="M318,-231C318,-237 312,-243 306,-243"/>
<polyline fill="none" stroke="#2e3436" stroke-width="1.5" points="306,-243 224,-243 "/>
<path fill="none" stroke="#2e3436" stroke-width="1.5" d="M224,-243C218,-243 212,-237 212,-231"/>
<polyline fill="none" stroke="#2e3436" stroke-width="1.5" points="212,-231 212,-219 "/>
<path fill="none" stroke="#2e3436" stroke-width="1.5" d="M212,-219C212,-213 218,-207 224,-207"/>
<text text-anchor="start" x="220" y="-222.8" font-family="FreeSans" font-size="8.00" fill="#1c2021">Node[187]name = &#39;c&#39;</text>
</g>
<!-- N187&#45;&gt;N184 -->
<g id="edge8" class="edge"><title>N187&#45;&gt;N184</title>
<path fill="none" stroke="#2e3436" stroke-width="2" d="M267.807,-206.505C270.617,-187.994 274.963,-159.364 278.105,-138.66"/>
<polygon fill="#2e3436" stroke="#2e3436" points="279.245,-131.15 281.456,-139.072 279.177,-134.933 278.614,-138.64 278.119,-138.565 277.625,-138.49 278.188,-134.783 274.783,-138.059 279.245,-131.15 279.245,-131.15"/>
<text text-anchor="middle" x="298.5" y="-171.8" font-family="FreeSans" font-size="8.00" fill="#2e3436">to</text>
<text text-anchor="start" x="276" y="-161.8" font-family="FreeSans" font-size="8.00" fill="#2e3436">cost = 0.5</text>
</g>
<!-- N188 -->
<g id="node10" class="node"><title>N188</title>
<polygon fill="#ffffff" stroke="#ffffff" stroke-width="1.5" points="120.5,-301 203.5,-301 215.5,-313 215.5,-325 203.5,-337 120.5,-337 108.5,-325 108.5,-313 120.5,-301"/>
<path fill="#ffffff" stroke="#ffffff" stroke-width="1.5" d="M203.5,-301C209.5,-301 215.5,-307 215.5,-313"/>
<path fill="#ffffff" stroke="#ffffff" stroke-width="1.5" d="M215.5,-325C215.5,-331 209.5,-337 203.5,-337"/>
<path fill="#ffffff" stroke="#ffffff" stroke-width="1.5" d="M120.5,-337C114.5,-337 108.5,-331 108.5,-325"/>
<path fill="#ffffff" stroke="#ffffff" stroke-width="1.5" d="M108.5,-313C108.5,-307 114.5,-301 120.5,-301"/>
<polyline fill="none" stroke="#2e3436" stroke-width="1.5" points="120.5,-301 203.5,-301 "/>
<path fill="none" stroke="#2e3436" stroke-width="1.5" d="M203.5,-301C209.5,-301 215.5,-307 215.5,-313"/>
<polyline fill="none" stroke="#2e3436" stroke-width="1.5" points="215.5,-313 215.5,-325 "/>
<path fill="none" stroke="#2e3436" stroke-width="1.5" d="M215.5,-325C215.5,-331 209.5,-337 203.5,-337"/>
<polyline fill="none" stroke="#2e3436" stroke-width="1.5" points="203.5,-337 120.5,-337 "/>
<path fill="none" stroke="#2e3436" stroke-width="1.5" d="M120.5,-337C114.5,-337 108.5,-331 108.5,-325"/>
<polyline fill="none" stroke="#2e3436" stroke-width="1.5" points="108.5,-325 108.5,-313 "/>
<path fill="none" stroke="#2e3436" stroke-width="1.5" d="M108.5,-313C108.5,-307 114.5,-301 120.5,-301"/>
<text text-anchor="start" x="116.5" y="-316.8" font-family="FreeSans" font-size="8.00" fill="#1c2021">Node[188]name = &#39;a&#39;</text>
</g>
<!-- N188&#45;&gt;N183 -->
<g id="edge14" class="edge"><title>N188&#45;&gt;N183</title>
<path fill="none" stroke="#2e3436" stroke-width="2" d="M131.369,-300.868C123.782,-295.441 116.09,-289.038 110,-282 87.1169,-255.554 70.3265,-218.507 60.8622,-194.143"/>
<polygon fill="#2e3436" stroke="#2e3436" points="58.1615,-187.015 63.9749,-192.833 59.9578,-190.344 61.2864,-193.851 60.8188,-194.028 60.3513,-194.206 59.0226,-190.699 57.6627,-195.224 58.1615,-187.015 58.1615,-187.015"/>
<text text-anchor="middle" x="132.5" y="-274.8" font-family="FreeSans" font-size="8.00" fill="#2e3436">to</text>
<text text-anchor="start" x="110" y="-264.8" font-family="FreeSans" font-size="8.00" fill="#2e3436">cost = 0.5</text>
</g>
<!-- N188&#45;&gt;N186 -->
<g id="edge10" class="edge"><title>N188&#45;&gt;N186</title>
<path fill="none" stroke="#2e3436" stroke-width="2" d="M162,-300.906C162,-274.441 162,-225.041 162,-194.781"/>
<polygon fill="#2e3436" stroke="#2e3436" points="162,-187.158 165.375,-194.658 162.5,-190.908 162.5,-194.658 162,-194.658 161.5,-194.658 161.5,-190.908 158.625,-194.658 162,-187.158 162,-187.158"/>
<text text-anchor="middle" x="184.5" y="-274.8" font-family="FreeSans" font-size="8.00" fill="#2e3436">to</text>
<text text-anchor="start" x="162" y="-264.8" font-family="FreeSans" font-size="8.00" fill="#2e3436">cost = 1.5</text>
</g>
<!-- N188&#45;&gt;N187 -->
<g id="edge12" class="edge"><title>N188&#45;&gt;N187</title>
<path fill="none" stroke="#2e3436" stroke-width="2" d="M189.862,-300.889C197.933,-295.194 206.567,-288.647 214,-282 225.17,-272.011 236.403,-259.752 245.472,-249.165"/>
<polygon fill="#2e3436" stroke="#2e3436" points="250.545,-243.155 248.286,-251.064 248.508,-246.344 246.089,-249.209 245.707,-248.887 245.325,-248.564 247.744,-245.698 243.128,-246.71 250.545,-243.155 250.545,-243.155"/>
<text text-anchor="middle" x="255.5" y="-274.8" font-family="FreeSans" font-size="8.00" fill="#2e3436">to</text>
<text text-anchor="start" x="233" y="-264.8" font-family="FreeSans" font-size="8.00" fill="#2e3436">cost = 0.5</text>
</g>
</g>
</svg>
