<?xml version="1.0" encoding="UTF-8" standalone="no"?>
<!DOCTYPE svg PUBLIC "-//W3C//DTD SVG 1.1//EN"
 "http://www.w3.org/Graphics/SVG/1.1/DTD/svg11.dtd">
<!-- Generated by graphviz version 2.26.3 (20100126.1600)
 -->
<!-- Title: g Pages: 1 -->
<svg width="172pt" height="46pt"
 viewBox="0.00 0.00 172.00 46.00" xmlns="http://www.w3.org/2000/svg" xmlns:xlink="http://www.w3.org/1999/xlink">
<g id="graph1" class="graph" transform="scale(1 1) rotate(0) translate(4 42)">
<title>g</title>
<polygon fill="white" stroke="white" points="-4,5 -4,-42 169,-42 169,5 -4,5"/>
<!-- N103 -->
<g id="node1" class="node"><title>N103</title>
<polygon fill="#ffffff" stroke="#ffffff" stroke-width="1.5" points="12,-1 152,-1 164,-13 164,-25 152,-37 12,-37 0,-25 0,-13 12,-1"/>
<path fill="#ffffff" stroke="#ffffff" stroke-width="1.5" d="M152,-1C158,-1 164,-7 164,-13"/>
<path fill="#ffffff" stroke="#ffffff" stroke-width="1.5" d="M164,-25C164,-31 158,-37 152,-37"/>
<path fill="#ffffff" stroke="#ffffff" stroke-width="1.5" d="M12,-37C6,-37 0,-31 0,-25"/>
<path fill="#ffffff" stroke="#ffffff" stroke-width="1.5" d="M0,-13C0,-7 6,-1 12,-1"/>
<polyline fill="none" stroke="#2e3436" stroke-width="1.5" points="12,-1 152,-1 "/>
<path fill="none" stroke="#2e3436" stroke-width="1.5" d="M152,-1C158,-1 164,-7 164,-13"/>
<polyline fill="none" stroke="#2e3436" stroke-width="1.5" points="164,-13 164,-25 "/>
<path fill="none" stroke="#2e3436" stroke-width="1.5" d="M164,-25C164,-31 158,-37 152,-37"/>
<polyline fill="none" stroke="#2e3436" stroke-width="1.5" points="152,-37 12,-37 "/>
<path fill="none" stroke="#2e3436" stroke-width="1.5" d="M12,-37C6,-37 0,-31 0,-25"/>
<polyline fill="none" stroke="#2e3436" stroke-width="1.5" points="0,-25 0,-13 "/>
<path fill="none" stroke="#2e3436" stroke-width="1.5" d="M0,-13C0,-7 6,-1 12,-1"/>
<text text-anchor="start" x="8" y="-16.8" font-family="FreeSans" font-size="8.00" fill="#1c2021">Node[103]name = &#39;Clint Eastwood&#39;</text>
</g>
</g>
</svg>
