<?xml version="1.0" encoding="UTF-8" standalone="no"?>
<!DOCTYPE svg PUBLIC "-//W3C//DTD SVG 1.1//EN"
 "http://www.w3.org/Graphics/SVG/1.1/DTD/svg11.dtd">
<!-- Generated by graphviz version 2.26.3 (20100126.1600)
 -->
<!-- Title: g Pages: 1 -->
<svg width="84pt" height="44pt"
 viewBox="0.00 0.00 84.00 44.00" xmlns="http://www.w3.org/2000/svg" xmlns:xlink="http://www.w3.org/1999/xlink">
<g id="graph1" class="graph" transform="scale(1 1) rotate(0) translate(4 40)">
<title>g</title>
<polygon fill="white" stroke="white" points="-4,5 -4,-40 81,-40 81,5 -4,5"/>
<!-- name: Peter -->
<g id="node1" class="node"><title>name: Peter</title>
<polygon fill="#ffffff" stroke="#ffffff" stroke-width="1.5" points="64,-36 12,-36 2.36848e-14,-24 1.18424e-14,-12 12,-1.55197e-14 64,-5.79653e-15 76,-12 76,-24 64,-36"/>
<path fill="#ffffff" stroke="#ffffff" stroke-width="1.5" d="M12,-36C6,-36 2.96059e-14,-30 2.36848e-14,-24"/>
<path fill="#ffffff" stroke="#ffffff" stroke-width="1.5" d="M1.18424e-14,-12C5.92119e-15,-6 6,-1.66417e-14 12,-1.55197e-14"/>
<path fill="#ffffff" stroke="#ffffff" stroke-width="1.5" d="M64,-5.79653e-15C70,-4.67462e-15 76,-6 76,-12"/>
<path fill="#ffffff" stroke="#ffffff" stroke-width="1.5" d="M76,-24C76,-30 70,-36 64,-36"/>
<polyline fill="none" stroke="#2e3436" stroke-width="1.5" points="64,-36 12,-36 "/>
<path fill="none" stroke="#2e3436" stroke-width="1.5" d="M12,-36C6,-36 2.96059e-14,-30 2.36848e-14,-24"/>
<polyline fill="none" stroke="#2e3436" stroke-width="1.5" points="2.36848e-14,-24 1.18424e-14,-12 "/>
<path fill="none" stroke="#2e3436" stroke-width="1.5" d="M1.18424e-14,-12C5.92119e-15,-6 6,-1.66417e-14 12,-1.55197e-14"/>
<polyline fill="none" stroke="#2e3436" stroke-width="1.5" points="12,-1.55197e-14 64,-5.79653e-15 "/>
<path fill="none" stroke="#2e3436" stroke-width="1.5" d="M64,-5.79653e-15C70,-4.67462e-15 76,-6 76,-12"/>
<polyline fill="none" stroke="#2e3436" stroke-width="1.5" points="76,-12 76,-24 "/>
<path fill="none" stroke="#2e3436" stroke-width="1.5" d="M76,-24C76,-30 70,-36 64,-36"/>
<text text-anchor="middle" x="38" y="-15.5" font-family="FreeSans" font-size="10.00" fill="#1c2021">name: Peter</text>
</g>
</g>
</svg>
