<?xml version="1.0" encoding="UTF-8" standalone="no"?>
<!DOCTYPE svg PUBLIC "-//W3C//DTD SVG 1.1//EN"
 "http://www.w3.org/Graphics/SVG/1.1/DTD/svg11.dtd">
<!-- Generated by graphviz version 2.26.3 (20100126.1600)
 -->
<!-- Title: g Pages: 1 -->
<svg width="261pt" height="302pt"
 viewBox="0.00 0.00 260.85 302.00" xmlns="http://www.w3.org/2000/svg" xmlns:xlink="http://www.w3.org/1999/xlink">
<g id="graph1" class="graph" transform="scale(1 1) rotate(0) translate(4 298)">
<title>g</title>
<polygon fill="white" stroke="white" points="-4,5 -4,-298 257.848,-298 257.848,5 -4,5"/>
<!-- Graph -->
<g id="node1" class="node"><title>Graph</title>
<polygon fill="#a8e270" stroke="#a8e270" stroke-width="1.5" points="72.8484,-294 42.8484,-294 30.8484,-282 30.8484,-270 42.8484,-258 72.8484,-258 84.8484,-270 84.8484,-282 72.8484,-294"/>
<path fill="#a8e270" stroke="#a8e270" stroke-width="1.5" d="M42.8484,-294C36.8484,-294 30.8484,-288 30.8484,-282"/>
<path fill="#a8e270" stroke="#a8e270" stroke-width="1.5" d="M30.8484,-270C30.8484,-264 36.8484,-258 42.8484,-258"/>
<path fill="#a8e270" stroke="#a8e270" stroke-width="1.5" d="M72.8484,-258C78.8484,-258 84.8484,-264 84.8484,-270"/>
<path fill="#a8e270" stroke="#a8e270" stroke-width="1.5" d="M84.8484,-282C84.8484,-288 78.8484,-294 72.8484,-294"/>
<polyline fill="none" stroke="#2e3436" stroke-width="1.5" points="72.8484,-294 42.8484,-294 "/>
<path fill="none" stroke="#2e3436" stroke-width="1.5" d="M42.8484,-294C36.8484,-294 30.8484,-288 30.8484,-282"/>
<polyline fill="none" stroke="#2e3436" stroke-width="1.5" points="30.8484,-282 30.8484,-270 "/>
<path fill="none" stroke="#2e3436" stroke-width="1.5" d="M30.8484,-270C30.8484,-264 36.8484,-258 42.8484,-258"/>
<polyline fill="none" stroke="#2e3436" stroke-width="1.5" points="42.8484,-258 72.8484,-258 "/>
<path fill="none" stroke="#2e3436" stroke-width="1.5" d="M72.8484,-258C78.8484,-258 84.8484,-264 84.8484,-270"/>
<polyline fill="none" stroke="#2e3436" stroke-width="1.5" points="84.8484,-270 84.8484,-282 "/>
<path fill="none" stroke="#2e3436" stroke-width="1.5" d="M84.8484,-282C84.8484,-288 78.8484,-294 72.8484,-294"/>
<text text-anchor="middle" x="57.8484" y="-273.5" font-family="FreeSans" font-size="10.00" fill="#1c2021">Graph</text>
</g>
<!-- Nodes -->
<g id="node3" class="node"><title>Nodes</title>
<polygon fill="#fadcad" stroke="#fadcad" stroke-width="1.5" points="118.848,-122 88.8484,-122 76.8484,-110 76.8484,-98 88.8484,-86 118.848,-86 130.848,-98 130.848,-110 118.848,-122"/>
<path fill="#fadcad" stroke="#fadcad" stroke-width="1.5" d="M88.8484,-122C82.8484,-122 76.8484,-116 76.8484,-110"/>
<path fill="#fadcad" stroke="#fadcad" stroke-width="1.5" d="M76.8484,-98C76.8484,-92 82.8484,-86 88.8484,-86"/>
<path fill="#fadcad" stroke="#fadcad" stroke-width="1.5" d="M118.848,-86C124.848,-86 130.848,-92 130.848,-98"/>
<path fill="#fadcad" stroke="#fadcad" stroke-width="1.5" d="M130.848,-110C130.848,-116 124.848,-122 118.848,-122"/>
<polyline fill="none" stroke="#2e3436" stroke-width="1.5" points="118.848,-122 88.8484,-122 "/>
<path fill="none" stroke="#2e3436" stroke-width="1.5" d="M88.8484,-122C82.8484,-122 76.8484,-116 76.8484,-110"/>
<polyline fill="none" stroke="#2e3436" stroke-width="1.5" points="76.8484,-110 76.8484,-98 "/>
<path fill="none" stroke="#2e3436" stroke-width="1.5" d="M76.8484,-98C76.8484,-92 82.8484,-86 88.8484,-86"/>
<polyline fill="none" stroke="#2e3436" stroke-width="1.5" points="88.8484,-86 118.848,-86 "/>
<path fill="none" stroke="#2e3436" stroke-width="1.5" d="M118.848,-86C124.848,-86 130.848,-92 130.848,-98"/>
<polyline fill="none" stroke="#2e3436" stroke-width="1.5" points="130.848,-98 130.848,-110 "/>
<path fill="none" stroke="#2e3436" stroke-width="1.5" d="M130.848,-110C130.848,-116 124.848,-122 118.848,-122"/>
<text text-anchor="middle" x="103.848" y="-101.5" font-family="FreeSans" font-size="10.00" fill="#1c2021">Nodes</text>
</g>
<!-- Graph&#45;&gt;Nodes -->
<g id="edge2" class="edge"><title>Graph&#45;&gt;Nodes</title>
<path fill="none" stroke="#2e3436" stroke-width="2" d="M37.3698,-257.889C16.4433,-237.081 -10.9134,-201.948 4.84839,-172 18.4897,-146.081 46.9677,-128.132 69.8932,-117.211"/>
<polygon fill="#2e3436" stroke="#2e3436" points="76.8072,-114.046 71.3924,-120.237 73.6055,-116.062 70.1958,-117.623 69.9877,-117.168 69.7796,-116.713 73.1893,-115.153 68.5829,-114.099 76.8072,-114.046 76.8072,-114.046"/>
<text text-anchor="middle" x="41.3484" y="-187.5" font-family="FreeSans" font-size="10.00" fill="#1c2021">records data in</text>
</g>
<!-- Relationships -->
<g id="node5" class="node"><title>Relationships</title>
<polygon fill="#fadcad" stroke="#fadcad" stroke-width="1.5" points="240.848,-208 186.848,-208 174.848,-196 174.848,-184 186.848,-172 240.848,-172 252.848,-184 252.848,-196 240.848,-208"/>
<path fill="#fadcad" stroke="#fadcad" stroke-width="1.5" d="M186.848,-208C180.848,-208 174.848,-202 174.848,-196"/>
<path fill="#fadcad" stroke="#fadcad" stroke-width="1.5" d="M174.848,-184C174.848,-178 180.848,-172 186.848,-172"/>
<path fill="#fadcad" stroke="#fadcad" stroke-width="1.5" d="M240.848,-172C246.848,-172 252.848,-178 252.848,-184"/>
<path fill="#fadcad" stroke="#fadcad" stroke-width="1.5" d="M252.848,-196C252.848,-202 246.848,-208 240.848,-208"/>
<polyline fill="none" stroke="#2e3436" stroke-width="1.5" points="240.848,-208 186.848,-208 "/>
<path fill="none" stroke="#2e3436" stroke-width="1.5" d="M186.848,-208C180.848,-208 174.848,-202 174.848,-196"/>
<polyline fill="none" stroke="#2e3436" stroke-width="1.5" points="174.848,-196 174.848,-184 "/>
<path fill="none" stroke="#2e3436" stroke-width="1.5" d="M174.848,-184C174.848,-178 180.848,-172 186.848,-172"/>
<polyline fill="none" stroke="#2e3436" stroke-width="1.5" points="186.848,-172 240.848,-172 "/>
<path fill="none" stroke="#2e3436" stroke-width="1.5" d="M240.848,-172C246.848,-172 252.848,-178 252.848,-184"/>
<polyline fill="none" stroke="#2e3436" stroke-width="1.5" points="252.848,-184 252.848,-196 "/>
<path fill="none" stroke="#2e3436" stroke-width="1.5" d="M252.848,-196C252.848,-202 246.848,-208 240.848,-208"/>
<text text-anchor="middle" x="213.848" y="-187.5" font-family="FreeSans" font-size="10.00" fill="#1c2021">Relationships</text>
</g>
<!-- Graph&#45;&gt;Relationships -->
<g id="edge4" class="edge"><title>Graph&#45;&gt;Relationships</title>
<path fill="none" stroke="#2e3436" stroke-width="2" d="M85.0215,-261.02C109.647,-247.444 146.244,-227.269 174.145,-211.888"/>
<polygon fill="#2e3436" stroke="#2e3436" points="181.039,-208.087 176.1,-214.664 177.996,-210.336 174.712,-212.146 174.471,-211.708 174.229,-211.27 177.513,-209.46 172.841,-208.753 181.039,-208.087 181.039,-208.087"/>
<text text-anchor="middle" x="181.348" y="-230.5" font-family="FreeSans" font-size="10.00" fill="#1c2021">records data in</text>
</g>
<!-- Properties -->
<g id="node10" class="node"><title>Properties</title>
<polygon fill="#fadcad" stroke="#fadcad" stroke-width="1.5" points="205.848,-36 165.848,-36 153.848,-24 153.848,-12 165.848,-1.5099e-14 205.848,-6.21725e-15 217.848,-12 217.848,-24 205.848,-36"/>
<path fill="#fadcad" stroke="#fadcad" stroke-width="1.5" d="M165.848,-36C159.848,-36 153.848,-30 153.848,-24"/>
<path fill="#fadcad" stroke="#fadcad" stroke-width="1.5" d="M153.848,-12C153.848,-6 159.848,-1.64313e-14 165.848,-1.5099e-14"/>
<path fill="#fadcad" stroke="#fadcad" stroke-width="1.5" d="M205.848,-6.21725e-15C211.848,-4.88498e-15 217.848,-6 217.848,-12"/>
<path fill="#fadcad" stroke="#fadcad" stroke-width="1.5" d="M217.848,-24C217.848,-30 211.848,-36 205.848,-36"/>
<polyline fill="none" stroke="#2e3436" stroke-width="1.5" points="205.848,-36 165.848,-36 "/>
<path fill="none" stroke="#2e3436" stroke-width="1.5" d="M165.848,-36C159.848,-36 153.848,-30 153.848,-24"/>
<polyline fill="none" stroke="#2e3436" stroke-width="1.5" points="153.848,-24 153.848,-12 "/>
<path fill="none" stroke="#2e3436" stroke-width="1.5" d="M153.848,-12C153.848,-6 159.848,-1.64313e-14 165.848,-1.5099e-14"/>
<polyline fill="none" stroke="#2e3436" stroke-width="1.5" points="165.848,-1.5099e-14 205.848,-6.21725e-15 "/>
<path fill="none" stroke="#2e3436" stroke-width="1.5" d="M205.848,-6.21725e-15C211.848,-4.88498e-15 217.848,-6 217.848,-12"/>
<polyline fill="none" stroke="#2e3436" stroke-width="1.5" points="217.848,-12 217.848,-24 "/>
<path fill="none" stroke="#2e3436" stroke-width="1.5" d="M217.848,-24C217.848,-30 211.848,-36 205.848,-36"/>
<text text-anchor="middle" x="185.848" y="-15.5" font-family="FreeSans" font-size="10.00" fill="#1c2021">Properties</text>
</g>
<!-- Nodes&#45;&gt;Properties -->
<g id="edge10" class="edge"><title>Nodes&#45;&gt;Properties</title>
<path fill="none" stroke="#2e3436" stroke-width="2" d="M121.238,-85.7616C133.415,-72.9914 149.805,-55.8013 163.031,-41.9308"/>
<polygon fill="#2e3436" stroke="#2e3436" points="168.483,-36.2121 165.75,-43.9692 166.257,-39.2712 163.67,-41.9852 163.308,-41.6402 162.946,-41.2951 165.534,-38.5811 160.865,-39.3111 168.483,-36.2121 168.483,-36.2121"/>
<text text-anchor="middle" x="160.848" y="-58.5" font-family="FreeSans" font-size="10.00" fill="#1c2021">have</text>
</g>
<!-- Relationships&#45;&gt;Nodes -->
<g id="edge6" class="edge"><title>Relationships&#45;&gt;Nodes</title>
<path fill="none" stroke="#2e3436" stroke-width="2" d="M187.898,-171.844C180.083,-166.236 171.542,-159.963 163.848,-154 152.829,-145.459 140.982,-135.713 130.751,-127.108"/>
<polygon fill="#2e3436" stroke="#2e3436" points="124.931,-122.191 132.838,-124.453 128.118,-124.229 130.983,-126.649 130.66,-127.031 130.337,-127.413 127.473,-124.993 128.482,-129.609 124.931,-122.191 124.931,-122.191"/>
<text text-anchor="middle" x="184.848" y="-144.5" font-family="FreeSans" font-size="10.00" fill="#1c2021">organize</text>
</g>
<!-- Relationships&#45;&gt;Properties -->
<g id="edge12" class="edge"><title>Relationships&#45;&gt;Properties</title>
<path fill="none" stroke="#2e3436" stroke-width="2" d="M212.419,-171.902C211.572,-162.384 210.365,-150.534 208.848,-140 204.026,-106.504 196.467,-68.2049 191.343,-43.5934"/>
<polygon fill="#2e3436" stroke="#2e3436" points="189.771,-36.1071 194.615,-42.7536 191.031,-39.6743 191.801,-43.3443 191.312,-43.4471 190.823,-43.5498 190.052,-39.8798 188.009,-44.1405 189.771,-36.1071 189.771,-36.1071"/>
<text text-anchor="middle" x="217.848" y="-101.5" font-family="FreeSans" font-size="10.00" fill="#1c2021">have</text>
</g>
<!-- Labels -->
<g id="node7" class="node"><title>Labels</title>
<polygon fill="#fadcad" stroke="#fadcad" stroke-width="1.5" points="133.848,-208 103.848,-208 91.8484,-196 91.8484,-184 103.848,-172 133.848,-172 145.848,-184 145.848,-196 133.848,-208"/>
<path fill="#fadcad" stroke="#fadcad" stroke-width="1.5" d="M103.848,-208C97.8484,-208 91.8484,-202 91.8484,-196"/>
<path fill="#fadcad" stroke="#fadcad" stroke-width="1.5" d="M91.8484,-184C91.8484,-178 97.8484,-172 103.848,-172"/>
<path fill="#fadcad" stroke="#fadcad" stroke-width="1.5" d="M133.848,-172C139.848,-172 145.848,-178 145.848,-184"/>
<path fill="#fadcad" stroke="#fadcad" stroke-width="1.5" d="M145.848,-196C145.848,-202 139.848,-208 133.848,-208"/>
<polyline fill="none" stroke="#2e3436" stroke-width="1.5" points="133.848,-208 103.848,-208 "/>
<path fill="none" stroke="#2e3436" stroke-width="1.5" d="M103.848,-208C97.8484,-208 91.8484,-202 91.8484,-196"/>
<polyline fill="none" stroke="#2e3436" stroke-width="1.5" points="91.8484,-196 91.8484,-184 "/>
<path fill="none" stroke="#2e3436" stroke-width="1.5" d="M91.8484,-184C91.8484,-178 97.8484,-172 103.848,-172"/>
<polyline fill="none" stroke="#2e3436" stroke-width="1.5" points="103.848,-172 133.848,-172 "/>
<path fill="none" stroke="#2e3436" stroke-width="1.5" d="M133.848,-172C139.848,-172 145.848,-178 145.848,-184"/>
<polyline fill="none" stroke="#2e3436" stroke-width="1.5" points="145.848,-184 145.848,-196 "/>
<path fill="none" stroke="#2e3436" stroke-width="1.5" d="M145.848,-196C145.848,-202 139.848,-208 133.848,-208"/>
<text text-anchor="middle" x="118.848" y="-187.5" font-family="FreeSans" font-size="10.00" fill="#1c2021">Labels</text>
</g>
<!-- Labels&#45;&gt;Nodes -->
<g id="edge8" class="edge"><title>Labels&#45;&gt;Nodes</title>
<path fill="none" stroke="#2e3436" stroke-width="2" d="M108.391,-171.877C105.715,-166.321 103.209,-160.07 101.848,-154 100.109,-146.244 99.8686,-137.644 100.278,-129.795"/>
<polygon fill="#2e3436" stroke="#2e3436" points="100.872,-122.256 103.647,-129.998 101.076,-126.034 100.781,-129.772 100.283,-129.733 99.7841,-129.693 100.079,-125.955 96.918,-129.467 100.872,-122.256 100.872,-122.256"/>
<text text-anchor="middle" x="115.848" y="-144.5" font-family="FreeSans" font-size="10.00" fill="#1c2021">group</text>
</g>
</g>
</svg>
