<?xml version="1.0" encoding="UTF-8" standalone="no"?>
<!DOCTYPE svg PUBLIC "-//W3C//DTD SVG 1.1//EN"
 "http://www.w3.org/Graphics/SVG/1.1/DTD/svg11.dtd">
<!-- Generated by graphviz version 2.26.3 (20100126.1600)
 -->
<!-- Title: g Pages: 1 -->
<svg width="114pt" height="130pt"
 viewBox="0.00 0.00 114.00 130.00" xmlns="http://www.w3.org/2000/svg" xmlns:xlink="http://www.w3.org/1999/xlink">
<g id="graph1" class="graph" transform="scale(1 1) rotate(0) translate(4 126)">
<title>g</title>
<polygon fill="white" stroke="white" points="-4,5 -4,-126 111,-126 111,5 -4,5"/>
<!-- N0 -->
<g id="node1" class="node"><title>N0</title>
<polygon fill="#ffffff" stroke="#ffffff" stroke-width="1.5" points="12,-1 94,-1 106,-13 106,-25 94,-37 12,-37 0,-25 0,-13 12,-1"/>
<path fill="#ffffff" stroke="#ffffff" stroke-width="1.5" d="M94,-1C100,-1 106,-7 106,-13"/>
<path fill="#ffffff" stroke="#ffffff" stroke-width="1.5" d="M106,-25C106,-31 100,-37 94,-37"/>
<path fill="#ffffff" stroke="#ffffff" stroke-width="1.5" d="M12,-37C6,-37 0,-31 0,-25"/>
<path fill="#ffffff" stroke="#ffffff" stroke-width="1.5" d="M0,-13C0,-7 6,-1 12,-1"/>
<polyline fill="none" stroke="#2e3436" stroke-width="1.5" points="12,-1 94,-1 "/>
<path fill="none" stroke="#2e3436" stroke-width="1.5" d="M94,-1C100,-1 106,-7 106,-13"/>
<polyline fill="none" stroke="#2e3436" stroke-width="1.5" points="106,-13 106,-25 "/>
<path fill="none" stroke="#2e3436" stroke-width="1.5" d="M106,-25C106,-31 100,-37 94,-37"/>
<polyline fill="none" stroke="#2e3436" stroke-width="1.5" points="94,-37 12,-37 "/>
<path fill="none" stroke="#2e3436" stroke-width="1.5" d="M12,-37C6,-37 0,-31 0,-25"/>
<polyline fill="none" stroke="#2e3436" stroke-width="1.5" points="0,-25 0,-13 "/>
<path fill="none" stroke="#2e3436" stroke-width="1.5" d="M0,-13C0,-7 6,-1 12,-1"/>
<text text-anchor="start" x="8" y="-16.8" font-family="FreeSans" font-size="8.00" fill="#1c2021">Node[0]name = &#39;you&#39;</text>
</g>
<!-- N1 -->
<g id="node2" class="node"><title>N1</title>
<polygon fill="#ffffff" stroke="#ffffff" stroke-width="1.5" points="18.5,-85 87.5,-85 99.5,-97 99.5,-109 87.5,-121 18.5,-121 6.5,-109 6.5,-97 18.5,-85"/>
<path fill="#ffffff" stroke="#ffffff" stroke-width="1.5" d="M87.5,-85C93.5,-85 99.5,-91 99.5,-97"/>
<path fill="#ffffff" stroke="#ffffff" stroke-width="1.5" d="M99.5,-109C99.5,-115 93.5,-121 87.5,-121"/>
<path fill="#ffffff" stroke="#ffffff" stroke-width="1.5" d="M18.5,-121C12.5,-121 6.5,-115 6.5,-109"/>
<path fill="#ffffff" stroke="#ffffff" stroke-width="1.5" d="M6.5,-97C6.5,-91 12.5,-85 18.5,-85"/>
<polyline fill="none" stroke="#2e3436" stroke-width="1.5" points="18.5,-85 87.5,-85 "/>
<path fill="none" stroke="#2e3436" stroke-width="1.5" d="M87.5,-85C93.5,-85 99.5,-91 99.5,-97"/>
<polyline fill="none" stroke="#2e3436" stroke-width="1.5" points="99.5,-97 99.5,-109 "/>
<path fill="none" stroke="#2e3436" stroke-width="1.5" d="M99.5,-109C99.5,-115 93.5,-121 87.5,-121"/>
<polyline fill="none" stroke="#2e3436" stroke-width="1.5" points="87.5,-121 18.5,-121 "/>
<path fill="none" stroke="#2e3436" stroke-width="1.5" d="M18.5,-121C12.5,-121 6.5,-115 6.5,-109"/>
<polyline fill="none" stroke="#2e3436" stroke-width="1.5" points="6.5,-109 6.5,-97 "/>
<path fill="none" stroke="#2e3436" stroke-width="1.5" d="M6.5,-97C6.5,-91 12.5,-85 18.5,-85"/>
<text text-anchor="start" x="14.5" y="-100.8" font-family="FreeSans" font-size="8.00" fill="#1c2021">Node[1]name = &#39;I&#39;</text>
</g>
<!-- N1&#45;&gt;N0 -->
<g id="edge2" class="edge"><title>N1&#45;&gt;N0</title>
<path fill="none" stroke="#2e3436" stroke-width="2" d="M53,-84.7733C53,-73.1053 53,-57.7874 53,-44.8699"/>
<polygon fill="#2e3436" stroke="#2e3436" points="53,-37.1912 56.3751,-44.6911 53.5,-40.9412 53.5001,-44.6912 53.0001,-44.6912 52.5001,-44.6912 52.5,-40.9412 49.6251,-44.6912 53,-37.1912 53,-37.1912"/>
<text text-anchor="middle" x="64" y="-58.8" font-family="FreeSans" font-size="8.00" fill="#2e3436">know</text>
</g>
</g>
</svg>
