<?xml version="1.0" encoding="UTF-8" standalone="no"?>
<!DOCTYPE svg PUBLIC "-//W3C//DTD SVG 1.1//EN"
 "http://www.w3.org/Graphics/SVG/1.1/DTD/svg11.dtd">
<!-- Generated by graphviz version 2.26.3 (20100126.1600)
 -->
<!-- Title: g Pages: 1 -->
<svg width="504pt" height="118pt"
 viewBox="0.00 0.00 504.00 117.82" xmlns="http://www.w3.org/2000/svg" xmlns:xlink="http://www.w3.org/1999/xlink">
<g id="graph1" class="graph" transform="scale(0.503497 0.503497) rotate(0) translate(4 230)">
<title>g</title>
<polygon fill="white" stroke="white" points="-4,5 -4,-230 998,-230 998,5 -4,5"/>
<!-- N0 -->
<g id="node1" class="node"><title>N0</title>
<polygon fill="#ffffff" stroke="#ffffff" stroke-width="1.5" points="12,-105 98,-105 110,-117 110,-129 98,-141 12,-141 0,-129 0,-117 12,-105"/>
<path fill="#ffffff" stroke="#ffffff" stroke-width="1.5" d="M98,-105C104,-105 110,-111 110,-117"/>
<path fill="#ffffff" stroke="#ffffff" stroke-width="1.5" d="M110,-129C110,-135 104,-141 98,-141"/>
<path fill="#ffffff" stroke="#ffffff" stroke-width="1.5" d="M12,-141C6,-141 0,-135 0,-129"/>
<path fill="#ffffff" stroke="#ffffff" stroke-width="1.5" d="M0,-117C0,-111 6,-105 12,-105"/>
<polyline fill="none" stroke="#2e3436" stroke-width="1.5" points="12,-105 98,-105 "/>
<path fill="none" stroke="#2e3436" stroke-width="1.5" d="M98,-105C104,-105 110,-111 110,-117"/>
<polyline fill="none" stroke="#2e3436" stroke-width="1.5" points="110,-117 110,-129 "/>
<path fill="none" stroke="#2e3436" stroke-width="1.5" d="M110,-129C110,-135 104,-141 98,-141"/>
<polyline fill="none" stroke="#2e3436" stroke-width="1.5" points="98,-141 12,-141 "/>
<path fill="none" stroke="#2e3436" stroke-width="1.5" d="M12,-141C6,-141 0,-135 0,-129"/>
<polyline fill="none" stroke="#2e3436" stroke-width="1.5" points="0,-129 0,-117 "/>
<path fill="none" stroke="#2e3436" stroke-width="1.5" d="M0,-117C0,-111 6,-105 12,-105"/>
<text text-anchor="middle" x="55" y="-129.8" font-family="FreeSans" font-size="8.00" fill="#1c2021">Person</text>
<polyline fill="none" stroke="#2e3436" stroke-width="1.5" points="0,-123 110,-123 "/>
<text text-anchor="start" x="8" y="-111.8" font-family="FreeSans" font-size="8.00" fill="#1c2021">name = &#39;Oliver Stone&#39;</text>
</g>
<!-- N4 -->
<g id="node3" class="node"><title>N4</title>
<polygon fill="#ffffff" stroke="#ffffff" stroke-width="1.5" points="175,-1 251,-1 263,-13 263,-35 251,-47 175,-47 163,-35 163,-13 175,-1"/>
<path fill="#ffffff" stroke="#ffffff" stroke-width="1.5" d="M251,-1C257,-1 263,-7 263,-13"/>
<path fill="#ffffff" stroke="#ffffff" stroke-width="1.5" d="M263,-35C263,-41 257,-47 251,-47"/>
<path fill="#ffffff" stroke="#ffffff" stroke-width="1.5" d="M175,-47C169,-47 163,-41 163,-35"/>
<path fill="#ffffff" stroke="#ffffff" stroke-width="1.5" d="M163,-13C163,-7 169,-1 175,-1"/>
<polyline fill="none" stroke="#2e3436" stroke-width="1.5" points="175,-1 251,-1 "/>
<path fill="none" stroke="#2e3436" stroke-width="1.5" d="M251,-1C257,-1 263,-7 263,-13"/>
<polyline fill="none" stroke="#2e3436" stroke-width="1.5" points="263,-13 263,-35 "/>
<path fill="none" stroke="#2e3436" stroke-width="1.5" d="M263,-35C263,-41 257,-47 251,-47"/>
<polyline fill="none" stroke="#2e3436" stroke-width="1.5" points="251,-47 175,-47 "/>
<path fill="none" stroke="#2e3436" stroke-width="1.5" d="M175,-47C169,-47 163,-41 163,-35"/>
<polyline fill="none" stroke="#2e3436" stroke-width="1.5" points="163,-35 163,-13 "/>
<path fill="none" stroke="#2e3436" stroke-width="1.5" d="M163,-13C163,-7 169,-1 175,-1"/>
<text text-anchor="middle" x="213" y="-35.8" font-family="FreeSans" font-size="8.00" fill="#1c2021">Movie</text>
<polyline fill="none" stroke="#2e3436" stroke-width="1.5" points="163,-29 263,-29 "/>
<text text-anchor="start" x="171" y="-17.8" font-family="FreeSans" font-size="8.00" fill="#1c2021">name = &#39;WallStreet&#39;</text>
<text text-anchor="start" x="171" y="-7.8" font-family="FreeSans" font-size="8.00" fill="#1c2021">title = &#39;Wall Street&#39;</text>
</g>
<!-- N0&#45;&gt;N4 -->
<g id="edge2" class="edge"><title>N0&#45;&gt;N4</title>
<path fill="none" stroke="#2e3436" stroke-width="2" d="M66.8684,-104.982C75.8152,-92.5897 89.07,-76.5297 104,-66 119.444,-55.1079 138.087,-46.5804 155.554,-40.1391"/>
<polygon fill="#2e3436" stroke="#2e3436" points="162.956,-37.5055 157.021,-43.1996 159.59,-39.2337 156.057,-40.4909 155.89,-40.0199 155.722,-39.5488 159.255,-38.2916 154.758,-36.8402 162.956,-37.5055 162.956,-37.5055"/>
<text text-anchor="middle" x="125" y="-73.8" font-family="FreeSans" font-size="8.00" fill="#2e3436">DIRECTED</text>
</g>
<!-- N1 -->
<g id="node4" class="node"><title>N1</title>
<polygon fill="#ffffff" stroke="#ffffff" stroke-width="1.5" points="431,-189 525,-189 537,-201 537,-213 525,-225 431,-225 419,-213 419,-201 431,-189"/>
<path fill="#ffffff" stroke="#ffffff" stroke-width="1.5" d="M525,-189C531,-189 537,-195 537,-201"/>
<path fill="#ffffff" stroke="#ffffff" stroke-width="1.5" d="M537,-213C537,-219 531,-225 525,-225"/>
<path fill="#ffffff" stroke="#ffffff" stroke-width="1.5" d="M431,-225C425,-225 419,-219 419,-213"/>
<path fill="#ffffff" stroke="#ffffff" stroke-width="1.5" d="M419,-201C419,-195 425,-189 431,-189"/>
<polyline fill="none" stroke="#2e3436" stroke-width="1.5" points="431,-189 525,-189 "/>
<path fill="none" stroke="#2e3436" stroke-width="1.5" d="M525,-189C531,-189 537,-195 537,-201"/>
<polyline fill="none" stroke="#2e3436" stroke-width="1.5" points="537,-201 537,-213 "/>
<path fill="none" stroke="#2e3436" stroke-width="1.5" d="M537,-213C537,-219 531,-225 525,-225"/>
<polyline fill="none" stroke="#2e3436" stroke-width="1.5" points="525,-225 431,-225 "/>
<path fill="none" stroke="#2e3436" stroke-width="1.5" d="M431,-225C425,-225 419,-219 419,-213"/>
<polyline fill="none" stroke="#2e3436" stroke-width="1.5" points="419,-213 419,-201 "/>
<path fill="none" stroke="#2e3436" stroke-width="1.5" d="M419,-201C419,-195 425,-189 431,-189"/>
<text text-anchor="middle" x="478" y="-213.8" font-family="FreeSans" font-size="8.00" fill="#1c2021">Person</text>
<polyline fill="none" stroke="#2e3436" stroke-width="1.5" points="419,-207 537,-207 "/>
<text text-anchor="start" x="427" y="-195.8" font-family="FreeSans" font-size="8.00" fill="#1c2021">name = &#39;Charlie Sheen&#39;</text>
</g>
<!-- N1&#45;&gt;N4 -->
<g id="edge4" class="edge"><title>N1&#45;&gt;N4</title>
<path fill="none" stroke="#4e9a06" stroke-width="2" d="M418.84,-202.586C341.143,-195.418 211.14,-178.233 182,-142 161.772,-116.848 176.609,-79.83 191.934,-53.9839"/>
<polygon fill="#4e9a06" stroke="#4e9a06" points="196.029,-47.339 194.967,-55.4946 194.487,-50.7938 192.52,-53.9862 192.094,-53.7239 191.668,-53.4615 193.636,-50.2691 189.221,-51.9531 196.029,-47.339 196.029,-47.339"/>
<text text-anchor="middle" x="202.5" y="-120.8" font-family="FreeSans" font-size="8.00" fill="#4e9a06">ACTED_IN</text>
</g>
<!-- N2 -->
<g id="node7" class="node"><title>N2</title>
<polygon fill="#ffffff" stroke="#ffffff" stroke-width="1.5" points="551,-105 641,-105 653,-117 653,-129 641,-141 551,-141 539,-129 539,-117 551,-105"/>
<path fill="#ffffff" stroke="#ffffff" stroke-width="1.5" d="M641,-105C647,-105 653,-111 653,-117"/>
<path fill="#ffffff" stroke="#ffffff" stroke-width="1.5" d="M653,-129C653,-135 647,-141 641,-141"/>
<path fill="#ffffff" stroke="#ffffff" stroke-width="1.5" d="M551,-141C545,-141 539,-135 539,-129"/>
<path fill="#ffffff" stroke="#ffffff" stroke-width="1.5" d="M539,-117C539,-111 545,-105 551,-105"/>
<polyline fill="none" stroke="#2e3436" stroke-width="1.5" points="551,-105 641,-105 "/>
<path fill="none" stroke="#2e3436" stroke-width="1.5" d="M641,-105C647,-105 653,-111 653,-117"/>
<polyline fill="none" stroke="#2e3436" stroke-width="1.5" points="653,-117 653,-129 "/>
<path fill="none" stroke="#2e3436" stroke-width="1.5" d="M653,-129C653,-135 647,-141 641,-141"/>
<polyline fill="none" stroke="#2e3436" stroke-width="1.5" points="641,-141 551,-141 "/>
<path fill="none" stroke="#2e3436" stroke-width="1.5" d="M551,-141C545,-141 539,-135 539,-129"/>
<polyline fill="none" stroke="#2e3436" stroke-width="1.5" points="539,-129 539,-117 "/>
<path fill="none" stroke="#2e3436" stroke-width="1.5" d="M539,-117C539,-111 545,-105 551,-105"/>
<text text-anchor="middle" x="596" y="-129.8" font-family="FreeSans" font-size="8.00" fill="#1c2021">Person</text>
<polyline fill="none" stroke="#2e3436" stroke-width="1.5" points="539,-123 653,-123 "/>
<text text-anchor="start" x="547" y="-111.8" font-family="FreeSans" font-size="8.00" fill="#1c2021">name = &#39;Martin Sheen&#39;</text>
</g>
<!-- N1&#45;&gt;N2 -->
<g id="edge6" class="edge"><title>N1&#45;&gt;N2</title>
<path fill="none" stroke="#a40000" stroke-width="2" d="M503.314,-188.98C521.08,-176.333 544.974,-159.324 564.051,-145.743"/>
<polygon fill="#a40000" stroke="#a40000" points="570.321,-141.28 566.168,-148.379 567.556,-143.862 564.501,-146.037 564.211,-145.63 563.921,-145.222 566.976,-143.048 562.253,-142.88 570.321,-141.28 570.321,-141.28"/>
<text text-anchor="middle" x="555.5" y="-162.8" font-family="FreeSans" font-size="8.00" fill="#a40000">FATHER</text>
</g>
<!-- N7 -->
<g id="node9" class="node"><title>N7</title>
<polygon fill="#ffffff" stroke="#ffffff" stroke-width="1.5" points="866,-6 902,-6 914,-18 914,-30 902,-42 866,-42 854,-30 854,-18 866,-6"/>
<path fill="#ffffff" stroke="#ffffff" stroke-width="1.5" d="M902,-6C908,-6 914,-12 914,-18"/>
<path fill="#ffffff" stroke="#ffffff" stroke-width="1.5" d="M914,-30C914,-36 908,-42 902,-42"/>
<path fill="#ffffff" stroke="#ffffff" stroke-width="1.5" d="M866,-42C860,-42 854,-36 854,-30"/>
<path fill="#ffffff" stroke="#ffffff" stroke-width="1.5" d="M854,-18C854,-12 860,-6 866,-6"/>
<polyline fill="none" stroke="#2e3436" stroke-width="1.5" points="866,-6 902,-6 "/>
<path fill="none" stroke="#2e3436" stroke-width="1.5" d="M902,-6C908,-6 914,-12 914,-18"/>
<polyline fill="none" stroke="#2e3436" stroke-width="1.5" points="914,-18 914,-30 "/>
<path fill="none" stroke="#2e3436" stroke-width="1.5" d="M914,-30C914,-36 908,-42 902,-42"/>
<polyline fill="none" stroke="#2e3436" stroke-width="1.5" points="902,-42 866,-42 "/>
<path fill="none" stroke="#2e3436" stroke-width="1.5" d="M866,-42C860,-42 854,-36 854,-30"/>
<polyline fill="none" stroke="#2e3436" stroke-width="1.5" points="854,-30 854,-18 "/>
<path fill="none" stroke="#2e3436" stroke-width="1.5" d="M854,-18C854,-12 860,-6 866,-6"/>
<text text-anchor="middle" x="884" y="-30.8" font-family="FreeSans" font-size="8.00" fill="#1c2021">Unblocked</text>
<polyline fill="none" stroke="#2e3436" stroke-width="1.5" points="854,-24 914,-24 "/>
<text text-anchor="middle" x="884" y="-12.8" font-family="FreeSans" font-size="8.00" fill="#1c2021"> </text>
</g>
<!-- N1&#45;&gt;N7 -->
<g id="edge8" class="edge"><title>N1&#45;&gt;N7</title>
<path fill="none" stroke="#204a87" stroke-width="2" d="M537.023,-202.485C650.819,-193.179 891.554,-170.342 916,-142 938.75,-115.625 919.187,-74.5798 902.208,-48.5079"/>
<polygon fill="#204a87" stroke="#204a87" points="897.975,-42.2201 904.963,-46.5564 900.484,-45.0514 902.578,-48.1621 902.163,-48.4413 901.749,-48.7206 899.654,-45.61 899.364,-50.3263 897.975,-42.2201 897.975,-42.2201"/>
<text text-anchor="middle" x="959.5" y="-125.8" font-family="FreeSans" font-size="8.00" fill="#204a87">X</text>
<text text-anchor="start" x="926" y="-115.8" font-family="FreeSans" font-size="8.00" fill="#204a87">blocked = false</text>
</g>
<!-- N8 -->
<g id="node11" class="node"><title>N8</title>
<polygon fill="#ffffff" stroke="#ffffff" stroke-width="1.5" points="465,-6 495,-6 507,-18 507,-30 495,-42 465,-42 453,-30 453,-18 465,-6"/>
<path fill="#ffffff" stroke="#ffffff" stroke-width="1.5" d="M495,-6C501,-6 507,-12 507,-18"/>
<path fill="#ffffff" stroke="#ffffff" stroke-width="1.5" d="M507,-30C507,-36 501,-42 495,-42"/>
<path fill="#ffffff" stroke="#ffffff" stroke-width="1.5" d="M465,-42C459,-42 453,-36 453,-30"/>
<path fill="#ffffff" stroke="#ffffff" stroke-width="1.5" d="M453,-18C453,-12 459,-6 465,-6"/>
<polyline fill="none" stroke="#2e3436" stroke-width="1.5" points="465,-6 495,-6 "/>
<path fill="none" stroke="#2e3436" stroke-width="1.5" d="M495,-6C501,-6 507,-12 507,-18"/>
<polyline fill="none" stroke="#2e3436" stroke-width="1.5" points="507,-18 507,-30 "/>
<path fill="none" stroke="#2e3436" stroke-width="1.5" d="M507,-30C507,-36 501,-42 495,-42"/>
<polyline fill="none" stroke="#2e3436" stroke-width="1.5" points="495,-42 465,-42 "/>
<path fill="none" stroke="#2e3436" stroke-width="1.5" d="M465,-42C459,-42 453,-36 453,-30"/>
<polyline fill="none" stroke="#2e3436" stroke-width="1.5" points="453,-30 453,-18 "/>
<path fill="none" stroke="#2e3436" stroke-width="1.5" d="M453,-18C453,-12 459,-6 465,-6"/>
<text text-anchor="middle" x="480" y="-30.8" font-family="FreeSans" font-size="8.00" fill="#1c2021">Blocked</text>
<polyline fill="none" stroke="#2e3436" stroke-width="1.5" points="453,-24 507,-24 "/>
<text text-anchor="middle" x="480" y="-12.8" font-family="FreeSans" font-size="8.00" fill="#1c2021"> </text>
</g>
<!-- N1&#45;&gt;N8 -->
<g id="edge10" class="edge"><title>N1&#45;&gt;N8</title>
<path fill="none" stroke="#204a87" stroke-width="2" d="M459.233,-188.752C433.521,-161.441 393.007,-108.591 416,-66 422.544,-53.8777 434.282,-44.6863 445.934,-38.0398"/>
<polygon fill="#204a87" stroke="#204a87" points="452.745,-34.4176 447.708,-40.9191 449.669,-36.6199 446.358,-38.3808 446.123,-37.9393 445.888,-37.4979 449.199,-35.737 444.538,-34.9595 452.745,-34.4176 452.745,-34.4176"/>
<text text-anchor="middle" x="454.5" y="-125.8" font-family="FreeSans" font-size="8.00" fill="#204a87">X</text>
<text text-anchor="start" x="423" y="-115.8" font-family="FreeSans" font-size="8.00" fill="#204a87">blocked = true</text>
</g>
<!-- N2&#45;&gt;N4 -->
<g id="edge12" class="edge"><title>N2&#45;&gt;N4</title>
<path fill="none" stroke="#4e9a06" stroke-width="2" d="M538.899,-109.435C510.357,-102.57 475.311,-94.0116 444,-86 384.814,-70.8559 317.358,-52.6401 270.688,-39.8856"/>
<polygon fill="#4e9a06" stroke="#4e9a06" points="263.381,-37.8868 271.505,-36.6103 267.13,-38.3939 270.747,-39.3834 270.615,-39.8657 270.483,-40.348 266.866,-39.3585 269.724,-43.1211 263.381,-37.8868 263.381,-37.8868"/>
<text text-anchor="middle" x="464.5" y="-73.8" font-family="FreeSans" font-size="8.00" fill="#4e9a06">ACTED_IN</text>
</g>
<!-- N2&#45;&gt;N7 -->
<g id="edge16" class="edge"><title>N2&#45;&gt;N7</title>
<path fill="none" stroke="#204a87" stroke-width="2" d="M653.067,-109.227C676.044,-103.046 702.595,-95.0905 726,-86 744.528,-78.8038 747.715,-73.7913 766,-66 792.355,-54.7703 822.834,-43.9757 846.214,-36.1424"/>
<polygon fill="#204a87" stroke="#204a87" points="853.541,-33.7063 847.489,-39.2752 850.14,-35.3639 846.582,-36.547 846.424,-36.0726 846.266,-35.5981 849.825,-34.415 845.359,-32.87 853.541,-33.7063 853.541,-33.7063"/>
<text text-anchor="middle" x="799.5" y="-78.8" font-family="FreeSans" font-size="8.00" fill="#204a87">X</text>
<text text-anchor="start" x="766" y="-68.8" font-family="FreeSans" font-size="8.00" fill="#204a87">blocked = false</text>
</g>
<!-- N2&#45;&gt;N8 -->
<g id="edge18" class="edge"><title>N2&#45;&gt;N8</title>
<path fill="none" stroke="#204a87" stroke-width="2" d="M588.739,-104.742C583.161,-92.556 574.468,-76.8393 563,-66 549.158,-52.9169 530.454,-42.9743 514.306,-36.0555"/>
<polygon fill="#204a87" stroke="#204a87" points="507.093,-33.0889 515.313,-32.8203 510.751,-34.0528 514.219,-35.4793 514.029,-35.9417 513.839,-36.4041 510.371,-34.9777 512.745,-39.063 507.093,-33.0889 507.093,-33.0889"/>
<text text-anchor="middle" x="611.5" y="-78.8" font-family="FreeSans" font-size="8.00" fill="#204a87">X</text>
<text text-anchor="start" x="578" y="-68.8" font-family="FreeSans" font-size="8.00" fill="#204a87">blocked = false</text>
</g>
<!-- N3 -->
<g id="node14" class="node"><title>N3</title>
<polygon fill="#ffffff" stroke="#ffffff" stroke-width="1.5" points="632,-1 762,-1 774,-13 774,-35 762,-47 632,-47 620,-35 620,-13 632,-1"/>
<path fill="#ffffff" stroke="#ffffff" stroke-width="1.5" d="M762,-1C768,-1 774,-7 774,-13"/>
<path fill="#ffffff" stroke="#ffffff" stroke-width="1.5" d="M774,-35C774,-41 768,-47 762,-47"/>
<path fill="#ffffff" stroke="#ffffff" stroke-width="1.5" d="M632,-47C626,-47 620,-41 620,-35"/>
<path fill="#ffffff" stroke="#ffffff" stroke-width="1.5" d="M620,-13C620,-7 626,-1 632,-1"/>
<polyline fill="none" stroke="#2e3436" stroke-width="1.5" points="632,-1 762,-1 "/>
<path fill="none" stroke="#2e3436" stroke-width="1.5" d="M762,-1C768,-1 774,-7 774,-13"/>
<polyline fill="none" stroke="#2e3436" stroke-width="1.5" points="774,-13 774,-35 "/>
<path fill="none" stroke="#2e3436" stroke-width="1.5" d="M774,-35C774,-41 768,-47 762,-47"/>
<polyline fill="none" stroke="#2e3436" stroke-width="1.5" points="762,-47 632,-47 "/>
<path fill="none" stroke="#2e3436" stroke-width="1.5" d="M632,-47C626,-47 620,-41 620,-35"/>
<polyline fill="none" stroke="#2e3436" stroke-width="1.5" points="620,-35 620,-13 "/>
<path fill="none" stroke="#2e3436" stroke-width="1.5" d="M620,-13C620,-7 626,-1 632,-1"/>
<text text-anchor="middle" x="697" y="-35.8" font-family="FreeSans" font-size="8.00" fill="#1c2021">Movie</text>
<polyline fill="none" stroke="#2e3436" stroke-width="1.5" points="620,-29 774,-29 "/>
<text text-anchor="start" x="628" y="-17.8" font-family="FreeSans" font-size="8.00" fill="#1c2021">name = &#39;TheAmericanPresident&#39;</text>
<text text-anchor="start" x="628" y="-7.8" font-family="FreeSans" font-size="8.00" fill="#1c2021">title = &#39;The American President&#39;</text>
</g>
<!-- N2&#45;&gt;N3 -->
<g id="edge14" class="edge"><title>N2&#45;&gt;N3</title>
<path fill="none" stroke="#4e9a06" stroke-width="2" d="M638.561,-104.811C647.662,-99.6277 656.716,-93.3513 664,-86 672.871,-77.0473 679.958,-65.2171 685.255,-54.2924"/>
<polygon fill="#4e9a06" stroke="#4e9a06" points="688.479,-47.2834 688.411,-55.5075 687.366,-50.8992 685.799,-54.3061 685.345,-54.0972 684.891,-53.8883 686.458,-50.4814 682.279,-52.6869 688.479,-47.2834 688.479,-47.2834"/>
<text text-anchor="middle" x="698.5" y="-73.8" font-family="FreeSans" font-size="8.00" fill="#4e9a06">ACTED_IN</text>
</g>
<!-- N5 -->
<g id="node17" class="node"><title>N5</title>
<polygon fill="#ffffff" stroke="#ffffff" stroke-width="1.5" points="809,-105 889,-105 901,-117 901,-129 889,-141 809,-141 797,-129 797,-117 809,-105"/>
<path fill="#ffffff" stroke="#ffffff" stroke-width="1.5" d="M889,-105C895,-105 901,-111 901,-117"/>
<path fill="#ffffff" stroke="#ffffff" stroke-width="1.5" d="M901,-129C901,-135 895,-141 889,-141"/>
<path fill="#ffffff" stroke="#ffffff" stroke-width="1.5" d="M809,-141C803,-141 797,-135 797,-129"/>
<path fill="#ffffff" stroke="#ffffff" stroke-width="1.5" d="M797,-117C797,-111 803,-105 809,-105"/>
<polyline fill="none" stroke="#2e3436" stroke-width="1.5" points="809,-105 889,-105 "/>
<path fill="none" stroke="#2e3436" stroke-width="1.5" d="M889,-105C895,-105 901,-111 901,-117"/>
<polyline fill="none" stroke="#2e3436" stroke-width="1.5" points="901,-117 901,-129 "/>
<path fill="none" stroke="#2e3436" stroke-width="1.5" d="M901,-129C901,-135 895,-141 889,-141"/>
<polyline fill="none" stroke="#2e3436" stroke-width="1.5" points="889,-141 809,-141 "/>
<path fill="none" stroke="#2e3436" stroke-width="1.5" d="M809,-141C803,-141 797,-135 797,-129"/>
<polyline fill="none" stroke="#2e3436" stroke-width="1.5" points="797,-129 797,-117 "/>
<path fill="none" stroke="#2e3436" stroke-width="1.5" d="M797,-117C797,-111 803,-105 809,-105"/>
<text text-anchor="middle" x="849" y="-129.8" font-family="FreeSans" font-size="8.00" fill="#1c2021">Person</text>
<polyline fill="none" stroke="#2e3436" stroke-width="1.5" points="797,-123 901,-123 "/>
<text text-anchor="start" x="805" y="-111.8" font-family="FreeSans" font-size="8.00" fill="#1c2021">name = &#39;Rob Reiner&#39;</text>
</g>
<!-- N5&#45;&gt;N3 -->
<g id="edge20" class="edge"><title>N5&#45;&gt;N3</title>
<path fill="none" stroke="#2e3436" stroke-width="2" d="M850.833,-104.986C851.081,-92.596 849.257,-76.5367 840,-66 831.414,-56.2277 807.513,-47.6528 781.652,-40.8422"/>
<polygon fill="#2e3436" stroke="#2e3436" points="774.317,-38.9685 782.419,-37.5548 778.074,-39.4122 781.708,-40.3403 781.584,-40.8248 781.46,-41.3092 777.827,-40.3811 780.748,-44.0948 774.317,-38.9685 774.317,-38.9685"/>
<text text-anchor="middle" x="870" y="-73.8" font-family="FreeSans" font-size="8.00" fill="#2e3436">DIRECTED</text>
</g>
<!-- N6 -->
<g id="node19" class="node"><title>N6</title>
<polygon fill="#ffffff" stroke="#ffffff" stroke-width="1.5" points="249.5,-105 352.5,-105 364.5,-117 364.5,-129 352.5,-141 249.5,-141 237.5,-129 237.5,-117 249.5,-105"/>
<path fill="#ffffff" stroke="#ffffff" stroke-width="1.5" d="M352.5,-105C358.5,-105 364.5,-111 364.5,-117"/>
<path fill="#ffffff" stroke="#ffffff" stroke-width="1.5" d="M364.5,-129C364.5,-135 358.5,-141 352.5,-141"/>
<path fill="#ffffff" stroke="#ffffff" stroke-width="1.5" d="M249.5,-141C243.5,-141 237.5,-135 237.5,-129"/>
<path fill="#ffffff" stroke="#ffffff" stroke-width="1.5" d="M237.5,-117C237.5,-111 243.5,-105 249.5,-105"/>
<polyline fill="none" stroke="#2e3436" stroke-width="1.5" points="249.5,-105 352.5,-105 "/>
<path fill="none" stroke="#2e3436" stroke-width="1.5" d="M352.5,-105C358.5,-105 364.5,-111 364.5,-117"/>
<polyline fill="none" stroke="#2e3436" stroke-width="1.5" points="364.5,-117 364.5,-129 "/>
<path fill="none" stroke="#2e3436" stroke-width="1.5" d="M364.5,-129C364.5,-135 358.5,-141 352.5,-141"/>
<polyline fill="none" stroke="#2e3436" stroke-width="1.5" points="352.5,-141 249.5,-141 "/>
<path fill="none" stroke="#2e3436" stroke-width="1.5" d="M249.5,-141C243.5,-141 237.5,-135 237.5,-129"/>
<polyline fill="none" stroke="#2e3436" stroke-width="1.5" points="237.5,-129 237.5,-117 "/>
<path fill="none" stroke="#2e3436" stroke-width="1.5" d="M237.5,-117C237.5,-111 243.5,-105 249.5,-105"/>
<text text-anchor="middle" x="301" y="-129.8" font-family="FreeSans" font-size="8.00" fill="#1c2021">Person</text>
<polyline fill="none" stroke="#2e3436" stroke-width="1.5" points="237.5,-123 364.5,-123 "/>
<text text-anchor="start" x="245.5" y="-111.8" font-family="FreeSans" font-size="8.00" fill="#1c2021">name = &#39;Michael Douglas&#39;</text>
</g>
<!-- N6&#45;&gt;N4 -->
<g id="edge22" class="edge"><title>N6&#45;&gt;N4</title>
<path fill="none" stroke="#4e9a06" stroke-width="2" d="M284.859,-104.842C272.044,-90.4243 253.872,-69.9805 239.008,-53.2593"/>
<polygon fill="#4e9a06" stroke="#4e9a06" points="233.698,-47.2854 241.203,-50.6487 236.563,-49.756 239.055,-52.5588 238.681,-52.891 238.307,-53.2232 235.816,-50.4204 236.158,-55.1332 233.698,-47.2854 233.698,-47.2854"/>
<text text-anchor="middle" x="288.5" y="-73.8" font-family="FreeSans" font-size="8.00" fill="#4e9a06">ACTED_IN</text>
</g>
<!-- N6&#45;&gt;N3 -->
<g id="edge24" class="edge"><title>N6&#45;&gt;N3</title>
<path fill="none" stroke="#4e9a06" stroke-width="2" d="M364.522,-108.472C371.756,-106.915 379.031,-105.393 386,-104 431.141,-94.9766 445.71,-104.185 488,-86 501.719,-80.1006 501.439,-72.2549 515,-66 545.396,-51.9798 580.87,-42.4375 612.385,-36.0413"/>
<polygon fill="#4e9a06" stroke="#4e9a06" points="619.884,-34.563 613.178,-39.325 616.301,-35.7789 612.622,-36.5043 612.525,-36.0137 612.429,-35.5232 616.108,-34.7978 611.873,-32.7025 619.884,-34.563 619.884,-34.563"/>
<text text-anchor="middle" x="535.5" y="-73.8" font-family="FreeSans" font-size="8.00" fill="#4e9a06">ACTED_IN</text>
</g>
</g>
</svg>
