<?xml version="1.0" encoding="UTF-8" standalone="no"?>
<!DOCTYPE svg PUBLIC "-//W3C//DTD SVG 1.1//EN"
 "http://www.w3.org/Graphics/SVG/1.1/DTD/svg11.dtd">
<!-- Generated by graphviz version 2.26.3 (20100126.1600)
 -->
<!-- Title: g Pages: 1 -->
<svg width="250pt" height="302pt"
 viewBox="0.00 0.00 250.00 302.00" xmlns="http://www.w3.org/2000/svg" xmlns:xlink="http://www.w3.org/1999/xlink">
<g id="graph1" class="graph" transform="scale(1 1) rotate(0) translate(4 298)">
<title>g</title>
<polygon fill="white" stroke="white" points="-4,5 -4,-298 247,-298 247,5 -4,5"/>
<!-- TV Show -->
<g id="node1" class="node"><title>TV Show</title>
<polygon fill="white" stroke="#2e3436" stroke-width="1.5" points="149,-294 93,-294 93,-258 149,-258 149,-294"/>
<text text-anchor="middle" x="121" y="-273.5" font-family="FreeSans" font-size="10.00" fill="#1c2021">TV Show</text>
</g>
<!-- Season -->
<g id="node3" class="node"><title>Season</title>
<polygon fill="white" stroke="#2e3436" stroke-width="1.5" points="148,-208 94,-208 94,-172 148,-172 148,-208"/>
<text text-anchor="middle" x="121" y="-187.5" font-family="FreeSans" font-size="10.00" fill="#1c2021">Season</text>
</g>
<!-- TV Show&#45;&gt;Season -->
<g id="edge2" class="edge"><title>TV Show&#45;&gt;Season</title>
<path fill="none" stroke="#2e3436" d="M121,-257.762C121,-245.562 121,-229.327 121,-215.808"/>
<polygon fill="#2e3436" stroke="#2e3436" points="121,-215.712 124.375,-208.212 121,-211.962 121,-208.212 121,-208.212 121,-208.212 121,-211.962 117.625,-208.212 121,-215.712 121,-215.712"/>
<text text-anchor="middle" x="130" y="-230.5" font-family="FreeSans" font-size="10.00" fill="#1c2021">has</text>
</g>
<!-- Episode -->
<g id="node5" class="node"><title>Episode</title>
<polygon fill="white" stroke="#2e3436" stroke-width="1.5" points="148,-122 94,-122 94,-86 148,-86 148,-122"/>
<text text-anchor="middle" x="121" y="-101.5" font-family="FreeSans" font-size="10.00" fill="#1c2021">Episode</text>
</g>
<!-- Season&#45;&gt;Episode -->
<g id="edge4" class="edge"><title>Season&#45;&gt;Episode</title>
<path fill="none" stroke="#2e3436" d="M121,-171.762C121,-159.562 121,-143.327 121,-129.808"/>
<polygon fill="#2e3436" stroke="#2e3436" points="121,-129.712 124.375,-122.212 121,-125.962 121,-122.212 121,-122.212 121,-122.212 121,-125.962 117.625,-122.212 121,-129.712 121,-129.712"/>
<text text-anchor="middle" x="130" y="-144.5" font-family="FreeSans" font-size="10.00" fill="#1c2021">has</text>
</g>
<!-- Review -->
<g id="node8" class="node"><title>Review</title>
<polygon fill="white" stroke="#2e3436" stroke-width="1.5" points="91,-36 37,-36 37,-1.77636e-14 91,-3.55271e-15 91,-36"/>
<text text-anchor="middle" x="64" y="-15.5" font-family="FreeSans" font-size="10.00" fill="#1c2021">Review</text>
</g>
<!-- Episode&#45;&gt;Review -->
<g id="edge8" class="edge"><title>Episode&#45;&gt;Review</title>
<path fill="none" stroke="#2e3436" d="M108.912,-85.7616C100.599,-73.2195 89.4603,-56.4138 80.3557,-42.677"/>
<polygon fill="#2e3436" stroke="#2e3436" points="80.2143,-42.4637 78.884,-34.3475 78.1426,-39.3379 76.0708,-36.2121 76.0708,-36.2121 76.0708,-36.2121 78.1426,-39.3379 73.2576,-38.0767 80.2143,-42.4637 80.2143,-42.4637"/>
<text text-anchor="middle" x="105" y="-58.5" font-family="FreeSans" font-size="10.00" fill="#1c2021">has</text>
</g>
<!-- Character -->
<g id="node11" class="node"><title>Character</title>
<polygon fill="white" stroke="#2e3436" stroke-width="1.5" points="196,-36 132,-36 132,-1.77636e-14 196,-3.55271e-15 196,-36"/>
<text text-anchor="middle" x="164" y="-15.5" font-family="FreeSans" font-size="10.00" fill="#1c2021">Character</text>
</g>
<!-- Episode&#45;&gt;Character -->
<g id="edge10" class="edge"><title>Episode&#45;&gt;Character</title>
<path fill="none" stroke="#2e3436" d="M125.738,-85.8859C128.633,-76.1486 132.784,-64.102 138,-54 140.039,-50.0503 142.479,-46.0537 145.035,-42.2316"/>
<polygon fill="#2e3436" stroke="#2e3436" points="145.094,-42.1466 152.161,-37.939 147.245,-39.0748 149.396,-36.0031 149.396,-36.0031 149.396,-36.0031 147.245,-39.0748 146.632,-34.0671 145.094,-42.1466 145.094,-42.1466"/>
<text text-anchor="middle" x="158.5" y="-58.5" font-family="FreeSans" font-size="10.00" fill="#1c2021">featured</text>
</g>
<!-- User -->
<g id="node6" class="node"><title>User</title>
<polygon fill="white" stroke="#2e3436" stroke-width="1.5" points="54,-122 2.13163e-14,-122 0,-86 54,-86 54,-122"/>
<text text-anchor="middle" x="27" y="-101.5" font-family="FreeSans" font-size="10.00" fill="#1c2021">User</text>
</g>
<!-- User&#45;&gt;Review -->
<g id="edge6" class="edge"><title>User&#45;&gt;Review</title>
<path fill="none" stroke="#2e3436" d="M22.507,-85.6994C21.0137,-75.9074 20.6794,-63.8681 25,-54 26.9402,-49.5685 29.7249,-45.4406 32.926,-41.6781"/>
<polygon fill="#2e3436" stroke="#2e3436" points="33.0777,-41.5181 40.687,-38.3973 35.6577,-38.7967 38.2377,-36.0753 38.2377,-36.0753 38.2377,-36.0753 35.6577,-38.7967 35.7884,-33.7532 33.0777,-41.5181 33.0777,-41.5181"/>
<text text-anchor="middle" x="38.5" y="-58.5" font-family="FreeSans" font-size="10.00" fill="#1c2021">wrote</text>
</g>
<!-- Actor -->
<g id="node12" class="node"><title>Actor</title>
<polygon fill="white" stroke="#2e3436" stroke-width="1.5" points="242,-122 188,-122 188,-86 242,-86 242,-122"/>
<text text-anchor="middle" x="215" y="-101.5" font-family="FreeSans" font-size="10.00" fill="#1c2021">Actor</text>
</g>
<!-- Actor&#45;&gt;Character -->
<g id="edge12" class="edge"><title>Actor&#45;&gt;Character</title>
<path fill="none" stroke="#2e3436" d="M200.349,-79.2942C193.537,-67.8075 185.456,-54.1799 178.644,-42.6946"/>
<polygon fill="#2e3436" stroke="#2e3436" points="200.359,-79.3106 201.281,-87.4831 202.271,-82.5361 204.184,-85.7616 204.184,-85.7616 204.184,-85.7616 202.271,-82.5361 207.087,-84.0401 200.359,-79.3106 200.359,-79.3106"/>
<polygon fill="#2e3436" stroke="#2e3436" points="178.626,-42.6631 177.703,-34.4906 176.713,-39.4376 174.8,-36.2121 174.8,-36.2121 174.8,-36.2121 176.713,-39.4376 171.897,-37.9336 178.626,-42.6631 178.626,-42.6631"/>
<text text-anchor="middle" x="208" y="-58.5" font-family="FreeSans" font-size="10.00" fill="#1c2021">played</text>
</g>
</g>
</svg>
