<?xml version="1.0" encoding="UTF-8" standalone="no"?>
<!DOCTYPE svg PUBLIC "-//W3C//DTD SVG 1.1//EN"
 "http://www.w3.org/Graphics/SVG/1.1/DTD/svg11.dtd">
<!-- Generated by graphviz version 2.26.3 (20100126.1600)
 -->
<!-- Title: g Pages: 1 -->
<svg width="124pt" height="130pt"
 viewBox="0.00 0.00 124.00 130.00" xmlns="http://www.w3.org/2000/svg" xmlns:xlink="http://www.w3.org/1999/xlink">
<g id="graph1" class="graph" transform="scale(1 1) rotate(0) translate(4 126)">
<title>g</title>
<polygon fill="white" stroke="white" points="-4,5 -4,-126 121,-126 121,5 -4,5"/>
<!-- N10 -->
<g id="node1" class="node"><title>N10</title>
<polygon fill="#ffffff" stroke="#ffffff" stroke-width="1.5" points="12,-1 104,-1 116,-13 116,-25 104,-37 12,-37 0,-25 0,-13 12,-1"/>
<path fill="#ffffff" stroke="#ffffff" stroke-width="1.5" d="M104,-1C110,-1 116,-7 116,-13"/>
<path fill="#ffffff" stroke="#ffffff" stroke-width="1.5" d="M116,-25C116,-31 110,-37 104,-37"/>
<path fill="#ffffff" stroke="#ffffff" stroke-width="1.5" d="M12,-37C6,-37 0,-31 0,-25"/>
<path fill="#ffffff" stroke="#ffffff" stroke-width="1.5" d="M0,-13C0,-7 6,-1 12,-1"/>
<polyline fill="none" stroke="#2e3436" stroke-width="1.5" points="12,-1 104,-1 "/>
<path fill="none" stroke="#2e3436" stroke-width="1.5" d="M104,-1C110,-1 116,-7 116,-13"/>
<polyline fill="none" stroke="#2e3436" stroke-width="1.5" points="116,-13 116,-25 "/>
<path fill="none" stroke="#2e3436" stroke-width="1.5" d="M116,-25C116,-31 110,-37 104,-37"/>
<polyline fill="none" stroke="#2e3436" stroke-width="1.5" points="104,-37 12,-37 "/>
<path fill="none" stroke="#2e3436" stroke-width="1.5" d="M12,-37C6,-37 0,-31 0,-25"/>
<polyline fill="none" stroke="#2e3436" stroke-width="1.5" points="0,-25 0,-13 "/>
<path fill="none" stroke="#2e3436" stroke-width="1.5" d="M0,-13C0,-7 6,-1 12,-1"/>
<text text-anchor="start" x="8" y="-16.8" font-family="FreeSans" font-size="8.00" fill="#1c2021">Node[10]name = &#39;Sara&#39;</text>
</g>
<!-- N11 -->
<g id="node2" class="node"><title>N11</title>
<polygon fill="#ffffff" stroke="#ffffff" stroke-width="1.5" points="15.5,-85 100.5,-85 112.5,-97 112.5,-109 100.5,-121 15.5,-121 3.5,-109 3.5,-97 15.5,-85"/>
<path fill="#ffffff" stroke="#ffffff" stroke-width="1.5" d="M100.5,-85C106.5,-85 112.5,-91 112.5,-97"/>
<path fill="#ffffff" stroke="#ffffff" stroke-width="1.5" d="M112.5,-109C112.5,-115 106.5,-121 100.5,-121"/>
<path fill="#ffffff" stroke="#ffffff" stroke-width="1.5" d="M15.5,-121C9.5,-121 3.5,-115 3.5,-109"/>
<path fill="#ffffff" stroke="#ffffff" stroke-width="1.5" d="M3.5,-97C3.5,-91 9.5,-85 15.5,-85"/>
<polyline fill="none" stroke="#2e3436" stroke-width="1.5" points="15.5,-85 100.5,-85 "/>
<path fill="none" stroke="#2e3436" stroke-width="1.5" d="M100.5,-85C106.5,-85 112.5,-91 112.5,-97"/>
<polyline fill="none" stroke="#2e3436" stroke-width="1.5" points="112.5,-97 112.5,-109 "/>
<path fill="none" stroke="#2e3436" stroke-width="1.5" d="M112.5,-109C112.5,-115 106.5,-121 100.5,-121"/>
<polyline fill="none" stroke="#2e3436" stroke-width="1.5" points="100.5,-121 15.5,-121 "/>
<path fill="none" stroke="#2e3436" stroke-width="1.5" d="M15.5,-121C9.5,-121 3.5,-115 3.5,-109"/>
<polyline fill="none" stroke="#2e3436" stroke-width="1.5" points="3.5,-109 3.5,-97 "/>
<path fill="none" stroke="#2e3436" stroke-width="1.5" d="M3.5,-97C3.5,-91 9.5,-85 15.5,-85"/>
<text text-anchor="start" x="11.5" y="-100.8" font-family="FreeSans" font-size="8.00" fill="#1c2021">Node[11]name = &#39;Joe&#39;</text>
</g>
<!-- N11&#45;&gt;N10 -->
<g id="edge2" class="edge"><title>N11&#45;&gt;N10</title>
<path fill="none" stroke="#2e3436" stroke-width="2" d="M58,-84.7733C58,-73.1053 58,-57.7874 58,-44.8699"/>
<polygon fill="#2e3436" stroke="#2e3436" points="58,-37.1912 61.3751,-44.6911 58.5,-40.9412 58.5001,-44.6912 58.0001,-44.6912 57.5001,-44.6912 57.5,-40.9412 54.6251,-44.6912 58,-37.1912 58,-37.1912"/>
<text text-anchor="middle" x="72" y="-58.8" font-family="FreeSans" font-size="8.00" fill="#2e3436">knows</text>
</g>
</g>
</svg>
