<?xml version="1.0" encoding="UTF-8" standalone="no"?>
<!DOCTYPE svg PUBLIC "-//W3C//DTD SVG 1.1//EN"
 "http://www.w3.org/Graphics/SVG/1.1/DTD/svg11.dtd">
<!-- Generated by graphviz version 2.26.3 (20100126.1600)
 -->
<!-- Title: g Pages: 1 -->
<svg width="138pt" height="140pt"
 viewBox="0.00 0.00 138.00 140.00" xmlns="http://www.w3.org/2000/svg" xmlns:xlink="http://www.w3.org/1999/xlink">
<g id="graph1" class="graph" transform="scale(1 1) rotate(0) translate(4 136)">
<title>g</title>
<polygon fill="white" stroke="white" points="-4,5 -4,-136 135,-136 135,5 -4,5"/>
<!-- N124 -->
<g id="node1" class="node"><title>N124</title>
<polygon fill="#ffffff" stroke="#ffffff" stroke-width="1.5" points="16,-1 114,-1 126,-13 126,-25 114,-37 16,-37 4,-25 4,-13 16,-1"/>
<path fill="#ffffff" stroke="#ffffff" stroke-width="1.5" d="M114,-1C120,-1 126,-7 126,-13"/>
<path fill="#ffffff" stroke="#ffffff" stroke-width="1.5" d="M126,-25C126,-31 120,-37 114,-37"/>
<path fill="#ffffff" stroke="#ffffff" stroke-width="1.5" d="M16,-37C10,-37 4,-31 4,-25"/>
<path fill="#ffffff" stroke="#ffffff" stroke-width="1.5" d="M4,-13C4,-7 10,-1 16,-1"/>
<polyline fill="none" stroke="#2e3436" stroke-width="1.5" points="16,-1 114,-1 "/>
<path fill="none" stroke="#2e3436" stroke-width="1.5" d="M114,-1C120,-1 126,-7 126,-13"/>
<polyline fill="none" stroke="#2e3436" stroke-width="1.5" points="126,-13 126,-25 "/>
<path fill="none" stroke="#2e3436" stroke-width="1.5" d="M126,-25C126,-31 120,-37 114,-37"/>
<polyline fill="none" stroke="#2e3436" stroke-width="1.5" points="114,-37 16,-37 "/>
<path fill="none" stroke="#2e3436" stroke-width="1.5" d="M16,-37C10,-37 4,-31 4,-25"/>
<polyline fill="none" stroke="#2e3436" stroke-width="1.5" points="4,-25 4,-13 "/>
<path fill="none" stroke="#2e3436" stroke-width="1.5" d="M4,-13C4,-7 10,-1 16,-1"/>
<text text-anchor="start" x="12" y="-16.8" font-family="FreeSans" font-size="8.00" fill="#1c2021">Node[124]name = &#39;Juliet&#39;</text>
</g>
<!-- N125 -->
<g id="node2" class="node"><title>N125</title>
<polygon fill="#ffffff" stroke="#ffffff" stroke-width="1.5" points="11.5,-95 118.5,-95 130.5,-107 130.5,-119 118.5,-131 11.5,-131 -0.5,-119 -0.5,-107 11.5,-95"/>
<path fill="#ffffff" stroke="#ffffff" stroke-width="1.5" d="M118.5,-95C124.5,-95 130.5,-101 130.5,-107"/>
<path fill="#ffffff" stroke="#ffffff" stroke-width="1.5" d="M130.5,-119C130.5,-125 124.5,-131 118.5,-131"/>
<path fill="#ffffff" stroke="#ffffff" stroke-width="1.5" d="M11.5,-131C5.5,-131 -0.5,-125 -0.5,-119"/>
<path fill="#ffffff" stroke="#ffffff" stroke-width="1.5" d="M-0.5,-107C-0.5,-101 5.5,-95 11.5,-95"/>
<polyline fill="none" stroke="#2e3436" stroke-width="1.5" points="11.5,-95 118.5,-95 "/>
<path fill="none" stroke="#2e3436" stroke-width="1.5" d="M118.5,-95C124.5,-95 130.5,-101 130.5,-107"/>
<polyline fill="none" stroke="#2e3436" stroke-width="1.5" points="130.5,-107 130.5,-119 "/>
<path fill="none" stroke="#2e3436" stroke-width="1.5" d="M130.5,-119C130.5,-125 124.5,-131 118.5,-131"/>
<polyline fill="none" stroke="#2e3436" stroke-width="1.5" points="118.5,-131 11.5,-131 "/>
<path fill="none" stroke="#2e3436" stroke-width="1.5" d="M11.5,-131C5.5,-131 -0.5,-125 -0.5,-119"/>
<polyline fill="none" stroke="#2e3436" stroke-width="1.5" points="-0.5,-119 -0.5,-107 "/>
<path fill="none" stroke="#2e3436" stroke-width="1.5" d="M-0.5,-107C-0.5,-101 5.5,-95 11.5,-95"/>
<text text-anchor="start" x="7.5" y="-110.8" font-family="FreeSans" font-size="8.00" fill="#1c2021">Node[125]name = &#39;Romeo&#39;</text>
</g>
<!-- N125&#45;&gt;N124 -->
<g id="edge2" class="edge"><title>N125&#45;&gt;N124</title>
<path fill="none" stroke="#2e3436" stroke-width="2" d="M65,-94.8759C65,-80.7014 65,-60.806 65,-44.944"/>
<polygon fill="#2e3436" stroke="#2e3436" points="65,-37.0685 68.3751,-44.5685 65.5,-40.8185 65.5001,-44.5685 65.0001,-44.5685 64.5001,-44.5685 64.5,-40.8185 61.6251,-44.5685 65,-37.0685 65,-37.0685"/>
<text text-anchor="middle" x="92" y="-68.8" font-family="FreeSans" font-size="8.00" fill="#2e3436">LOVES</text>
<text text-anchor="start" x="65" y="-58.8" font-family="FreeSans" font-size="8.00" fill="#2e3436">cost = &#39;high&#39;</text>
</g>
</g>
</svg>
