<?xml version="1.0" encoding="UTF-8" standalone="no"?>
<!DOCTYPE svg PUBLIC "-//W3C//DTD SVG 1.1//EN"
 "http://www.w3.org/Graphics/SVG/1.1/DTD/svg11.dtd">
<!-- Generated by graphviz version 2.26.3 (20100126.1600)
 -->
<!-- Title: g Pages: 1 -->
<svg width="245pt" height="410pt"
 viewBox="0.00 0.00 245.00 410.00" xmlns="http://www.w3.org/2000/svg" xmlns:xlink="http://www.w3.org/1999/xlink">
<g id="graph1" class="graph" transform="scale(1 1) rotate(0) translate(4 406)">
<title>g</title>
<polygon fill="white" stroke="white" points="-4,5 -4,-406 242,-406 242,5 -4,5"/>
<!-- N0 -->
<g id="node1" class="node"><title>N0</title>
<polygon fill="#ffffff" stroke="#ffffff" stroke-width="1.5" points="111,-281 197,-281 209,-293 209,-305 197,-317 111,-317 99,-305 99,-293 111,-281"/>
<path fill="#ffffff" stroke="#ffffff" stroke-width="1.5" d="M197,-281C203,-281 209,-287 209,-293"/>
<path fill="#ffffff" stroke="#ffffff" stroke-width="1.5" d="M209,-305C209,-311 203,-317 197,-317"/>
<path fill="#ffffff" stroke="#ffffff" stroke-width="1.5" d="M111,-317C105,-317 99,-311 99,-305"/>
<path fill="#ffffff" stroke="#ffffff" stroke-width="1.5" d="M99,-293C99,-287 105,-281 111,-281"/>
<polyline fill="none" stroke="#2e3436" stroke-width="1.5" points="111,-281 197,-281 "/>
<path fill="none" stroke="#2e3436" stroke-width="1.5" d="M197,-281C203,-281 209,-287 209,-293"/>
<polyline fill="none" stroke="#2e3436" stroke-width="1.5" points="209,-293 209,-305 "/>
<path fill="none" stroke="#2e3436" stroke-width="1.5" d="M209,-305C209,-311 203,-317 197,-317"/>
<polyline fill="none" stroke="#2e3436" stroke-width="1.5" points="197,-317 111,-317 "/>
<path fill="none" stroke="#2e3436" stroke-width="1.5" d="M111,-317C105,-317 99,-311 99,-305"/>
<polyline fill="none" stroke="#2e3436" stroke-width="1.5" points="99,-305 99,-293 "/>
<path fill="none" stroke="#2e3436" stroke-width="1.5" d="M99,-293C99,-287 105,-281 111,-281"/>
<text text-anchor="start" x="107" y="-296.8" font-family="FreeSans" font-size="8.00" fill="#1c2021">Node[0]name = &#39;Lars&#39;</text>
</g>
<!-- N5 -->
<g id="node3" class="node"><title>N5</title>
<polygon fill="#ffffff" stroke="#ffffff" stroke-width="1.5" points="112.5,-169 195.5,-169 207.5,-181 207.5,-193 195.5,-205 112.5,-205 100.5,-193 100.5,-181 112.5,-169"/>
<path fill="#ffffff" stroke="#ffffff" stroke-width="1.5" d="M195.5,-169C201.5,-169 207.5,-175 207.5,-181"/>
<path fill="#ffffff" stroke="#ffffff" stroke-width="1.5" d="M207.5,-193C207.5,-199 201.5,-205 195.5,-205"/>
<path fill="#ffffff" stroke="#ffffff" stroke-width="1.5" d="M112.5,-205C106.5,-205 100.5,-199 100.5,-193"/>
<path fill="#ffffff" stroke="#ffffff" stroke-width="1.5" d="M100.5,-181C100.5,-175 106.5,-169 112.5,-169"/>
<polyline fill="none" stroke="#2e3436" stroke-width="1.5" points="112.5,-169 195.5,-169 "/>
<path fill="none" stroke="#2e3436" stroke-width="1.5" d="M195.5,-169C201.5,-169 207.5,-175 207.5,-181"/>
<polyline fill="none" stroke="#2e3436" stroke-width="1.5" points="207.5,-181 207.5,-193 "/>
<path fill="none" stroke="#2e3436" stroke-width="1.5" d="M207.5,-193C207.5,-199 201.5,-205 195.5,-205"/>
<polyline fill="none" stroke="#2e3436" stroke-width="1.5" points="195.5,-205 112.5,-205 "/>
<path fill="none" stroke="#2e3436" stroke-width="1.5" d="M112.5,-205C106.5,-205 100.5,-199 100.5,-193"/>
<polyline fill="none" stroke="#2e3436" stroke-width="1.5" points="100.5,-193 100.5,-181 "/>
<path fill="none" stroke="#2e3436" stroke-width="1.5" d="M100.5,-181C100.5,-175 106.5,-169 112.5,-169"/>
<text text-anchor="start" x="108.5" y="-184.8" font-family="FreeSans" font-size="8.00" fill="#1c2021">Node[5]name = &#39;Dirk&#39;</text>
</g>
<!-- N0&#45;&gt;N5 -->
<g id="edge2" class="edge"><title>N0&#45;&gt;N5</title>
<path fill="none" stroke="#2e3436" stroke-width="2" d="M154,-280.505C154,-261.994 154,-233.364 154,-212.66"/>
<polygon fill="#2e3436" stroke="#2e3436" points="154,-205.15 157.375,-212.65 154.5,-208.9 154.5,-212.65 154,-212.65 153.5,-212.65 153.5,-208.9 150.625,-212.65 154,-205.15 154,-205.15"/>
<text text-anchor="middle" x="169.5" y="-240.8" font-family="FreeSans" font-size="8.00" fill="#2e3436">KNOWS</text>
</g>
<!-- N4 -->
<g id="node11" class="node"><title>N4</title>
<polygon fill="#ffffff" stroke="#ffffff" stroke-width="1.5" points="109.5,-85 198.5,-85 210.5,-97 210.5,-109 198.5,-121 109.5,-121 97.5,-109 97.5,-97 109.5,-85"/>
<path fill="#ffffff" stroke="#ffffff" stroke-width="1.5" d="M198.5,-85C204.5,-85 210.5,-91 210.5,-97"/>
<path fill="#ffffff" stroke="#ffffff" stroke-width="1.5" d="M210.5,-109C210.5,-115 204.5,-121 198.5,-121"/>
<path fill="#ffffff" stroke="#ffffff" stroke-width="1.5" d="M109.5,-121C103.5,-121 97.5,-115 97.5,-109"/>
<path fill="#ffffff" stroke="#ffffff" stroke-width="1.5" d="M97.5,-97C97.5,-91 103.5,-85 109.5,-85"/>
<polyline fill="none" stroke="#2e3436" stroke-width="1.5" points="109.5,-85 198.5,-85 "/>
<path fill="none" stroke="#2e3436" stroke-width="1.5" d="M198.5,-85C204.5,-85 210.5,-91 210.5,-97"/>
<polyline fill="none" stroke="#2e3436" stroke-width="1.5" points="210.5,-97 210.5,-109 "/>
<path fill="none" stroke="#2e3436" stroke-width="1.5" d="M210.5,-109C210.5,-115 204.5,-121 198.5,-121"/>
<polyline fill="none" stroke="#2e3436" stroke-width="1.5" points="198.5,-121 109.5,-121 "/>
<path fill="none" stroke="#2e3436" stroke-width="1.5" d="M109.5,-121C103.5,-121 97.5,-115 97.5,-109"/>
<polyline fill="none" stroke="#2e3436" stroke-width="1.5" points="97.5,-109 97.5,-97 "/>
<path fill="none" stroke="#2e3436" stroke-width="1.5" d="M97.5,-97C97.5,-91 103.5,-85 109.5,-85"/>
<text text-anchor="start" x="105.5" y="-100.8" font-family="FreeSans" font-size="8.00" fill="#1c2021">Node[4]name = &#39;Peter&#39;</text>
</g>
<!-- N5&#45;&gt;N4 -->
<g id="edge12" class="edge"><title>N5&#45;&gt;N4</title>
<path fill="none" stroke="#2e3436" stroke-width="2" d="M154,-168.773C154,-157.105 154,-141.787 154,-128.87"/>
<polygon fill="#2e3436" stroke="#2e3436" points="154,-121.191 157.375,-128.691 154.5,-124.941 154.5,-128.691 154,-128.691 153.5,-128.691 153.5,-124.941 150.625,-128.691 154,-121.191 154,-121.191"/>
<text text-anchor="middle" x="169.5" y="-142.8" font-family="FreeSans" font-size="8.00" fill="#2e3436">KNOWS</text>
</g>
<!-- N1 -->
<g id="node4" class="node"><title>N1</title>
<polygon fill="#ffffff" stroke="#ffffff" stroke-width="1.5" points="47.5,-1 134.5,-1 146.5,-13 146.5,-25 134.5,-37 47.5,-37 35.5,-25 35.5,-13 47.5,-1"/>
<path fill="#ffffff" stroke="#ffffff" stroke-width="1.5" d="M134.5,-1C140.5,-1 146.5,-7 146.5,-13"/>
<path fill="#ffffff" stroke="#ffffff" stroke-width="1.5" d="M146.5,-25C146.5,-31 140.5,-37 134.5,-37"/>
<path fill="#ffffff" stroke="#ffffff" stroke-width="1.5" d="M47.5,-37C41.5,-37 35.5,-31 35.5,-25"/>
<path fill="#ffffff" stroke="#ffffff" stroke-width="1.5" d="M35.5,-13C35.5,-7 41.5,-1 47.5,-1"/>
<polyline fill="none" stroke="#2e3436" stroke-width="1.5" points="47.5,-1 134.5,-1 "/>
<path fill="none" stroke="#2e3436" stroke-width="1.5" d="M134.5,-1C140.5,-1 146.5,-7 146.5,-13"/>
<polyline fill="none" stroke="#2e3436" stroke-width="1.5" points="146.5,-13 146.5,-25 "/>
<path fill="none" stroke="#2e3436" stroke-width="1.5" d="M146.5,-25C146.5,-31 140.5,-37 134.5,-37"/>
<polyline fill="none" stroke="#2e3436" stroke-width="1.5" points="134.5,-37 47.5,-37 "/>
<path fill="none" stroke="#2e3436" stroke-width="1.5" d="M47.5,-37C41.5,-37 35.5,-31 35.5,-25"/>
<polyline fill="none" stroke="#2e3436" stroke-width="1.5" points="35.5,-25 35.5,-13 "/>
<path fill="none" stroke="#2e3436" stroke-width="1.5" d="M35.5,-13C35.5,-7 41.5,-1 47.5,-1"/>
<text text-anchor="start" x="43.5" y="-16.8" font-family="FreeSans" font-size="8.00" fill="#1c2021">Node[1]name = &#39;Sara&#39;</text>
</g>
<!-- N2 -->
<g id="node5" class="node"><title>N2</title>
<polygon fill="#ffffff" stroke="#ffffff" stroke-width="1.5" points="148.5,-365 225.5,-365 237.5,-377 237.5,-389 225.5,-401 148.5,-401 136.5,-389 136.5,-377 148.5,-365"/>
<path fill="#ffffff" stroke="#ffffff" stroke-width="1.5" d="M225.5,-365C231.5,-365 237.5,-371 237.5,-377"/>
<path fill="#ffffff" stroke="#ffffff" stroke-width="1.5" d="M237.5,-389C237.5,-395 231.5,-401 225.5,-401"/>
<path fill="#ffffff" stroke="#ffffff" stroke-width="1.5" d="M148.5,-401C142.5,-401 136.5,-395 136.5,-389"/>
<path fill="#ffffff" stroke="#ffffff" stroke-width="1.5" d="M136.5,-377C136.5,-371 142.5,-365 148.5,-365"/>
<polyline fill="none" stroke="#2e3436" stroke-width="1.5" points="148.5,-365 225.5,-365 "/>
<path fill="none" stroke="#2e3436" stroke-width="1.5" d="M225.5,-365C231.5,-365 237.5,-371 237.5,-377"/>
<polyline fill="none" stroke="#2e3436" stroke-width="1.5" points="237.5,-377 237.5,-389 "/>
<path fill="none" stroke="#2e3436" stroke-width="1.5" d="M237.5,-389C237.5,-395 231.5,-401 225.5,-401"/>
<polyline fill="none" stroke="#2e3436" stroke-width="1.5" points="225.5,-401 148.5,-401 "/>
<path fill="none" stroke="#2e3436" stroke-width="1.5" d="M148.5,-401C142.5,-401 136.5,-395 136.5,-389"/>
<polyline fill="none" stroke="#2e3436" stroke-width="1.5" points="136.5,-389 136.5,-377 "/>
<path fill="none" stroke="#2e3436" stroke-width="1.5" d="M136.5,-377C136.5,-371 142.5,-365 148.5,-365"/>
<text text-anchor="start" x="144.5" y="-380.8" font-family="FreeSans" font-size="8.00" fill="#1c2021">Node[2]name = &#39;Ed&#39;</text>
</g>
<!-- N2&#45;&gt;N0 -->
<g id="edge4" class="edge"><title>N2&#45;&gt;N0</title>
<path fill="none" stroke="#2e3436" stroke-width="2" d="M179.839,-364.773C175.212,-352.995 169.124,-337.498 164.02,-324.505"/>
<polygon fill="#2e3436" stroke="#2e3436" points="161.147,-317.191 167.03,-322.938 162.983,-320.499 164.354,-323.989 163.889,-324.172 163.424,-324.355 162.052,-320.864 160.748,-325.406 161.147,-317.191 161.147,-317.191"/>
<text text-anchor="middle" x="186.5" y="-338.8" font-family="FreeSans" font-size="8.00" fill="#2e3436">KNOWS</text>
</g>
<!-- N3 -->
<g id="node7" class="node"><title>N3</title>
<polygon fill="#ffffff" stroke="#ffffff" stroke-width="1.5" points="12,-365 96,-365 108,-377 108,-389 96,-401 12,-401 0,-389 0,-377 12,-365"/>
<path fill="#ffffff" stroke="#ffffff" stroke-width="1.5" d="M96,-365C102,-365 108,-371 108,-377"/>
<path fill="#ffffff" stroke="#ffffff" stroke-width="1.5" d="M108,-389C108,-395 102,-401 96,-401"/>
<path fill="#ffffff" stroke="#ffffff" stroke-width="1.5" d="M12,-401C6,-401 0,-395 0,-389"/>
<path fill="#ffffff" stroke="#ffffff" stroke-width="1.5" d="M0,-377C0,-371 6,-365 12,-365"/>
<polyline fill="none" stroke="#2e3436" stroke-width="1.5" points="12,-365 96,-365 "/>
<path fill="none" stroke="#2e3436" stroke-width="1.5" d="M96,-365C102,-365 108,-371 108,-377"/>
<polyline fill="none" stroke="#2e3436" stroke-width="1.5" points="108,-377 108,-389 "/>
<path fill="none" stroke="#2e3436" stroke-width="1.5" d="M108,-389C108,-395 102,-401 96,-401"/>
<polyline fill="none" stroke="#2e3436" stroke-width="1.5" points="96,-401 12,-401 "/>
<path fill="none" stroke="#2e3436" stroke-width="1.5" d="M12,-401C6,-401 0,-395 0,-389"/>
<polyline fill="none" stroke="#2e3436" stroke-width="1.5" points="0,-389 0,-377 "/>
<path fill="none" stroke="#2e3436" stroke-width="1.5" d="M0,-377C0,-371 6,-365 12,-365"/>
<text text-anchor="start" x="8" y="-380.8" font-family="FreeSans" font-size="8.00" fill="#1c2021">Node[3]name = &#39;Lisa&#39;</text>
</g>
<!-- N3&#45;&gt;N0 -->
<g id="edge6" class="edge"><title>N3&#45;&gt;N0</title>
<path fill="none" stroke="#2e3436" stroke-width="2" d="M75.6985,-364.773C90.5062,-352.335 110.252,-335.748 126.21,-322.344"/>
<polygon fill="#2e3436" stroke="#2e3436" points="132.344,-317.191 128.772,-324.599 129.794,-319.986 126.923,-322.398 126.601,-322.015 126.279,-321.632 129.151,-319.22 124.43,-319.431 132.344,-317.191 132.344,-317.191"/>
<text text-anchor="middle" x="121.5" y="-338.8" font-family="FreeSans" font-size="8.00" fill="#2e3436">KNOWS</text>
</g>
<!-- N6 -->
<g id="node10" class="node"><title>N6</title>
<polygon fill="#ffffff" stroke="#ffffff" stroke-width="1.5" points="14,-225 94,-225 106,-237 106,-249 94,-261 14,-261 2,-249 2,-237 14,-225"/>
<path fill="#ffffff" stroke="#ffffff" stroke-width="1.5" d="M94,-225C100,-225 106,-231 106,-237"/>
<path fill="#ffffff" stroke="#ffffff" stroke-width="1.5" d="M106,-249C106,-255 100,-261 94,-261"/>
<path fill="#ffffff" stroke="#ffffff" stroke-width="1.5" d="M14,-261C8,-261 2,-255 2,-249"/>
<path fill="#ffffff" stroke="#ffffff" stroke-width="1.5" d="M2,-237C2,-231 8,-225 14,-225"/>
<polyline fill="none" stroke="#2e3436" stroke-width="1.5" points="14,-225 94,-225 "/>
<path fill="none" stroke="#2e3436" stroke-width="1.5" d="M94,-225C100,-225 106,-231 106,-237"/>
<polyline fill="none" stroke="#2e3436" stroke-width="1.5" points="106,-237 106,-249 "/>
<path fill="none" stroke="#2e3436" stroke-width="1.5" d="M106,-249C106,-255 100,-261 94,-261"/>
<polyline fill="none" stroke="#2e3436" stroke-width="1.5" points="94,-261 14,-261 "/>
<path fill="none" stroke="#2e3436" stroke-width="1.5" d="M14,-261C8,-261 2,-255 2,-249"/>
<polyline fill="none" stroke="#2e3436" stroke-width="1.5" points="2,-249 2,-237 "/>
<path fill="none" stroke="#2e3436" stroke-width="1.5" d="M2,-237C2,-231 8,-225 14,-225"/>
<text text-anchor="start" x="10" y="-240.8" font-family="FreeSans" font-size="8.00" fill="#1c2021">Node[6]name = &#39;Joe&#39;</text>
</g>
<!-- N3&#45;&gt;N6 -->
<g id="edge8" class="edge"><title>N3&#45;&gt;N6</title>
<path fill="none" stroke="#4e9a06" stroke-width="2" d="M54,-364.984C54,-340.652 54,-297.122 54,-269.178"/>
<polygon fill="#4e9a06" stroke="#4e9a06" points="54,-261.391 57.3751,-268.891 54.5,-265.141 54.5001,-268.891 54.0001,-268.891 53.5001,-268.891 53.5,-265.141 50.6251,-268.891 54,-261.391 54,-261.391"/>
<text text-anchor="middle" x="66" y="-338.8" font-family="FreeSans" font-size="8.00" fill="#4e9a06">LIKES</text>
</g>
<!-- N6&#45;&gt;N1 -->
<g id="edge14" class="edge"><title>N6&#45;&gt;N1</title>
<path fill="none" stroke="#2e3436" stroke-width="2" d="M57.0279,-224.669C63.6029,-184.863 79.2015,-90.4287 86.7553,-44.6978"/>
<polygon fill="#2e3436" stroke="#2e3436" points="87.9822,-37.27 90.0897,-45.2198 87.8643,-41.0514 87.2531,-44.7512 86.7598,-44.6697 86.2665,-44.5882 86.8777,-40.8884 83.4299,-44.1197 87.9822,-37.27 87.9822,-37.27"/>
<text text-anchor="middle" x="85.5" y="-142.8" font-family="FreeSans" font-size="8.00" fill="#2e3436">KNOWS</text>
</g>
<!-- N4&#45;&gt;N1 -->
<g id="edge10" class="edge"><title>N4&#45;&gt;N1</title>
<path fill="none" stroke="#2e3436" stroke-width="2" d="M140.33,-84.7733C131.249,-72.665 119.22,-56.6261 109.314,-43.4181"/>
<polygon fill="#2e3436" stroke="#2e3436" points="104.643,-37.1912 111.843,-41.1662 107.293,-39.8912 109.543,-42.8912 109.143,-43.1912 108.743,-43.4912 106.493,-40.4912 106.443,-45.2162 104.643,-37.1912 104.643,-37.1912"/>
<text text-anchor="middle" x="139.5" y="-58.8" font-family="FreeSans" font-size="8.00" fill="#2e3436">KNOWS</text>
</g>
</g>
</svg>
